<svg width="651" height="634" viewBox="0 0 651 634" fill="none" xmlns="http://www.w3.org/2000/svg">
<path d="M456.292 390.771C456.292 392.72 454.715 394.297 452.767 394.297C450.818 394.297 449.241 392.72 449.241 390.771C449.241 388.823 450.818 387.246 452.767 387.246C454.715 387.246 456.292 388.823 456.292 390.771Z" fill="#F7D9B5"/>
<path d="M331.323 168.385C331.348 169.454 330.55 170.34 329.538 170.365L320.877 170.554C319.871 170.579 319.036 169.724 319.01 168.656L318.721 155.577C318.696 154.508 319.494 153.622 320.506 153.603L329.167 153.415C330.172 153.389 331.008 154.244 331.033 155.313L331.323 168.385Z" stroke="#FD394B" stroke-width="4.6684" stroke-miterlimit="10"/>
<path d="M139.94 26.9681C139.94 26.9681 146.571 17.7858 145.22 16.2711C143.862 14.7565 128.709 7.15798 124.014 4.17264C119.319 1.19358 124.53 -2.67166 144.038 2.63283C163.553 7.93731 169.316 9.5714 162.906 18.7474C162.906 18.7474 155.533 24.1964 155.829 27.716C155.829 27.716 139.884 24.1022 139.94 26.9681Z" fill="#F7D9B5"/>
<path d="M129.96 7.57251C136.176 10.9727 144.245 15.1898 145.22 16.2709C146.351 17.5341 141.939 24.1019 140.443 26.2639C143.108 24.8372 155.835 27.7157 155.835 27.7157C155.766 26.8673 156.143 25.9057 156.752 24.9315C154.226 20.2555 147.262 11.2932 129.96 7.57251Z" fill="#FF8260"/>
<path d="M37.6528 56.3251C37.6528 56.3251 31.2359 45.0059 20.8909 45.6721C10.5459 46.3383 -4.23626 45.7853 1.14364 39.934C6.52355 34.0827 14.7128 35.4466 24.731 30.1609C34.7555 24.869 40.2422 23.8697 43.1584 36.1505C46.0746 48.4312 57.507 57.2176 57.507 57.2176L37.6528 56.3251Z" fill="#F7D9B5"/>
<path d="M51.2721 51.0895C44.0947 48.2739 32.1659 43.6733 29.8719 43.2711C27.1945 42.7997 7.30273 41.4107 0.917236 43.7613C3.89001 46.005 13.5123 46.1496 20.8908 45.6719C31.2358 45.0057 37.6526 56.3249 37.6526 56.3249L57.5131 57.2111C57.5131 57.2111 54.5591 54.9359 51.2721 51.0895Z" fill="#FF8260"/>
<path d="M299.232 108.986C299.232 108.986 314.492 96.4164 301.909 80.4967C289.327 64.5707 267.059 74.3186 269.51 50.461C271.961 26.6034 252.39 38.6013 255.332 52.0951C258.273 65.5888 246.533 57.9086 247.519 42.6802C248.506 27.4518 237.193 24.0643 233.523 37.6963C233.523 37.6963 232.725 46.3129 234.824 51.8814C236.929 57.4561 228.338 57.6447 225.685 42.1649C223.033 26.6851 206.824 26.3771 198.736 34.491C190.653 42.6048 184.048 73.1685 221.827 92.1741C259.605 111.18 269.988 102.356 274.142 110.866C278.297 119.369 272.81 110.564 272.81 110.564L299.232 108.986Z" fill="#900048"/>
<path d="M272.087 77.5114C266.142 77.6434 265.036 72.7097 265.036 72.7097C252.547 61.0826 255.633 81.1818 247.13 70.4597C238.633 59.7376 237.225 71.0065 235.245 71.3836C233.272 71.7544 226.276 84.4751 217.767 58.2103C211.507 38.8905 200.998 37.7403 195.882 38.4757C189.692 49.9959 188.718 75.5191 221.82 92.1741C259.015 110.891 269.649 102.639 273.935 110.495L291.879 109.426C306.277 91.6965 277.92 77.3857 272.087 77.5114Z" fill="#70013E"/>
<path d="M301.488 106.623C301.488 106.623 287.63 138.004 277.14 126.993C277.14 126.993 269.529 126.829 270.378 135.075C270.378 135.075 258.462 134.346 258.191 122.115C257.921 109.891 266.896 112.003 266.896 112.003C266.896 112.003 270.246 113.914 272.81 110.551C272.81 110.551 276.267 102.211 281.622 105.398C281.622 105.398 282.005 107.704 287.944 107.239C293.89 106.786 294.788 102.469 301.488 106.623Z" fill="#F7D9B5"/>
<path d="M270.377 135.075C269.535 126.829 277.14 126.993 277.14 126.993C277.14 126.993 274.733 122.75 274.613 117.458C274.5 112.173 265.224 126.264 270.377 135.075Z" fill="#FF8260"/>
<path d="M266.896 112.01C266.896 112.01 259.171 106.561 248.676 110.426C238.18 114.291 213.097 116.164 208.043 111.978C208.043 111.978 187.291 115.41 183.639 130.035C179.994 144.66 187.9 143.497 187.9 143.497C187.9 143.497 211.5 149.26 227.257 159.165C227.257 159.165 235.722 168.241 249.021 156.702C249.021 156.702 247.871 164.665 250.523 164.935C250.523 164.935 250.077 159.656 260.95 158.097L268.561 158.593C268.561 158.593 272.137 140.663 269.655 133.114C269.674 133.108 250.926 122.612 266.896 112.01Z" fill="#4B079B"/>
<path d="M212.563 137.011C201.112 130.663 201.482 119.357 202.639 113.38C196.222 115.46 186.097 120.23 183.652 130.041C180.007 144.666 187.913 143.503 187.913 143.503C187.913 143.503 211.513 149.267 227.269 159.172C227.269 159.172 235.61 168.09 248.733 156.959C248.714 145.747 251.026 141.788 251.026 141.788C236.98 150.027 228.627 145.91 212.563 137.011Z" fill="#3E0377"/>
<path d="M269.674 133.108C269.674 133.108 265.985 131.034 263.27 127.803C263.747 134.453 264.137 146.306 261.497 152.132C260.328 154.709 259.09 156.878 258.059 158.675C258.933 158.455 259.882 158.254 260.969 158.097L268.58 158.593C268.574 158.593 272.15 140.656 269.674 133.108Z" fill="#3E0377"/>
<path d="M268.574 158.594L268.807 169.165C268.807 169.165 273.376 166.418 303.053 162.792C303.053 162.792 307.849 155.413 317.125 156.199C326.402 156.985 322.725 170.296 315.177 172.772C315.177 172.772 307.547 171.616 306.906 172.621C306.265 173.627 271.176 186.631 257.915 184.94C257.915 184.94 251.379 188.39 250.172 163.621C250.172 163.628 256.224 152.912 268.574 158.594Z" fill="#F7D9B5"/>
<path d="M261.887 169.982C266.713 179.132 277.8 171.949 288.352 170.723C298.905 169.498 309.489 169.598 310.702 164.614C311.387 161.811 311.745 158.7 312.87 156.438C306.396 157.694 303.059 162.798 303.059 162.798C273.382 166.424 268.813 169.171 268.813 169.171L268.58 158.6C256.224 152.918 250.178 163.634 250.178 163.634C250.203 164.061 250.228 164.463 250.247 164.872C253.138 164.017 258.493 163.552 261.887 169.982Z" fill="#FF8260"/>
<path d="M342.573 170.855C342.604 172.351 341.573 173.583 340.266 173.608L329.047 173.853C327.74 173.878 326.659 172.697 326.628 171.201L326.226 152.943C326.194 151.447 327.225 150.216 328.532 150.184L339.751 149.939C341.052 149.908 342.139 151.096 342.17 152.591L342.573 170.855Z" fill="#FF4057"/>
<path d="M119.565 117.559C100.528 108.722 105.185 95.059 105.185 95.059C105.185 95.059 104.462 93.4501 101.873 90.3579C96.7817 84.2866 84.4569 72.4835 56.0553 55.8033C56.0553 55.8033 35.8493 53.9304 35.2522 56.922C35.2522 56.922 41.0594 63.7537 49.0476 72.9549C64.8794 91.1938 89.3089 118.778 94.1923 121.091C99.434 123.567 138.074 133.535 163.559 139.098C153.547 132.857 133.643 124.102 119.565 117.559Z" fill="#240041"/>
<path d="M105.178 95.0653C105.178 95.0653 104.456 93.4564 101.866 90.3642L101.784 90.8418C101.784 90.8418 99.6915 100.81 78.9952 92.0045C65.8723 86.4235 55.5964 76.8013 49.0349 72.9612C64.8667 91.2001 89.2963 118.785 94.1796 121.097C99.4213 123.574 138.061 133.542 163.546 139.104C153.547 132.857 133.643 124.102 119.558 117.565C100.521 108.722 105.178 95.0653 105.178 95.0653Z" fill="#0B0116"/>
<path d="M101.784 90.8419L101.866 90.3642C96.7751 84.2929 84.4503 72.4899 56.0487 55.8096C56.0487 55.8096 35.8427 53.9367 35.2456 56.9284C35.2456 56.9284 41.0529 63.7601 49.041 72.9612C55.5962 76.8013 65.8784 86.4236 79.0013 92.0046C99.685 100.803 101.784 90.8419 101.784 90.8419Z" fill="#240041"/>
<path d="M171.949 94.261C137.282 96.3476 129.312 94.8644 134.787 88.1332C140.261 81.4021 146.25 83.2498 150.109 48.1233C150.109 48.1233 152.441 33.8565 156.96 28.7972C156.96 28.7972 151.002 21.6826 140.845 25.5981C140.154 25.8621 139.45 26.1763 138.727 26.5534C138.727 26.5534 104.324 85.8267 105.185 95.0655C105.185 95.0655 100.527 108.723 119.564 117.566C133.649 124.102 153.547 132.863 163.553 139.104C173.829 141.348 181.974 142.875 184.922 142.906C184.922 142.906 184.387 127.659 196.505 118.59C199.515 116.334 203.299 114.461 208.081 113.298C208.075 113.304 206.617 92.1744 171.949 94.261Z" fill="#190130"/>
<path d="M171.949 94.261C137.282 96.3476 129.312 94.8644 134.786 88.1332C140.261 81.4021 146.25 83.2498 150.109 48.1233C150.109 48.1233 152.441 33.8565 156.96 28.7972C156.96 28.7972 151.002 21.6826 140.845 25.5981C144.057 91.3637 129.394 75.1297 123.976 92.671C118.42 110.646 139.286 112.5 155.212 115.127C167.512 117.157 187.856 118.219 196.498 118.596C199.509 116.34 203.292 114.467 208.075 113.304C208.075 113.304 206.617 92.1744 171.949 94.261Z" fill="#240041"/>
<path d="M123.977 92.6705C129.4 75.1292 144.057 91.3695 140.845 25.5977C140.154 25.8616 139.45 26.1759 138.727 26.553C138.727 26.553 104.324 85.8262 105.185 95.065C105.185 95.065 100.527 108.722 119.564 117.565C133.649 124.101 153.547 132.863 163.553 139.104C173.829 141.347 181.974 142.875 184.922 142.906C184.922 142.906 184.387 127.659 196.505 118.59C187.863 118.212 167.519 117.15 155.219 115.12C139.287 112.499 118.414 110.639 123.977 92.6705Z" fill="#190130"/>
<path d="M246.734 316.069L228.552 301.526V265.827L246.734 263.188V316.069Z" fill="#4B079B"/>
<path d="M249.047 314.322C249.047 314.925 248.525 315.409 247.89 315.409C247.249 315.409 246.734 314.925 246.734 314.322V263.282C246.734 262.678 247.256 262.194 247.89 262.194C248.531 262.194 249.047 262.678 249.047 263.282V314.322Z" fill="#3E0377"/>
<path d="M223.128 339.48L213.216 317.326L229.463 299.1L247.186 312.48L223.128 339.48Z" fill="#3E0377"/>
<path d="M225.566 340.976C225.29 341.29 224.592 341.121 224.008 340.605C223.423 340.09 223.184 339.411 223.461 339.103L247.13 312.543C247.406 312.229 248.104 312.399 248.688 312.914C249.273 313.429 249.512 314.108 249.235 314.416L225.566 340.976Z" fill="#4B079B"/>
<path d="M166.249 378.541L166.412 387.466C166.412 387.466 198.974 390.771 200.791 383.167C200.791 383.167 168.562 373.255 166.249 378.541Z" fill="#900048"/>
<path d="M200.791 383.167C200.791 383.167 168.562 373.249 166.249 378.541L166.312 381.947C168.939 381.451 176.085 380.571 182.942 383.996C186.838 385.945 190.867 386.799 194.11 387.158C197.692 386.41 200.313 385.172 200.791 383.167Z" fill="#70013E"/>
<path d="M281.113 453.08C281.113 453.08 286.731 467.297 291.194 464.318C295.656 461.345 310.036 445.639 311.852 444.816C313.669 443.986 314.498 436.224 301.935 443.823C289.377 451.427 286.398 443.659 286.398 443.659C286.398 443.659 286.895 451.264 281.113 453.08Z" fill="#900048"/>
<path d="M310.627 440.523C308.967 440.416 306.233 441.221 301.935 443.823C289.377 451.428 286.398 443.659 286.398 443.659C286.398 443.659 286.895 451.264 281.113 453.08C281.113 453.08 281.521 454.105 282.194 455.544C287.492 454.469 302.563 450.629 310.627 440.523Z" fill="#70013E"/>
<path d="M182.282 479.025C182.282 479.025 172.364 489.765 169.222 493.404C166.086 497.043 168.725 499.853 174.344 502.826C179.963 505.798 183.269 523.648 189.717 520.838C189.717 520.838 191.697 521.335 189.88 515.546C188.064 509.764 185.418 501.826 186.078 497.697C186.738 493.568 185.751 493.235 187.894 491.085C190.044 488.936 182.106 478.031 182.106 478.031" fill="#70013E"/>
<path d="M179.636 481.897C176.468 485.341 171.327 490.966 169.222 493.404C166.086 497.043 168.725 499.853 174.344 502.826C179.963 505.798 183.269 523.648 189.717 520.838C189.717 520.838 189.931 520.888 190.151 520.756C182.452 514.679 180.202 490.463 179.636 481.897Z" fill="#900048"/>
<path d="M184.155 286.102C184.155 286.102 177.763 302.632 174.677 303.731C171.591 304.831 172.031 313.429 172.031 313.429C172.031 313.429 163 321.801 151.982 309.023C151.982 309.023 147.796 306.597 149.776 310.343C151.762 314.089 149.116 345.162 124.655 340.53C124.655 340.53 112.538 337.664 115.844 326.206C115.844 326.206 93.5888 329.072 100.194 309.457C100.194 309.457 102.62 299.759 109.012 295.574C109.012 295.574 98.8744 281.03 121.576 271.773C121.576 271.773 148.236 261.855 150.222 285.656C150.216 285.662 167.185 266.933 184.155 286.102Z" fill="#FF8260"/>
<path d="M170.491 292.054C169.391 287.202 161.454 285.662 155.068 293.154C155.068 293.154 148.896 295.8 148.456 288.748L146.69 289.628C146.69 289.628 127.672 264.683 106.775 288.472C106.919 291.941 108.402 294.599 108.867 295.354C111.84 292.733 121.123 285.499 127.521 291.168C127.521 291.168 100.414 298.44 104.82 324.44L104.883 324.918C109.747 326.979 115.837 326.2 115.837 326.2C115.837 326.2 119.143 311.437 134.347 310.117C134.347 310.117 113.883 328.745 124.052 340.354C124.423 340.473 124.655 340.53 124.655 340.53C149.116 345.155 151.762 314.089 149.776 310.343C147.796 306.597 151.982 309.023 151.982 309.023C163 321.807 172.031 313.429 172.031 313.429C172.031 313.429 171.591 304.838 174.677 303.731C176.38 303.122 179.089 297.811 181.176 293.173C177.178 294.235 171.214 295.241 170.491 292.054Z" fill="#FC6B49"/>
<path d="M181.069 289.188C181.069 289.188 198.692 306.817 185.915 314.749C185.915 314.749 184.595 325.767 192.086 327.533C192.086 327.533 190.327 331.278 181.949 325.993C173.577 320.707 167.625 325.113 167.625 325.113C167.625 325.113 174.897 322.247 172.031 313.435C172.031 313.435 165.859 306.824 170.931 303.958C170.931 303.958 175.117 304.838 173.571 300.652C172.031 296.46 176.883 290.288 181.069 289.188Z" fill="#F7D9B5"/>
<path d="M168.857 324.422C168.065 324.786 167.625 325.107 167.625 325.107C167.625 325.107 168.153 324.893 168.857 324.422Z" stroke="#FEFF89" stroke-width="2.3342" stroke-miterlimit="10"/>
<path d="M185.915 314.749C185.915 314.749 181.949 314.749 176.657 313.203C171.371 311.663 179.963 321.355 180.623 321.794C181.088 322.102 184.343 324.359 185.663 327.947C190.855 330.084 192.08 327.526 192.08 327.526C184.595 325.767 185.915 314.749 185.915 314.749Z" fill="#FFB957"/>
<path d="M166.086 381.746C166.086 381.746 167.406 367.863 162.56 357.285C157.714 346.708 152.642 327.539 169.832 323.573C169.832 323.573 175.337 322.027 183.055 326.439C190.767 330.844 192.087 327.532 192.087 327.532C192.087 327.532 202.004 333.93 200.904 340.322C199.798 346.714 198.478 358.391 202.664 372.049C206.856 385.712 199.584 382.18 198.038 382.18C198.038 382.18 185.035 383.06 181.509 380.86C177.983 378.66 166.526 376.234 166.086 381.746Z" fill="#FF4057"/>
<path d="M202.664 372.049C198.478 358.385 199.798 346.708 200.904 340.323C202.01 333.931 192.086 327.533 192.086 327.533C192.086 327.533 191.596 328.733 189.516 328.721C191.986 332.812 195.996 342.353 191.647 356.846C187.876 369.403 179.705 375.33 175.161 378.717C177.725 379.176 180.183 380.037 181.515 380.867C185.041 383.066 198.045 382.187 198.045 382.187C199.578 382.18 206.85 385.712 202.664 372.049Z" fill="#FD394B"/>
<path d="M170.711 330.285C170.711 330.285 181.622 320.204 189.88 338.053L194.343 349.454L180.792 358.046C180.792 358.046 177.813 359.862 171.371 348.128C164.923 336.4 169.882 331.109 170.711 330.285Z" fill="#FF4D6B"/>
<path d="M189.88 338.053C183.08 323.359 174.495 327.589 171.667 329.55C173.841 331.618 183.017 341.485 179.95 358.127C180.516 358.222 180.792 358.058 180.792 358.058L194.343 349.467L189.88 338.053Z" fill="#FD394B"/>
<path d="M192.853 349.455L197.812 354.74C197.812 354.74 199.465 348.462 216.654 331.605C216.654 331.605 218.804 330.286 218.804 325.987C218.804 321.688 220.123 315.409 227.565 315.246C235 315.082 235.829 317.722 232.36 323.837C228.891 329.952 223.926 332.925 222.776 333.095C222.776 333.095 205.586 369.95 201.947 371.603C198.308 373.256 193.186 372.263 181.289 357.223L192.853 349.455Z" fill="#F7D9B5"/>
<path d="M199.138 362.181C204.097 357.883 210.545 339.537 216.491 336.401C222.443 333.258 224.755 323.347 222.273 321.694C221.405 321.116 220.764 320.167 220.35 319.155C219.13 321.267 218.804 323.868 218.804 325.993C218.804 330.292 216.654 331.612 216.654 331.612C199.465 348.468 197.812 354.746 197.812 354.746L192.853 349.461L181.282 357.229C181.622 357.656 181.955 358.077 182.288 358.48C185.305 357.732 190.289 356.418 191.2 355.739C192.526 354.746 194.179 366.48 199.138 362.181Z" fill="#FFB957"/>
<path d="M199.798 382.84C199.798 382.84 236.822 377.988 242.994 383.28C249.16 388.572 277.367 436.168 288.61 442.999C288.61 442.999 290.376 454.017 278.473 453.797C278.473 453.797 238.808 426.916 231.977 415.459C231.977 415.459 230.437 397.39 211.922 397.829C193.412 398.269 194.116 387.164 194.116 387.164L199.798 382.84Z" fill="#2A246C"/>
<path d="M242.988 383.28C236.816 377.988 199.792 382.84 199.792 382.84L194.104 387.158C194.104 387.158 193.406 398.263 211.909 397.823C230.418 397.383 231.964 415.452 231.964 415.452C233.743 418.438 237.753 422.466 242.705 426.79C252.893 430.115 271.924 436.174 284.192 439.222C271.27 425.936 248.462 387.975 242.988 383.28Z" fill="#2A246C"/>
<path d="M198.038 384.606C198.038 384.606 231.537 389.012 235.056 396.503C238.582 403.995 243.428 413.473 224.039 443.659C204.65 473.846 190.766 492.801 190.766 492.801C190.766 492.801 182.395 489.941 181.508 479.578C180.629 469.22 200.458 427.796 206.629 423.164C206.629 423.164 164.979 429.776 161.453 406.415C161.453 406.415 158.807 395.837 166.739 386.586C166.739 386.586 195.172 390.332 198.038 384.606Z" fill="#2A246C"/>
<path d="M235.056 396.503C231.531 389.012 198.038 384.606 198.038 384.606C196.26 388.157 184.657 388.069 176.097 387.484C178.347 393.857 186.719 409.601 214.788 410.827C214.788 410.827 222.499 411.047 215.447 425.59C208.597 439.712 193.029 458.825 192.941 489.784C197.56 483.323 209.181 466.8 224.045 443.659C243.428 413.473 238.582 403.995 235.056 396.503Z" fill="#7FBCF4"/>
<path d="M501.028 125.019C501.028 125.019 530.115 124.799 531.435 143.308C532.755 161.817 523.943 225.503 472.602 220.657C472.602 220.657 452.773 219.997 441.975 208.093C441.975 208.093 492.217 134.497 501.028 125.019Z" fill="#FF8260"/>
<path d="M484.059 202.582C491.777 213.159 520.857 182.753 525.269 154.106C528.726 131.65 506.861 129.507 497.251 129.626C486.988 142.887 463.702 176.487 450.868 195.128C459.925 194.65 478.327 194.719 484.059 202.582Z" fill="#C92D09"/>
<path d="M452 272.112C452 272.112 458.448 283.186 453.156 284.009C447.87 284.839 436.463 285.499 429.192 286.322C421.92 287.146 415.641 283.513 423.246 281.037C430.851 278.56 436.796 275.914 438.619 270.956C438.613 270.949 440.259 274.752 452 272.112Z" fill="#F7D9B5"/>
<path d="M392.997 273.268C392.997 273.268 388.861 284.342 383.909 284.839C378.95 285.335 377.63 278.391 367.216 272.608C356.802 266.826 358.291 255.752 365.89 260.214C373.495 264.677 387.208 264.513 387.208 264.513C387.208 264.513 386.718 269.962 392.997 273.268Z" fill="#F7D9B5"/>
<path d="M455.161 281.986C455.745 278.567 452 272.112 452 272.112C440.266 274.758 438.613 270.956 438.613 270.956C438.204 272.062 437.582 273.048 436.796 273.947C438.562 276.436 443.289 280.71 455.161 281.986Z" fill="#FFB957"/>
<path d="M392.997 273.268C386.718 269.962 387.214 264.507 387.214 264.507C387.214 264.507 385.373 264.526 382.67 264.337C382.538 268.643 382.595 279.484 386.089 283.934C390.018 281.212 392.997 273.268 392.997 273.268Z" fill="#FFB957"/>
<path d="M463.897 174.765C463.897 174.765 460.755 177.241 455.796 177.078C455.796 177.078 418.444 173.112 411.173 190.961C409.702 194.575 407.735 199.728 405.535 205.643C405.812 224.303 404.856 263.684 392.293 273.363C393.059 273.633 393.883 273.884 394.813 274.086C394.813 274.086 426.049 225.333 423.403 219.218C423.403 219.218 414.812 192.941 440.756 190.628C466.7 188.315 469.346 180.214 469.346 180.214C469.346 180.214 473.318 174.105 463.897 174.765Z" fill="#133852"/>
<path d="M405.535 205.643C396.868 228.96 384.569 264.174 384.569 264.174C384.569 264.174 384.185 270.503 392.299 273.369C404.856 263.69 405.818 224.303 405.535 205.643Z" fill="#376F92"/>
<path d="M498.269 173.608C498.269 173.608 509.18 199.722 494.14 203.355C479.1 206.994 439.436 205.668 440.096 208.477C440.756 211.286 445.878 208.64 447.204 237.237C448.524 265.827 453.156 272.439 453.156 272.439C453.156 272.439 437.783 276.738 437.293 273.099C436.797 269.46 421.097 224.177 419.607 219.055C418.118 213.932 404.901 193.77 435.47 185.839C435.47 185.839 468.693 178.404 468.856 175.424C468.856 175.424 486.045 173.941 498.269 173.608Z" fill="#376F92"/>
<path d="M498.269 173.608C493.901 173.728 488.905 173.992 484.285 174.287C486.133 180.082 489.276 194.16 477.12 196.253C461.748 198.899 443.571 193.28 432.497 200.878C421.423 208.483 431.668 224.346 435.967 230.795C440.033 236.897 445.13 262.967 437.4 273.451C438.839 276.442 453.156 272.439 453.156 272.439C453.156 272.439 448.53 265.827 447.204 237.237C445.884 208.647 440.762 211.293 440.096 208.477C439.436 205.668 479.1 206.987 494.14 203.355C509.18 199.722 498.269 173.608 498.269 173.608Z" fill="#133852"/>
<path d="M448.361 138.903C448.361 138.903 445.715 154.106 443.735 157.575C443.735 157.575 434.81 156.582 423.906 162.037L424.566 168.976C424.566 168.976 443.572 170.629 450.843 167.487C450.843 167.487 457.455 169.636 458.448 151.623C458.442 151.63 456.292 132.951 448.361 138.903Z" fill="#F7D9B5"/>
<path d="M448.361 138.903C448.361 138.903 448.179 139.94 447.877 141.536C450.278 143.773 454.074 148.569 453.156 155.929C451.937 165.695 436.91 167.285 424.333 166.563L424.56 168.982C424.56 168.982 443.565 170.635 450.837 167.493C450.837 167.493 457.449 169.642 458.442 151.63C458.442 151.63 456.292 132.951 448.361 138.903Z" fill="#FFB957"/>
<path d="M461.804 89.7608C461.804 89.7608 448.801 73.2315 468.416 64.8599C468.416 64.8599 473.708 62.6539 484.945 66.3997C484.945 66.3997 487.811 52.7363 497.949 53.6162C508.086 54.4961 515.358 72.7852 527.256 67.0597C539.153 61.3278 538.273 84.249 521.084 82.9228C503.894 81.603 526.376 95.4864 535.187 89.9745C543.999 84.4689 547.305 100.992 534.307 103.638C521.31 106.284 529.462 113.996 538.493 109.59C547.531 105.184 554.582 125.893 528.582 126.559C502.581 127.219 501.915 103.864 501.915 99.6785C501.915 95.4927 500.815 81.3893 495.743 82.9291C495.743 82.9291 493.097 99.4585 483.626 100.558C483.619 100.558 473.702 80.5094 461.804 89.7608Z" fill="#270956"/>
<path d="M517.552 103.858C527.689 101.872 518.878 94.1603 514.906 92.8404C510.94 91.5143 497.056 79.6169 509.174 79.397C521.297 79.177 521.511 71.9053 517.765 72.7852C514.019 73.6651 504.982 65.9535 504.982 65.9535C495.284 58.0219 489.558 66.8334 489.558 66.8334C483.613 65.9535 487.579 68.8131 487.579 68.8131C491.984 76.3048 480.967 75.2049 480.967 75.2049C466.914 73.9291 461.54 81.7915 459.648 86.2224C460.717 88.3781 461.798 89.7545 461.798 89.7545C473.695 80.5031 483.613 100.546 483.613 100.546C493.084 99.4459 495.73 82.9165 495.73 82.9165C500.796 81.3767 501.902 95.4801 501.902 99.6659C501.902 103.852 502.562 127.213 528.569 126.547C542.798 126.182 547.122 119.822 546.644 114.85C527.362 124.743 507.967 105.737 517.552 103.858Z" fill="#210649"/>
<path d="M460.924 87.341C460.924 87.341 459.931 111.802 471.169 107.17C471.169 107.17 472.382 111.356 468.416 113.342C468.416 113.342 455.632 132.737 468.636 135.377C481.639 138.023 487.365 113.782 487.365 113.782C487.365 113.782 480.313 110.476 483.839 98.7985C483.839 98.7985 486.045 87.1211 480.533 89.987C480.533 89.987 478.327 91.3068 475.241 87.1211C472.162 82.929 460.704 86.2349 460.924 87.341Z" fill="#F7D9B5"/>
<path d="M476.348 102.984C474.808 105.85 471.169 107.17 471.169 107.17C471.169 107.17 472.382 111.356 468.416 113.342C468.416 113.342 466.776 115.843 465.261 119.168C481.118 112.745 476.348 102.984 476.348 102.984Z" fill="#FFB957"/>
<path d="M446.821 138.897C446.821 138.897 455.412 110.69 468.856 112.456C468.856 112.456 461.584 129.865 469.076 131.845C476.567 133.831 483.839 119.061 486.485 112.676C486.485 112.676 504.774 111.796 506.98 127.659C509.186 143.522 505.88 149.254 505.88 149.254C505.88 149.254 489.571 146.828 489.571 148.154C489.571 148.154 502.355 164.904 501.688 177.241C501.688 177.241 502.128 183.193 488.905 179.221C475.681 175.255 464.224 174.595 458.938 175.915C458.938 175.915 464.224 166.877 463.344 160.712C462.464 154.54 456.292 156.526 454.752 149.474C454.752 149.474 454.092 147.048 455.412 143.082C455.412 143.082 451.227 139.343 446.821 138.897Z" fill="#FF4057"/>
<path d="M452.195 140.813C453.496 141.568 454.507 142.334 455.023 142.762C459.177 136.514 463.067 122.706 463.067 122.706C459.447 122.436 454.086 135.779 452.195 140.813Z" fill="#FD394B"/>
<path d="M487.201 148.821C486.541 153.943 480.59 157.085 476.46 157.085C472.331 157.085 470.018 167.336 470.842 168.492C471.596 169.548 473.588 175.984 459.68 174.564C459.246 175.406 458.944 175.921 458.944 175.921C464.23 174.601 475.687 175.261 488.911 179.227C502.134 183.193 501.694 177.247 501.694 177.247C502.354 164.904 489.577 148.161 489.577 148.161C489.577 147.721 491.393 147.696 493.807 147.859C493.819 147.733 493.832 147.601 493.845 147.469C490.426 146.728 487.465 146.734 487.201 148.821Z" fill="#FD394B"/>
<path d="M493.801 147.852C494.549 147.903 495.359 147.972 496.189 148.053C495.403 147.827 494.612 147.626 493.839 147.463C493.826 147.588 493.807 147.72 493.801 147.852Z" stroke="white" stroke-width="2.3342" stroke-miterlimit="10"/>
<path d="M506.974 127.659C504.768 111.796 486.479 112.676 486.479 112.676C486.46 112.72 486.441 112.77 486.422 112.814C488.968 113.279 493.172 114.888 494.631 120.394C494.631 120.394 500.582 124.693 494.964 142.209C494.964 142.209 494.103 145.043 493.839 147.463C494.612 147.627 495.397 147.828 496.189 148.054C500.708 148.488 505.874 149.254 505.874 149.254C505.874 149.254 509.18 143.522 506.974 127.659Z" fill="#FD394B"/>
<path d="M494.637 120.394C494.637 120.394 489.018 120.89 487.861 142.372L487.698 147.168" stroke="#FD394B" stroke-width="2.3342" stroke-miterlimit="10"/>
<path d="M490.011 147.494L487.698 163.358L487.202 165.174C487.202 165.174 486.378 162.365 456.625 166.167C456.625 166.167 449.021 161.045 446.544 162.861C444.062 164.677 437.783 170.629 437.783 170.629C437.783 170.629 435.307 174.928 449.021 173.602C449.021 173.602 446.708 170.956 450.177 170.956C453.653 170.956 453.816 173.765 458.278 172.772C458.278 172.772 495.63 182.194 498.936 176.902C498.936 176.902 502.405 172.772 503.561 148.808C503.561 148.821 499.929 145.345 490.011 147.494Z" fill="#F7D9B5"/>
<path d="M490.011 147.494L489.69 149.669C492.361 151.177 497.565 155.545 496.453 166.33C494.963 180.71 483.726 173.602 481.576 172.282C479.427 170.962 474.801 169.969 459.925 171.289C459.925 171.289 450.013 166.827 448.191 169.969C446.946 172.112 442.547 173.024 439.882 173.388C441.529 173.853 444.326 174.061 449.014 173.608C449.014 173.608 446.701 170.962 450.171 170.962C453.646 170.962 453.81 173.772 458.272 172.779C458.272 172.779 495.623 182.2 498.929 176.908C498.929 176.908 502.398 172.779 503.555 148.814C503.561 148.82 499.928 145.345 490.011 147.494Z" fill="#FFB957"/>
<path d="M478.107 220.437V274.205" stroke="#C92D09" stroke-width="9.3369" stroke-miterlimit="10"/>
<path d="M491.771 274.205C491.771 274.45 485.555 274.645 477.887 274.645C470.22 274.645 464.004 274.45 464.004 274.205C464.004 273.96 470.22 273.765 477.887 273.765C485.555 273.759 491.771 273.96 491.771 274.205Z" stroke="#FF8260" stroke-width="7.0027" stroke-miterlimit="10"/>
<path d="M473.482 181.376C473.482 183.658 471.634 185.506 469.346 185.506H347.048C344.766 185.506 342.918 183.658 342.918 181.376C342.918 179.095 344.766 177.241 347.048 177.241H469.346C471.634 177.247 473.482 179.095 473.482 181.376Z" fill="#70013E"/>
<path d="M439.436 166.67C439.436 170.321 436.476 173.281 432.824 173.281H386.215C382.564 173.281 379.604 170.321 379.604 166.67L372.992 142.542C372.992 138.89 375.952 135.93 379.604 135.93H426.207C429.858 135.93 432.818 138.89 432.818 142.542L439.436 166.67Z" fill="#376F92"/>
<path d="M371.345 185.839L341.598 274.092" stroke="#70013E" stroke-width="7.0027" stroke-miterlimit="10" stroke-linecap="round"/>
<path d="M440.762 185.839L470.509 274.092" stroke="#70013E" stroke-width="7.0027" stroke-miterlimit="10" stroke-linecap="round"/>
<path opacity="0.2" d="M544.602 11.9221C566.159 40.8014 578.924 76.6255 578.924 115.435C578.924 211.092 501.38 288.635 405.724 288.635C366.914 288.635 331.09 275.871 302.211 254.313C333.793 296.617 384.242 324.007 441.089 324.007C536.746 324.007 614.289 246.463 614.289 150.807C614.289 93.9531 586.9 43.5039 544.602 11.9221Z" fill="#78C1D0"/>
<path d="M432.824 142.542C432.824 138.89 429.864 135.93 426.212 135.93H379.61C378.981 135.93 378.384 136.043 377.806 136.213C390.124 138.871 423.969 148.487 419.173 173.281H432.824C436.476 173.281 439.436 170.321 439.436 166.67L432.824 142.542Z" fill="#133852"/>
<path d="M463.57 174.601C463.57 175.82 462.584 176.807 461.364 176.807H384.236C383.016 176.807 382.036 175.82 382.036 174.601C382.036 173.382 383.023 172.401 384.236 172.401H461.364C462.577 172.395 463.57 173.382 463.57 174.601Z" fill="#133852"/>
<path d="M408.037 156.092C408.037 158.524 406.063 160.498 403.631 160.498C401.199 160.498 399.225 158.524 399.225 156.092C399.225 153.66 401.199 151.686 403.631 151.686C406.063 151.686 408.037 153.66 408.037 156.092Z" fill="#190130"/>
<path d="M347.054 177.247C344.772 177.247 342.925 179.095 342.925 181.383C342.925 183.664 344.772 185.512 347.054 185.512H414.416L354.288 177.247H347.054Z" fill="#900048"/>
<path d="M478.994 530.052C478.994 530.052 483.399 541.729 475.248 545.475C467.096 549.221 460.924 555.173 456.292 554.733C451.667 554.293 456.512 563.991 470.836 559.365C485.159 554.739 500.582 559.805 495.077 545.702C495.077 545.702 492.211 536.45 492.657 532.924C493.091 529.386 478.994 530.052 478.994 530.052Z" fill="#5B14C1"/>
<path d="M495.076 545.695C495.076 545.695 492.21 536.444 492.657 532.918C493.097 529.392 478.993 530.052 478.993 530.052C478.993 530.052 479.307 530.907 479.615 532.208C482.507 534.131 488.056 538.908 485.442 546.129C482.375 554.601 463.702 560.352 456.43 554.733C456.386 554.733 456.342 554.733 456.298 554.733C451.673 554.293 456.518 563.991 470.842 559.365C485.159 554.733 500.582 559.799 495.076 545.695Z" fill="#4E13AA"/>
<path d="M523.943 582.154C523.943 582.154 527.746 592.562 514.686 601.983C501.626 611.404 520.801 610.411 527.413 603.139C534.024 595.868 542.616 590.909 544.106 590.739C545.595 590.576 553.363 583.631 541.629 577.522C541.629 577.522 538.323 576.529 535.677 573.556C533.031 570.583 523.943 582.154 523.943 582.154Z" fill="#5B14C1"/>
<path d="M547.732 586.679C548.562 584.121 547.738 580.715 541.629 577.529C541.629 577.529 538.323 576.536 535.677 573.563C533.031 570.59 523.943 582.154 523.943 582.154C523.943 582.154 524.32 583.185 524.427 584.882C528.745 585.749 539.335 587.578 547.732 586.679Z" fill="#4E13AA"/>
<path d="M473.481 482.01C470.616 472.313 469.516 467.467 485.379 462.395C498.797 458.109 514.264 446.733 518.714 443.326C506.854 443.754 468.12 445.727 459.372 453.357C449.014 462.395 450.554 467.021 458.272 484.87C464.576 499.463 473.236 520.229 476.184 527.331C485.303 514.799 476.065 490.765 473.481 482.01Z" fill="#376F92"/>
<path d="M522.184 443.219C522.184 443.219 520.908 443.244 518.721 443.326C514.271 446.733 498.804 458.108 485.385 462.395C469.516 467.467 470.622 472.312 473.488 482.01C476.071 490.765 485.31 514.798 476.197 527.324C476.857 528.908 477.234 529.819 477.234 529.819C477.234 529.819 485.385 535.991 494.423 533.345C494.423 533.345 490.237 482.004 480.54 477.378C480.54 477.378 501.475 479.138 506.98 477.152C512.486 475.172 529.675 452.251 529.675 452.251C529.675 452.251 519.098 444.759 522.184 443.219Z" fill="#133852"/>
<path d="M525.483 448.511C525.483 448.511 477.447 493.028 482.073 507.351C486.699 521.674 522.617 583.594 522.617 583.594C522.617 583.594 533.855 580.508 537.821 573.456L520.191 519.688C520.191 519.688 519.531 512.197 513.8 508.671C513.8 508.671 546.858 496.773 558.976 472.752C558.976 472.752 565.147 458.429 558.316 452.477C558.322 452.477 540.913 456.217 525.483 448.511Z" fill="#376F92"/>
<path d="M558.322 452.477C558.322 452.477 543.408 455.676 528.952 450.039C532.195 457.624 536.092 472.564 525.043 486.416C509.4 506.025 493.09 500.739 499.482 514.183C505.415 526.664 528.248 553.979 521.592 581.815C522.252 582.959 522.623 583.593 522.623 583.593C522.623 583.593 533.861 580.507 537.827 573.456L520.197 519.688C520.197 519.688 519.537 512.197 513.805 508.671C513.805 508.671 546.864 496.773 558.982 472.752C558.982 472.752 565.153 458.429 558.322 452.477Z" fill="#133852"/>
<path d="M524.936 397.383L518.991 401.349C518.991 401.349 513.208 396.723 486.102 396.554C486.102 396.554 469.239 392.588 471.225 398.207L477.177 407.791C477.177 407.791 485.272 407.295 488.741 403.825C492.211 400.356 514.522 414.07 525.433 411.92C536.337 409.777 524.936 397.383 524.936 397.383Z" fill="#5B14C1"/>
<path d="M524.936 397.383L523.805 398.138C523.962 401.016 523.478 406.327 517.501 404.982C511.034 403.53 482.896 399.665 474.066 402.788L477.177 407.791C477.177 407.791 485.272 407.295 488.742 403.825C492.211 400.356 514.522 414.07 525.433 411.92C536.337 409.777 524.936 397.383 524.936 397.383Z" fill="#F2994A"/>
<path d="M455.274 386.925C455.274 386.925 452.546 380.414 434.917 408.401L454.526 400.469C454.526 400.469 457.612 394.964 458.712 395.404L455.406 387.692" fill="#F7D9B5"/>
<path d="M493.002 417.08L482.142 428.871L453.96 387.818L468.787 381.319L493.002 417.08Z" stroke="#340972" stroke-width="4.6684" stroke-miterlimit="10" stroke-linecap="round"/>
<path d="M493.003 417.08L483.431 427.997L455.274 386.925L468.787 381.319L493.003 417.08Z" fill="#F7D9B5"/>
<path d="M455.412 390.771C455.412 392.23 454.224 393.417 452.766 393.417C451.308 393.417 450.12 392.23 450.12 390.771C450.12 389.313 451.308 388.125 452.766 388.125C454.231 388.125 455.412 389.307 455.412 390.771Z" fill="#133852"/>
<path d="M456.292 387.246C456.292 387.246 454.752 381.52 445.275 385.926L410.902 402.675L441.089 385.266C441.089 385.266 458.36 375.399 468.787 381.325L455.412 387.692" fill="#F7D9B5"/>
<path d="M547.304 340.97C547.304 340.97 544.658 326.426 561.408 322.241C578.157 318.055 591.154 322.681 601.512 307.917C611.869 293.154 618.695 296.46 609.004 318.055C599.306 339.65 617.375 323.121 623.107 309.463C628.839 295.8 627.513 285.889 632.578 286.109C637.65 286.329 636.984 309.91 627.073 324.453C617.155 338.996 624.867 338.776 633.465 325.553C642.056 312.329 639.856 301.752 647.788 302.198C655.72 302.638 650.434 352.88 615.175 362.577C579.917 372.275 565.154 358.392 565.154 358.392L547.304 340.97Z" fill="#201688"/>
<path d="M622.221 348.248C614.509 352.214 590.268 360.805 606.797 343.182C623.327 325.553 609.663 333.264 607.677 334.591C605.691 335.917 576.165 354.2 592.694 330.625C609.223 307.044 590.268 325.999 590.268 325.999C590.268 325.999 585.642 332.391 567.347 331.291C556.304 330.625 550.51 332.957 547.48 335.383C546.858 338.544 547.298 340.982 547.298 340.982L565.147 358.392C565.147 358.392 579.91 372.275 615.169 362.577C642.213 355.142 651.609 323.869 650.949 309.495C649.164 325.547 628.656 344.936 622.221 348.248Z" fill="#100B45"/>
<path d="M547.744 338.11C547.744 338.11 534.081 365.657 549.73 365.431C549.73 365.431 555.016 366.311 547.304 375.348C539.593 384.386 537.167 385.706 537.167 385.706C537.167 385.706 540.033 390.552 549.064 384.386C558.096 378.214 568.673 375.129 572.199 379.761C572.199 379.761 562.061 374.469 567.347 359.705C567.347 359.705 564.487 357.059 565.147 354.86C565.807 352.654 564.047 346.922 560.522 351.994C560.522 351.994 557.436 350.454 557.876 344.942C558.322 339.43 548.404 336.564 547.744 338.11Z" fill="#F7D9B5"/>
<path d="M567.353 359.699C567.353 359.699 564.645 357.191 565.116 355.023C563.746 356.814 561.477 358.806 557.882 359.479C550.83 360.799 560.528 364.545 557.222 372.256C554.96 377.536 548.253 383.952 543.05 387.265C544.652 386.894 546.626 386.045 549.071 384.38C556.738 379.138 565.499 376.147 570.138 378.183C567.485 375.694 563.664 370.006 567.353 359.699Z" fill="#F2994A"/>
<path d="M542.893 379.314C542.893 379.314 520.858 392.978 524.164 405.315C527.469 417.659 529.229 432.202 521.078 442.333C512.926 452.471 560.302 460.842 569.56 452.251C578.817 443.653 572.206 437.488 568.68 439.914C565.154 442.333 554.576 436.608 566.474 420.738C578.377 404.875 579.081 379.71 570.132 378.189C561.182 376.668 558.096 378.428 550.611 382.62C543.119 386.806 541.139 389.232 538.273 385.266C538.267 385.26 536.061 384.38 542.893 379.314Z" fill="#FF8260"/>
<path d="M568.673 439.913C565.147 442.333 554.57 436.608 566.467 420.738C578.371 404.875 579.075 379.71 570.125 378.189C564.839 377.29 561.603 377.548 558.29 378.761C560.214 385.367 564.349 402.48 559.635 414.346C553.69 429.33 536.274 434.622 542.006 444.313C544.866 449.152 546.902 452.892 548.059 455.563C557.291 456.305 566.09 455.462 569.553 452.251C578.811 443.653 572.199 437.487 568.673 439.913Z" fill="#FC6B49"/>
<path d="M543.295 398.904L536.507 411.927C536.507 411.927 532.704 409.281 521.14 409.614C509.57 409.941 497.999 404.819 497.999 404.819C497.999 404.819 486.265 394.901 483.789 394.901C481.306 394.901 469.905 399.86 471.558 403.989C473.211 408.118 479.653 403.989 482.299 408.784C484.945 413.58 492.054 414.73 494.863 413.41C497.672 412.09 519.651 422.335 526.929 424.647C534.2 426.96 541.139 431.259 547.914 421.178L558.158 404.159L543.295 398.904Z" fill="#5B14C1"/>
<path d="M474.066 402.789L499.702 385.266" stroke="#133852" stroke-width="4.6684" stroke-miterlimit="10" stroke-linecap="round"/>
<path d="M556.669 378.214C556.669 378.214 570.389 376.725 565.26 392.594C560.138 408.464 560.635 404.988 560.635 404.988L541.792 398.376C541.792 398.376 547.248 379.038 556.669 378.214Z" fill="#FC8A70"/>
<path d="M556.669 378.214C556.424 378.233 556.179 378.277 555.946 378.321C556.87 383.362 557.888 396.73 543.294 398.904L560.635 404.988C560.635 404.988 560.138 408.457 565.26 392.594C570.383 376.725 556.669 378.214 556.669 378.214Z" fill="#F9745A"/>
<path d="M543.295 398.904L543.043 399.388C544.847 401.167 547.675 405.441 544.935 413.416C541.133 424.49 529.399 422.008 524.44 419.531C519.481 417.055 499.815 408.131 495.686 408.457C491.557 408.791 488.081 408.621 485.769 406.145C483.801 404.039 476.951 401.601 474.33 405.987C476.945 406.396 480.496 405.529 482.293 408.791C484.939 413.586 492.047 414.736 494.857 413.416C497.666 412.096 519.644 422.341 526.922 424.654C534.194 426.967 541.133 431.265 547.908 421.184L558.152 404.165L543.295 398.904Z" fill="#F2994A"/>
<path d="M485.769 406.138C488.081 408.621 491.551 408.784 495.686 408.451C499.815 408.118 519.487 417.043 524.44 419.525C529.399 422.008 541.133 424.484 544.935 413.41C547.675 405.434 544.841 401.161 543.043 399.382L536.507 411.92C536.507 411.92 532.704 409.274 521.14 409.608C509.57 409.934 497.999 404.812 497.999 404.812C497.999 404.812 486.265 394.895 483.789 394.895C481.306 394.895 469.905 399.853 471.558 403.983C472.086 405.302 473.104 405.78 474.336 405.969C476.951 401.594 483.801 404.033 485.769 406.138Z" fill="#F7D9B5"/>
<path d="M598.552 562.331L598.363 562.275L597.641 552.401L604.661 554.544L598.552 562.331Z" fill="#F7D9B5"/>
<path d="M604.838 553.972C604.266 555.858 602.267 556.926 600.375 556.348C598.49 555.77 597.421 553.771 598 551.886L622.316 472.13C622.888 470.244 624.887 469.176 626.772 469.754C628.664 470.326 629.726 472.325 629.148 474.217L604.838 553.972Z" fill="#3E0377"/>
<path d="M626.985 469.836C627.343 470.93 627.513 472.413 626.884 474.147L601.788 556.486C603.171 556.342 604.403 555.393 604.837 553.972L629.147 474.217C629.7 472.4 628.738 470.496 626.985 469.836Z" fill="#2E045E"/>
<path opacity="0.4" d="M598.363 562.275C598.363 562.275 598.313 565.298 603.272 565.298C608.23 565.298 613.516 561.659 617.815 572.237C622.114 582.814 625.087 582.814 635.004 582.487" stroke="#FD394B" stroke-width="2.3342" stroke-miterlimit="10"/>
<path opacity="0.4" d="M541.459 624.131C541.459 624.131 547.411 620.825 549.391 624.791C551.371 628.757 553.03 631.73 558.649 631.07" stroke="#FD394B" stroke-width="2.3342" stroke-miterlimit="10"/>
<path opacity="0.4" d="M321.103 514.836C321.103 514.836 327.055 511.53 329.035 515.496C331.015 519.462 332.674 522.435 338.293 521.775" stroke="#FD394B" stroke-width="2.3342" stroke-miterlimit="10"/>
<path d="M233.844 384.38C233.844 384.38 239.795 381.074 241.775 385.039C243.761 389.005 245.414 391.984 251.033 391.318" stroke="#FD394B" stroke-width="2.3342" stroke-miterlimit="10"/>
<path opacity="0.4" d="M592.587 270.673C592.587 270.673 598.533 267.367 600.519 271.333C602.505 275.298 604.158 278.271 609.776 277.611" stroke="#FD394B" stroke-width="2.3342" stroke-miterlimit="10"/>
<path opacity="0.4" d="M208.282 242.472C208.282 242.472 214.234 239.166 216.214 243.132C218.2 247.098 219.853 250.071 225.472 249.411" stroke="#FD394B" stroke-width="2.3342" stroke-miterlimit="10"/>
<g opacity="0.5">
<g opacity="0.5">
<path opacity="0.5" d="M342.811 48.093C342.811 50.0413 341.234 51.6188 339.286 51.6188C337.337 51.6188 335.76 50.0413 335.76 48.093C335.76 46.1447 337.337 44.5671 339.286 44.5671C341.228 44.5671 342.811 46.1447 342.811 48.093Z" fill="#E7DFEF"/>
<path opacity="0.5" d="M426.546 52.499C426.546 54.4473 424.968 56.0248 423.02 56.0248C421.072 56.0248 419.494 54.4473 419.494 52.499C419.494 50.5507 421.072 48.9731 423.02 48.9731C424.968 48.9731 426.546 50.5507 426.546 52.499Z" fill="#E7DFEF"/>
<path opacity="0.5" d="M365.726 108.026C365.726 109.975 364.149 111.552 362.201 111.552C360.252 111.552 358.675 109.975 358.675 108.026C358.675 106.078 360.252 104.5 362.201 104.5C364.149 104.507 365.726 106.084 365.726 108.026Z" fill="#E7DFEF"/>
<path opacity="0.5" d="M177.983 70.1282C177.983 72.0765 176.405 73.654 174.457 73.654C172.515 73.654 170.931 72.0765 170.931 70.1282C170.931 68.1798 172.509 66.6023 174.457 66.6023C176.405 66.6023 177.983 68.1798 177.983 70.1282Z" fill="#E7DFEF"/>
<path opacity="0.5" d="M596.66 43.6875C596.66 45.6358 595.083 47.2133 593.134 47.2133C591.186 47.2133 589.609 45.6358 589.609 43.6875C589.609 41.7391 591.186 40.1616 593.134 40.1616C595.083 40.1616 596.66 41.7391 596.66 43.6875Z" fill="#E7DFEF"/>
<path opacity="0.5" d="M623.107 131.827C623.107 133.776 621.529 135.353 619.581 135.353C617.633 135.353 616.055 133.776 616.055 131.827C616.055 129.879 617.633 128.302 619.581 128.302C621.529 128.302 623.107 129.879 623.107 131.827Z" fill="#E7DFEF"/>
<path opacity="0.5" d="M613.41 223.499C613.41 225.448 611.832 227.025 609.884 227.025C607.935 227.025 606.358 225.448 606.358 223.499C606.358 221.551 607.935 219.974 609.884 219.974C611.832 219.974 613.41 221.551 613.41 223.499Z" fill="#E7DFEF"/>
<path opacity="0.5" d="M544.658 182.949C544.658 184.898 543.081 186.475 541.133 186.475C539.184 186.475 537.607 184.898 537.607 182.949C537.607 181.001 539.184 179.423 541.133 179.423C543.081 179.423 544.658 181.007 544.658 182.949Z" fill="#E7DFEF"/>
<path opacity="0.5" d="M328.708 237.603C328.708 239.551 327.13 241.129 325.182 241.129C323.234 241.129 321.656 239.551 321.656 237.603C321.656 235.654 323.234 234.077 325.182 234.077C327.124 234.077 328.708 235.654 328.708 237.603Z" fill="#E7DFEF"/>
<path opacity="0.5" d="M258.191 244.655C258.191 246.603 256.614 248.18 254.665 248.18C252.717 248.18 251.14 246.603 251.14 244.655C251.14 242.706 252.717 241.129 254.665 241.129C256.614 241.129 258.191 242.706 258.191 244.655Z" fill="#E7DFEF"/>
<path opacity="0.5" d="M189.44 203.224C189.44 205.173 187.863 206.75 185.915 206.75C183.966 206.75 182.389 205.173 182.389 203.224C182.389 201.276 183.966 199.698 185.915 199.698C187.863 199.698 189.44 201.276 189.44 203.224Z" fill="#E7DFEF"/>
<path opacity="0.5" d="M177.103 260.518C177.103 262.466 175.526 264.044 173.577 264.044C171.629 264.044 170.052 262.466 170.052 260.518C170.052 258.569 171.629 256.992 173.577 256.992C175.519 256.992 177.103 258.569 177.103 260.518Z" fill="#E7DFEF"/>
<path opacity="0.5" d="M215.881 319.571C215.881 321.519 214.303 323.097 212.355 323.097C210.407 323.097 208.829 321.519 208.829 319.571C208.829 317.623 210.407 316.045 212.355 316.045C214.303 316.045 215.881 317.629 215.881 319.571Z" fill="#E7DFEF"/>
<path opacity="0.5" d="M291.684 318.691C291.684 320.639 290.106 322.217 288.158 322.217C286.21 322.217 284.632 320.639 284.632 318.691C284.632 316.743 286.21 315.165 288.158 315.165C290.106 315.165 291.684 316.743 291.684 318.691Z" fill="#E7DFEF"/>
<path opacity="0.5" d="M383.356 355.709C383.356 357.658 381.778 359.235 379.83 359.235C377.882 359.235 376.304 357.658 376.304 355.709C376.304 353.761 377.882 352.184 379.83 352.184C381.778 352.19 383.356 353.767 383.356 355.709Z" fill="#E7DFEF"/>
<path opacity="0.5" d="M497.062 359.235C497.062 361.183 495.485 362.761 493.537 362.761C491.588 362.761 490.011 361.183 490.011 359.235C490.011 357.287 491.588 355.709 493.537 355.709C495.479 355.709 497.062 357.293 497.062 359.235Z" fill="#E7DFEF"/>
<path opacity="0.5" d="M619.581 396.26C619.581 398.208 618.004 399.786 616.055 399.786C614.107 399.786 612.53 398.208 612.53 396.26C612.53 394.311 614.107 392.734 616.055 392.734C618.004 392.734 619.581 394.311 619.581 396.26Z" fill="#E7DFEF"/>
<path opacity="0.5" d="M606.358 476.468C606.358 478.417 604.78 479.994 602.832 479.994C600.884 479.994 599.306 478.417 599.306 476.468C599.306 474.52 600.884 472.942 602.832 472.942C604.78 472.942 606.358 474.52 606.358 476.468Z" fill="#E7DFEF"/>
<path opacity="0.5" d="M559.642 515.246C559.642 517.194 558.064 518.772 556.116 518.772C554.168 518.772 552.59 517.194 552.59 515.246C552.59 513.298 554.168 511.72 556.116 511.72C558.064 511.726 559.642 513.304 559.642 515.246Z" fill="#E7DFEF"/>
<path opacity="0.5" d="M579.037 584.883C579.037 586.832 577.46 588.409 575.511 588.409C573.563 588.409 571.986 586.832 571.986 584.883C571.986 582.935 573.563 581.357 575.511 581.357C577.453 581.357 579.037 582.935 579.037 584.883Z" fill="#E7DFEF"/>
<path opacity="0.5" d="M625.313 629.506C625.313 631.455 623.736 633.032 621.787 633.032C619.839 633.032 618.261 631.455 618.261 629.506C618.261 627.558 619.839 625.98 621.787 625.98C623.729 625.98 625.313 627.558 625.313 629.506Z" fill="#E7DFEF"/>
<path opacity="0.5" d="M498.049 627.193C498.049 629.142 496.472 630.719 494.524 630.719C492.575 630.719 490.998 629.142 490.998 627.193C490.998 625.245 492.575 623.667 494.524 623.667C496.472 623.667 498.049 625.245 498.049 627.193Z" fill="#E7DFEF"/>
<path opacity="0.5" d="M300.501 527.59C300.501 529.538 298.924 531.116 296.976 531.116C295.027 531.116 293.45 529.538 293.45 527.59C293.45 525.641 295.027 524.064 296.976 524.064C298.924 524.064 300.501 525.641 300.501 527.59Z" fill="#E7DFEF"/>
<path opacity="0.5" d="M236.156 487.926C236.156 489.874 234.579 491.451 232.631 491.451C230.682 491.451 229.105 489.874 229.105 487.926C229.105 485.977 230.682 484.4 232.631 484.4C234.579 484.4 236.156 485.977 236.156 487.926Z" fill="#E7DFEF"/>
<path opacity="0.5" d="M232.63 545.219C232.63 547.167 231.053 548.745 229.104 548.745C227.156 548.745 225.579 547.167 225.579 545.219C225.579 543.271 227.156 541.693 229.104 541.693C231.053 541.693 232.63 543.271 232.63 545.219Z" fill="#E7DFEF"/>
<path opacity="0.5" d="M203.544 577.832C203.544 579.78 201.966 581.357 200.018 581.357C198.069 581.357 196.492 579.78 196.492 577.832C196.492 575.883 198.069 574.306 200.018 574.306C201.966 574.306 203.544 575.883 203.544 577.832Z" fill="#E7DFEF"/>
<path opacity="0.5" d="M111.878 412.123C111.878 414.071 110.3 415.649 108.352 415.649C106.403 415.649 104.826 414.071 104.826 412.123C104.826 410.175 106.403 408.597 108.352 408.597C110.294 408.597 111.878 410.175 111.878 412.123Z" fill="#E7DFEF"/>
<path opacity="0.5" d="M155.062 386.562C155.062 388.511 153.484 390.088 151.536 390.088C149.588 390.088 148.01 388.511 148.01 386.562C148.01 384.614 149.588 383.036 151.536 383.036C153.484 383.036 155.062 384.614 155.062 386.562Z" fill="#E7DFEF"/>
<path opacity="0.5" d="M94.2487 363.641C94.2487 365.589 92.6712 367.167 90.7229 367.167C88.7745 367.167 87.197 365.589 87.197 363.641C87.197 361.693 88.7745 360.115 90.7229 360.115C92.6649 360.115 94.2487 361.693 94.2487 363.641Z" fill="#E7DFEF"/>
<path opacity="0.5" d="M458.392 619.256C458.392 621.204 456.814 622.781 454.866 622.781C452.918 622.781 451.34 621.204 451.34 619.256C451.34 617.307 452.918 615.73 454.866 615.73C456.808 615.736 458.392 617.314 458.392 619.256Z" fill="#E7DFEF"/>
<path opacity="0.5" d="M441.529 534.975C441.529 536.923 439.952 538.5 438.003 538.5C436.055 538.5 434.478 536.923 434.478 534.975C434.478 533.026 436.055 531.449 438.003 531.449C439.952 531.449 441.529 533.026 441.529 534.975Z" fill="#E7DFEF"/>
</g>
<path opacity="0.5" d="M410.683 457.073C410.683 459.021 409.105 460.599 407.157 460.599C405.209 460.599 403.631 459.021 403.631 457.073C403.631 455.124 405.209 453.547 407.157 453.547C409.105 453.547 410.683 455.124 410.683 457.073Z" fill="#E7DFEF"/>
<path opacity="0.5" d="M327.822 422.694C327.822 425.127 325.848 427.1 323.416 427.1C320.984 427.1 319.01 425.127 319.01 422.694C319.01 420.262 320.984 418.289 323.416 418.289C325.855 418.289 327.822 420.262 327.822 422.694Z" fill="#E7DFEF"/>
</g>
</svg>
