<svg width="557" height="377" viewBox="0 0 557 377" fill="none" xmlns="http://www.w3.org/2000/svg">
<path d="M0 19H468.5C516.273 19 555 57.7274 555 105.5V105.5C555 153.273 516.273 192 468.5 192H181.5C133.727 192 95 230.727 95 278.5V278.5C95 326.273 133.727 365 181.5 365H437.5" stroke="#376F92" stroke-width="4"/>
<circle cx="12" cy="18" r="10" fill="white" stroke="#376F92" stroke-width="4"/>
<circle cx="226" cy="192" r="10" fill="white" stroke="#376F92" stroke-width="4"/>
<circle cx="448" cy="365" r="10" fill="white" stroke="#376F92" stroke-width="4"/>
<circle cx="450" cy="19" r="10" fill="white" stroke="#376F92" stroke-width="4"/>
<circle cx="224" cy="364" r="10" fill="white" stroke="#376F92" stroke-width="4"/>
<circle cx="450" cy="192" r="10" fill="white" stroke="#376F92" stroke-width="4"/>
<path d="M242.788 21.2123C243.415 21.2123 244.25 21.2808 244.25 20.6297V16.9972C244.25 16.3804 243.415 16.4147 242.788 16.4147H241.047C240.421 16.4147 239.725 15.6608 239.516 15.0439L238.123 11.7884C237.81 11.2401 237.914 10.3491 238.367 9.9379L239.446 8.8413C239.899 8.39581 239.899 7.6419 239.446 7.23067L236.835 4.66053C236.382 4.21503 235.651 4.21503 235.199 4.66053L233.98 5.85993C233.528 6.30542 232.692 6.4425 232.135 6.16835L229.072 5.07175C228.445 4.90041 227.853 4.2493 227.853 3.63247V1.74769C227.853 1.13086 227.505 0 226.878 0H223.188C222.562 0 221.935 1.09659 221.935 1.74769V3.83808C221.935 4.45492 221.482 5.14029 220.891 5.3459L218.28 6.51104C217.723 6.81946 216.922 6.71665 216.469 6.27116L215.216 5.03748C214.763 4.59199 214.032 4.59199 213.58 5.03748L210.969 7.60763C210.516 8.05312 210.516 8.77277 210.969 9.21826L212.292 10.5205C212.744 10.966 212.883 11.7884 212.57 12.3367L211.526 15.1125C211.317 15.695 210.655 16.4832 210.029 16.4832H208.01C207.383 16.4832 207 16.4489 207 17.0658V20.664C207 21.2808 207.383 21.2466 208.01 21.2466H209.994C210.621 21.2466 211.282 22.0347 211.491 22.6173L212.535 25.3588C212.814 25.9071 212.675 26.7981 212.222 27.2436L210.69 28.7857C210.238 29.2311 210.238 29.9851 210.69 30.3963L213.301 32.9664C213.754 33.4119 214.485 33.4119 214.937 32.9664L216.365 31.5614C216.817 31.1159 217.618 31.0131 218.175 31.3215L220.96 32.5895C221.552 32.7951 222.005 33.4805 222.005 34.0973V35.8793C222.005 36.4961 222.631 37.25 223.258 37.25H226.948C227.575 37.25 227.923 36.4961 227.923 35.8793V34.3714C227.923 33.7546 228.515 33.1035 229.141 32.9322L232.344 31.7327C232.901 31.4586 233.771 31.5957 234.224 32.0069L235.617 33.3434C236.069 33.7889 236.8 33.7889 237.253 33.3434L239.864 30.7732C240.316 30.3277 240.316 29.6081 239.864 29.1626L238.576 27.8947C238.123 27.4492 238.019 26.6267 238.297 26.0784L239.655 22.583C239.829 22.0005 240.525 21.2123 241.152 21.2123H242.788Z" fill="#376F92"/>
<path d="M231.787 19.2932C231.787 22.8571 228.863 25.77 225.207 25.77C221.587 25.77 218.628 22.8914 218.628 19.2932C218.628 15.7293 221.552 12.8164 225.207 12.8164C228.863 12.8507 231.787 15.7293 231.787 19.2932Z" fill="white"/>
</svg>
