<svg width="1920" height="866" viewBox="0 0 1920 866" fill="none" xmlns="http://www.w3.org/2000/svg">
<path d="M0 138H1920V866H0V138Z" fill="#E0EFFD"/>
<path d="M836.094 624.503C801.841 670.767 758.562 709.769 711.376 738.457C687.783 752.787 663.196 764.559 638.279 773.361C541.192 807.605 427.95 808.265 347.306 723.054C315.017 688.92 292.373 642.739 278.27 593.34C264.565 545.316 250.043 480.294 269.266 431.885C289.129 381.853 338.456 363.59 373.106 333.774C380.566 327.366 387.915 320.764 395.242 314.136C429.694 282.972 463.682 251.259 505.527 236.131C559.18 216.74 616.452 218.968 670.766 232.776C680.698 235.306 690.563 238.222 700.34 241.495C745.562 256.622 789.614 278.572 825.412 312.568C861.21 346.564 888.224 393.598 893.918 445.307C901.091 510.577 871.561 576.617 836.094 624.503Z" fill="white"/>
<path d="M870.186 352.385C869.551 351.605 868.686 351.036 867.797 350.63C864.86 349.315 861.253 349.547 858.709 351.512C853.376 355.59 855.564 364.442 862.101 365.908C867.772 367.217 874 357.221 870.186 352.385Z" fill="white"/>
<path d="M915.299 371.6C914.865 371.074 914.27 370.682 913.665 370.391C911.656 369.494 909.153 369.659 907.42 370.996C903.762 373.81 905.246 379.904 909.753 380.899C913.667 381.797 917.949 374.943 915.299 371.6Z" fill="white"/>
<path d="M912.253 423.853C910.911 424.089 909.71 424.672 908.697 425.53C907.576 426.191 906.667 427.088 906.006 428.247C905.234 429.335 904.805 430.537 904.681 431.828C904.338 433.137 904.311 434.438 904.673 435.779C904.989 436.625 905.297 437.441 905.612 438.287C906.434 439.842 907.595 441.068 909.078 442.033C909.856 442.397 910.634 442.761 911.383 443.131C913.087 443.668 914.848 443.75 916.599 443.359C917.941 443.124 919.143 442.54 920.156 441.682C921.276 441.022 922.186 440.124 922.847 438.966C923.619 437.877 924.048 436.676 924.172 435.384C924.515 434.076 924.542 432.774 924.186 431.463L923.247 428.955C922.425 427.401 921.265 426.174 919.782 425.209C919.004 424.845 918.225 424.482 917.477 424.111C915.766 423.544 914.011 423.493 912.253 423.853Z" fill="white"/>
<path d="M1077.7 301.948C1075.14 302.519 1073.15 305.089 1073.81 307.426C1074.46 309.792 1076.94 311.338 1079.66 310.732C1082.22 310.161 1084.21 307.591 1083.56 305.254C1082.91 302.917 1080.42 301.342 1077.7 301.948Z" fill="white"/>
<path d="M715.528 186.957C709.664 188.264 705.194 194.69 706.814 200.681C708.441 206.702 714.242 210.808 720.53 209.407C726.395 208.1 730.865 201.674 729.245 195.683C727.618 189.663 721.816 185.556 715.528 186.957Z" fill="white"/>
<path d="M520.822 264.15C519.551 264.433 518.237 264.662 517.091 265.366C516.101 265.938 515.38 266.739 514.904 267.805C514.451 268.834 514.229 270.068 514.54 271.183C515.151 273.511 516.998 275.116 519.348 275.36C520.678 275.48 521.942 275.167 523.243 274.877C524.573 274.58 525.826 273.661 526.562 272.505C527.244 271.393 527.585 269.717 527.227 268.388C526.427 265.494 523.719 263.505 520.822 264.15Z" fill="white"/>
<path d="M586.118 360.256C584.688 360.509 583.434 361.112 582.378 362.026C581.206 362.708 580.256 363.663 579.559 364.885C578.78 366.028 578.32 367.295 578.17 368.654C577.799 370.03 577.81 371.385 578.156 372.795C578.478 373.661 578.807 374.557 579.129 375.423C580.006 377.038 581.204 378.355 582.784 379.361C583.578 379.734 584.409 380.131 585.203 380.503C587.009 381.071 588.835 381.149 590.681 380.738C592.11 380.484 593.365 379.881 594.421 378.967C595.593 378.285 596.543 377.33 597.239 376.108C598.018 374.965 598.479 373.698 598.628 372.339C599 370.963 598.989 369.608 598.642 368.198C598.32 367.332 597.991 366.436 597.669 365.57C596.793 363.955 595.595 362.638 594.014 361.632C593.221 361.259 592.389 360.863 591.596 360.49C589.797 359.953 587.964 359.844 586.118 360.256Z" fill="white"/>
<path d="M855.857 232.628C858.144 226.001 861.243 219.486 866.183 214.497C876.306 204.289 892.534 202.394 906.523 205.753C939.598 213.699 961.173 253.553 945.635 284.911C932.07 312.284 895.014 315.406 872.081 298.005C850.858 281.882 847.674 256.33 855.857 232.628Z" fill="white"/>
<path d="M929.728 288.317C930.558 288.912 931.599 289.797 932.227 288.92L935.729 284.03C936.324 283.2 935.184 282.453 934.353 281.858L932.047 280.206C931.216 279.611 931.02 277.935 931.338 276.907L932.632 271.202C932.745 270.167 933.743 269.066 934.739 268.942L937.227 268.49C938.256 268.32 938.983 267.305 938.779 266.322L937.797 260.383C937.627 259.354 936.658 258.66 935.629 258.83L932.858 259.289C931.829 259.459 930.589 258.85 930.115 257.953L927.113 253.569C926.447 252.743 926.291 251.305 926.886 250.475L928.703 247.937C929.298 247.107 929.927 245.254 929.096 244.659L924.206 241.157C923.375 240.562 921.488 241.444 920.86 242.32L918.844 245.134C918.25 245.965 916.989 246.458 916.006 246.173L911.423 245.264C910.387 245.15 909.425 244.252 909.255 243.223L908.784 240.372C908.613 239.343 907.645 238.649 906.615 238.819L900.677 239.801C899.648 239.972 898.954 240.94 899.124 241.97L899.622 244.978C899.792 246.008 899.183 247.247 898.24 247.688L894.179 250.434C893.341 251.02 891.704 251.453 890.874 250.858L888.198 248.942C887.367 248.347 886.893 247.938 886.298 248.768L882.829 253.612C882.234 254.443 882.775 254.76 883.605 255.355L886.235 257.238C887.065 257.833 887.182 259.522 886.897 260.504L885.638 265.187C885.478 266.189 884.435 267.256 883.405 267.427L879.888 268.049C878.859 268.219 878.132 269.234 878.335 270.217L879.318 276.156C879.488 277.185 880.457 277.879 881.486 277.709L884.732 277.172C885.762 277.001 886.922 277.623 887.363 278.567L889.831 282.917C890.417 283.756 890.356 285.108 889.761 285.938L888.043 288.337C887.448 289.168 887.552 290.778 888.382 291.372L893.273 294.875C894.103 295.469 895.291 294.785 895.886 293.954L897.34 291.924C897.935 291.094 899.347 290.779 900.342 291.143L905.743 292.568C906.746 292.728 907.767 293.738 907.97 294.722L908.527 297.843C908.697 298.872 909.666 299.566 910.696 299.395L916.634 298.413C917.663 298.243 918.357 297.274 918.187 296.245L917.702 293.315C917.532 292.286 918.187 291.08 919.084 290.606L924.254 287.189C925.046 286.57 926.729 286.169 927.559 286.764L929.728 288.317Z" fill="#E0EFFD"/>
<path d="M916.999 275.293C913.563 280.091 906.879 281.237 902.035 277.767C897.237 274.331 896.091 267.647 899.56 262.803C902.996 258.005 909.68 256.859 914.525 260.328C919.336 263.844 920.436 270.494 916.999 275.293Z" fill="white"/>
<path d="M889.477 241.836C889.673 242.416 889.869 243.212 890.482 243.005L893.901 241.853C894.482 241.657 894.188 240.894 893.993 240.313L893.449 238.7C893.253 238.12 893.745 237.235 894.261 236.846L896.89 234.523C897.308 234.059 898.179 233.873 898.708 234.161L900.077 234.813C900.638 235.091 901.347 234.852 901.593 234.302L903.196 231.068C903.474 230.507 903.246 229.83 902.685 229.552L901.176 228.803C900.615 228.525 900.225 227.795 900.309 227.192L900.384 224.005C900.35 223.37 900.778 222.615 901.358 222.42L903.132 221.822C903.713 221.626 904.669 220.944 904.473 220.364L903.32 216.945C903.125 216.364 901.897 216.132 901.284 216.338L899.316 217.002C898.736 217.197 897.949 216.995 897.571 216.512L895.659 214.463C895.194 214.045 895.041 213.27 895.319 212.71L896.089 211.157C896.367 210.596 896.138 209.919 895.577 209.641L892.343 208.037C891.782 207.759 891.105 207.988 890.827 208.549L890.014 210.187C889.736 210.748 889.006 211.138 888.392 211.022L885.453 210.935C884.839 210.926 883.891 210.564 883.695 209.983L883.064 208.112C882.869 207.532 882.781 207.166 882.201 207.362L878.814 208.504C878.233 208.699 878.385 209.043 878.581 209.624L879.201 211.462C879.397 212.043 878.861 212.906 878.378 213.284L876.124 215.122C875.695 215.554 874.813 215.708 874.252 215.43L872.322 214.5C871.762 214.222 871.052 214.461 870.806 215.011L869.203 218.246C868.925 218.806 869.153 219.484 869.714 219.762L871.482 220.638C872.043 220.916 872.39 221.625 872.273 222.239L871.95 225.222C871.941 225.836 871.438 226.472 870.857 226.668L869.18 227.234C868.599 227.429 868.085 228.249 868.281 228.83L869.434 232.249C869.629 232.829 870.448 232.913 871.028 232.717L872.448 232.238C873.028 232.043 873.826 232.384 874.183 232.911L876.312 235.498C876.744 235.927 876.887 236.776 876.641 237.326L875.818 239.041C875.541 239.601 875.769 240.279 876.33 240.557L879.564 242.16C880.125 242.438 880.802 242.21 881.08 241.649L881.871 240.053C882.149 239.493 882.891 239.135 883.494 239.219L887.208 239.368C887.811 239.344 888.77 239.739 888.966 240.32L889.477 241.836Z" fill="#E0EFFD"/>
<path d="M887.847 231.034C884.492 232.165 880.837 230.38 879.695 226.993C878.565 223.639 880.35 219.984 883.736 218.842C887.091 217.711 890.746 219.496 891.888 222.883C892.997 226.28 891.201 229.903 887.847 231.034Z" fill="white"/>
</svg>
