<svg width="81" height="79" viewBox="0 0 81 79" fill="none" xmlns="http://www.w3.org/2000/svg">
<path d="M59.2128 23.7524H23.5559V59.69H59.2128V23.7524Z" fill="white"/>
<path d="M51.3516 31.3331H31.4175V51.548H51.3516V31.3331Z" fill="#78C1D0"/>
<path d="M42.6477 20.3834H39.2786V23.7526H42.6477V20.3834Z" fill="white"/>
<path d="M50.2285 20.3834H46.2979V23.7526H50.2285V20.3834Z" fill="white"/>
<path d="M43.2095 59.6902H39.8403V63.0593H43.2095V59.6902Z" fill="white"/>
<path d="M49.667 59.6902H46.2979V63.0593H49.667V59.6902Z" fill="white"/>
<path d="M62.5818 46.4943H59.2126V49.8634H62.5818V46.4943Z" fill="white"/>
<path d="M62.5818 39.756H59.2126V43.9674H62.5818V39.756Z" fill="white"/>
<path d="M62.5818 33.5791H59.2126V36.3867H62.5818V33.5791Z" fill="white"/>
<path d="M23.5562 46.4943H19.9062V49.8634H23.5562V46.4943Z" fill="white"/>
<path d="M23.5562 39.756H19.9062V43.9674H23.5562V39.756Z" fill="white"/>
<path d="M35.9097 20.3834H32.5405V23.7526H35.9097V20.3834Z" fill="white"/>
<path d="M31.8384 8.5632C31.8384 9.23703 31.2769 9.79856 30.603 9.79856C29.9292 9.79856 29.3677 9.23703 29.3677 8.5632C29.3677 7.88937 29.9292 7.32785 30.603 7.32785C31.3049 7.32785 31.8384 7.88937 31.8384 8.5632Z" fill="white"/>
<path d="M30.6033 10.3601C29.6206 10.3601 28.8064 9.5459 28.8064 8.56324C28.8064 7.58057 29.6206 6.76636 30.6033 6.76636C31.5859 6.76636 32.4002 7.58057 32.4002 8.56324C32.4282 9.5459 31.614 10.3601 30.6033 10.3601ZM30.6033 7.88941C30.2383 7.88941 29.9294 8.19824 29.9294 8.56324C29.9294 8.92823 30.2383 9.23706 30.6033 9.23706C30.9683 9.23706 31.2771 8.92823 31.2771 8.56324C31.2771 8.19824 30.9683 7.88941 30.6033 7.88941Z" fill="#376F92"/>
<path d="M23.5562 33.5791H19.9062V36.3867H23.5562V33.5791Z" fill="white"/>
<path d="M10.3601 30.21C10.3601 30.8838 9.79859 31.4453 9.12476 31.4453C8.45093 31.4453 7.8894 30.8838 7.8894 30.21C7.8894 29.5361 8.45093 28.9746 9.12476 28.9746C9.82667 28.9746 10.3601 29.5361 10.3601 30.21Z" fill="white"/>
<path d="M9.12476 32.007C8.14209 32.007 7.32788 31.1928 7.32788 30.2101C7.32788 29.2274 8.14209 28.4132 9.12476 28.4132C10.1074 28.4132 10.9216 29.2274 10.9216 30.2101C10.9216 31.1928 10.1355 32.007 9.12476 32.007ZM9.12476 29.5363C8.75977 29.5363 8.45093 29.8451 8.45093 30.2101C8.45093 30.5751 8.75977 30.8839 9.12476 30.8839C9.48975 30.8839 9.79859 30.5751 9.79859 30.2101C9.79859 29.8451 9.48975 29.5363 9.12476 29.5363Z" fill="#376F92"/>
<path d="M34.6462 34.1688C34.6462 34.5057 34.3655 34.7865 34.0286 34.7865C33.6917 34.7865 33.4109 34.5057 33.4109 34.1688C33.4109 33.8319 33.6917 33.5511 34.0286 33.5511C34.3655 33.5511 34.6462 33.8319 34.6462 34.1688ZM36.9485 33.5511C36.6116 33.5511 36.3308 33.8319 36.3308 34.1688C36.3308 34.5057 36.6116 34.7865 36.9485 34.7865C37.2854 34.7865 37.5662 34.5057 37.5662 34.1688C37.5662 33.8319 37.2854 33.5511 36.9485 33.5511ZM39.8965 33.5511C39.5596 33.5511 39.2788 33.8319 39.2788 34.1688C39.2788 34.5057 39.5596 34.7865 39.8965 34.7865C40.2334 34.7865 40.5142 34.5057 40.5142 34.1688C40.5142 33.8319 40.2334 33.5511 39.8965 33.5511ZM42.8164 33.5511C42.4795 33.5511 42.1988 33.8319 42.1988 34.1688C42.1988 34.5057 42.4795 34.7865 42.8164 34.7865C43.1534 34.7865 43.4341 34.5057 43.4341 34.1688C43.4622 33.8319 43.1814 33.5511 42.8164 33.5511ZM45.7644 33.5511C45.4275 33.5511 45.1468 33.8319 45.1468 34.1688C45.1468 34.5057 45.4275 34.7865 45.7644 34.7865C46.1014 34.7865 46.3821 34.5057 46.3821 34.1688C46.3821 33.8319 46.1014 33.5511 45.7644 33.5511ZM48.7125 33.5511C48.3755 33.5511 48.0948 33.8319 48.0948 34.1688C48.0948 34.5057 48.3755 34.7865 48.7125 34.7865C49.0494 34.7865 49.3301 34.5057 49.3301 34.1688C49.3301 33.8319 49.0494 33.5511 48.7125 33.5511ZM34.0005 35.9938C33.6636 35.9938 33.3828 36.2745 33.3828 36.6115C33.3828 36.9484 33.6636 37.2291 34.0005 37.2291C34.3374 37.2291 34.6182 36.9484 34.6182 36.6115C34.6182 36.2745 34.3655 35.9938 34.0005 35.9938ZM36.9485 35.9938C36.6116 35.9938 36.3308 36.2745 36.3308 36.6115C36.3308 36.9484 36.6116 37.2291 36.9485 37.2291C37.2854 37.2291 37.5662 36.9484 37.5662 36.6115C37.5662 36.2745 37.2854 35.9938 36.9485 35.9938ZM39.8965 35.9938C39.5596 35.9938 39.2788 36.2745 39.2788 36.6115C39.2788 36.9484 39.5596 37.2291 39.8965 37.2291C40.2334 37.2291 40.5142 36.9484 40.5142 36.6115C40.5142 36.2745 40.2334 35.9938 39.8965 35.9938ZM42.8164 35.9938C42.4795 35.9938 42.1988 36.2745 42.1988 36.6115C42.1988 36.9484 42.4795 37.2291 42.8164 37.2291C43.1534 37.2291 43.4341 36.9484 43.4341 36.6115C43.4341 36.2745 43.1814 35.9938 42.8164 35.9938ZM45.7644 35.9938C45.4275 35.9938 45.1468 36.2745 45.1468 36.6115C45.1468 36.9484 45.4275 37.2291 45.7644 37.2291C46.1014 37.2291 46.3821 36.9484 46.3821 36.6115C46.3821 36.2745 46.1014 35.9938 45.7644 35.9938ZM48.7125 35.9938C48.3755 35.9938 48.0948 36.2745 48.0948 36.6115C48.0948 36.9484 48.3755 37.2291 48.7125 37.2291C49.0494 37.2291 49.3301 36.9484 49.3301 36.6115C49.3301 36.2745 49.0494 35.9938 48.7125 35.9938ZM34.0005 38.4364C33.6636 38.4364 33.3828 38.7172 33.3828 39.0541C33.3828 39.391 33.6636 39.6718 34.0005 39.6718C34.3374 39.6718 34.6182 39.391 34.6182 39.0541C34.6462 38.7172 34.3655 38.4364 34.0005 38.4364ZM36.9485 38.4364C36.6116 38.4364 36.3308 38.7172 36.3308 39.0541C36.3308 39.391 36.6116 39.6718 36.9485 39.6718C37.2854 39.6718 37.5662 39.391 37.5662 39.0541C37.5662 38.7172 37.2854 38.4364 36.9485 38.4364ZM39.8965 38.4364C39.5596 38.4364 39.2788 38.7172 39.2788 39.0541C39.2788 39.391 39.5596 39.6718 39.8965 39.6718C40.2334 39.6718 40.5142 39.391 40.5142 39.0541C40.5142 38.7172 40.2334 38.4364 39.8965 38.4364ZM42.8164 38.4364C42.4795 38.4364 42.1988 38.7172 42.1988 39.0541C42.1988 39.391 42.4795 39.6718 42.8164 39.6718C43.1534 39.6718 43.4341 39.391 43.4341 39.0541C43.4622 38.7172 43.1814 38.4364 42.8164 38.4364ZM45.7644 38.4364C45.4275 38.4364 45.1468 38.7172 45.1468 39.0541C45.1468 39.391 45.4275 39.6718 45.7644 39.6718C46.1014 39.6718 46.3821 39.391 46.3821 39.0541C46.3821 38.7172 46.1014 38.4364 45.7644 38.4364ZM48.7125 38.4364C48.3755 38.4364 48.0948 38.7172 48.0948 39.0541C48.0948 39.391 48.3755 39.6718 48.7125 39.6718C49.0494 39.6718 49.3301 39.391 49.3301 39.0541C49.3301 38.7172 49.0494 38.4364 48.7125 38.4364ZM34.0005 40.9071C33.6636 40.9071 33.3828 41.1879 33.3828 41.5248C33.3828 41.8617 33.6636 42.1425 34.0005 42.1425C34.3374 42.1425 34.6182 41.8617 34.6182 41.5248C34.6462 41.1879 34.3655 40.9071 34.0005 40.9071ZM36.9485 40.9071C36.6116 40.9071 36.3308 41.1879 36.3308 41.5248C36.3308 41.8617 36.6116 42.1425 36.9485 42.1425C37.2854 42.1425 37.5662 41.8617 37.5662 41.5248C37.5662 41.1879 37.2854 40.9071 36.9485 40.9071ZM39.8965 40.9071C39.5596 40.9071 39.2788 41.1879 39.2788 41.5248C39.2788 41.8617 39.5596 42.1425 39.8965 42.1425C40.2334 42.1425 40.5142 41.8617 40.5142 41.5248C40.5142 41.1879 40.2334 40.9071 39.8965 40.9071ZM42.8164 40.9071C42.4795 40.9071 42.1988 41.1879 42.1988 41.5248C42.1988 41.8617 42.4795 42.1425 42.8164 42.1425C43.1534 42.1425 43.4341 41.8617 43.4341 41.5248C43.4622 41.1879 43.1814 40.9071 42.8164 40.9071ZM45.7644 40.9071C45.4275 40.9071 45.1468 41.1879 45.1468 41.5248C45.1468 41.8617 45.4275 42.1425 45.7644 42.1425C46.1014 42.1425 46.3821 41.8617 46.3821 41.5248C46.3821 41.1879 46.1014 40.9071 45.7644 40.9071ZM48.7125 40.9071C48.3755 40.9071 48.0948 41.1879 48.0948 41.5248C48.0948 41.8617 48.3755 42.1425 48.7125 42.1425C49.0494 42.1425 49.3301 41.8617 49.3301 41.5248C49.3301 41.1879 49.0494 40.9071 48.7125 40.9071ZM34.0005 43.3498C33.6636 43.3498 33.3828 43.6305 33.3828 43.9674C33.3828 44.3044 33.6636 44.5851 34.0005 44.5851C34.3374 44.5851 34.6182 44.3044 34.6182 43.9674C34.6462 43.6305 34.3655 43.3498 34.0005 43.3498ZM36.9485 43.3498C36.6116 43.3498 36.3308 43.6305 36.3308 43.9674C36.3308 44.3044 36.6116 44.5851 36.9485 44.5851C37.2854 44.5851 37.5662 44.3044 37.5662 43.9674C37.5662 43.6305 37.2854 43.3498 36.9485 43.3498ZM39.8965 43.3498C39.5596 43.3498 39.2788 43.6305 39.2788 43.9674C39.2788 44.3044 39.5596 44.5851 39.8965 44.5851C40.2334 44.5851 40.5142 44.3044 40.5142 43.9674C40.5142 43.6305 40.2334 43.3498 39.8965 43.3498ZM42.8164 43.3498C42.4795 43.3498 42.1988 43.6305 42.1988 43.9674C42.1988 44.3044 42.4795 44.5851 42.8164 44.5851C43.1534 44.5851 43.4341 44.3044 43.4341 43.9674C43.4622 43.6305 43.1814 43.3498 42.8164 43.3498ZM45.7644 43.3498C45.4275 43.3498 45.1468 43.6305 45.1468 43.9674C45.1468 44.3044 45.4275 44.5851 45.7644 44.5851C46.1014 44.5851 46.3821 44.3044 46.3821 43.9674C46.3821 43.6305 46.1014 43.3498 45.7644 43.3498ZM48.7125 43.3498C48.3755 43.3498 48.0948 43.6305 48.0948 43.9674C48.0948 44.3044 48.3755 44.5851 48.7125 44.5851C49.0494 44.5851 49.3301 44.3044 49.3301 43.9674C49.3301 43.6305 49.0494 43.3498 48.7125 43.3498ZM34.0005 45.7924C33.6636 45.7924 33.3828 46.0732 33.3828 46.4101C33.3828 46.747 33.6636 47.0278 34.0005 47.0278C34.3374 47.0278 34.6182 46.747 34.6182 46.4101C34.6462 46.0732 34.3655 45.7924 34.0005 45.7924ZM36.9485 45.7924C36.6116 45.7924 36.3308 46.0732 36.3308 46.4101C36.3308 46.747 36.6116 47.0278 36.9485 47.0278C37.2854 47.0278 37.5662 46.747 37.5662 46.4101C37.5662 46.0732 37.2854 45.7924 36.9485 45.7924ZM39.8965 45.7924C39.5596 45.7924 39.2788 46.0732 39.2788 46.4101C39.2788 46.747 39.5596 47.0278 39.8965 47.0278C40.2334 47.0278 40.5142 46.747 40.5142 46.4101C40.5142 46.0732 40.2334 45.7924 39.8965 45.7924ZM42.8164 45.7924C42.4795 45.7924 42.1988 46.0732 42.1988 46.4101C42.1988 46.747 42.4795 47.0278 42.8164 47.0278C43.1534 47.0278 43.4341 46.747 43.4341 46.4101C43.4622 46.0732 43.1814 45.7924 42.8164 45.7924ZM45.7644 45.7924C45.4275 45.7924 45.1468 46.0732 45.1468 46.4101C45.1468 46.747 45.4275 47.0278 45.7644 47.0278C46.1014 47.0278 46.3821 46.747 46.3821 46.4101C46.3821 46.0732 46.1014 45.7924 45.7644 45.7924ZM48.7125 45.7924C48.3755 45.7924 48.0948 46.0732 48.0948 46.4101C48.0948 46.747 48.3755 47.0278 48.7125 47.0278C49.0494 47.0278 49.3301 46.747 49.3301 46.4101C49.3301 46.0732 49.0494 45.7924 48.7125 45.7924ZM34.0005 48.235C33.6636 48.235 33.3828 48.5158 33.3828 48.8527C33.3828 49.1896 33.6636 49.4704 34.0005 49.4704C34.3374 49.4704 34.6182 49.1896 34.6182 48.8527C34.6462 48.5158 34.3655 48.235 34.0005 48.235ZM36.9485 48.235C36.6116 48.235 36.3308 48.5158 36.3308 48.8527C36.3308 49.1896 36.6116 49.4704 36.9485 49.4704C37.2854 49.4704 37.5662 49.1896 37.5662 48.8527C37.5662 48.5158 37.2854 48.235 36.9485 48.235ZM39.8965 48.235C39.5596 48.235 39.2788 48.5158 39.2788 48.8527C39.2788 49.1896 39.5596 49.4704 39.8965 49.4704C40.2334 49.4704 40.5142 49.1896 40.5142 48.8527C40.5142 48.5158 40.2334 48.235 39.8965 48.235ZM42.8164 48.235C42.4795 48.235 42.1988 48.5158 42.1988 48.8527C42.1988 49.1896 42.4795 49.4704 42.8164 49.4704C43.1534 49.4704 43.4341 49.1896 43.4341 48.8527C43.4622 48.5158 43.1814 48.235 42.8164 48.235ZM45.7644 48.235C45.4275 48.235 45.1468 48.5158 45.1468 48.8527C45.1468 49.1896 45.4275 49.4704 45.7644 49.4704C46.1014 49.4704 46.3821 49.1896 46.3821 48.8527C46.3821 48.5158 46.1014 48.235 45.7644 48.235ZM48.7125 48.235C48.3755 48.235 48.0948 48.5158 48.0948 48.8527C48.0948 49.1896 48.3755 49.4704 48.7125 49.4704C49.0494 49.4704 49.3301 49.1896 49.3301 48.8527C49.3301 48.5158 49.0494 48.235 48.7125 48.235Z" fill="#376F92"/>
<path d="M36.471 59.6902H32.821V63.0593H36.471V59.6902Z" fill="white"/>
<path d="M30.8279 52.306H51.8851V30.6592H30.8279V52.306ZM31.9509 31.8103H50.7339V51.183H31.9509V31.8103Z" fill="#376F92"/>
<path d="M74.6831 41.4686H63.2841V39.1945H59.8588V36.9203H63.2841V35.2076H70.2189L74.9077 31.9227L74.2619 30.9962L69.854 34.0846H63.256V32.9334H59.8307V23.2471H50.7059V19.8218H48.5441L48.7687 13.8135L54.4962 7.46828L53.654 6.71022L47.6456 13.3643L47.421 19.8218H45.5961V23.2471H43.3219V19.8218H41.6092V8.28249L43.5465 1.45996L42.4515 1.15112L40.4862 8.05788L40.4581 19.8218H38.7455V23.2471H36.4713V19.8218H34.7586V12.7185L31.5299 9.06862L30.6876 9.82668L33.6356 13.1678V19.8499H31.9229V23.2752H22.8543V32.9615H19.429V34.6742H15.6106L10.2481 30.3224L9.51809 31.1646L15.1895 35.7972H19.429V36.9484H22.8543V39.2225H19.429V41.4967H8.39504L2.21826 43.9955L2.63941 45.0624L8.61965 42.6478H19.429V44.3605H22.8543V46.0731H19.429V47.2243H14.8245L10.22 49.2458L10.6692 50.2846L15.0491 48.3754H19.4009V50.6496H22.8262V60.3359H32.5125V63.7612H34.2252V72.8579L31.3614 74.9636C31.0526 74.6828 30.6314 74.5144 30.2103 74.5144C29.2276 74.5144 28.4134 75.3286 28.4134 76.3113C28.4134 77.2939 29.2276 78.1081 30.2103 78.1081C31.193 78.1081 32.0072 77.2939 32.0072 76.3113C32.0072 76.1709 31.9791 76.0586 31.951 75.9182L35.1236 73.5879C35.264 73.4756 35.3482 73.3071 35.3482 73.1386V63.7612H37.0609V60.3359H39.3351V63.7612H41.0477V66.9619L40.3458 68.3657C40.0931 68.2253 39.8124 68.1411 39.5035 68.1411C38.5209 68.1411 37.7066 68.9553 37.7066 69.9379C37.7066 70.9206 38.5209 71.7348 39.5035 71.7348C40.4862 71.7348 41.3004 70.9206 41.3004 69.9379C41.3004 69.6853 41.2443 69.4607 41.16 69.2641L42.1708 67.2146V63.7331H43.8834V60.3078H45.5961V63.7331H47.3087V70.1345L48.8248 73.279C48.6002 73.5879 48.4879 73.9248 48.4879 74.3178C48.4879 75.3005 49.3021 76.1147 50.2848 76.1147C51.2675 76.1147 52.0817 75.3005 52.0817 74.3178C52.0817 73.3352 51.2675 72.521 50.2848 72.521C50.1163 72.521 49.9479 72.549 49.7794 72.6052L48.4599 69.8537V63.705H50.1725V60.2797H59.8588V50.5934H63.2841V49.4423H68.4221V48.2912H63.2841V46.0451H59.8588V44.3324H63.2841V42.6198H74.2338L79.091 47.3646L79.8772 46.5504L74.6831 41.4686ZM59.8588 34.0846H62.133V35.7972H59.8588V34.0846ZM22.8543 49.4423H20.5801V47.1681H22.8543V49.4423ZM22.8543 43.1813H20.5801V40.3456H22.8543V43.1813ZM22.8543 35.7972H20.5801V34.0846H22.8543V35.7972ZM46.7472 20.973H49.5829V23.2471H46.7472V20.973ZM39.9247 20.973H42.1988V23.2471H39.9247V20.973ZM33.1021 20.973H35.3763V23.2471H33.1021V20.973ZM35.9378 62.5539H33.6637V60.2797H35.9378V62.5539ZM42.7604 62.5539H40.4862V60.2797H42.7604V62.5539ZM49.0494 62.5539H46.7753V60.2797H49.0494V62.5539ZM58.7077 32.9334V36.9203V39.1945V44.3324V46.0451V50.5934V59.1286H50.1725H45.6241H43.9115H39.3631H37.089H32.5406H24.0054V50.5934V46.0451V44.3324V39.1945V36.9203V32.9334V24.3983H31.9791H36.5274H38.8016H43.35H45.6241H50.7621H58.7358V32.9334H58.7077ZM62.133 47.1681V49.4423H59.8588V47.1681H62.133ZM62.133 43.1813H59.8588V40.3456H62.133V43.1813Z" fill="#376F92"/>
<path d="M3.00416 44.9782C3.00416 45.652 2.44263 46.2136 1.7688 46.2136C1.09497 46.2136 0.533447 45.652 0.533447 44.9782C0.533447 44.3044 1.09497 43.7428 1.7688 43.7428C2.47071 43.7428 3.00416 44.3044 3.00416 44.9782Z" fill="white"/>
<path d="M1.79688 46.775C0.814211 46.775 0 45.9608 0 44.9782C0 43.9955 0.814211 43.1813 1.79688 43.1813C2.77955 43.1813 3.59376 43.9955 3.59376 44.9782C3.59376 45.9889 2.77955 46.775 1.79688 46.775ZM1.79688 44.3324C1.43189 44.3324 1.12305 44.6412 1.12305 45.0062C1.12305 45.3712 1.43189 45.6801 1.79688 45.6801C2.16187 45.6801 2.47071 45.3712 2.47071 45.0062C2.44263 44.6132 2.16187 44.3324 1.79688 44.3324Z" fill="#376F92"/>
<path d="M11.8482 50.2845C11.8482 50.9584 11.2866 51.5199 10.6128 51.5199C9.93897 51.5199 9.37744 50.9584 9.37744 50.2845C9.37744 49.6107 9.93897 49.0492 10.6128 49.0492C11.2866 49.0773 11.8482 49.6107 11.8482 50.2845Z" fill="white"/>
<path d="M10.6128 52.0814C9.63013 52.0814 8.81592 51.2672 8.81592 50.2845C8.81592 49.3019 9.63013 48.4877 10.6128 48.4877C11.5955 48.4877 12.4097 49.3019 12.4097 50.2845C12.4097 51.2953 11.5955 52.0814 10.6128 52.0814ZM10.6128 49.6388C10.2478 49.6388 9.93897 49.9476 9.93897 50.3126C9.93897 50.6776 10.2478 50.9865 10.6128 50.9865C10.9778 50.9865 11.2866 50.6776 11.2866 50.3126C11.2586 49.9196 10.9778 49.6388 10.6128 49.6388Z" fill="#376F92"/>
<path d="M69.6572 48.8246C69.6572 49.4984 69.0957 50.0599 68.4219 50.0599C67.748 50.0599 67.1865 49.4984 67.1865 48.8246C67.1865 48.1507 67.748 47.5892 68.4219 47.5892C69.0957 47.5892 69.6572 48.1507 69.6572 48.8246Z" fill="white"/>
<path d="M68.4219 50.6215C67.4392 50.6215 66.625 49.8073 66.625 48.8246C66.625 47.8419 67.4392 47.0277 68.4219 47.0277C69.4045 47.0277 70.2188 47.8419 70.2188 48.8246C70.2188 49.8073 69.4045 50.6215 68.4219 50.6215ZM68.4219 48.1508C68.0569 48.1508 67.7481 48.4596 67.7481 48.8246C67.7481 49.1896 68.0569 49.4984 68.4219 49.4984C68.7869 49.4984 69.0957 49.1896 69.0957 48.8246C69.0957 48.4596 68.7869 48.1508 68.4219 48.1508Z" fill="#376F92"/>
<path d="M80.4385 46.775C80.4385 47.4489 79.877 48.0104 79.2031 48.0104C78.5293 48.0104 77.9678 47.4489 77.9678 46.775C77.9678 46.1012 78.5293 45.5397 79.2031 45.5397C79.877 45.5678 80.4385 46.1012 80.4385 46.775Z" fill="white"/>
<path d="M79.2031 48.5719C78.2205 48.5719 77.4062 47.7577 77.4062 46.775C77.4062 45.7924 78.2205 44.9781 79.2031 44.9781C80.1858 44.9781 81 45.7924 81 46.775C81 47.7858 80.1858 48.5719 79.2031 48.5719ZM79.2031 46.1293C78.8381 46.1293 78.5293 46.4381 78.5293 46.8031C78.5293 47.1681 78.8381 47.4769 79.2031 47.4769C79.5681 47.4769 79.877 47.1681 79.877 46.8031C79.877 46.41 79.5681 46.1293 79.2031 46.1293Z" fill="#376F92"/>
<path d="M76.0305 31.6701C76.0305 32.3439 75.469 32.9054 74.7952 32.9054C74.1213 32.9054 73.5598 32.3439 73.5598 31.6701C73.5598 30.9962 74.1213 30.4347 74.7952 30.4347C75.469 30.4347 76.0305 30.9962 76.0305 31.6701Z" fill="white"/>
<path d="M74.7949 33.4669C73.8123 33.4669 72.998 32.6527 72.998 31.67C72.998 30.6874 73.8123 29.8732 74.7949 29.8732C75.7776 29.8732 76.5918 30.6874 76.5918 31.67C76.5918 32.6527 75.7776 33.4669 74.7949 33.4669ZM74.7949 31.0243C74.4299 31.0243 74.1211 31.3331 74.1211 31.6981C74.1211 32.0631 74.4299 32.372 74.7949 32.372C75.1599 32.372 75.4688 32.0631 75.4688 31.6981C75.4688 31.3051 75.1599 31.0243 74.7949 31.0243Z" fill="#376F92"/>
<path d="M55.4507 7.15944C55.4507 7.83327 54.8892 8.39479 54.2153 8.39479C53.5415 8.39479 52.98 7.83327 52.98 7.15944C52.98 6.48561 53.5415 5.92409 54.2153 5.92409C54.8892 5.95216 55.4507 6.48561 55.4507 7.15944Z" fill="white"/>
<path d="M54.2151 8.98438C53.2324 8.98438 52.4182 8.17017 52.4182 7.1875C52.4182 6.20483 53.2324 5.39062 54.2151 5.39062C55.1978 5.39062 56.012 6.20483 56.012 7.1875C56.012 8.17017 55.1978 8.98438 54.2151 8.98438ZM54.2151 6.51368C53.8501 6.51368 53.5413 6.82251 53.5413 7.1875C53.5413 7.5525 53.8501 7.86133 54.2151 7.86133C54.5801 7.86133 54.8889 7.5525 54.8889 7.1875C54.8889 6.82251 54.5801 6.51368 54.2151 6.51368Z" fill="#376F92"/>
<path d="M44.1636 1.79689C44.1636 2.47072 43.6021 3.03225 42.9282 3.03225C42.2544 3.03225 41.6929 2.47072 41.6929 1.79689C41.6929 1.12306 42.2544 0.561539 42.9282 0.561539C43.6301 0.561539 44.1636 1.09499 44.1636 1.79689Z" fill="white"/>
<path d="M42.9566 3.59376C41.9739 3.59376 41.1597 2.77955 41.1597 1.79688C41.1597 0.81421 41.9739 0 42.9566 0C43.9392 0 44.7534 0.81421 44.7534 1.79688C44.7534 2.77955 43.9392 3.59376 42.9566 3.59376ZM42.9566 1.12305C42.5916 1.12305 42.2827 1.43189 42.2827 1.79688C42.2827 2.16187 42.5916 2.47071 42.9566 2.47071C43.3215 2.47071 43.6304 2.16187 43.6304 1.79688C43.6023 1.43189 43.3215 1.12305 42.9566 1.12305Z" fill="#376F92"/>
<path d="M50.2847 73.6721C49.9197 73.6721 49.6108 73.9809 49.6108 74.3459C49.6108 74.7109 49.9197 75.0198 50.2847 75.0198C50.6497 75.0198 50.9585 74.7109 50.9585 74.3459C50.9304 73.9809 50.6497 73.6721 50.2847 73.6721Z" fill="white"/>
<path d="M39.5034 69.2642C39.1384 69.2642 38.8296 69.573 38.8296 69.938C38.8296 70.303 39.1384 70.6118 39.5034 70.6118C39.8684 70.6118 40.1773 70.303 40.1773 69.938C40.1492 69.573 39.8684 69.2642 39.5034 69.2642Z" fill="white"/>
<path d="M30.1538 75.6375C29.7888 75.6375 29.48 75.9463 29.48 76.3113C29.48 76.6763 29.7888 76.9851 30.1538 76.9851C30.5188 76.9851 30.8276 76.6763 30.8276 76.3113C30.8276 75.9463 30.5188 75.6375 30.1538 75.6375Z" fill="white"/>
</svg>
