<svg width="83" height="66" viewBox="0 0 83 66" fill="none" xmlns="http://www.w3.org/2000/svg">
<path d="M81.5384 11.8751C81.5384 12.9131 80.7142 13.7373 79.6763 13.7373H23.2618C22.2239 13.7373 21.3997 12.9131 21.3997 11.8751V2.47273C21.3997 1.4348 22.2239 0.61055 23.2618 0.61055H79.6763C80.7142 0.61055 81.5384 1.4348 81.5384 2.47273V11.8751Z" fill="#78C1D0"/>
<path d="M82.1489 11.8751C82.1489 13.2488 81.0499 14.3478 79.6762 14.3478H23.2618C21.888 14.3478 20.7891 13.2488 20.7891 11.8751V2.47272C20.7891 1.09899 21.888 0 23.2618 0H79.6762C81.0499 0 82.1489 1.09899 82.1489 2.47272V11.8751ZM80.9278 2.50324C80.9278 1.83164 80.4394 1.22109 79.7678 1.22109H23.4144C22.7428 1.22109 22.3154 1.83164 22.3154 2.50324V11.9056C22.3154 12.5772 22.7123 13.1267 23.4144 13.1267H79.7678C80.4394 13.1267 80.9278 12.6078 80.9278 11.9056V2.50324Z" fill="#376F92"/>
<path d="M29.8861 5.64759C29.8861 6.59393 29.1229 7.38765 28.146 7.38765C27.1997 7.38765 26.406 6.62446 26.406 5.64759C26.406 4.70124 27.1692 3.90755 28.146 3.90755C29.1229 3.90755 29.8861 4.67071 29.8861 5.64759Z" fill="white"/>
<path d="M28.1768 7.96761C26.8946 7.96761 25.8262 6.92968 25.8262 5.61701C25.8262 4.33486 26.8641 3.2664 28.1768 3.2664C29.4589 3.2664 30.5274 4.30433 30.5274 5.61701C30.4969 6.92968 29.4589 7.96761 28.1768 7.96761ZM28.1768 4.51803C27.5662 4.51803 27.0778 5.00646 27.0778 5.61701C27.0778 6.22755 27.5662 6.71598 28.1768 6.71598C28.7873 6.71598 29.2758 6.22755 29.2758 5.61701C29.2758 5.03699 28.7873 4.51803 28.1768 4.51803Z" fill="#376F92"/>
<path d="M36.6327 5.64759C36.6327 6.59393 35.8695 7.38765 34.8926 7.38765C33.9463 7.38765 33.1526 6.62446 33.1526 5.64759C33.1526 4.70124 33.9158 3.90755 34.8926 3.90755C35.8695 3.90755 36.6327 4.67071 36.6327 5.64759Z" fill="white"/>
<path d="M34.8928 7.96761C33.6107 7.96761 32.5422 6.92968 32.5422 5.61701C32.5422 4.33486 33.5801 3.2664 34.8928 3.2664C36.175 3.2664 37.2434 4.30433 37.2434 5.61701C37.2434 6.92968 36.2055 7.96761 34.8928 7.96761ZM34.8928 4.51803C34.2823 4.51803 33.7938 5.00646 33.7938 5.61701C33.7938 6.22755 34.2823 6.71598 34.8928 6.71598C35.5034 6.71598 35.9918 6.22755 35.9918 5.61701C36.0224 5.03699 35.5034 4.51803 34.8928 4.51803Z" fill="#376F92"/>
<path d="M43.3793 5.64759C43.3793 6.59393 42.6161 7.38765 41.6392 7.38765C40.6929 7.38765 39.8992 6.62446 39.8992 5.64759C39.8992 4.70124 40.6624 3.90755 41.6392 3.90755C42.5856 3.90755 43.3793 4.67071 43.3793 5.64759Z" fill="white"/>
<path d="M41.6392 7.96761C40.3571 7.96761 39.2886 6.92968 39.2886 5.61701C39.2886 4.33486 40.3265 3.2664 41.6392 3.2664C42.9213 3.2664 43.9898 4.30433 43.9898 5.61701C43.9898 6.92968 42.9213 7.96761 41.6392 7.96761ZM41.6392 4.51803C41.0287 4.51803 40.5402 5.00646 40.5402 5.61701C40.5402 6.22755 41.0287 6.71598 41.6392 6.71598C42.2497 6.71598 42.7382 6.22755 42.7382 5.61701C42.7382 5.03699 42.2497 4.51803 41.6392 4.51803Z" fill="#376F92"/>
<path d="M74.7613 7.96763C74.6087 7.96763 74.4255 7.90657 74.3034 7.78446C74.0592 7.54024 74.0897 7.1434 74.3339 6.89918L77.6003 3.78539C77.8445 3.54117 78.2414 3.57169 78.4856 3.81591C78.7298 4.06013 78.6993 4.45699 78.4551 4.70121L75.1886 7.815C75.0665 7.93711 74.9139 7.96763 74.7613 7.96763Z" fill="#376F92"/>
<path d="M78.0277 7.96761C77.8751 7.96761 77.7224 7.90655 77.6003 7.78444L74.3339 4.67067C74.0897 4.42645 74.0897 4.02959 74.3034 3.78537C74.5476 3.54115 74.9444 3.54116 75.1886 3.75485L78.4551 6.86862C78.6993 7.11284 78.6993 7.5097 78.4856 7.75392C78.3635 7.90656 78.1803 7.96761 78.0277 7.96761Z" fill="#376F92"/>
<path d="M81.3247 10.6541H21.6133V45.9741H81.3247V10.6541Z" fill="white"/>
<path d="M81.9657 46.6152H21.0027V10.0435H81.9657V46.6152ZM22.2238 45.3941H80.7141V11.2951H22.2238V45.3941Z" fill="#376F92"/>
<path d="M74.3033 18.0111H50.1562C49.8204 18.0111 49.5457 17.7364 49.5457 17.4006C49.5457 17.0648 49.8204 16.79 50.1562 16.79H74.3033C74.6391 16.79 74.9139 17.0648 74.9139 17.4006C74.9139 17.7364 74.6391 18.0111 74.3033 18.0111ZM74.9139 23.506C74.9139 23.1702 74.6391 22.8955 74.3033 22.8955H50.1562C49.8204 22.8955 49.5457 23.1702 49.5457 23.506C49.5457 23.8418 49.8204 24.1166 50.1562 24.1166H74.3033C74.6391 24.1166 74.9139 23.8418 74.9139 23.506ZM74.9139 30.3747C74.9139 30.0389 74.6391 29.6115 74.3033 29.6115H50.1562C49.8204 29.6115 49.5457 30.0389 49.5457 30.3747C49.5457 30.7105 49.8204 31.1378 50.1562 31.1378H74.3033C74.6391 31.1378 74.9139 30.7105 74.9139 30.3747ZM74.9139 37.8538C74.9139 37.518 74.6391 37.2433 74.3033 37.2433H50.1562C49.8204 37.2433 49.5457 37.518 49.5457 37.8538C49.5457 38.1896 49.8204 38.4644 50.1562 38.4644H74.3033C74.6391 38.4644 74.9139 38.1896 74.9139 37.8538Z" fill="#376F92"/>
<path d="M43.9594 38.3423H28.7263V16.6069H43.9594V38.3423ZM29.9474 37.1212H42.7078V17.8279H29.9474V37.1212Z" fill="#376F92"/>
<path d="M72.075 21.9492C72.075 22.9871 71.2508 23.8113 70.2129 23.8113H13.7984C12.7605 23.8113 11.9363 22.9871 11.9363 21.9492V12.5468C11.9363 11.5088 12.7605 10.6846 13.7984 10.6846H70.2129C71.2508 10.6846 72.075 11.5088 72.075 12.5468V21.9492Z" fill="#78C1D0"/>
<path d="M72.6855 21.9491C72.6855 23.3229 71.4339 24.4218 70.0907 24.4218H13.7068C12.3331 24.4218 11.3257 23.3229 11.3257 21.9491V12.5162C11.3257 11.1425 12.3331 10.074 13.7068 10.074H70.0907C71.4644 10.074 72.6855 11.1425 72.6855 12.5162V21.9491ZM71.4644 12.5467C71.4644 11.8751 70.915 11.2951 70.2128 11.2951H13.7679C13.0963 11.2951 12.5163 11.8446 12.5163 12.5467V21.9796C12.5163 22.6512 13.0657 23.2313 13.7679 23.2313H70.2128C70.8844 23.2313 71.4644 22.6818 71.4644 21.9796V12.5467Z" fill="#376F92"/>
<path d="M20.2091 15.3247C20.2091 16.271 19.446 17.0647 18.4691 17.0647C17.5227 17.0647 16.729 16.3015 16.729 15.3247C16.729 14.3783 17.4922 13.5846 18.4691 13.5846C19.4154 13.5846 20.2091 14.3783 20.2091 15.3247Z" fill="white"/>
<path d="M18.469 17.6753C17.1869 17.6753 16.1184 16.6374 16.1184 15.3247C16.1184 14.0425 17.1564 12.9741 18.469 12.9741C19.7512 12.9741 20.8196 14.012 20.8196 15.3247C20.8196 16.6068 19.7817 17.6753 18.469 17.6753ZM18.469 14.2257C17.8585 14.2257 17.3701 14.7141 17.3701 15.3247C17.3701 15.9352 17.8585 16.4237 18.469 16.4237C19.0796 16.4237 19.568 15.9352 19.568 15.3247C19.5985 14.7141 19.0796 14.2257 18.469 14.2257Z" fill="#376F92"/>
<path d="M26.9249 15.3247C26.9249 16.271 26.1618 17.0647 25.1849 17.0647C24.2386 17.0647 23.4448 16.3015 23.4448 15.3247C23.4448 14.3783 24.208 13.5846 25.1849 13.5846C26.1618 13.5846 26.9249 14.3783 26.9249 15.3247Z" fill="white"/>
<path d="M25.2156 17.6753C23.9334 17.6753 22.865 16.6374 22.865 15.3247C22.865 14.0425 23.9029 12.9741 25.2156 12.9741C26.4977 12.9741 27.5662 14.012 27.5662 15.3247C27.5662 16.6068 26.4977 17.6753 25.2156 17.6753ZM25.2156 14.2257C24.605 14.2257 24.1166 14.7141 24.1166 15.3247C24.1166 15.9352 24.605 16.4237 25.2156 16.4237C25.8261 16.4237 26.3146 15.9352 26.3146 15.3247C26.3146 14.7141 25.8261 14.2257 25.2156 14.2257Z" fill="#376F92"/>
<path d="M33.6715 15.3247C33.6715 16.271 32.9083 17.0647 31.9314 17.0647C30.9851 17.0647 30.1914 16.3015 30.1914 15.3247C30.1914 14.3783 30.9546 13.5846 31.9314 13.5846C32.9083 13.5846 33.6715 14.3783 33.6715 15.3247Z" fill="white"/>
<path d="M31.9622 17.6753C30.68 17.6753 29.6116 16.6374 29.6116 15.3247C29.6116 14.0425 30.6495 12.9741 31.9622 12.9741C33.2443 12.9741 34.3128 14.012 34.3128 15.3247C34.2823 16.6068 33.2443 17.6753 31.9622 17.6753ZM31.9622 14.2257C31.3516 14.2257 30.8632 14.7141 30.8632 15.3247C30.8632 15.9352 31.3516 16.4237 31.9622 16.4237C32.5727 16.4237 33.0611 15.9352 33.0611 15.3247C33.0611 14.7141 32.5727 14.2257 31.9622 14.2257Z" fill="#376F92"/>
<path d="M65.084 17.6753C64.9314 17.6753 64.7482 17.6143 64.6261 17.4922C64.3819 17.2479 64.4124 16.8511 64.6567 16.6069L67.9231 13.4931C68.1673 13.2489 68.5642 13.2794 68.8084 13.5236C69.0526 13.7678 69.0221 14.1647 68.7778 14.4089L65.5114 17.5227C65.3893 17.6143 65.2367 17.6753 65.084 17.6753Z" fill="#376F92"/>
<path d="M68.3505 17.6753C68.1978 17.6753 68.0452 17.6143 67.9231 17.4922L64.6566 14.3784C64.4124 14.1342 64.4124 13.7373 64.6261 13.4931C64.8703 13.2489 65.2672 13.2489 65.5114 13.4626L68.7778 16.5763C69.0221 16.8206 69.0221 17.2174 68.8084 17.4616C68.6558 17.6143 68.5031 17.6753 68.3505 17.6753Z" fill="#376F92"/>
<path d="M71.6476 20.3617H11.9363V55.6818H71.6476V20.3617Z" fill="white"/>
<path d="M72.2581 56.2923H11.2952V19.7207H72.2581V56.2923ZM12.5468 55.0713H71.0371V20.9723H12.5468V55.0713Z" fill="#376F92"/>
<path d="M65.0232 27.7798H40.2656C39.9298 27.7798 39.655 27.5051 39.655 27.1693C39.655 26.8335 39.9298 26.5587 40.2656 26.5587H65.0232C65.359 26.5587 65.6337 26.8335 65.6337 27.1693C65.6337 27.5051 65.359 27.7798 65.0232 27.7798ZM65.6337 33.58C65.6337 33.2442 65.359 32.9695 65.0232 32.9695H40.2656C39.9298 32.9695 39.655 33.2442 39.655 33.58C39.655 33.9158 39.9298 34.1906 40.2656 34.1906H65.0232C65.359 34.1906 65.6337 33.9158 65.6337 33.58ZM65.6337 40.296C65.6337 39.9602 65.359 39.6855 65.0232 39.6855H40.2656C39.9298 39.6855 39.655 39.9602 39.655 40.296C39.655 40.6318 39.9298 40.9066 40.2656 40.9066H65.0232C65.359 40.9066 65.6337 40.6318 65.6337 40.296ZM65.6337 47.3173C65.6337 46.9815 65.359 46.7068 65.0232 46.7068H40.2656C39.9298 46.7068 39.655 46.9815 39.655 47.3173C39.655 47.6531 39.9298 47.9278 40.2656 47.9278H65.0232C65.359 47.9278 65.6337 47.6531 65.6337 47.3173Z" fill="#376F92"/>
<path d="M34.2517 48.05H19.0186V26.284H34.2517V48.05ZM20.2396 46.7984H33.0001V27.5356H20.2396V46.7984Z" fill="#376F92"/>
<path d="M60.7799 31.4126C60.7799 32.4505 59.9556 33.2747 58.9177 33.2747H2.50327C1.46534 33.2747 0.641113 32.4505 0.641113 31.4126V22.0102C0.641113 20.9722 1.46534 20.148 2.50327 20.148H58.9177C59.9556 20.148 60.7799 20.9722 60.7799 22.0102V31.4126Z" fill="#78C1D0"/>
<path d="M61.3904 31.4126C61.3904 32.7863 60.2914 33.8853 58.9177 33.8853H2.50322C1.12949 33.8853 0.0305176 32.7863 0.0305176 31.4126V22.0102C0.0305176 20.6365 1.12949 19.5375 2.50322 19.5375H58.9177C60.2914 19.5375 61.3904 20.6365 61.3904 22.0102V31.4126ZM60.1693 22.0102C60.1693 21.3386 59.6198 20.7586 58.9177 20.7586H2.4727C1.8011 20.7586 1.22109 21.3081 1.22109 22.0102V31.4431C1.22109 32.1147 1.77057 32.6947 2.4727 32.6947H58.9177C59.5893 32.6947 60.1693 32.1452 60.1693 31.4431V22.0102Z" fill="#376F92"/>
<path d="M9.37172 25.0018C9.37172 25.9482 8.60855 26.7419 7.63168 26.7419C6.68533 26.7419 5.8916 25.9787 5.8916 25.0018C5.8916 24.0555 6.65481 23.2618 7.63168 23.2618C8.60855 23.2923 9.37172 24.0555 9.37172 25.0018Z" fill="white"/>
<path d="M7.66235 27.3524C6.38021 27.3524 5.31177 26.3145 5.31177 25.0018C5.31177 23.7197 6.34968 22.6512 7.66235 22.6512C8.9445 22.6512 10.0129 23.6892 10.0129 25.0018C9.98241 26.3145 8.9445 27.3524 7.66235 27.3524ZM7.66235 23.9029C7.05181 23.9029 6.56338 24.3913 6.56338 25.0018C6.56338 25.6124 7.05181 26.1008 7.66235 26.1008C8.2729 26.1008 8.76133 25.6124 8.76133 25.0018C8.76133 24.3913 8.2729 23.9029 7.66235 23.9029Z" fill="#376F92"/>
<path d="M16.1183 25.0018C16.1183 25.9482 15.3551 26.7419 14.3782 26.7419C13.4319 26.7419 12.6382 25.9787 12.6382 25.0018C12.6382 24.0555 13.4014 23.2618 14.3782 23.2618C15.3246 23.2923 16.1183 24.0555 16.1183 25.0018Z" fill="white"/>
<path d="M14.3784 27.3524C13.0963 27.3524 12.0278 26.3145 12.0278 25.0018C12.0278 23.7197 13.0657 22.6512 14.3784 22.6512C15.6606 22.6512 16.729 23.6892 16.729 25.0018C16.729 26.3145 15.6911 27.3524 14.3784 27.3524ZM14.3784 23.9029C13.7679 23.9029 13.2794 24.3913 13.2794 25.0018C13.2794 25.6124 13.7679 26.1008 14.3784 26.1008C14.989 26.1008 15.4774 25.6124 15.4774 25.0018C15.5079 24.3913 14.989 23.9029 14.3784 23.9029Z" fill="#376F92"/>
<path d="M22.8343 25.0018C22.8343 25.9482 22.0712 26.7419 21.0943 26.7419C20.1479 26.7419 19.3542 25.9787 19.3542 25.0018C19.3542 24.0555 20.1174 23.2618 21.0943 23.2618C22.0712 23.2923 22.8343 24.0555 22.8343 25.0018Z" fill="white"/>
<path d="M21.1248 27.3524C19.8426 27.3524 18.7742 26.3145 18.7742 25.0018C18.7742 23.7197 19.8121 22.6512 21.1248 22.6512C22.4069 22.6512 23.4754 23.6892 23.4754 25.0018C23.4754 26.3145 22.4069 27.3524 21.1248 27.3524ZM21.1248 23.9029C20.5142 23.9029 20.0258 24.3913 20.0258 25.0018C20.0258 25.6124 20.5142 26.1008 21.1248 26.1008C21.7353 26.1008 22.2237 25.6124 22.2237 25.0018C22.2237 24.3913 21.7353 23.9029 21.1248 23.9029Z" fill="#376F92"/>
<path d="M54.2469 27.3525C54.0943 27.3525 53.9111 27.2914 53.789 27.1693C53.5448 26.9251 53.5753 26.5282 53.8195 26.284L57.0859 23.1702C57.3302 22.926 57.727 22.9565 57.9712 23.2007C58.2155 23.445 58.1849 23.8418 57.9407 24.086L54.6743 27.1998C54.5522 27.2914 54.3995 27.3525 54.2469 27.3525Z" fill="#376F92"/>
<path d="M57.5133 27.3524C57.3607 27.3524 57.208 27.2914 57.0859 27.1693L53.8195 24.0555C53.5753 23.8113 53.5753 23.4144 53.789 23.1702C54.0332 22.926 54.4301 22.926 54.6743 23.1397L57.9407 26.2534C58.1849 26.4977 58.1849 26.8945 57.9712 27.1387C57.8491 27.2914 57.666 27.3524 57.5133 27.3524Z" fill="#376F92"/>
<path d="M60.6578 30.0388H0.610596V65.3589H60.6578V30.0388Z" fill="white"/>
<path d="M61.2988 66H0V29.4283H61.2988V66ZM1.25161 64.7484H60.0472V30.6494H1.25161V64.7484Z" fill="#376F92"/>
<path d="M53.8806 50.0647H29.123C28.7872 50.0647 28.5125 49.9426 28.5125 49.6068C28.5125 49.271 28.7872 49.1489 29.123 49.1489H53.8806C54.2164 49.1489 54.4912 49.271 54.4912 49.6068C54.4912 49.9426 54.2164 50.0647 53.8806 50.0647ZM54.4912 56.4755C54.4912 56.1397 54.2164 55.8649 53.8806 55.8649H29.123C28.7872 55.8649 28.5125 56.1397 28.5125 56.4755C28.5125 56.8113 28.7872 57.086 29.123 57.086H53.8806C54.2164 57.086 54.4912 56.8113 54.4912 56.4755ZM54.4912 37.8538C54.4912 37.518 54.2164 37.2433 53.8806 37.2433H29.123C28.7872 37.2433 28.5125 37.518 28.5125 37.8538C28.5125 38.1896 28.7872 38.4644 29.123 38.4644H53.8806C54.2164 38.4644 54.4912 38.1896 54.4912 37.8538ZM54.4912 43.5014C54.4912 43.1656 54.2164 42.7382 53.8806 42.7382H29.123C28.7872 42.7382 28.5125 43.1656 28.5125 43.5014C28.5125 43.8372 28.7872 44.2646 29.123 44.2646H53.8806C54.2164 44.2646 54.4912 43.8372 54.4912 43.5014Z" fill="#376F92"/>
<path d="M22.8038 36.6022H8.79175V57.1166H22.8038V36.6022Z" fill="#78C1D0"/>
</svg>
