<svg width="47" height="46" viewBox="0 0 47 46" fill="none" xmlns="http://www.w3.org/2000/svg">
<circle cx="23.2188" cy="23" r="21.5" stroke="#E0EFFD" stroke-width="3"/>
<path d="M33.1074 27.4105L33.0911 27.5464C29.1074 25.5609 28.6907 25.2964 28.1763 26.0681C27.8194 26.6025 26.7795 27.8145 26.4661 28.1732C26.1491 28.5264 25.8339 28.5536 25.2958 28.3091C24.7524 28.0373 23.0078 27.4667 20.9426 25.6188C19.3339 24.1786 18.2542 22.4123 17.9353 21.8689C17.4046 20.9522 18.5151 20.8218 19.5259 18.9087C19.7071 18.5283 19.6147 18.2294 19.4806 17.9595C19.3448 17.6877 18.2632 15.0247 17.8103 13.9631C17.3756 12.9051 16.9281 13.0392 16.593 13.0392C15.5495 12.9486 14.7868 12.9631 14.1147 13.6624C11.1908 16.8761 11.9281 20.1913 14.4299 23.7167C19.3466 30.1514 21.9661 31.3362 26.756 32.9811C28.0494 33.3924 29.2288 33.3344 30.1618 33.2003C31.2016 33.0355 33.3628 31.8942 33.8139 30.617C34.2759 29.3398 34.2759 28.2801 34.14 28.0355C34.0059 27.7909 33.6509 27.6551 33.1074 27.4105V27.4105Z" fill="#E0EFFD"/>
</svg>
