<svg width="47" height="47" viewBox="0 0 47 47" fill="none" xmlns="http://www.w3.org/2000/svg">
<circle cx="23.0562" cy="23.1543" r="21.5" stroke="#E0EFFD" stroke-width="3"/>
<path d="M20.5229 24.418C20.4403 24.418 18.623 24.418 17.797 24.418C17.3564 24.418 17.2188 24.2528 17.2188 23.8398C17.2188 22.7384 17.2188 21.6095 17.2188 20.5081C17.2188 20.0676 17.384 19.9299 17.797 19.9299H20.5229C20.5229 19.8473 20.5229 18.2503 20.5229 17.5069C20.5229 16.4055 20.7156 15.3592 21.2663 14.3955C21.8445 13.4043 22.6706 12.7434 23.7169 12.3579C24.4052 12.1101 25.0936 12 25.837 12H28.5354C28.9209 12 29.0861 12.1652 29.0861 12.5507V15.6896C29.0861 16.0751 28.9209 16.2403 28.5354 16.2403C27.7919 16.2403 27.0485 16.2403 26.3051 16.2678C25.5617 16.2678 25.1762 16.6258 25.1762 17.3967C25.1486 18.2228 25.1762 19.0213 25.1762 19.8748H28.3702C28.8107 19.8748 28.9759 20.04 28.9759 20.4806V23.8123C28.9759 24.2528 28.8383 24.3905 28.3702 24.3905C27.3789 24.3905 25.2588 24.3905 25.1762 24.3905V33.3667C25.1762 33.8348 25.0385 34 24.5429 34C23.3865 34 22.2575 34 21.1011 34C20.6881 34 20.5229 33.8348 20.5229 33.4218C20.5229 30.5307 20.5229 24.5006 20.5229 24.418V24.418Z" fill="#E0EFFD"/>
</svg>
