<svg width="47" height="47" viewBox="0 0 47 47" fill="none" xmlns="http://www.w3.org/2000/svg">
<circle cx="23.5967" cy="23.1543" r="21.5" stroke="#E0EFFD" stroke-width="3"/>
<path d="M34.1586 18.4681C34.107 17.2991 33.918 16.4955 33.6472 15.7991C33.3678 15.0599 32.9381 14.3982 32.375 13.848C31.8249 13.2893 31.1587 12.8552 30.4281 12.5802C29.7277 12.3094 28.9283 12.1204 27.7593 12.0688C26.5817 12.0129 26.2078 12 23.2209 12C20.234 12 19.8601 12.0129 18.6868 12.0645C17.5179 12.116 16.7142 12.3052 16.018 12.5758C15.2787 12.8552 14.6169 13.2849 14.0668 13.848C13.5081 14.3982 13.0741 15.0643 12.7989 15.7949C12.5282 16.4955 12.3391 17.2948 12.2876 18.4637C12.2317 19.6414 12.2188 20.0152 12.2188 23.0021C12.2188 25.9891 12.2317 26.3629 12.2832 27.5362C12.3348 28.7052 12.524 29.5088 12.7947 30.2052C13.0741 30.9444 13.5081 31.6061 14.0668 32.1563C14.6169 32.715 15.283 33.1491 16.0137 33.4241C16.7142 33.6949 17.5135 33.8839 18.6826 33.9355C19.8557 33.9872 20.2298 33.9999 23.2167 33.9999C26.2036 33.9999 26.5775 33.9872 27.7508 33.9355C28.9197 33.8839 29.7233 33.6949 30.4195 33.4241C31.8981 32.8525 33.067 31.6835 33.6386 30.2052C33.9093 29.5046 34.0985 28.7052 34.15 27.5362C34.2015 26.3629 34.2145 25.9891 34.2145 23.0021C34.2145 20.0152 34.2101 19.6414 34.1586 18.4681ZM32.1774 27.4503C32.1301 28.5247 31.9496 29.1049 31.7992 29.4917C31.4295 30.4501 30.6688 31.2108 29.7104 31.5805C29.3236 31.7309 28.7392 31.9113 27.669 31.9585C26.5086 32.0102 26.1606 32.023 23.2252 32.023C20.2899 32.023 19.9375 32.0102 18.7813 31.9585C17.7069 31.9113 17.1267 31.7309 16.7399 31.5805C16.263 31.4042 15.8288 31.1248 15.4764 30.7595C15.1111 30.4028 14.8318 29.973 14.6555 29.4961C14.5051 29.1093 14.3246 28.5247 14.2775 27.4546C14.2257 26.2943 14.213 25.9461 14.213 23.0107C14.213 20.0753 14.2257 19.723 14.2775 18.5669C14.3246 17.4925 14.5051 16.9123 14.6555 16.5255C14.8318 16.0484 15.1111 15.6144 15.4808 15.2619C15.8374 14.8966 16.2672 14.6172 16.7443 14.4411C17.1311 14.2907 17.7156 14.1102 18.7857 14.0629C19.9461 14.0114 20.2942 13.9984 23.2294 13.9984C26.1692 13.9984 26.5172 14.0114 27.6734 14.0629C28.7478 14.1102 29.328 14.2907 29.7148 14.4411C30.1917 14.6172 30.6259 14.8966 30.9782 15.2619C31.3436 15.6186 31.6229 16.0484 31.7992 16.5255C31.9496 16.9123 32.1301 17.4967 32.1774 18.5669C32.2289 19.7273 32.2419 20.0753 32.2419 23.0107C32.2419 25.9461 32.2289 26.2899 32.1774 27.4503Z" fill="#E0EFFD"/>
<path d="M23.2208 17.3506C20.1008 17.3506 17.5693 19.8819 17.5693 23.0021C17.5693 26.1223 20.1008 28.6536 23.2208 28.6536C26.341 28.6536 28.8723 26.1223 28.8723 23.0021C28.8723 19.8819 26.341 17.3506 23.2208 17.3506ZM23.2208 26.6681C21.1967 26.6681 19.5548 25.0264 19.5548 23.0021C19.5548 20.9778 21.1967 19.3361 23.2208 19.3361C25.2451 19.3361 26.8868 20.9778 26.8868 23.0021C26.8868 25.0264 25.2451 26.6681 23.2208 26.6681V26.6681Z" fill="#E0EFFD"/>
<path d="M30.4153 17.127C30.4153 17.8556 29.8245 18.4464 29.0957 18.4464C28.3671 18.4464 27.7764 17.8556 27.7764 17.127C27.7764 16.3982 28.3671 15.8076 29.0957 15.8076C29.8245 15.8076 30.4153 16.3982 30.4153 17.127V17.127Z" fill="#E0EFFD"/>
</svg>
