<svg width="47" height="47" viewBox="0 0 47 47" fill="none" xmlns="http://www.w3.org/2000/svg">
<circle cx="23.2183" cy="23.1543" r="21.5" stroke="#E0EFFD" stroke-width="3"/>
<path d="M23.158 12C22.4552 12 22.4552 13.0455 23.158 13.0542C28.6106 13.0943 33.1012 16.7221 33.1505 23.3767C33.1505 24.0789 34.2275 24.0702 34.2184 23.368H34.2166C34.1581 16.1976 29.255 12.0401 23.158 12V12Z" fill="#E0EFFD"/>
<path d="M30.3305 22.2736C30.314 22.9671 31.3892 23.0002 31.3984 22.298C31.4878 18.3443 28.934 15.0876 24.1349 14.7443C23.4321 14.6955 23.3591 15.7497 24.06 15.7985C28.2221 16.1 30.4144 18.8113 30.3305 22.2736V22.2736Z" fill="#E0EFFD"/>
<path d="M29.1804 26.771C28.2786 26.2727 27.3604 26.5828 26.9807 27.0725L26.1866 28.0535C25.7832 28.5518 25.0293 28.4856 25.0293 28.4856C19.5274 27.0969 18.056 21.6011 18.056 21.6011C18.056 21.6011 17.9885 20.857 18.4923 20.458L19.4854 19.6739C19.9819 19.2975 20.2959 18.3914 19.7902 17.501C18.4394 15.1713 17.5321 14.368 17.0703 13.7512C16.5847 13.1709 15.8545 13.0403 15.0952 13.4323H15.0787C13.4997 14.314 11.771 15.9641 12.3241 17.6631C13.2679 19.4543 15.0021 25.1645 20.5295 29.4788C23.1271 31.5193 27.2381 33.6103 28.9832 34.0929L28.9996 34.1173C30.7192 34.6645 32.3913 32.9499 33.284 31.3973V31.3851C33.6801 30.6341 33.5487 29.9232 32.97 29.4579C31.9441 28.5031 30.3961 27.4488 29.1804 26.771Z" fill="#E0EFFD"/>
<path d="M24.8867 18.6334C26.6409 18.731 27.4916 19.6057 27.5829 21.4022C27.6157 22.1045 28.6836 22.0557 28.6507 21.3535C28.5339 19.0081 27.2524 17.7012 24.9451 17.5792C24.2423 17.5392 24.1766 18.5934 24.8867 18.6334V18.6334Z" fill="#E0EFFD"/>
</svg>
