<svg width="750" height="740" viewBox="0 0 750 740" fill="none" xmlns="http://www.w3.org/2000/svg">
<path d="M749.092 530.903C745.799 472.467 706.388 418.776 653.644 393.341C644.495 388.926 634.795 385.165 627.189 378.43C608.908 362.245 607.983 334.747 601.342 311.259C592.29 279.23 569.916 251.191 540.689 235.24C511.465 219.289 475.762 215.636 443.91 225.337C406.683 236.674 374.859 265.158 336.074 268.348C315.941 270.003 295.928 264.566 275.746 263.749C234.415 262.076 191.606 282.273 170.985 318.109C151.479 352.016 149.863 399.338 116.348 419.538C101.736 428.343 83.9352 429.709 67.888 435.507C37.6012 446.451 14.595 473.649 5.2899 504.463C-4.01522 535.278 -0.483324 569.12 11.4969 598.999C27.6164 639.211 59.0709 673.06 98.0013 692.097C106.999 696.497 116.319 700.11 125.783 703.362C167.844 717.814 212.067 724.971 256.543 724.971H562.795C629.391 724.971 690.438 687.834 720.978 628.686C739.031 593.724 750.549 556.753 749.092 530.903Z" fill="#DBECFC"/>
<path d="M360.419 600.473L360.039 600.405" stroke="black" stroke-miterlimit="10" stroke-linejoin="round"/>
<path d="M227.067 648.857L226.713 649.28" stroke="black" stroke-miterlimit="10" stroke-linejoin="round"/>
<path d="M277.732 486.265C225.935 486.265 183.947 528.229 183.947 579.991C183.947 631.757 225.935 673.721 277.732 673.721C329.525 673.721 371.513 631.757 371.513 579.991C371.513 528.229 329.525 486.265 277.732 486.265ZM198.342 610.177C182.949 567.975 203.327 521.462 244.018 503.816L265.893 563.813C258.073 569.098 254.534 579.204 257.918 588.474C258.543 590.194 259.371 591.784 260.365 593.225L219.248 642.242C210.192 633.571 202.926 622.75 198.342 610.177ZM360.025 600.473C353.738 627.266 334.477 650.476 306.667 660.603C278.856 670.73 249.177 665.354 227.103 648.886C227.092 648.879 227.078 648.864 227.067 648.857L268.109 600.003C273.144 602.59 279.207 603.15 284.947 601.058C290.695 598.966 294.979 594.638 297.17 589.417L360.039 600.404C360.035 600.429 360.028 600.448 360.025 600.473ZM298.732 579.251C298.558 577.509 298.175 575.757 297.549 574.037C294.166 564.766 284.955 559.307 275.563 560.286L253.688 500.297C296.19 487.638 341.736 510.139 357.125 552.338C361.709 564.918 363.115 577.87 361.763 590.335L298.732 579.251Z" fill="#5699E8"/>
<path d="M392.604 607.439C395.738 593.76 396.45 579.428 394.444 565.078H394.451L425.24 544.715L414.178 514.367L377.496 518.579L377.489 518.583C369.785 506.313 360.014 495.796 348.811 487.346L348.815 487.335L356.182 451.173L341.534 444.355L326.889 437.538L303.93 466.438L303.927 466.448C290.244 463.32 275.906 462.608 261.547 464.61L261.544 464.606L241.166 433.831L210.807 444.89L215.022 481.55V481.554C202.742 489.257 192.222 499.023 183.763 510.219L183.752 510.215L147.569 502.852L133.926 532.128L162.846 555.073L162.857 555.081C159.723 568.752 159.01 583.081 161.017 597.431H161.01L130.22 617.794L141.286 648.142L177.968 643.929L177.971 643.926C185.679 656.203 195.446 666.716 206.649 675.17L206.642 675.181L199.278 711.343L213.923 718.157L228.575 724.978L251.53 696.075L251.534 696.064C265.22 699.196 279.558 699.908 293.92 697.899V697.903L314.295 728.681L344.657 717.619L340.439 680.958V680.955C352.719 673.256 363.239 663.49 371.698 652.297L371.709 652.304L407.888 659.664L421.535 630.385L392.618 607.443L392.604 607.439ZM277.732 673.722C225.936 673.722 183.947 631.758 183.947 579.992C183.947 528.229 225.936 486.265 277.732 486.265C329.525 486.265 371.513 528.229 371.513 579.992C371.513 631.758 329.525 673.722 277.732 673.722Z" fill="#376F92"/>
<path d="M387.079 593.963C390.213 580.284 390.926 565.952 388.919 551.601H388.927L419.716 531.239L408.654 500.89L371.972 505.103L371.965 505.107C364.261 492.837 354.49 482.32 343.287 473.869L343.29 473.858L350.658 437.697L336.01 430.879L321.365 424.062L298.406 452.961L298.402 452.972C284.719 449.843 270.382 449.132 256.023 451.133L256.019 451.13L235.641 420.355L205.282 431.414L209.497 468.074V468.078C197.217 475.781 186.697 485.546 178.238 496.743L178.227 496.739L142.044 489.376L128.401 518.651L157.322 541.597L157.332 541.604C154.198 555.276 153.486 569.604 155.492 583.955H155.485L124.696 604.317L135.761 634.666L172.443 630.453L172.447 630.45C180.154 642.726 189.922 653.24 201.125 661.694L201.118 661.705L193.754 697.867L208.398 704.681L223.05 711.502L246.006 682.598L246.009 682.588C259.696 685.72 274.033 686.432 288.396 684.423V684.427L308.77 715.205L339.133 704.142L334.914 667.482V667.478C347.194 659.779 357.714 650.013 366.173 638.821L366.184 638.828L402.364 646.187L416.01 616.908L387.094 593.966L387.079 593.963Z" stroke="#8DC3FF" stroke-width="3" stroke-miterlimit="10" stroke-linejoin="round"/>
<path d="M258.166 608.837L202.874 730.19L198.937 736.024C195 741.842 185.989 740.051 184.586 733.167L162.307 623.953C159.843 611.868 159.93 599.517 162.443 587.664C162.448 587.653 162.448 587.648 162.448 587.643C164.528 577.819 168.275 568.337 173.604 559.618L241.703 448.24C241.703 448.24 241.708 448.272 241.714 448.337C241.719 448.37 241.724 448.408 241.73 448.456C241.735 448.483 241.735 448.51 241.741 448.537C242.542 455.514 257.164 582.815 258.166 608.837Z" fill="#2A246C"/>
<path d="M480.273 448.24C471.088 516.938 454.301 573.712 439.966 613.026C425.994 651.35 414.346 673.081 414.346 673.081L414.329 673.086C414.232 673.108 414.134 673.14 414.037 673.162C573.461 219.265 363.273 3.45715 360.879 1.02165C362.796 3.61952 527.187 228.206 414.037 673.162C379.102 682.314 342.396 682.287 307.472 673.086C307.467 673.086 307.467 673.081 307.462 673.081C307.456 673.081 307.456 673.081 307.456 673.081C307.456 673.081 295.645 651.042 281.543 612.209V612.204C267.193 572.705 250.47 515.833 241.372 447.103C235.805 404.991 233.103 358.435 235.567 308.691C246.002 97.9331 360.863 1 360.863 1H360.944C360.944 1 475.805 97.9385 486.23 308.691C488.726 358.889 485.948 405.835 480.273 448.24Z" fill="#7FBCF4"/>
<path d="M414.042 677.194V716.995C379.102 726.158 342.396 726.137 307.467 716.925C401.944 724.405 413.008 689.35 414.042 677.194Z" fill="#100B45"/>
<path d="M414.042 673.167V677.194C413.008 689.349 401.944 724.404 307.467 716.925V673.086C307.472 673.086 307.472 673.091 307.477 673.091C342.396 682.297 379.107 682.319 414.042 673.167Z" fill="#2A246C"/>
<path d="M371.309 457.506V732.031H363.76V457.506C363.76 454.637 362.59 452.034 360.711 450.151C359.704 449.144 358.491 448.343 357.131 447.813C358.301 447.352 359.574 447.104 360.906 447.104C363.776 447.104 366.376 448.273 368.26 450.151C370.139 452.029 371.309 454.632 371.309 457.506Z" fill="#100B45"/>
<path d="M363.76 457.506V732.03H350.498V457.506C350.498 453.095 353.249 449.322 357.132 447.812C358.486 448.343 359.704 449.144 360.712 450.15C362.591 452.028 363.76 454.632 363.76 457.506Z" fill="#5699E8"/>
<path d="M363.76 457.506V732.03H350.498V457.506C350.498 453.095 353.249 449.322 357.132 447.812C358.486 448.343 359.704 449.144 360.712 450.15C362.591 452.028 363.76 454.632 363.76 457.506Z" fill="#2A246C"/>
<path d="M241.381 447.104L241.378 447.107" stroke="black" stroke-miterlimit="10" stroke-linejoin="round"/>
<path d="M514.818 723.852L439.972 613.031C449.01 588.227 459.034 556.484 467.498 519.173C472.459 497.345 476.883 473.601 480.273 448.24L463.502 608.258L514.818 723.852Z" fill="#100B45"/>
<path d="M202.874 730.19L258.165 608.837C257.164 582.815 242.542 455.514 241.74 448.537C245.131 473.785 249.539 497.431 254.478 519.172C262.942 556.484 272.966 588.227 282.004 613.031L202.874 730.19Z" fill="#100B45"/>
<path d="M358.075 279.633C358.037 279.633 358.005 279.638 357.967 279.638C358.01 279.638 358.054 279.633 358.097 279.633C358.091 279.633 358.086 279.633 358.075 279.633Z" fill="#DBECFC"/>
<path d="M360.884 1.02564C360.874 1.01062 360.869 1.00562 360.869 1.00562" stroke="black" stroke-miterlimit="10" stroke-linejoin="round"/>
<path d="M414.043 673.167C527.193 228.211 362.802 3.62497 360.885 1.0271C363.279 3.4626 573.468 219.27 414.043 673.167Z" fill="#376F92"/>
<path d="M360.884 1.02564C360.874 1.01062 360.869 1.00562 360.869 1.00562" stroke="black" stroke-miterlimit="10" stroke-linejoin="round"/>
<path opacity="0.35" d="M336.115 59.5984C336.115 59.5984 325.1 54.2835 302.085 96.7696C279.069 139.256 274.482 198.373 284.561 200.728C294.639 203.082 304.581 189.449 327.483 117.78C334.036 97.2567 348.262 57.3252 336.115 59.5984Z" fill="#DBECFC"/>
<path opacity="0.35" d="M278.094 219.118C278.094 219.118 272.234 217.37 264.263 240.177C256.291 262.985 258.75 292.53 263.911 292.887C269.072 293.244 272.895 285.727 278.473 248.523C280.076 237.872 283.91 217.029 278.094 219.118Z" fill="#DBECFC"/>
<path d="M197.474 701.441L196.234 701.641C192.389 702.258 188.739 699.617 188.122 695.774L172.461 597.959C171.843 594.116 174.486 590.468 178.331 589.851L179.571 589.651C183.416 589.034 187.066 591.675 187.683 595.518L203.345 693.333C203.962 697.181 201.319 700.829 197.474 701.441Z" fill="#544BA3"/>
<path d="M365.618 291.881C388.426 291.881 406.916 273.402 406.916 250.607C406.916 227.812 388.426 209.333 365.618 209.333C342.81 209.333 324.32 227.812 324.32 250.607C324.32 273.402 342.81 291.881 365.618 291.881Z" fill="#376F92"/>
<path d="M365.618 345.467C379.008 345.467 389.863 334.619 389.863 321.237C389.863 307.855 379.008 297.006 365.618 297.006C352.228 297.006 341.373 307.855 341.373 321.237C341.373 334.619 352.228 345.467 365.618 345.467Z" fill="#376F92"/>
<path d="M360.755 291.881C383.564 291.881 402.053 273.402 402.053 250.607C402.053 227.812 383.564 209.333 360.755 209.333C337.947 209.333 319.458 227.812 319.458 250.607C319.458 273.402 337.947 291.881 360.755 291.881Z" fill="#100B45"/>
<path d="M353.509 263.212L346.209 260.084L344.141 246.997L334.1 229.607C329.53 235.382 326.806 242.678 326.806 250.607C326.806 258.736 329.665 266.205 334.442 272.045C340.669 279.67 350.141 284.531 360.755 284.531C362.407 284.531 364.032 284.412 365.618 284.179L353.509 263.212ZM382.222 224.33C376.373 219.551 368.895 216.683 360.755 216.683C357.49 216.683 354.322 217.143 351.332 218.009C351.056 218.09 350.78 218.171 350.498 218.263L352.161 221.143L356.428 238.04L365.705 244.572L383.652 275.649C390.442 269.452 394.699 260.527 394.699 250.607C394.704 240.01 389.836 230.544 382.222 224.33Z" fill="#DBECFC"/>
<path d="M383.652 275.649C382.482 276.715 381.247 277.706 379.937 278.599C376.352 281.051 372.279 282.842 367.887 283.773C367.14 283.93 366.382 284.065 365.618 284.173L353.509 263.206L346.209 260.078L344.141 246.991L334.101 229.602C335.736 227.529 337.61 225.646 339.678 224.011C342.868 221.478 346.529 219.508 350.504 218.252L352.166 221.132L356.434 238.029L365.71 244.561L383.652 275.649Z" fill="white"/>
<path d="M360.756 345.467C374.146 345.467 385.001 334.619 385.001 321.237C385.001 307.855 374.146 297.006 360.756 297.006C347.366 297.006 336.511 307.855 336.511 321.237C336.511 334.619 347.366 345.467 360.756 345.467Z" fill="#100B45"/>
<path d="M357.067 327.65L353.352 326.058L352.301 319.401L347.195 310.558C344.871 313.497 343.485 317.204 343.485 321.242C343.485 325.377 344.942 329.176 347.368 332.147C350.536 336.028 355.356 338.501 360.755 338.501C361.594 338.501 362.423 338.442 363.23 338.323L357.067 327.65ZM371.672 307.868C368.699 305.438 364.892 303.977 360.749 303.977C359.087 303.977 357.478 304.209 355.957 304.653C355.816 304.696 355.675 304.74 355.534 304.783L356.379 306.25L358.551 314.85L363.268 318.173L372.398 333.982C375.853 330.827 378.019 326.291 378.019 321.242C378.025 315.846 375.55 311.034 371.672 307.868Z" fill="#DBECFC"/>
<path d="M372.403 333.976C371.807 334.517 371.179 335.021 370.513 335.475C368.688 336.72 366.619 337.635 364.382 338.106C364.003 338.187 363.619 338.257 363.229 338.311L357.066 327.644L353.351 326.053L352.301 319.396L347.194 310.552C348.022 309.497 348.981 308.539 350.032 307.705C351.656 306.417 353.519 305.416 355.539 304.777L356.384 306.244L358.555 314.844L363.272 318.167L372.403 333.976Z" fill="white"/>
<path d="M371.31 457.506L402.053 675.933C402.053 675.933 383.597 678.439 369.301 678.498L371.31 457.506Z" fill="#376F92"/>
<path d="M559.668 623.953L537.389 733.167C535.987 740.051 526.975 741.842 523.038 736.024L514.818 723.852L463.501 608.258L480.273 448.24L548.372 559.618C553.701 568.337 557.448 577.819 559.528 587.643C559.528 587.648 559.528 587.653 559.533 587.664C562.046 599.517 562.132 611.868 559.668 623.953Z" fill="#332B76"/>
<path d="M200.509 397.807C200.509 397.807 202.646 377.318 181.581 377.199C172.07 377.144 162.461 383.001 156.362 390.295C149.899 398.023 140.019 407.623 131.321 406.944C127.738 406.662 121.893 406.586 118.234 401.019" stroke="#100B45" stroke-miterlimit="10" stroke-linejoin="round"/>
<path d="M199.894 400.567C199.894 400.567 206.467 379.518 185.514 378.312C163.632 377.054 155.039 399.942 144.324 404.072C133.609 408.201 123.754 412.511 117.739 404.321C111.724 396.131 97.7478 417.757 115.765 436.971C121.235 442.806 135.698 442.687 140.235 443.221C150.596 444.446 153.456 456.867 158.878 454.067C164.301 451.267 179.372 465.282 198.011 443.221C208.824 430.428 191.833 411.276 199.894 400.567Z" fill="#100B45"/>
<path d="M197.061 397.149C197.061 397.149 194.078 378.102 178.44 383.922C162.801 389.743 157.046 411.814 125.266 412.139C125.266 412.139 115.404 412.692 113.759 407.854" stroke="#1D1D5B" stroke-miterlimit="10"/>
<path d="M152.292 478.371C152.292 478.371 92.268 491.555 89.1518 491.197C86.0356 490.84 79.6081 493.668 80.5552 496.823C81.5024 499.977 105.676 560.471 105.676 560.471L108.966 555.67L105.792 523.638C105.792 523.638 103.041 508.987 98.5654 506.245C98.5654 506.245 135.526 510.129 148.695 507.318C178.425 500.974 152.292 478.371 152.292 478.371Z" fill="#D34254"/>
<path d="M113.911 556.06C110.223 555.897 108.969 555.67 108.969 555.67L105.679 560.471L109.891 582.405C110.115 583.572 111.774 583.601 112.038 582.441C112.815 579.02 114.438 574.482 114.193 570.909C113.705 563.831 117.598 556.222 113.911 556.06Z" fill="#100B45"/>
<path d="M61.1457 591.828C57.18 593.652 57.3897 589.443 48.4461 593.696C43.4284 596.08 39.976 595.943 37.9082 595.365C36.8201 595.061 36.6719 593.576 37.6696 593.045L57.6138 582.402L64.7499 585.819C64.7499 585.819 65.1114 590.003 61.1457 591.828Z" fill="#100B45"/>
<path d="M158.065 514.233C155.202 515.118 107.625 547.602 107.625 547.602C107.625 547.602 105.835 555.265 103.858 559.011C101.88 562.762 64.7503 585.819 64.7503 585.819L57.6143 582.402L98.3124 543.711L99.9392 539.733L153.865 481.626C153.865 481.626 168.386 466.203 175.414 487.284C182.442 508.369 160.929 513.348 158.065 514.233Z" fill="#FD394B"/>
<path d="M195.893 402.41C195.893 402.41 198.579 400.647 199.204 401.738" stroke="black" stroke-miterlimit="10" stroke-linejoin="round"/>
<path d="M201.735 401.051C201.735 404.545 197.794 407.544 193.778 408.245C193.778 408.245 179.144 420.818 174.636 417.223C171.314 414.571 170.964 409.585 171.585 404.628C171.762 403.219 172.016 401.814 172.305 400.462C172.833 397.984 173.469 395.697 173.932 393.938C174.532 391.643 175.71 388.417 177.333 387.55C180.742 385.729 187.455 384.208 192.961 392.554C194.693 395.18 197.061 399.35 197.061 399.35C197.061 399.35 201.738 397.561 201.735 401.051Z" fill="#FEC5BA"/>
<path d="M178.439 429.189L158.314 439.153C151.081 432.769 142.195 424.456 137.217 418.061C127.85 406.026 120.49 368.618 120.49 368.618C125.989 369.489 130.768 366.024 130.768 366.024C130.768 366.024 139.798 391.618 149.129 407.688C158.463 423.762 174.741 426.436 178.439 429.189Z" fill="#F2994A"/>
<path d="M193.778 408.244L185.605 428.632C185.605 428.632 179.958 431.808 177.062 428.542L178.776 421.659L179.886 417.212L189.719 411.445L193.778 408.244Z" fill="#FEC5BA"/>
<path d="M175.414 487.288C155.614 491.714 152.292 478.371 152.292 478.371C152.292 478.371 154.566 468.605 155.668 463.041C156.464 459.028 156.709 449.197 156.785 444.041C156.821 441.678 157.873 439.435 159.699 437.932C166.268 432.52 177.062 428.542 177.062 428.542C179.958 431.808 185.604 428.632 185.604 428.632C200.018 436.656 175.414 487.288 175.414 487.288Z" fill="#FFB957"/>
<path d="M197.549 513.803L189.719 510.544L200.264 477.768L179.633 445.664C179.633 445.664 177.76 441.509 178.938 437.437C179.77 434.565 182.12 431.736 187.719 430.432C187.719 430.432 212.739 474.246 213.318 479.596C213.9 484.943 197.549 513.803 197.549 513.803Z" fill="#FFB957"/>
<path d="M189.718 510.544C189.718 510.544 184.335 521.95 183.537 526.098C182.741 530.245 184.845 532.525 184.845 532.525L191.746 520.516L197.548 513.803L189.718 510.544Z" fill="#FEC5BA"/>
<path d="M130.768 366.024C130.768 366.024 125.989 369.489 120.49 368.618C119.89 366.114 119.431 363.853 119.087 361.819C116.73 347.898 119.818 344.477 121.528 345.062C122.496 345.391 123.426 349.625 124.774 352.92C126.166 356.312 127.966 358.762 127.966 358.762C127.966 358.762 129.535 347.967 130.822 350.351C131.971 352.479 130.768 366.024 130.768 366.024Z" fill="#FEC5BA"/>
<path d="M197.223 401.38C197.223 401.38 199.161 400.275 199.468 401.25C200.108 403.288 197.552 405.611 194.657 405.611" fill="#FFA7A6"/>
<path d="M178.776 421.659C178.776 421.659 186.179 418.158 190.568 410.81C190.568 410.81 182.391 415.517 179.882 417.215L178.776 421.659Z" fill="#FFA7A6"/>
<path d="M197.552 406.886C197.552 406.886 199.721 414.668 201.229 419.596C202.736 424.524 206.984 437.123 200.408 444.034" stroke="#100B45" stroke-miterlimit="10" stroke-linejoin="round"/>
<path d="M195.893 408.779C195.893 408.779 199.559 426.848 197.549 431.71C195.539 436.573 193.775 438.257 193.775 438.257" stroke="#171656" stroke-miterlimit="10"/>
<path d="M152.292 474.361C152.292 481.652 167.518 489.488 180.196 482.577" stroke="#171656" stroke-miterlimit="10"/>
<path d="M189.238 506.946L200.759 512.286" stroke="#171656" stroke-miterlimit="10"/>
<path d="M119.196 371.678C119.196 371.678 128.143 372.278 132.799 368.759" stroke="#171656" stroke-miterlimit="10"/>
<path d="M174.984 429.366C174.984 429.366 176.018 435.067 187.047 429.695" stroke="#171656" stroke-miterlimit="10"/>
<path d="M61.3301 583.294L104.016 546.605L162.483 496.523" stroke="white" stroke-miterlimit="10"/>
<path d="M189.719 510.544L200.264 477.768L179.633 445.663C179.633 445.663 177.76 441.509 178.938 437.437L202.527 477.508L189.719 510.544Z" fill="#EDAF14"/>
<path d="M184.86 453.8L179.405 478.368C179.405 478.368 185.666 463.443 187.043 457.2L184.86 453.8Z" fill="#EDAF14"/>
<path d="M694.869 593.448C694.352 593.82 693.839 594.185 693.322 594.532C687.946 598.174 682.647 600.49 677.817 601.938C673.573 603.214 669.694 603.813 666.448 604.066L665.652 601.042C665.652 601.042 654.963 572.341 656.416 550.732V550.729C656.257 550.234 655.313 530.804 592.274 510.961V499.848C592.274 499.848 629.556 504.671 661.318 528.972C664.319 531.27 667.67 533.058 671.267 534.207C675.095 535.421 680.275 537.625 683.952 541.328C695.78 553.225 685.828 562.912 694.869 593.448Z" fill="#F2994A"/>
<path d="M674.379 537.516C673.512 537.473 668.096 521.565 668.096 521.565L660.338 533.108L662.569 539.828C663.353 542.191 666.9 546.512 666.9 546.512C666.9 546.512 675.091 537.552 674.379 537.516Z" fill="#FEC5BA"/>
<path d="M667.019 522.627C667.019 522.627 667.304 532.881 661.712 537.151L659.977 532.386L667.019 522.627Z" fill="#FFA7A6"/>
<path d="M710.559 660.774C704.995 640.488 704.923 620.299 700.375 608.832C699.45 606.494 698.629 604.406 697.95 602.599C697.74 602.054 697.548 601.533 697.371 601.038C696.406 598.372 695.578 595.843 694.87 593.444C694.353 593.816 693.839 594.181 693.323 594.528C687.947 598.17 682.647 600.486 677.818 601.934C673.574 603.21 669.695 603.81 666.448 604.062L669.217 614.612L669.651 616.256L713.852 723.513C713.852 723.513 719.036 725.601 724.473 721.724C724.481 721.728 719.654 693.937 710.559 660.774Z" fill="#332B76"/>
<path d="M668.104 521.8C668.104 521.8 660.979 538.77 651.757 535.208C645.944 532.96 644.393 523.05 644.042 516.03C643.963 514.397 643.945 512.919 643.956 511.734C643.974 509.361 645.127 507.142 647.072 505.78C650.242 503.566 656.051 501.578 665.19 505.643C667.497 506.669 669.004 508.916 669.105 511.413C669.105 511.536 669.109 511.655 669.109 511.778L669.098 512.374C669.098 512.374 673.194 509.494 674.051 512.876C674.904 516.261 671.824 520.138 668.104 521.8Z" fill="#FEC5BA"/>
<path d="M668.885 515.048C668.885 515.048 669.933 514.007 670.909 513.772C671.535 513.621 672.066 514.235 671.835 514.835C671.437 515.864 670.504 517.7 668.751 518.39" fill="#FFA7A6"/>
<path d="M683.959 541.328C683.959 547.809 681.483 554.042 677.036 558.76C669.528 566.723 658.028 578.555 653.622 581.128C646.847 585.08 602.288 574.224 602.288 574.224C602.288 574.224 603.499 569.061 603.514 564.49L647.104 567.196C647.104 567.193 671.747 526.208 683.959 541.328Z" fill="#FDC31A"/>
<path d="M669.105 512.212C669.105 509.711 666.958 506.868 665.219 505.965C656.344 501.355 650.242 503.566 647.071 505.781C645.126 507.143 643.973 509.361 643.955 511.735C643.944 512.92 643.962 514.397 644.042 516.03C643.377 513.01 642.256 509.701 641.132 506.778C639.331 502.088 639.646 494.62 644.66 494.241C650.354 493.811 660.888 496.593 666.451 501.026C666.686 501.214 668.183 502.811 668.331 503.071C668.848 503.963 670.269 507.641 670.316 511.691L669.105 512.212Z" fill="#100B45"/>
<path d="M691.941 627.514C691.941 627.514 664.517 668.925 665.598 671.902L680.254 726.613L667.185 728.105L643.395 675.573C642.422 673.282 642.509 670.681 643.64 668.463C647.631 660.612 658.155 633.284 669.22 614.616C672.051 609.843 674.947 605.49 677.821 601.938C682.65 600.489 689.494 597.09 694.869 593.444C694.884 593.466 694.902 593.495 694.923 593.524C701.9 604.174 700.639 618.218 691.941 627.514Z" fill="#2A246C"/>
<path d="M667.185 728.105L652.805 731.649C651.558 731.957 650.827 733.25 651.207 734.478C651.496 735.41 652.36 736.046 653.336 736.046H672.178H678.02C679.874 736.046 681.306 734.413 681.056 732.574L680.254 726.617L667.185 728.105Z" fill="#100B45"/>
<path d="M711.545 723.39L697.165 726.934C695.918 727.241 695.187 728.535 695.567 729.763C695.856 730.695 696.72 731.331 697.696 731.331H716.538H722.38C724.234 731.331 725.666 729.698 725.416 727.859L724.614 721.902L711.545 723.39Z" fill="#100B45"/>
<path d="M602.288 574.223C602.288 574.223 590.229 571.633 589.104 570.506C587.98 569.382 587.673 559.356 587.673 559.356C587.673 559.356 589.827 557.853 590.54 561.199C590.926 563.013 592.658 564.642 594.165 565.751C595.517 566.748 597.285 566.987 598.865 566.412C600.383 565.86 601.327 564.335 601.142 562.731L600.6 558.023C600.6 558.023 601.352 557.72 602.292 559.255C603.232 560.791 603.517 564.49 603.517 564.49C603.517 564.49 603.091 572.724 602.288 574.223Z" fill="#FEC5BA"/>
<path d="M592.278 499.848C592.278 499.848 586.14 498.497 579.947 500.542C573.755 502.587 574.676 506.781 574.676 506.781C574.676 506.781 587.163 506.453 586.241 507.873C585.319 509.292 578.935 509.115 579.311 509.892C579.691 510.669 580.301 512.277 592.278 510.962V499.848Z" fill="#FEC5BA"/>
<path d="M604.153 569.779L645.607 573.761C648.629 574.05 651.612 572.905 653.661 570.661L679.122 542.78" stroke="#100B45" stroke-miterlimit="10" stroke-linejoin="round"/>
<path d="M688.45 604.066L687.43 605.981" stroke="white" stroke-linejoin="round"/>
<path d="M685.464 609.663L655.018 666.765" stroke="white" stroke-linejoin="round" stroke-dasharray="11.55 11.55"/>
<path d="M654.035 668.607L653.015 670.518L653.745 672.56" stroke="white" stroke-linejoin="round"/>
<path d="M655.109 676.368L670.78 720.135" stroke="white" stroke-linejoin="round" stroke-dasharray="11.19 11.19"/>
<path d="M671.462 722.035L672.193 724.076" stroke="white" stroke-linejoin="round"/>
<path d="M668.75 504.382C668.75 504.382 664.177 493.941 646.879 492.333" stroke="#100B45" stroke-miterlimit="10" stroke-linejoin="round"/>
<path d="M572.595 346.331L569.876 350.28L564.056 350.619L561.684 350.757C561.655 350.627 561.63 350.504 561.612 350.384L561.337 348.629L560.524 343.39L569.876 332.594C569.876 332.594 571.658 341.414 572.595 346.331Z" fill="#FEC5BA"/>
<path d="M560.524 343.39L560.979 346.331C560.979 346.331 569.327 342.1 570.057 333.523L560.524 343.39Z" fill="#FFA7A6"/>
<path d="M633.581 542.086C630.37 544.373 627.251 544.582 625.233 544.369C623.831 544.225 622.96 543.874 622.96 543.874C622.96 543.874 591.426 460.058 585.757 446.344C580.089 432.633 572.595 435.234 572.595 435.234L571.948 438.681L567.349 431.408V431.404L556.139 413.672L561.916 413.647L565.437 413.629C565.451 413.643 565.462 413.658 565.477 413.672C565.683 413.9 565.885 414.091 566.081 414.243C566.081 414.243 576.918 419.807 597.799 414.243C610.542 435.462 633.581 542.086 633.581 542.086Z" fill="#0F59B2"/>
<path d="M633.581 542.086C630.37 544.373 627.251 544.582 625.233 544.369C619.992 528.538 594.433 451.467 589.351 439.172C583.682 425.461 576.188 428.062 576.188 428.062L567.349 431.408V431.404L561.916 413.647L565.437 413.629C565.452 413.643 565.462 413.658 565.477 413.672C565.683 413.9 565.885 414.091 566.081 414.243C566.081 414.243 576.918 419.807 597.799 414.243C610.542 435.462 633.581 542.086 633.581 542.086Z" fill="#376F92"/>
<path d="M478 232L504.252 254.259L496.213 276.428L478 232Z" fill="#376F92"/>
<path d="M574.915 321.579L574.373 323.822C573.415 324.003 572.602 324.393 572.602 324.393L572.71 323.808C572.71 323.801 572.714 323.797 572.714 323.79C573.184 321.196 572.067 318.566 569.865 317.109C561.529 311.585 555.47 312.583 551.978 314.241C549.834 315.26 548.327 317.258 547.915 319.592C547.734 320.625 547.532 321.879 547.358 323.277C547.347 322.93 546.953 310.769 552.665 307.243C557.44 304.298 563.633 305.216 569.388 308.514C573.936 311.123 576.145 316.484 574.915 321.579Z" fill="#100B45"/>
<path d="M570.057 333.523C570.057 333.523 560.213 349.08 551.714 344.033C546.209 340.767 546.484 330.275 547.358 323.284C547.358 323.28 547.358 323.277 547.358 323.277C547.532 321.879 547.734 320.625 547.915 319.592C548.327 317.258 549.835 315.26 551.978 314.241C555.47 312.583 561.529 311.585 569.866 317.11C572.067 318.566 573.184 321.196 572.714 323.79C572.714 323.797 572.711 323.801 572.711 323.808L572.602 324.393C572.602 324.393 573.416 324.003 574.373 323.822C575.675 323.573 577.24 323.703 577.403 325.708C577.685 329.188 574.005 332.501 570.057 333.523Z" fill="#FEC5BA"/>
<path d="M572.71 346.912C572.602 346.562 572.595 346.331 572.595 346.331C572.634 346.53 572.671 346.725 572.71 346.912Z" fill="#FEC5BA"/>
<path d="M573.365 326.254C572.613 326.525 571.948 326.994 571.948 326.994L571 330.329C572.663 330.373 573.911 328.906 574.608 327.796C575.136 326.962 574.294 325.918 573.365 326.254Z" fill="#FFA7A6"/>
<path d="M578.198 350.41C577.924 350.374 577.663 350.33 577.417 350.283C577.674 350.319 577.934 350.359 578.198 350.41Z" fill="#100B45"/>
<path d="M597.799 414.243C597.481 414.329 597.163 414.409 596.848 414.488C576.589 419.637 566.081 414.243 566.081 414.243C565.885 414.091 565.683 413.899 565.477 413.672C561.605 405.991 552.665 370.057 552.665 370.057C548.078 369.695 514.215 346.443 513.688 346.078C513.684 346.074 513.68 346.074 513.68 346.074C502.546 335.141 489.42 297.578 489.42 297.578C494.987 297.578 499.162 293.206 499.162 293.206C499.162 293.206 512.09 318.247 523.824 333.375C535.555 348.498 552.054 348.6 556.139 350.843L561.301 361.819L567.1 384.01L567.928 361.819L578.198 350.41C580.186 350.753 582.2 351.317 584.101 351.967L584.116 351.974C589.647 353.864 594.224 356.494 594.412 356.602L594.419 356.606C595.221 362.097 595.868 370.436 596.371 379.078L591.538 372.795L592.669 379.06L597.56 406.106V406.11C597.611 407.624 597.651 408.968 597.687 410.11C597.763 412.707 597.799 414.243 597.799 414.243Z" fill="#EC5A65"/>
<path d="M573.921 446.206L582.175 502.55H569.507C569.507 502.55 543.891 433.724 547.105 421.96C551.62 405.431 572.595 413.625 573.921 446.206Z" fill="#5699E8"/>
<path d="M573.752 413.673C573.738 413.658 573.727 413.643 573.712 413.629L573.738 413.625L573.752 413.673Z" stroke="black" stroke-miterlimit="10" stroke-linejoin="round"/>
<path d="M499.162 293.206C499.162 293.206 494.987 297.578 489.42 297.578C489.42 297.578 479.486 290.381 484.503 284.12C489.518 277.859 493.993 280.89 493.993 280.89L499.162 293.206Z" fill="#FEC5BA"/>
<path d="M486.991 301.87L504.253 254.259" stroke="#021358" stroke-width="3" stroke-miterlimit="10" stroke-linejoin="round"/>
<path d="M578.198 350.41L567.928 361.819L567.1 384.01L561.301 361.819L556.139 350.843C556.139 350.843 559.031 351.501 561.338 348.629L561.612 350.385C561.63 350.504 561.656 350.627 561.685 350.757C562.252 353.3 564.772 357.693 564.772 357.693L569.876 350.28L572.595 346.331C572.595 346.331 572.602 346.562 572.711 346.912C573 347.837 573.99 349.604 577.417 350.283C577.663 350.33 577.923 350.374 578.198 350.41Z" fill="#100B45"/>
<path d="M569.876 350.28L564.772 357.694C564.772 357.694 562.252 353.3 561.685 350.757L564.056 350.619L569.876 350.28Z" fill="white"/>
<path d="M604.36 427.361L604.345 427.358C604.038 427.289 599.046 426.169 594.617 426.169L596.848 414.489L597.686 410.11L602.173 386.619L602.169 386.615L596.371 379.078L591.537 372.796L592.669 379.06C584.231 371.423 574.597 359.684 584.101 351.967L584.116 351.974L594.411 356.602L594.418 356.606C594.418 356.606 612.118 373.301 616.094 380.057C620.071 386.817 604.36 427.361 604.36 427.361Z" fill="#EC5A65"/>
<path d="M492.995 281.641L499.166 293.206C501.306 281.193 495.453 280.731 493.375 280.926C493.028 280.959 492.832 281.338 492.995 281.641Z" fill="#FEC5BA"/>
<path d="M596.559 382.388C597.033 391.203 597.362 400.001 597.561 406.106L592.67 379.06L591.538 372.795L596.371 379.078L602.17 386.615C602.058 386.543 599.697 384.935 596.559 382.388Z" fill="#FD394B"/>
<path d="M566.081 374.284C566.081 374.284 569.374 404.802 572.009 415.999" stroke="#100B45" stroke-miterlimit="10" stroke-linejoin="round"/>
<path d="M565.477 413.672C565.462 413.658 565.451 413.643 565.437 413.629C559.707 407.18 550.673 372.705 550.673 372.705C550.673 372.705 524.829 357.011 513.688 346.078C514.215 346.443 548.077 369.696 552.665 370.057C552.665 370.057 561.605 405.991 565.477 413.672Z" fill="#FD394B"/>
<path d="M513.688 346.078C513.684 346.074 513.68 346.074 513.68 346.074" stroke="#100B45" stroke-miterlimit="10" stroke-linejoin="round"/>
<path d="M593.272 359.287L612.627 379.508C613.889 380.906 614.384 382.836 613.947 384.667L604.36 425.006" stroke="#FD394B" stroke-miterlimit="10"/>
<path d="M595.012 355.992C595.012 355.992 593.265 356.32 592.542 365.346" stroke="#FD394B" stroke-miterlimit="10"/>
<path d="M555.398 350.28C555.398 350.28 553.822 351.718 553.457 357.694" stroke="#FD394B" stroke-miterlimit="10"/>
<path d="M574.373 323.822C574.373 323.822 580.493 309.179 565.78 305.465" stroke="#100B45" stroke-miterlimit="10" stroke-linejoin="round"/>
<path d="M607.552 709.382L534.507 422.596L530.512 432.885L603.558 720.275L607.552 709.382Z" fill="#376F92"/>
<path d="M611.547 432.885H530.512L534.507 422.596H615.542L611.547 432.885Z" fill="#74B3ED"/>
<path d="M621.93 473.202H540.895L544.89 462.909H625.924L621.93 473.202Z" fill="#74B3ED"/>
<path d="M632.55 515.018H551.519L555.513 504.725H636.544L632.55 515.018Z" fill="#74B3ED"/>
<path d="M643.175 556.833H562.14L566.135 546.54H647.17L643.175 556.833Z" fill="#74B3ED"/>
<path d="M653.799 598.65H572.765L576.759 588.36H657.794L653.799 598.65Z" fill="#74B3ED"/>
<path d="M664.421 640.466H583.39L587.384 630.176H668.415L664.421 640.466Z" fill="#74B3ED"/>
<path d="M675.045 682.282H594.01L598.005 671.992H679.04L675.045 682.282Z" fill="#74B3ED"/>
<path d="M688.588 709.382L615.542 422.596L611.547 432.885L684.593 720.275L688.588 709.382Z" fill="#376F92"/>
<path d="M604.36 427.361L604.345 427.358C604.038 427.289 599.046 426.169 594.617 426.169C594.617 426.169 594.563 426.191 594.465 426.238C598.265 426.484 601.894 427.3 602.155 427.358L602.169 427.361L595.608 432.886C596.84 432.795 597.209 433.204 597.104 433.818L597.798 432.886L604.36 427.361Z" fill="#FFA7A6"/>
<path d="M595.323 435.816C592.572 437.817 585.237 435.993 585.757 432.885C586.234 430.028 593.486 426.675 594.618 426.169C598.28 426.082 602.253 426.931 602.513 426.989L602.17 427.361L595.608 432.885C598.67 432.661 597.123 434.508 595.323 435.816Z" fill="#FEC5BA"/>
<path d="M569.511 502.55C569.511 502.55 562.964 504.743 560.759 508.175C558.554 511.607 560.759 514.332 560.759 514.332H569.511L582.778 508.175L582.175 502.55H569.511Z" fill="#100B45"/>
<path d="M622.959 543.875L615.895 548.824C614.355 549.904 613.433 551.704 613.589 553.575C613.657 554.381 613.907 555.125 614.503 555.551C614.818 555.775 615.367 555.96 616.062 556.111C621.47 557.297 624.691 554.775 629.567 549.724L633.58 546.537V542.083L622.959 543.875Z" fill="#100B45"/>
</svg>
