<svg width="191" height="50" viewBox="0 0 191 50" fill="none" xmlns="http://www.w3.org/2000/svg">
<path d="M59.488 24.0237V7.526H63.398C64.4936 7.526 65.438 7.65935 66.1936 7.92606C66.9491 8.19277 67.5347 8.64997 67.9314 9.27864C68.328 9.92635 68.5358 10.7836 68.5358 11.8885C68.5358 12.5553 68.4791 13.1459 68.3469 13.6793C68.2147 14.2127 68.0258 14.6699 67.7236 15.0319C67.4402 15.4129 67.0247 15.6986 66.5147 15.8891L68.8002 24.0237H65.8158L63.8325 16.4606H62.4536V24.0237H59.488ZM62.4725 14.5747H63.398C63.9836 14.5747 64.4369 14.4985 64.7769 14.327C65.1169 14.1555 65.3625 13.8888 65.5136 13.5078C65.6647 13.1268 65.7402 12.6506 65.7402 12.079C65.7402 11.2599 65.5891 10.6312 65.2869 10.2121C64.9847 9.793 64.3991 9.58345 63.568 9.58345H62.4725V14.5747Z" fill="#FCFCFC"/>
<path d="M74.1837 24.2142C73.3148 24.2142 72.597 24.0428 72.0493 23.7189C71.5015 23.395 71.0859 22.8997 70.8215 22.252C70.557 21.6043 70.4248 20.8232 70.4248 19.9279V16.3845C70.4248 15.451 70.557 14.6509 70.8215 14.0222C71.0859 13.3745 71.5015 12.8983 72.0493 12.5744C72.6159 12.2506 73.3148 12.0791 74.1837 12.0791C75.1092 12.0791 75.8459 12.2506 76.3559 12.6125C76.8659 12.9745 77.2437 13.4698 77.4704 14.1556C77.697 14.8414 77.8104 15.6415 77.8104 16.6131V18.2895H73.1448V20.6137C73.1448 20.9947 73.1826 21.2995 73.2581 21.5472C73.3337 21.7948 73.447 21.9663 73.617 22.0806C73.787 22.1949 73.9759 22.252 74.2026 22.252C74.4481 22.252 74.637 22.1949 74.7881 22.0806C74.9393 21.9663 75.0526 21.7948 75.1092 21.5662C75.1848 21.3376 75.2037 21.0518 75.2037 20.728V19.7564H77.7726V20.5565C77.7726 21.7567 77.4704 22.6711 76.8848 23.2998C76.2804 23.8904 75.3926 24.2142 74.1837 24.2142ZM73.1448 16.8989H75.2037V15.7749C75.2037 15.3748 75.1659 15.0319 75.1092 14.7843C75.0337 14.5366 74.9393 14.3461 74.7881 14.2318C74.637 14.1175 74.4292 14.0603 74.1648 14.0603C73.9192 14.0603 73.7304 14.1175 73.5792 14.2508C73.4281 14.3652 73.3148 14.5747 73.2581 14.8605C73.1826 15.1462 73.1637 15.5463 73.1637 16.0797V16.8989H73.1448Z" fill="#FCFCFC"/>
<path d="M79.6426 24.0236V12.2505H82.287V13.2601C82.6837 12.822 83.137 12.5172 83.6092 12.3076C84.0815 12.1171 84.5537 12.0028 85.0448 12.0028C85.4981 12.0028 85.8948 12.1171 86.2537 12.3457C86.5937 12.5743 86.8581 12.9363 87.0092 13.4506C87.4626 12.9363 87.9159 12.5553 88.4259 12.3457C88.917 12.1171 89.427 12.0028 89.9559 12.0028C90.3715 12.0028 90.7493 12.1171 91.0704 12.3267C91.3915 12.5362 91.6559 12.841 91.8448 13.2601C92.0337 13.6792 92.1281 14.1936 92.1281 14.8223V24.0046H89.5026V15.0699C89.5026 14.6127 89.427 14.3079 89.2759 14.1365C89.1248 13.965 88.917 13.8888 88.6526 13.8888C88.4448 13.8888 88.1992 13.9459 87.9348 14.0793C87.6704 14.2127 87.4248 14.3651 87.217 14.5937C87.217 14.6318 87.217 14.6699 87.217 14.708C87.217 14.7461 87.217 14.7842 87.217 14.8413V24.0236H84.6104V15.089C84.6104 14.6318 84.5348 14.327 84.3837 14.1555C84.2326 13.9841 84.0248 13.9078 83.7415 13.9078C83.5337 13.9078 83.2881 13.965 83.0426 14.0984C82.7781 14.2127 82.5515 14.3841 82.3059 14.6127V24.0427H79.6426V24.0236Z" fill="#FCFCFC"/>
<path d="M97.6813 24.2142C96.8313 24.2142 96.1324 24.0618 95.5846 23.738C95.0368 23.4141 94.6213 22.9569 94.3379 22.3473C94.0546 21.7377 93.9224 20.9947 93.9224 20.1184V16.1749C93.9224 15.2986 94.0546 14.5747 94.3379 13.946C94.6213 13.3364 95.0368 12.8792 95.5846 12.5554C96.1324 12.2315 96.8313 12.0791 97.6813 12.0791C98.5313 12.0791 99.2301 12.2315 99.7968 12.5554C100.363 12.8792 100.779 13.3364 101.043 13.946C101.327 14.5557 101.459 15.2986 101.459 16.1749V20.1184C101.459 20.9947 101.327 21.7186 101.043 22.3473C100.76 22.9569 100.345 23.4331 99.7968 23.738C99.2301 24.0618 98.5313 24.2142 97.6813 24.2142ZM97.7001 22.3092C98.0024 22.3092 98.229 22.2139 98.3801 22.0425C98.5312 21.871 98.6257 21.6234 98.6635 21.3186C98.7012 21.0137 98.7201 20.6708 98.7201 20.3089V15.9844C98.7201 15.6225 98.7012 15.2796 98.6635 14.9938C98.6257 14.689 98.5312 14.4604 98.3801 14.2699C98.229 14.0794 98.0024 14.0032 97.7001 14.0032C97.3979 14.0032 97.1524 14.0984 97.0201 14.2699C96.869 14.4604 96.7746 14.689 96.7179 14.9938C96.6613 15.2986 96.6424 15.6225 96.6424 15.9844V20.3089C96.6424 20.6708 96.6613 21.0137 96.7179 21.3186C96.7746 21.6234 96.869 21.871 97.0201 22.0425C97.1713 22.2139 97.3979 22.3092 97.7001 22.3092Z" fill="#FCFCFC"/>
<path d="M106.71 24.1761C105.974 24.1761 105.388 24.0618 104.954 23.8141C104.538 23.5665 104.236 23.2236 104.047 22.7473C103.877 22.2901 103.782 21.7376 103.782 21.0899V14.0984H102.611V12.2696H103.782V8.7262H106.578V12.2505H108.354V14.0794H106.578V20.8423C106.578 21.2423 106.672 21.5471 106.842 21.6995C107.012 21.871 107.277 21.9472 107.636 21.9472C107.787 21.9472 107.938 21.9472 108.07 21.9281C108.202 21.9091 108.354 21.9091 108.486 21.89V24.0046C108.259 24.0237 107.995 24.0618 107.692 24.0999C107.371 24.157 107.05 24.1761 106.71 24.1761Z" fill="#FCFCFC"/>
<path d="M110.224 24.0237V7.526H117.099V9.6406H113.227V14.3841H116.268V16.4797H113.227V21.9472H117.137V24.0237H110.224Z" fill="#FCFCFC"/>
<path d="M118.686 24.0236V12.2505H121.33V13.2601C121.727 12.822 122.18 12.5172 122.652 12.3076C123.125 12.1171 123.597 12.0028 124.088 12.0028C124.541 12.0028 124.938 12.1171 125.297 12.3457C125.637 12.5743 125.901 12.9363 126.052 13.4506C126.506 12.9363 126.959 12.5553 127.469 12.3457C127.96 12.1171 128.47 12.0028 128.999 12.0028C129.415 12.0028 129.792 12.1171 130.114 12.3267C130.435 12.5362 130.699 12.841 130.888 13.2601C131.077 13.6792 131.171 14.1936 131.171 14.8223V24.0046H128.546V15.0699C128.546 14.6127 128.47 14.3079 128.319 14.1365C128.168 13.965 127.96 13.8888 127.696 13.8888C127.488 13.8888 127.242 13.9459 126.978 14.0793C126.714 14.2127 126.468 14.3651 126.26 14.5937C126.26 14.6318 126.26 14.6699 126.26 14.708C126.26 14.7461 126.26 14.7842 126.26 14.8413V24.0236H123.654V15.089C123.654 14.6318 123.578 14.327 123.427 14.1555C123.276 13.9841 123.068 13.9078 122.785 13.9078C122.577 13.9078 122.331 13.965 122.086 14.0984C121.821 14.2127 121.595 14.3841 121.368 14.6127V24.0427H118.686V24.0236Z" fill="#FCFCFC"/>
<path d="M133.192 27.91V12.2696H135.931V13.165C136.271 12.8411 136.63 12.5744 137.046 12.3839C137.442 12.1934 137.877 12.0791 138.311 12.0791C138.84 12.0791 139.275 12.1934 139.596 12.4411C139.936 12.6887 140.2 13.0126 140.389 13.4126C140.578 13.8127 140.71 14.2318 140.786 14.689C140.861 15.1462 140.899 15.5844 140.899 16.0035V20.0041C140.899 20.7851 140.805 21.49 140.635 22.1187C140.446 22.7664 140.162 23.2617 139.766 23.6427C139.369 24.0237 138.84 24.2142 138.179 24.2142C137.763 24.2142 137.367 24.119 136.989 23.9094C136.611 23.6999 136.271 23.4522 135.931 23.1283V27.8909H133.192V27.91ZM137.159 22.2901C137.461 22.2901 137.669 22.1949 137.82 21.9853C137.952 21.7948 138.047 21.5281 138.104 21.1852C138.141 20.8613 138.179 20.4803 138.179 20.0993V15.8892C138.179 15.5272 138.16 15.1843 138.104 14.8986C138.047 14.6128 137.952 14.3652 137.801 14.1937C137.65 14.0222 137.442 13.927 137.159 13.927C136.951 13.927 136.725 13.9841 136.517 14.0794C136.309 14.1746 136.12 14.308 135.969 14.4414V21.871C136.139 21.9853 136.328 22.0996 136.536 22.1758C136.706 22.252 136.932 22.2901 137.159 22.2901Z" fill="#FCFCFC"/>
<path d="M142.996 24.0237V7.526H145.716V24.0237H142.996Z" fill="#FCFCFC"/>
<path d="M151.439 24.2142C150.589 24.2142 149.89 24.0618 149.342 23.738C148.795 23.4141 148.379 22.9569 148.096 22.3473C147.812 21.7377 147.68 20.9947 147.68 20.1184V16.1749C147.68 15.2986 147.812 14.5747 148.096 13.946C148.379 13.3364 148.795 12.8792 149.342 12.5554C149.89 12.2315 150.589 12.0791 151.439 12.0791C152.289 12.0791 152.988 12.2315 153.555 12.5554C154.121 12.8792 154.537 13.3364 154.801 13.946C155.085 14.5557 155.217 15.2986 155.217 16.1749V20.1184C155.217 20.9947 155.085 21.7186 154.801 22.3473C154.518 22.9569 154.102 23.4331 153.555 23.738C152.988 24.0618 152.289 24.2142 151.439 24.2142ZM151.458 22.3092C151.76 22.3092 152.006 22.2139 152.138 22.0425C152.289 21.871 152.384 21.6234 152.421 21.3186C152.459 21.0137 152.478 20.6708 152.478 20.3089V15.9844C152.478 15.6225 152.459 15.2796 152.421 14.9938C152.384 14.689 152.289 14.4604 152.138 14.2699C151.987 14.0794 151.76 14.0032 151.458 14.0032C151.156 14.0032 150.91 14.0984 150.778 14.2699C150.627 14.4604 150.532 14.689 150.476 14.9938C150.419 15.2986 150.4 15.6225 150.4 15.9844V20.3089C150.4 20.6708 150.419 21.0137 150.476 21.3186C150.514 21.6234 150.627 21.871 150.778 22.0425C150.91 22.2139 151.137 22.3092 151.458 22.3092Z" fill="#FCFCFC"/>
<path d="M157.125 27.2241V25.2238C157.597 25.2238 157.975 25.2048 158.277 25.1476C158.579 25.0905 158.787 24.9952 158.919 24.8619C159.051 24.7285 159.127 24.538 159.127 24.2903C159.127 24.1189 159.089 23.8331 158.995 23.4521C158.9 23.0711 158.806 22.652 158.692 22.2139L156.124 12.2505H158.787L160.298 20.004L161.62 12.2505H164.265L161.545 24.4999C161.394 25.1857 161.148 25.7382 160.789 26.1382C160.43 26.5383 159.996 26.805 159.467 26.9765C158.938 27.1479 158.334 27.2241 157.635 27.2241H157.125Z" fill="#FCFCFC"/>
<path d="M169.081 24.2142C168.213 24.2142 167.495 24.0428 166.947 23.7189C166.399 23.395 165.984 22.8997 165.719 22.252C165.455 21.6043 165.323 20.8232 165.323 19.9279V16.3845C165.323 15.451 165.455 14.6509 165.719 14.0222C165.984 13.3745 166.399 12.8983 166.947 12.5744C167.514 12.2506 168.213 12.0791 169.081 12.0791C170.007 12.0791 170.744 12.2506 171.254 12.6125C171.764 12.9745 172.141 13.4698 172.368 14.1556C172.595 14.8224 172.708 15.6415 172.708 16.6131V18.2895H168.061V20.6137C168.061 20.9947 168.099 21.2995 168.175 21.5472C168.25 21.7948 168.364 21.9663 168.534 22.0806C168.704 22.1949 168.893 22.252 169.119 22.252C169.365 22.252 169.554 22.1949 169.705 22.0806C169.856 21.9663 169.969 21.7948 170.026 21.5662C170.101 21.3376 170.12 21.0518 170.12 20.728V19.7564H172.689V20.5565C172.689 21.7567 172.387 22.6711 171.801 23.2998C171.197 23.8904 170.309 24.2142 169.081 24.2142ZM168.061 16.8989H170.12V15.7749C170.12 15.3748 170.083 15.0319 170.026 14.7843C169.95 14.5366 169.856 14.3461 169.705 14.2318C169.554 14.1175 169.346 14.0603 169.081 14.0603C168.836 14.0603 168.647 14.1175 168.496 14.2508C168.345 14.3652 168.231 14.5747 168.175 14.8605C168.099 15.1462 168.08 15.5463 168.08 16.0797V16.8989H168.061Z" fill="#FCFCFC"/>
<path d="M178.091 24.2142C177.223 24.2142 176.505 24.0428 175.957 23.7189C175.409 23.395 174.994 22.8997 174.729 22.252C174.465 21.6043 174.333 20.8232 174.333 19.9279V16.3845C174.333 15.451 174.465 14.6509 174.729 14.0222C174.994 13.3745 175.409 12.8983 175.957 12.5744C176.524 12.2506 177.223 12.0791 178.091 12.0791C179.017 12.0791 179.754 12.2506 180.264 12.6125C180.774 12.9745 181.151 13.4698 181.378 14.1556C181.605 14.8224 181.718 15.6415 181.718 16.6131V18.2895H177.071V20.6137C177.071 20.9947 177.109 21.2995 177.185 21.5472C177.26 21.7948 177.374 21.9663 177.544 22.0806C177.714 22.1949 177.903 22.252 178.129 22.252C178.375 22.252 178.564 22.1949 178.715 22.0806C178.866 21.9663 178.979 21.7948 179.036 21.5662C179.111 21.3376 179.13 21.0518 179.13 20.728V19.7564H181.699V20.5565C181.699 21.7567 181.397 22.6711 180.811 23.2998C180.207 23.8904 179.319 24.2142 178.091 24.2142ZM177.071 16.8989H179.13V15.7749C179.13 15.3748 179.093 15.0319 179.036 14.7843C178.96 14.5366 178.866 14.3461 178.715 14.2318C178.564 14.1175 178.356 14.0603 178.091 14.0603C177.846 14.0603 177.657 14.1175 177.506 14.2508C177.355 14.3652 177.241 14.5747 177.185 14.8605C177.109 15.1462 177.09 15.5463 177.09 16.0797V16.8989H177.071Z" fill="#FCFCFC"/>
<path d="M186.743 24.2141C185.76 24.2141 184.948 23.9474 184.325 23.414C183.683 22.8806 183.248 22.1186 182.965 21.0898L185.005 20.2897C185.175 20.9374 185.383 21.4137 185.647 21.7566C185.911 22.0995 186.27 22.271 186.705 22.271C187.026 22.271 187.272 22.1948 187.423 22.0233C187.574 21.8519 187.668 21.6423 187.668 21.3565C187.668 21.0327 187.574 20.7279 187.385 20.4612C187.196 20.1945 186.856 19.8706 186.384 19.4706L184.967 18.2704C184.457 17.8132 184.042 17.356 183.72 16.8987C183.399 16.4225 183.248 15.851 183.248 15.1271C183.248 14.4793 183.399 13.9459 183.683 13.4887C183.966 13.0315 184.363 12.6886 184.873 12.4219C185.383 12.1742 185.93 12.0409 186.554 12.0409C187.498 12.0409 188.254 12.3266 188.82 12.8791C189.387 13.4506 189.765 14.1745 189.916 15.089L188.121 15.87C188.046 15.5462 187.951 15.2414 187.819 14.9556C187.687 14.6699 187.517 14.4412 187.328 14.2698C187.12 14.0983 186.894 14.0031 186.629 14.0031C186.346 14.0031 186.119 14.0983 185.949 14.2698C185.779 14.4412 185.704 14.6699 185.704 14.9366C185.704 15.1652 185.798 15.4128 185.987 15.6414C186.176 15.8891 186.459 16.1558 186.818 16.4796L188.254 17.7751C188.556 18.0418 188.858 18.3466 189.141 18.6514C189.425 18.9562 189.652 19.3181 189.84 19.6992C190.029 20.0802 190.124 20.5374 190.124 21.0327C190.124 21.7185 189.973 22.29 189.67 22.7472C189.368 23.2044 188.953 23.5664 188.443 23.795C187.952 24.0998 187.385 24.2141 186.743 24.2141Z" fill="#FCFCFC"/>
<path d="M61.6791 40.1784H61.0747V32.1772H58.3169V31.6057H64.4369V32.1772H61.6791V40.1784Z" fill="#FCFCFC"/>
<path d="M69.9524 40.1784V36.0444C69.9524 35.3967 69.8202 34.9395 69.5557 34.6538C69.2913 34.368 68.8757 34.2156 68.309 34.2156C67.5535 34.2156 67.0057 34.4061 66.6468 34.7871C66.2879 35.1681 66.1179 35.7968 66.1179 36.654V40.1593H65.5513V31.0532H66.1179V33.9489L66.0802 34.7681H66.1179C66.3635 34.387 66.6468 34.1013 67.0057 33.9298C67.3646 33.7584 67.8179 33.6631 68.3468 33.6631C69.7824 33.6631 70.5002 34.4442 70.5002 35.9873V40.1593H69.9524V40.1784Z" fill="#FCFCFC"/>
<path d="M75.1092 40.2927C74.1836 40.2927 73.4847 40.007 72.9558 39.4355C72.4458 38.864 72.1814 38.0638 72.1814 37.0351C72.1814 36.0254 72.427 35.2063 72.9181 34.5967C73.4092 33.9871 74.0892 33.6823 74.9203 33.6823C75.657 33.6823 76.2425 33.949 76.677 34.4633C77.1114 34.9777 77.3192 35.7016 77.3192 36.597V37.0732H72.767C72.767 37.9495 72.9747 38.6163 73.3714 39.0735C73.7681 39.5307 74.3347 39.7593 75.0714 39.7593C75.4303 39.7593 75.7514 39.7403 76.0159 39.6831C76.2803 39.626 76.6392 39.5307 77.0547 39.3593V39.8927C76.6959 40.0451 76.3747 40.1594 76.0725 40.2165C75.7703 40.2737 75.4681 40.2927 75.1092 40.2927ZM74.9392 34.1966C74.3347 34.1966 73.8436 34.4062 73.4847 34.8062C73.1258 35.2063 72.8992 35.7968 72.8425 36.5589H76.7336C76.7336 35.8159 76.5825 35.2444 76.2614 34.8253C75.9403 34.4062 75.5059 34.1966 74.9392 34.1966Z" fill="#FCFCFC"/>
<path d="M87.4057 36.978C87.4057 38.0257 87.1602 38.8259 86.6502 39.4164C86.1591 40.007 85.4602 40.2927 84.5913 40.2927C84.0435 40.2927 83.5524 40.1594 83.1368 39.8927C82.7213 39.626 82.4002 39.245 82.1735 38.7306C81.9468 38.2353 81.8335 37.6447 81.8335 36.978C81.8335 35.9302 82.0791 35.1301 82.5891 34.5586C83.0802 33.9871 83.7791 33.6823 84.6479 33.6823C85.5168 33.6823 86.1968 33.968 86.688 34.5586C87.1602 35.1491 87.4057 35.9683 87.4057 36.978ZM82.4191 36.978C82.4191 37.8543 82.6079 38.5401 82.9857 39.0164C83.3635 39.5117 83.9113 39.7593 84.6102 39.7593C85.3091 39.7593 85.8379 39.5117 86.2346 39.0164C86.6124 38.5211 86.8013 37.8352 86.8013 36.978C86.8013 36.1017 86.6124 35.4158 86.2157 34.9396C85.838 34.4633 85.2902 34.2157 84.5913 34.2157C83.8924 34.2157 83.3635 34.4633 82.9857 34.9396C82.6079 35.4158 82.4191 36.1017 82.4191 36.978Z" fill="#FCFCFC"/>
<path d="M89.6534 33.8156V37.9304C89.6534 38.5782 89.7857 39.0354 90.0501 39.3211C90.3145 39.6069 90.7301 39.7593 91.2968 39.7593C92.0523 39.7593 92.6001 39.5688 92.959 39.1878C93.3179 38.8068 93.4879 38.1781 93.4879 37.3208V33.8156H94.0545V40.1784H93.5634L93.4501 39.3021H93.4123C92.9968 39.9688 92.279 40.2927 91.2212 40.2927C89.7857 40.2927 89.0679 39.5116 89.0679 37.9685V33.8156H89.6534Z" fill="#FCFCFC"/>
<path d="M97.8324 39.7783C98.1913 39.7783 98.5124 39.7402 98.7769 39.6831V40.1593C98.4935 40.2546 98.1724 40.2927 97.8135 40.2927C97.2468 40.2927 96.8502 40.1403 96.5857 39.8355C96.3213 39.5307 96.1891 39.0544 96.1891 38.4257V34.3109H95.2446V33.968L96.1702 33.7012L96.4535 32.2534H96.7557V33.7965H98.6069V34.2918H96.7557V38.3305C96.7557 38.8258 96.8502 39.1878 97.0202 39.4164C97.1902 39.664 97.4546 39.7783 97.8324 39.7783Z" fill="#FCFCFC"/>
<path d="M104.066 38.5211C104.066 39.0926 103.858 39.5307 103.424 39.8355C102.989 40.1403 102.385 40.2927 101.591 40.2927C100.741 40.2927 100.08 40.1594 99.5891 39.8927V39.264C100.231 39.5879 100.892 39.7403 101.591 39.7403C102.215 39.7403 102.687 39.645 103.008 39.4355C103.329 39.2259 103.499 38.9402 103.499 38.5973C103.499 38.2734 103.367 38.0067 103.121 37.7971C102.876 37.5876 102.441 37.359 101.856 37.1494C101.232 36.9208 100.779 36.7303 100.534 36.5589C100.288 36.3874 100.08 36.1969 99.948 35.9873C99.8158 35.7778 99.7591 35.5301 99.7591 35.2253C99.7591 34.7491 99.9669 34.3681 100.364 34.1014C100.76 33.8156 101.308 33.6823 102.026 33.6823C102.706 33.6823 103.348 33.8156 103.971 34.0633L103.764 34.5967C103.14 34.33 102.574 34.2157 102.045 34.2157C101.535 34.2157 101.119 34.3109 100.817 34.4824C100.515 34.6538 100.364 34.9015 100.364 35.2063C100.364 35.5301 100.477 35.7968 100.722 36.0064C100.949 36.1969 101.421 36.4255 102.101 36.6732C102.668 36.8827 103.084 37.0732 103.348 37.2256C103.612 37.378 103.801 37.5876 103.934 37.7971C104.066 38.0067 104.066 38.2353 104.066 38.5211Z" fill="#FCFCFC"/>
<path d="M107.352 39.7783C107.711 39.7783 108.032 39.7402 108.297 39.6831V40.1593C108.013 40.2546 107.692 40.2927 107.333 40.2927C106.767 40.2927 106.37 40.1403 106.106 39.8355C105.841 39.5307 105.709 39.0544 105.709 38.4257V34.3109H104.783V33.968L105.709 33.7012L105.992 32.2534H106.295V33.7965H108.146V34.2918H106.295V38.3305C106.295 38.8258 106.389 39.1878 106.559 39.4164C106.71 39.664 106.993 39.7783 107.352 39.7783Z" fill="#FCFCFC"/>
<path d="M113.491 40.1784L113.34 39.1688H113.302C112.981 39.5879 112.66 39.8736 112.32 40.0451C111.98 40.2165 111.584 40.2927 111.13 40.2927C110.507 40.2927 110.035 40.1403 109.676 39.8165C109.336 39.4926 109.166 39.0545 109.166 38.4829C109.166 37.8543 109.43 37.378 109.94 37.0351C110.45 36.6922 111.187 36.5017 112.169 36.4827L113.378 36.4446V36.0254C113.378 35.4158 113.265 34.9586 113.019 34.6538C112.774 34.349 112.377 34.1966 111.848 34.1966C111.262 34.1966 110.658 34.3681 110.035 34.6919L109.827 34.1966C110.526 33.8727 111.206 33.7013 111.886 33.7013C112.585 33.7013 113.095 33.8918 113.435 34.2538C113.775 34.6157 113.945 35.1872 113.945 35.9492V40.1784H113.491ZM111.168 39.7593C111.848 39.7593 112.377 39.5688 112.755 39.1688C113.151 38.7878 113.34 38.2353 113.34 37.5495V36.9208L112.245 36.9589C111.357 36.997 110.734 37.1494 110.356 37.378C109.978 37.6066 109.789 37.9876 109.789 38.4829C109.789 38.883 109.902 39.1878 110.148 39.4164C110.394 39.645 110.734 39.7593 111.168 39.7593Z" fill="#FCFCFC"/>
<path d="M118.308 34.3109H116.816V40.1784H116.249V34.3109H115.078V33.968L116.249 33.7584V33.2631C116.249 32.482 116.4 31.9105 116.684 31.5486C116.967 31.1866 117.439 30.9961 118.081 30.9961C118.421 30.9961 118.78 31.0532 119.12 31.1485L118.988 31.6438C118.686 31.5486 118.365 31.4914 118.063 31.4914C117.609 31.4914 117.288 31.6248 117.099 31.8915C116.91 32.1582 116.816 32.5963 116.816 33.1869V33.7775H118.308V34.3109Z" fill="#FCFCFC"/>
<path d="M121.878 34.3109H120.386V40.1784H119.819V34.3109H118.648V33.968L119.819 33.7584V33.2631C119.819 32.482 119.97 31.9105 120.254 31.5486C120.537 31.1866 121.009 30.9961 121.651 30.9961C121.991 30.9961 122.35 31.0532 122.69 31.1485L122.558 31.6438C122.256 31.5486 121.935 31.4914 121.632 31.4914C121.179 31.4914 120.858 31.6248 120.669 31.8915C120.48 32.1582 120.386 32.5963 120.386 33.1869V33.7775H121.878V34.3109Z" fill="#FCFCFC"/>
<path d="M123.011 32.0439C123.011 31.6629 123.125 31.4724 123.37 31.4724C123.483 31.4724 123.578 31.5296 123.653 31.6248C123.729 31.7201 123.748 31.8534 123.748 32.0439C123.748 32.2154 123.71 32.3678 123.653 32.463C123.578 32.5583 123.483 32.6154 123.37 32.6154C123.143 32.6154 123.011 32.4249 123.011 32.0439ZM123.672 40.1785H123.106V33.8156H123.672V40.1785Z" fill="#FCFCFC"/>
<path d="M130.189 40.1784V36.0445C130.189 35.3968 130.057 34.9396 129.792 34.6538C129.528 34.3681 129.112 34.2157 128.546 34.2157C127.79 34.2157 127.242 34.4062 126.883 34.7872C126.525 35.1682 126.355 35.7968 126.355 36.6541V40.1594H125.788V33.7966H126.279L126.392 34.6729H126.43C126.846 34.0061 127.563 33.6823 128.621 33.6823C130.057 33.6823 130.775 34.4633 130.775 36.0064V40.1784H130.189Z" fill="#FCFCFC"/>
<path d="M137.726 33.8156V34.2157L136.422 34.2919C136.762 34.73 136.951 35.2063 136.951 35.7397C136.951 36.3493 136.744 36.8446 136.347 37.2256C135.95 37.6066 135.402 37.7971 134.723 37.7971C134.439 37.7971 134.231 37.7781 134.118 37.759C133.891 37.8733 133.721 38.0257 133.589 38.1781C133.476 38.3496 133.4 38.5211 133.4 38.6925C133.4 38.9021 133.476 39.0354 133.627 39.1307C133.778 39.2259 134.043 39.264 134.401 39.264H135.497C136.177 39.264 136.706 39.3974 137.065 39.6831C137.424 39.9689 137.612 40.3689 137.612 40.9214C137.612 41.5882 137.348 42.1025 136.8 42.4835C136.252 42.8646 135.497 43.036 134.496 43.036C133.703 43.036 133.079 42.8836 132.645 42.5788C132.21 42.274 131.984 41.8358 131.984 41.2834C131.984 40.8452 132.116 40.4833 132.38 40.1975C132.645 39.9117 133.023 39.7022 133.476 39.6069C133.287 39.5307 133.136 39.4164 133.023 39.264C132.909 39.1116 132.853 38.9402 132.853 38.7497C132.853 38.3306 133.117 37.9495 133.665 37.6257C133.306 37.4733 133.004 37.2256 132.796 36.9018C132.588 36.5779 132.494 36.1969 132.494 35.7778C132.494 35.1491 132.701 34.6348 133.098 34.2538C133.495 33.8728 134.043 33.6823 134.723 33.6823C135.138 33.6823 135.459 33.7204 135.686 33.7966H137.726V33.8156ZM132.626 41.2643C132.626 42.1406 133.268 42.5788 134.553 42.5788C136.215 42.5788 137.046 42.0454 137.046 40.9786C137.046 40.5976 136.914 40.3118 136.649 40.1403C136.385 39.9689 135.969 39.8736 135.384 39.8736H134.345C133.193 39.8736 132.626 40.3308 132.626 41.2643ZM133.098 35.7968C133.098 36.2922 133.249 36.6732 133.551 36.9399C133.854 37.2066 134.25 37.3399 134.741 37.3399C135.27 37.3399 135.667 37.2066 135.95 36.9399C136.234 36.6732 136.366 36.2731 136.366 35.7778C136.366 35.2444 136.215 34.8253 135.931 34.5586C135.648 34.2919 135.233 34.1585 134.723 34.1585C134.213 34.1585 133.816 34.3109 133.533 34.5967C133.249 34.8634 133.098 35.2825 133.098 35.7968Z" fill="#FCFCFC"/>
<path d="M144.639 40.2927C143.732 40.2927 143.033 40.007 142.523 39.4355C142.013 38.864 141.749 38.0638 141.749 37.0351C141.749 35.9873 142.013 35.1682 142.542 34.5776C143.071 33.9871 143.808 33.7013 144.715 33.7013C145.262 33.7013 145.791 33.7965 146.282 33.9871L146.131 34.5014C145.583 34.3109 145.111 34.2347 144.715 34.2347C143.94 34.2347 143.355 34.4824 142.958 34.9586C142.561 35.4349 142.353 36.1397 142.353 37.0351C142.353 37.8924 142.561 38.5591 142.958 39.0545C143.355 39.5498 143.921 39.7784 144.639 39.7784C145.206 39.7784 145.753 39.6831 146.245 39.4736V40.007C145.81 40.1975 145.281 40.2927 144.639 40.2927Z" fill="#FCFCFC"/>
<path d="M152.988 36.978C152.988 38.0257 152.742 38.8259 152.232 39.4164C151.741 40.007 151.042 40.2927 150.174 40.2927C149.626 40.2927 149.135 40.1594 148.719 39.8927C148.304 39.626 147.982 39.245 147.756 38.7306C147.529 38.2353 147.416 37.6447 147.416 36.978C147.416 35.9302 147.661 35.1301 148.171 34.5586C148.662 33.9871 149.361 33.6823 150.23 33.6823C151.099 33.6823 151.779 33.968 152.27 34.5586C152.742 35.1491 152.988 35.9683 152.988 36.978ZM148.001 36.978C148.001 37.8543 148.19 38.5401 148.568 39.0164C148.946 39.5117 149.494 39.7593 150.192 39.7593C150.891 39.7593 151.42 39.5117 151.817 39.0164C152.195 38.5211 152.384 37.8352 152.384 36.978C152.384 36.1017 152.195 35.4158 151.798 34.9396C151.42 34.4633 150.872 34.2157 150.174 34.2157C149.475 34.2157 148.946 34.4633 148.568 34.9396C148.19 35.4158 148.001 36.1017 148.001 36.978Z" fill="#FCFCFC"/>
<path d="M162.621 40.1784V36.0064C162.621 35.3777 162.508 34.9396 162.262 34.6538C162.017 34.3681 161.658 34.2347 161.167 34.2347C160.525 34.2347 160.034 34.4062 159.731 34.7681C159.429 35.1301 159.259 35.6825 159.259 36.4636V40.1975H158.674V35.854C158.674 34.7872 158.182 34.2347 157.219 34.2347C156.558 34.2347 156.067 34.4252 155.765 34.8253C155.462 35.2253 155.311 35.8349 155.311 36.6922V40.1975H154.745V33.8346H155.217L155.33 34.711H155.368C155.538 34.3871 155.784 34.1585 156.105 33.968C156.426 33.7775 156.785 33.7013 157.162 33.7013C158.164 33.7013 158.787 34.0823 159.07 34.8253H159.089C159.297 34.4633 159.561 34.1776 159.92 33.9871C160.26 33.7965 160.657 33.7013 161.11 33.7013C161.79 33.7013 162.319 33.8918 162.659 34.2538C162.999 34.6157 163.169 35.2063 163.169 36.0254V40.1975H162.621V40.1784Z" fill="#FCFCFC"/>
<path d="M167.929 40.2927C166.966 40.2927 166.248 39.9308 165.795 39.1878H165.757L165.776 39.6831C165.795 39.9689 165.795 40.2927 165.795 40.6356V43.055H165.228V33.8156H165.719L165.832 34.73H165.87C166.305 34.0442 167.004 33.7013 167.948 33.7013C168.798 33.7013 169.44 33.9871 169.894 34.5395C170.347 35.111 170.574 35.9302 170.574 36.997C170.574 38.0448 170.347 38.864 169.875 39.4355C169.384 40.007 168.741 40.2927 167.929 40.2927ZM167.91 39.7784C168.552 39.7784 169.062 39.5307 169.402 39.0545C169.742 38.5782 169.931 37.8924 169.931 37.0161C169.931 35.1491 169.27 34.2157 167.929 34.2157C167.192 34.2157 166.645 34.4252 166.305 34.8253C165.965 35.2253 165.795 35.8921 165.795 36.8256V37.0161C165.795 38.0067 165.965 38.7306 166.286 39.1497C166.626 39.5688 167.174 39.7784 167.91 39.7784Z" fill="#FCFCFC"/>
<path d="M176.146 40.1784L175.995 39.1688H175.957C175.636 39.5879 175.315 39.8736 174.975 40.0451C174.635 40.2165 174.238 40.2927 173.785 40.2927C173.161 40.2927 172.689 40.1403 172.33 39.8165C171.99 39.4926 171.82 39.0545 171.82 38.4829C171.82 37.8543 172.085 37.378 172.595 37.0351C173.105 36.6922 173.841 36.5017 174.824 36.4827L176.033 36.4446V36.0254C176.033 35.4158 175.919 34.9586 175.674 34.6538C175.428 34.349 175.031 34.1966 174.503 34.1966C173.917 34.1966 173.313 34.3681 172.689 34.6919L172.481 34.1966C173.18 33.8727 173.86 33.7013 174.54 33.7013C175.239 33.7013 175.749 33.8918 176.089 34.2538C176.429 34.6157 176.599 35.1872 176.599 35.9492V40.1784H176.146ZM173.823 39.7593C174.503 39.7593 175.031 39.5688 175.409 39.1688C175.806 38.7878 175.995 38.2353 175.995 37.5495V36.9208L174.899 36.9589C174.011 36.997 173.388 37.1494 173.01 37.378C172.633 37.6066 172.444 37.9876 172.444 38.4829C172.444 38.883 172.557 39.1878 172.803 39.4164C173.048 39.645 173.369 39.7593 173.823 39.7593Z" fill="#FCFCFC"/>
<path d="M183.002 40.1784V36.0445C183.002 35.3968 182.87 34.9396 182.606 34.6538C182.341 34.3681 181.926 34.2157 181.359 34.2157C180.604 34.2157 180.056 34.4062 179.697 34.7872C179.338 35.1682 179.168 35.7968 179.168 36.6541V40.1594H178.601V33.7966H179.092L179.206 34.6729H179.244C179.659 34.0061 180.377 33.6823 181.435 33.6823C182.87 33.6823 183.588 34.4633 183.588 36.0064V40.1784H183.002Z" fill="#FCFCFC"/>
<path d="M184.57 33.8156H185.156L186.497 37.397C186.913 38.502 187.158 39.2259 187.271 39.6259H187.309C187.479 39.1306 187.744 38.3686 188.103 37.378L189.444 33.8346H190.029L187.196 41.2262C186.969 41.8358 186.78 42.2358 186.629 42.4454C186.478 42.6549 186.289 42.8073 186.081 42.9216C185.874 43.036 185.628 43.0741 185.326 43.0741C185.099 43.0741 184.854 43.036 184.589 42.9598V42.4644C184.816 42.5216 185.061 42.5597 185.307 42.5597C185.496 42.5597 185.685 42.5216 185.836 42.4263C185.987 42.3311 186.119 42.1787 186.251 41.9882C186.384 41.7977 186.516 41.4738 186.667 41.0547C186.818 40.6356 186.931 40.3498 186.969 40.2165L184.57 33.8156Z" fill="#FCFCFC"/>
<path d="M20.9545 18.1943C15.8734 20.6899 11.3211 24.0808 7.4867 28.1957V10.3645L20.9545 18.1943ZM1.72559 48.7702C3.99225 40.8261 8.54447 33.8727 14.6267 28.6529L26.1489 48.7702H32.8167L19.3111 25.1857C23.8445 22.2901 28.9823 20.2707 34.4978 19.3563L1.72559 0.286865V48.7702Z" fill="#FCFCFC"/>
<path d="M40.7124 20.7469H49.798V28.0052H23.1457L21.918 25.8715C27.4713 22.6901 33.8746 20.8422 40.7124 20.7469Z" fill="#FCFCFC"/>
<path d="M30.8711 41.4929L35.0455 48.7702H49.7978V41.4929H30.8711Z" fill="#FCFCFC"/>
<path d="M5.56006 0.286865L18.0645 7.54507H49.7978V0.286865H5.56006Z" fill="#FCFCFC"/>
<g opacity="0.3">
<g opacity="0.3">
<path opacity="0.3" d="M4.61572 1.23938L17.1202 8.49759H48.8535V1.23938H4.61572Z" fill="black"/>
<path opacity="0.3" d="M20.0101 19.1468C14.929 21.6424 10.3768 25.0333 6.54236 29.1482V11.317L20.0101 19.1468ZM0.78125 49.7227C3.04792 41.7786 7.60014 34.8252 13.6824 29.6054L25.2046 49.7227H31.8724L18.3668 26.1383C22.9001 23.2426 28.0379 21.2233 33.5535 20.3088L0.78125 1.23938V49.7227Z" fill="black"/>
<path opacity="0.3" d="M39.7678 21.6995H48.8534V28.9577H22.2012L20.9734 26.824C26.5267 23.6426 32.9301 21.7947 39.7678 21.6995Z" fill="black"/>
<path opacity="0.3" d="M29.9268 42.4454L34.1012 49.7227H48.8534V42.4454H29.9268Z" fill="black"/>
</g>
</g>
</svg>
