<svg width="24" height="24" viewBox="0 0 24 24" fill="none" xmlns="http://www.w3.org/2000/svg">
<path d="M23.058 13.6667C23.4617 13.6667 24 13.7109 24 13.2914V10.951C24 10.5536 23.4617 10.5757 23.058 10.5757H21.9365C21.5327 10.5757 21.0841 10.0899 20.9495 9.69249L20.0523 7.59497C19.8505 7.24171 19.9178 6.66765 20.2093 6.4027L20.9047 5.69617C21.1963 5.40914 21.1963 4.92339 20.9047 4.65844L19.2224 3.00251C18.9308 2.71548 18.4598 2.71548 18.1682 3.00251L17.3832 3.77528C17.0916 4.06231 16.5533 4.15063 16.1944 3.974L14.2206 3.26746C13.8168 3.15707 13.4355 2.73756 13.4355 2.34014V1.12579C13.4355 0.728361 13.2112 -0.000244141 12.8075 -0.000244141H10.4299C10.0262 -0.000244141 9.62243 0.706282 9.62243 1.12579V2.47261C9.62243 2.87004 9.33085 3.31162 8.94954 3.44409L7.26729 4.19479C6.90842 4.3935 6.39251 4.32726 6.10092 4.04023L5.29345 3.24538C5.00186 2.95835 4.53085 2.95835 4.23926 3.24538L2.55701 4.90132C2.26543 5.18834 2.26543 5.65201 2.55701 5.93904L3.40933 6.77804C3.70092 7.06507 3.79065 7.59497 3.58878 7.94824L2.91589 9.73664C2.78131 10.112 2.35513 10.6198 1.95139 10.6198H0.650473C0.246734 10.6198 0 10.5977 0 10.9952V13.3135C0 13.7109 0.246734 13.6888 0.650473 13.6888H1.92897C2.3327 13.6888 2.75888 14.1966 2.89346 14.572L3.56636 16.3383C3.7458 16.6916 3.65607 17.2656 3.36449 17.5527L2.37756 18.5462C2.08598 18.8332 2.08598 19.319 2.37756 19.5839L4.05981 21.2399C4.3514 21.5269 4.82244 21.5269 5.11403 21.2399L6.03365 20.3346C6.32524 20.0476 6.84112 19.9814 7.19999 20.1801L8.99439 20.997C9.3757 21.1295 9.66728 21.5711 9.66728 21.9685V23.1166C9.66728 23.514 10.071 23.9998 10.4748 23.9998H12.8523C13.2561 23.9998 13.4804 23.514 13.4804 23.1166V22.1451C13.4804 21.7477 13.8617 21.3282 14.2654 21.2178L16.329 20.445C16.6879 20.2684 17.2486 20.3567 17.5402 20.6217L18.4374 21.4827C18.729 21.7698 19.2 21.7698 19.4916 21.4827L21.1738 19.8268C21.4654 19.5398 21.4654 19.0761 21.1738 18.7891L20.3439 17.9722C20.0523 17.6851 19.9851 17.1552 20.1645 16.802L21.0393 14.5499C21.1514 14.1746 21.6 13.6667 22.0037 13.6667H23.058Z" fill="#78C1D0"/>
<path d="M16.4785 12.1727C16.4785 14.4689 14.5944 16.3457 12.2393 16.3457C9.90655 16.3457 8 14.491 8 12.1727C8 9.87648 9.88412 7.99976 12.2393 7.99976C14.5944 8.02183 16.4785 9.87648 16.4785 12.1727Z" fill="white"/>
</svg>
