<svg width="112" height="665" viewBox="0 0 112 665" fill="none" xmlns="http://www.w3.org/2000/svg">
<path d="M1 640.5H58.5" stroke="#376F92" stroke-width="3"/>
<line x1="1" y1="518.5" x2="59" y2="518.5" stroke="#376F92" stroke-width="3"/>
<path d="M3 274.5H57" stroke="#376F92" stroke-width="3"/>
<path d="M4 152H61" stroke="#376F92" stroke-width="3"/>
<path d="M4 30.5H67" stroke="#376F92" stroke-width="3"/>
<path d="M1 396.5H56" stroke="#376F92" stroke-width="3"/>
<path d="M12 23L12 651.5" stroke="#376F92" stroke-width="3"/>
<circle r="10.5" transform="matrix(4.37114e-08 1 1 -4.37114e-08 12 152)" fill="white" stroke="#376F92" stroke-width="3"/>
<circle r="10.5" transform="matrix(4.37114e-08 1 1 -4.37114e-08 12 396)" fill="white" stroke="#376F92" stroke-width="3"/>
<circle r="10.5" transform="matrix(4.37114e-08 1 1 -4.37114e-08 12 640)" fill="white" stroke="#376F92" stroke-width="3"/>
<circle r="10.5" transform="matrix(4.37114e-08 1 1 -4.37114e-08 12 30)" fill="white" stroke="#376F92" stroke-width="3"/>
<circle r="10.5" transform="matrix(4.37114e-08 1 1 -4.37114e-08 12 274)" fill="white" stroke="#376F92" stroke-width="3"/>
<circle r="10.5" transform="matrix(4.37114e-08 1 1 -4.37114e-08 12 518)" fill="white" stroke="#376F92" stroke-width="3"/>
<path d="M91.1646 539.572C91.1646 540.256 90.613 540.83 89.9069 540.83H73.8871C73.2031 540.83 72.6294 540.278 72.6294 539.572C72.6294 538.888 73.181 538.314 73.8871 538.314H89.9069C90.5909 538.314 91.1646 538.866 91.1646 539.572Z" fill="white"/>
<path d="M88.4944 533.746H75.6963V538.314H88.4944V533.746Z" fill="#376F92"/>
<path d="M90.2605 541.161H73.6009C72.8507 541.161 72.2549 540.565 72.2549 539.815V539.219C72.2549 538.469 72.8507 537.873 73.6009 537.873H90.2605C91.0107 537.873 91.6065 538.469 91.6065 539.219V539.815C91.6065 540.543 91.0107 541.161 90.2605 541.161ZM73.623 538.777C73.3802 538.777 73.1816 538.976 73.1816 539.219V539.815C73.1816 540.057 73.3802 540.256 73.623 540.256H90.2826C90.5253 540.256 90.7239 540.057 90.7239 539.815V539.219C90.7239 538.976 90.5253 538.777 90.2826 538.777H73.623Z" fill="#376F92"/>
<path d="M104.558 532.842C104.558 533.327 104.249 533.769 103.764 533.769H59.4118C58.9264 533.769 58.4409 533.349 58.4409 532.842V499.346C58.4409 498.861 58.9043 498.463 59.4118 498.463H103.764C104.249 498.463 104.558 498.861 104.558 499.346V532.842Z" fill="white"/>
<path d="M105 532.842C105 533.592 104.404 534.188 103.654 534.188H59.346C58.5958 534.188 58 533.592 58 532.842V499.346C58 498.596 58.5958 498 59.346 498H103.654C104.404 498 105 498.596 105 499.346V532.842ZM59.3239 498.883C59.0812 498.883 58.8826 499.037 58.8826 499.28V532.842C58.8826 533.085 59.0812 533.305 59.3239 533.305H103.632C103.875 533.305 103.897 533.085 103.897 532.842V499.28C103.897 499.037 103.875 498.883 103.632 498.883H59.3239Z" fill="#376F92"/>
<path d="M102.573 525.803C102.573 526.288 102.176 526.708 101.668 526.708H62.2148C61.7293 526.708 61.3101 526.31 61.3101 525.803V502.435C61.3101 501.95 61.7072 501.531 62.2148 501.531H101.69C102.176 501.531 102.595 501.928 102.595 502.435V525.803H102.573Z" fill="#78C1D0"/>
<path d="M103.014 525.781C103.014 526.531 102.418 527.127 101.668 527.127H62.2147C61.4644 527.127 60.8687 526.531 60.8687 525.781V502.435C60.8687 501.685 61.4644 501.089 62.2147 501.089H101.668C102.418 501.089 103.014 501.685 103.014 502.435V525.781ZM101.911 502.435C101.911 502.192 101.712 501.994 101.47 501.994H62.1926C61.9499 501.994 61.7513 502.192 61.7513 502.435V525.803C61.7513 526.046 61.9499 526.244 62.1926 526.244H101.47C101.712 526.244 101.911 526.046 101.911 525.803V502.435Z" fill="#376F92"/>
<path d="M80.6616 504.995H64.4653V514.262H80.6616V504.995Z" fill="white"/>
<path d="M81.1028 514.726H64.0239V504.554H81.1249V514.726H81.1028ZM64.9066 513.821H80.2202V505.436H64.9066V513.821Z" fill="#376F92"/>
<path d="M67.7087 513.225H66.3848V507.709H67.7087V513.225ZM70.1359 505.944H68.5913V513.225H70.1359V505.944ZM72.3425 508.592H71.0186V513.225H72.3425V508.592ZM74.5491 506.826H73.2251V513.225H74.5491V506.826ZM76.7557 505.944H75.4317V513.225H76.7557V505.944ZM79.1829 507.268H77.6383V513.225H79.1829V507.268Z" fill="#78C1D0"/>
<path d="M80.3526 523.155H64.6859C64.4432 523.155 64.2446 522.956 64.2446 522.714C64.2446 522.471 64.4432 522.272 64.6859 522.272H80.3526C80.5953 522.272 80.7939 522.471 80.7939 522.714C80.7939 522.956 80.6174 523.155 80.3526 523.155ZM74.9906 524.038C74.9906 523.795 74.792 523.596 74.5493 523.596H64.6859C64.4432 523.596 64.2446 523.795 64.2446 524.038C64.2446 524.28 64.4432 524.479 64.6859 524.479H74.5493C74.792 524.479 74.9906 524.28 74.9906 524.038Z" fill="#376F92"/>
<path d="M99.1525 505.061H83.9272C83.6844 505.061 83.4858 504.973 83.4858 504.73C83.4858 504.487 83.6844 504.399 83.9272 504.399H99.1525C99.3952 504.399 99.5938 504.487 99.5938 504.73C99.5938 504.973 99.3952 505.061 99.1525 505.061ZM99.5938 506.826C99.5938 506.584 99.3952 506.385 99.1525 506.385H83.9272C83.6844 506.385 83.4858 506.584 83.4858 506.826C83.4858 507.069 83.6844 507.268 83.9272 507.268H99.1525C99.3952 507.268 99.5938 507.069 99.5938 506.826ZM99.5938 509.033C99.5938 508.79 99.3952 508.592 99.1525 508.592H83.9272C83.6844 508.592 83.4858 508.79 83.4858 509.033C83.4858 509.276 83.6844 509.474 83.9272 509.474H99.1525C99.3952 509.474 99.5938 509.276 99.5938 509.033ZM92.0032 511.239C92.0032 510.997 91.8046 510.798 91.5619 510.798H83.9492C83.7065 510.798 83.5079 510.997 83.5079 511.239C83.5079 511.482 83.7065 511.681 83.9492 511.681H91.5398C91.8046 511.681 92.0032 511.482 92.0032 511.239Z" fill="#376F92"/>
<path d="M86.4646 524.479H83.8167V520.286H86.4646V524.479ZM90.6571 518.962H88.4505V524.479H90.6571V518.962ZM95.0702 518.08H92.4224V524.479H95.0702V518.08ZM99.2627 519.404H96.6148V524.479H99.2627V519.404ZM74.9904 516.315H64.1782V521.39H74.9904V516.315ZM80.9482 516.315H76.3144V521.39H80.9482V516.315Z" fill="white"/>
<path d="M104.388 639.149C104.388 651.8 94.1398 662.048 81.4885 662.048C68.8373 662.048 58.5894 651.8 58.5894 639.149C58.5894 626.497 68.8373 616.249 81.4885 616.249C94.1171 616.249 104.388 626.497 104.388 639.149Z" fill="white"/>
<path d="M105 639.511C105 633.48 102.733 627.79 98.6064 623.414L98.2436 623.028L97.9715 622.734C93.5504 618.381 87.7236 616 81.5113 616C75.4125 616 69.6536 618.313 65.2552 622.552L64.9605 622.824L64.5977 623.187C60.5847 627.336 58.2948 632.71 58.0454 638.446H58V639.375H58.0227C58.0227 639.421 58.0227 639.466 58.0227 639.489C58.0227 645.565 60.3353 651.301 64.507 655.699L64.8698 656.062L65.1645 656.357C69.563 660.642 75.3671 663 81.5113 663C87.7689 663 93.6184 660.574 98.0622 656.153L98.3343 655.858L98.697 655.473C102.778 651.142 105 645.474 105 639.511ZM104.093 639.511C104.093 645.293 101.917 650.757 97.9715 654.951C97.9262 654.906 97.8582 654.883 97.8128 654.838C97.4501 654.566 97.0647 654.316 96.6792 654.09C96.6339 654.067 96.6112 654.044 96.5659 654.022C96.1351 653.75 95.7043 653.5 95.2508 653.251C95.1828 653.205 95.1148 653.183 95.0468 653.137C94.1399 652.639 93.1876 652.208 92.2127 651.822C92.1901 651.822 92.1901 651.8 92.1674 651.8C93.8225 648.331 94.6387 644.341 94.6387 639.806C94.6387 639.647 94.6387 639.511 94.616 639.353H104.048C104.093 639.421 104.093 639.466 104.093 639.511ZM66.0487 655.699C66.2074 655.586 66.3661 655.473 66.5022 655.382C66.6155 655.291 66.7289 655.223 66.8423 655.133C67.001 655.019 67.1597 654.929 67.3411 654.815C67.4544 654.747 67.5678 654.679 67.6812 654.589C67.8625 654.475 68.0439 654.384 68.2253 654.271C68.3387 654.203 68.4293 654.158 68.5427 654.09C68.7694 653.954 68.9962 653.84 69.2456 653.727C69.3136 653.704 69.3589 653.659 69.4269 653.636C69.7217 653.5 70.0164 653.342 70.3112 653.205C70.4245 653.16 70.5379 653.115 70.6512 653.047C70.8326 652.956 71.0367 652.888 71.2181 652.797C71.3541 652.752 71.4901 652.684 71.6262 652.639C71.7622 652.593 71.8982 652.525 72.0343 652.48C74.0294 656.085 76.8635 659.35 80.4457 662.025C74.9817 661.776 69.8804 659.576 65.9354 655.79C65.958 655.767 66.0034 655.745 66.0487 655.699ZM82.8944 650.825C83.0077 650.825 83.0984 650.848 83.2118 650.848C83.4839 650.87 83.7786 650.87 84.0507 650.893C84.164 650.893 84.2774 650.916 84.3681 650.916C84.6401 650.938 84.9122 650.961 85.1843 651.006C85.275 651.006 85.3657 651.029 85.479 651.052C85.7738 651.097 86.0685 651.12 86.3406 651.165C86.4086 651.188 86.4993 651.188 86.5673 651.21C86.8847 651.256 87.2021 651.324 87.4969 651.392C87.5422 651.392 87.5876 651.414 87.6329 651.414C87.973 651.482 88.3131 651.573 88.6758 651.641C88.6985 651.641 88.6985 651.641 88.7212 651.641C89.4467 651.822 90.1722 652.049 90.8977 652.299C88.8799 656.062 85.7964 659.123 81.67 661.458C81.6474 661.458 81.5567 661.458 81.4433 661.458V650.802C81.534 650.802 81.6474 650.802 81.7381 650.802C82.1235 650.802 82.5089 650.825 82.8944 650.825ZM73.0092 652.163C73.2132 652.095 73.4173 652.027 73.644 651.959C73.7574 651.936 73.848 651.89 73.9614 651.868C74.1655 651.8 74.3695 651.754 74.5963 651.686C74.7096 651.664 74.823 651.618 74.9363 651.596C75.1404 651.55 75.3444 651.505 75.5711 651.437C75.6845 651.414 75.7979 651.392 75.9112 651.369C76.1153 651.324 76.342 651.278 76.5461 651.233C76.6594 651.21 76.7728 651.188 76.8862 651.165C77.1129 651.12 77.3169 651.097 77.5437 651.052C77.657 651.029 77.7477 651.029 77.8611 651.006C78.0878 650.984 78.3145 650.938 78.5639 650.916H78.5866C79.1534 650.848 79.6976 650.825 80.2644 650.78C80.3551 650.78 80.4457 650.78 80.5364 650.757V660.914C77.3169 658.42 74.755 655.427 72.9185 652.14C72.9185 652.185 72.9638 652.185 73.0092 652.163ZM80.5138 638.468H69.6536C69.8577 634.773 70.8326 631.077 72.465 627.676C72.5104 627.699 72.5557 627.699 72.6011 627.722C72.7598 627.79 72.9185 627.835 73.0772 627.903C73.2586 627.971 73.4626 628.039 73.644 628.084C73.8027 628.13 73.9614 628.198 74.1201 628.243C74.3242 628.311 74.5056 628.356 74.7096 628.402C74.8683 628.447 75.027 628.493 75.1857 628.538C75.3898 628.583 75.5712 628.629 75.7752 628.674C75.9339 628.719 76.0926 628.742 76.2513 628.787C76.4554 628.833 76.6594 628.855 76.8635 628.901C77.0222 628.923 77.1809 628.969 77.3396 628.991C77.5437 629.037 77.7704 629.059 77.9745 629.082C78.1332 629.105 78.2692 629.127 78.4279 629.15C78.6546 629.173 78.8813 629.195 79.0854 629.218C79.2214 629.241 79.3801 629.241 79.5162 629.263C79.7656 629.286 80.015 629.286 80.2644 629.309C80.3551 629.309 80.4231 629.331 80.5138 629.331V638.468ZM80.5138 639.375V649.918C80.1737 649.941 79.8109 649.963 79.4708 649.986C79.2214 650.009 78.9947 650.031 78.7453 650.054C78.6319 650.077 78.4959 650.077 78.3825 650.099C78.1331 650.122 77.8838 650.167 77.6344 650.19C77.521 650.213 77.4303 650.213 77.3169 650.235C77.0449 650.281 76.7955 650.326 76.5234 650.371C76.4327 650.394 76.3647 650.394 76.274 650.417C76.0019 650.462 75.7299 650.53 75.4578 650.575C75.3898 650.598 75.3444 650.598 75.2764 650.621C74.9817 650.689 74.6869 650.757 74.4149 650.825C74.3695 650.825 74.3468 650.848 74.3015 650.848C73.9841 650.938 73.6893 651.006 73.3719 651.097C73.0545 651.188 72.7371 651.301 72.4197 651.392C70.5832 647.809 69.5856 643.864 69.5856 639.829C69.5856 639.67 69.5856 639.534 69.6083 639.375H80.5138ZM91.7593 652.639C92.2808 652.843 92.8022 653.069 93.3237 653.296C93.3464 653.296 93.3464 653.319 93.369 653.319C93.8905 653.546 94.3893 653.818 94.8654 654.09C95.3415 654.339 95.795 654.634 96.2484 654.906C96.2938 654.929 96.3391 654.951 96.3618 654.974C96.6792 655.178 96.974 655.405 97.2914 655.609C93.2783 659.554 88.041 661.821 82.4409 662.048C86.6353 659.644 89.7188 656.493 91.7593 652.639ZM97.8808 623.958C101.644 627.926 103.821 633.027 104.07 638.468H94.6387C94.48 634.297 93.6184 630.533 92.054 627.268C92.1221 627.246 92.1901 627.2 92.2808 627.178C92.4395 627.109 92.5982 627.041 92.7342 626.973C92.9156 626.883 93.097 626.815 93.2784 626.724C93.4371 626.656 93.5731 626.565 93.7318 626.497C93.9132 626.407 94.0945 626.316 94.2533 626.225C94.412 626.157 94.548 626.067 94.7067 625.976C94.8881 625.885 95.0468 625.794 95.2282 625.681C95.3869 625.59 95.5229 625.5 95.659 625.409C95.8403 625.296 95.999 625.205 96.1804 625.092C96.3164 625.001 96.4752 624.91 96.6112 624.82C96.7699 624.706 96.9513 624.593 97.11 624.479C97.246 624.389 97.4047 624.275 97.5408 624.185C97.6541 624.117 97.7675 624.049 97.8808 623.958ZM97.2233 623.301C97.1326 623.369 97.0646 623.414 96.9739 623.482C96.8379 623.573 96.7019 623.686 96.5432 623.777C96.3845 623.89 96.2258 623.981 96.0671 624.094C95.931 624.185 95.7723 624.275 95.6363 624.366C95.4776 624.457 95.3189 624.57 95.1375 624.661C95.0014 624.752 94.8427 624.842 94.7067 624.91C94.548 625.001 94.3666 625.092 94.2079 625.182C94.0719 625.25 93.9132 625.341 93.7771 625.409C93.6184 625.5 93.437 625.59 93.2557 625.658C93.1196 625.726 92.9609 625.794 92.8249 625.863C92.6435 625.953 92.4848 626.021 92.3034 626.112C92.1674 626.18 92.0087 626.248 91.8726 626.316C91.782 626.361 91.7139 626.384 91.6233 626.407C89.5601 622.462 86.4539 619.265 82.3729 616.93C87.973 617.156 93.1876 619.378 97.2233 623.301ZM81.4433 617.632C81.534 617.61 81.6247 617.61 81.6927 617.587C85.7057 619.832 88.7439 622.915 90.7844 626.747C90.6483 626.792 90.5123 626.837 90.3763 626.905C90.2176 626.951 90.0815 627.019 89.9228 627.064C89.7414 627.132 89.5601 627.178 89.3787 627.246C89.2426 627.291 89.0839 627.336 88.9252 627.382C88.7438 627.427 88.5398 627.495 88.3584 627.54C88.1997 627.586 88.0637 627.631 87.905 627.654C87.7236 627.699 87.5195 627.744 87.3382 627.79C87.2021 627.812 87.0434 627.858 86.9074 627.88C86.7033 627.926 86.5219 627.948 86.3179 627.994C86.1819 628.016 86.0231 628.039 85.8871 628.084C85.6831 628.107 85.479 628.152 85.275 628.175C85.1389 628.198 85.0029 628.22 84.8442 628.243C84.6401 628.266 84.4134 628.288 84.2094 628.311C84.0733 628.334 83.9373 628.334 83.8013 628.356C83.5745 628.379 83.3478 628.379 83.0984 628.402C82.9851 628.402 82.8717 628.425 82.7583 628.425C82.4182 628.447 82.0555 628.447 81.7154 628.447C81.6247 628.447 81.5113 628.447 81.4207 628.447V617.632H81.4433ZM81.4433 629.331C81.534 629.331 81.6474 629.331 81.7381 629.331C82.1008 629.331 82.4636 629.331 82.8263 629.309C82.9397 629.309 83.0531 629.286 83.1664 629.286C83.4158 629.263 83.6652 629.263 83.892 629.241C84.028 629.218 84.164 629.218 84.3227 629.195C84.5495 629.173 84.7535 629.15 84.9802 629.127C85.1389 629.105 85.275 629.082 85.4337 629.059C85.6377 629.037 85.8418 629.014 86.0458 628.969C86.2045 628.946 86.3632 628.901 86.522 628.878C86.726 628.833 86.9301 628.81 87.1114 628.765C87.2701 628.742 87.4288 628.697 87.5875 628.651C87.7916 628.606 87.973 628.561 88.1771 628.515C88.3358 628.47 88.4945 628.425 88.6532 628.379C88.8345 628.334 89.0386 628.288 89.22 628.22C89.3787 628.175 89.5374 628.13 89.6961 628.084C89.8775 628.016 90.0815 627.971 90.2629 627.903C90.4216 627.858 90.5803 627.79 90.739 627.744C90.8977 627.676 91.0564 627.631 91.2151 627.563C92.7342 630.737 93.5731 634.365 93.7318 638.423H81.4433V629.331ZM81.4433 639.375H93.7545C93.7545 639.534 93.7771 639.67 93.7771 639.829C93.7771 644.227 92.9609 648.127 91.3285 651.482C91.2605 651.46 91.1925 651.437 91.1471 651.414C90.8751 651.324 90.603 651.233 90.3309 651.142C90.2176 651.12 90.1269 651.074 90.0135 651.052C89.7414 650.984 89.4694 650.893 89.22 650.825C89.1066 650.802 88.9933 650.757 88.8799 650.734C88.6078 650.666 88.3584 650.598 88.0864 650.553C87.973 650.53 87.837 650.507 87.7236 650.485C87.4742 650.439 87.2021 650.394 86.9527 650.349C86.8167 650.326 86.6807 650.303 86.5673 650.281C86.3179 650.235 86.0458 650.213 85.7964 650.167C85.6604 650.145 85.5244 650.122 85.3883 650.122C85.1389 650.099 84.8669 650.077 84.6175 650.031C84.4814 650.009 84.3454 650.009 84.2094 649.986C83.9373 649.963 83.6425 649.941 83.3705 649.941C83.2571 649.941 83.1211 649.918 83.0077 649.918C82.5996 649.895 82.2142 649.895 81.8061 649.895C81.7154 649.895 81.602 649.895 81.5113 649.895V639.375H81.4433ZM80.5138 628.379C80.4457 628.379 80.3777 628.379 80.3097 628.356C80.083 628.334 79.8336 628.334 79.6069 628.311C79.4708 628.288 79.3121 628.288 79.1761 628.266C78.972 628.243 78.768 628.22 78.5413 628.198C78.3826 628.175 78.2465 628.152 78.0878 628.13C77.8838 628.107 77.7024 628.084 77.4983 628.039C77.3396 628.016 77.1809 627.971 77.0222 627.948C76.8408 627.903 76.6368 627.88 76.4554 627.835C76.2967 627.812 76.138 627.767 75.9793 627.722C75.7979 627.676 75.6165 627.631 75.4125 627.586C75.2537 627.54 75.095 627.495 74.9363 627.45C74.755 627.404 74.5736 627.359 74.3922 627.291C74.2335 627.246 74.0748 627.2 73.9161 627.132C73.7347 627.064 73.5533 627.019 73.3719 626.951C73.2132 626.905 73.0545 626.837 72.8958 626.769C72.8731 626.769 72.8731 626.769 72.8505 626.747C74.7323 623.119 77.3169 619.9 80.4684 617.451V628.379H80.5138ZM79.7202 616.998C76.5461 619.514 73.9387 622.824 72.0343 626.497C72.0116 626.475 71.9662 626.475 71.9436 626.452C71.7622 626.384 71.6035 626.316 71.4221 626.225C71.2634 626.157 71.1047 626.089 70.946 626.021C70.7646 625.953 70.6059 625.863 70.4245 625.772C70.2658 625.704 70.1071 625.613 69.9711 625.545C69.8124 625.454 69.631 625.364 69.4723 625.296C69.3136 625.205 69.1549 625.137 69.0188 625.046C68.8601 624.956 68.7014 624.865 68.52 624.774C68.3613 624.684 68.2253 624.593 68.0666 624.502C67.9079 624.411 67.7492 624.298 67.5905 624.207C67.4318 624.117 67.2957 624.003 67.137 623.913C66.9783 623.799 66.8196 623.709 66.6609 623.595C66.5249 623.505 66.3661 623.391 66.2301 623.278C66.1394 623.21 66.0714 623.164 65.9807 623.096C69.767 619.537 74.5736 617.406 79.7202 616.998ZM65.3232 623.754C65.4366 623.845 65.5499 623.913 65.6633 624.003C65.7993 624.117 65.958 624.207 66.0941 624.321C66.2755 624.434 66.4342 624.548 66.6155 624.661C66.7516 624.752 66.9103 624.865 67.0463 624.956C67.2277 625.069 67.3864 625.182 67.5678 625.273C67.7265 625.364 67.8625 625.454 68.0212 625.545C68.2026 625.658 68.384 625.749 68.5427 625.84C68.7014 625.931 68.8374 626.021 68.9961 626.089C69.1775 626.18 69.3589 626.271 69.5403 626.361C69.699 626.429 69.8577 626.52 69.9937 626.588C70.1751 626.679 70.3565 626.769 70.5379 626.837C70.6966 626.905 70.8553 626.973 71.014 627.041C71.1954 627.132 71.3768 627.2 71.5581 627.268C71.5808 627.268 71.5808 627.291 71.6035 627.291C69.9257 630.782 68.9281 634.614 68.7241 638.423H58.9523C59.2017 632.914 61.4462 627.744 65.3232 623.754ZM58.9296 639.375H68.7014C68.7014 639.534 68.7014 639.67 68.7014 639.829C68.7014 643.978 69.699 648.014 71.5808 651.686C71.0367 651.89 70.4925 652.117 69.9711 652.367C69.9484 652.389 69.903 652.389 69.8804 652.412C69.6536 652.503 69.4496 652.616 69.2229 652.729C69.1322 652.775 69.0415 652.82 68.9735 652.865C68.7921 652.956 68.588 653.069 68.4067 653.16C68.2933 653.228 68.1799 653.296 68.0439 653.364C67.8852 653.455 67.7038 653.546 67.5451 653.636C67.3411 653.75 67.137 653.886 66.9556 653.999C66.8196 654.09 66.6836 654.18 66.5475 654.248C66.3208 654.384 66.1167 654.543 65.89 654.679C65.7993 654.747 65.686 654.815 65.5953 654.883C65.4819 654.974 65.3459 655.042 65.2325 655.133C61.1741 650.893 58.9296 645.361 58.9296 639.489C58.9296 639.466 58.9296 639.421 58.9296 639.375Z" fill="#78C1D0"/>
<path d="M98.0623 657.763H97.5635H97.0647V656.561C98.5384 655.699 99.536 654.09 99.536 652.276C99.536 649.533 97.3141 647.288 94.5707 647.288C91.8274 647.288 89.5828 649.51 89.5828 652.276C89.5828 654.271 90.7617 655.994 92.4622 656.788V657.785H92.3715C91.1472 657.785 89.9455 658.057 89.1747 658.602C88.8346 657.196 87.4742 655.949 85.1843 655.949H84.6175H84.2094V654.044C86.3406 653.024 87.8143 650.848 87.8143 648.331C87.8143 644.839 84.9803 642.005 81.4887 642.005C77.9972 642.005 75.1631 644.839 75.1631 648.331C75.1631 650.643 76.4101 652.661 78.2466 653.75V655.926H78.0879C75.8206 655.926 73.8254 657.105 73.3267 658.602C72.6465 658.08 71.6716 657.763 70.5606 657.763H70.0618L69.9711 657.831V656.697C71.6035 655.881 72.7145 654.203 72.7145 652.253C72.7145 649.51 70.4926 647.265 67.7265 647.265C64.9832 647.265 62.7386 649.487 62.7386 652.253C62.7386 654.316 64.0083 656.085 65.7994 656.856V657.763H65.4593H64.8472C62.8066 657.763 60.7661 658.488 60.7661 660.075V663.635C60.7661 664.179 61.4689 664.202 61.6276 664.202C61.6276 664.202 98.7878 664.202 99.5133 664.134C101.146 663.975 101.236 664.111 101.236 663.635V660.075C101.214 659.032 100.67 657.763 98.0623 657.763Z" fill="#376F92"/>
<path d="M96.1576 658.874V656.924C95.6588 657.082 95.1147 657.196 94.5706 657.196C94.1625 657.196 93.777 657.15 93.3916 657.06V658.035L95.3868 659.508L96.1576 658.874Z" fill="#F2F2F2"/>
<path d="M98.0619 658.647H97.9031L97.0869 659.327L96.6335 659.712L96.18 660.098L95.4319 660.71L93.414 659.214L92.9606 658.874L92.7112 658.692H92.5071H92.4164C90.8974 658.692 89.2876 659.191 89.2876 660.098V663.295H90.0585C95.3865 663.295 99.1275 663.227 100.329 663.204V660.075C100.284 659.395 100.034 658.647 98.0619 658.647Z" fill="#78C1D0"/>
<path d="M83.2799 656.969V654.339C82.7131 654.521 82.1009 654.611 81.4661 654.611C80.6499 654.611 79.8564 654.452 79.1309 654.158V656.13L81.8289 658.148L83.2799 656.969Z" fill="#F2F2F2"/>
<path d="M69.0187 658.556V657.037C68.6106 657.151 68.1571 657.219 67.7036 657.219C67.3636 657.219 67.0235 657.173 66.7061 657.128V658.692L67.8397 659.531L69.0187 658.556Z" fill="#F2F2F2"/>
<path d="M73.1678 659.781C72.7823 659.123 71.7394 658.647 70.5151 658.647H70.3564L69.9483 658.987L69.4948 659.372L69.0414 659.758L67.8851 660.71L66.7288 659.849L66.2753 659.508L65.8219 659.168L65.1644 658.67H64.847C63.2826 658.67 61.6729 659.191 61.6729 660.075V663.272H73.1678H73.3038C73.3038 662.592 73.3265 661.3 73.3265 660.37C73.3265 660.143 73.2585 659.939 73.1678 659.781Z" fill="#78C1D0"/>
<path d="M85.1842 656.81H84.9348L84.1866 657.423L83.7332 657.808L83.2797 658.193L81.8514 659.35L79.1307 657.309L78.6772 656.969L78.4732 656.833H78.2011H78.0424C76.0472 656.833 74.0747 658.057 74.0747 659.282V659.554V663.363H74.2107L76.478 663.272C82.7809 663.272 87.0434 663.34 88.3357 663.317V660.075V659.304C88.3357 658.035 87.2474 656.81 85.1842 656.81Z" fill="#F2F2F2"/>
<path d="M94.5706 648.172C92.326 648.172 90.5122 649.986 90.5122 652.231C90.5122 653.84 91.4645 655.246 92.8248 655.904C93.3463 656.153 93.9358 656.289 94.5479 656.289C95.1601 656.289 95.7495 656.153 96.271 655.904C97.6314 655.246 98.5836 653.863 98.5836 652.231C98.6063 649.986 96.7925 648.172 94.5706 648.172Z" fill="#F2F2F2"/>
<path d="M67.7268 648.172C65.4823 648.172 63.6685 649.986 63.6685 652.231C63.6685 653.84 64.6207 655.246 65.9811 655.904C66.5025 656.153 67.092 656.289 67.7042 656.289C68.3163 656.289 68.9058 656.153 69.4273 655.904C70.7876 655.246 71.7399 653.863 71.7399 652.231C71.7625 649.986 69.9487 648.172 67.7268 648.172Z" fill="#F2F2F2"/>
<path d="M81.4661 642.867C78.4733 642.867 76.0474 645.293 76.0474 648.286C76.0474 650.394 77.2717 652.231 79.0628 653.115C79.4709 653.319 79.9017 653.478 80.3778 653.568C80.7406 653.636 81.1033 653.682 81.4661 653.682C81.8515 653.682 82.2143 653.636 82.5543 653.568C83.0078 653.478 83.4613 653.319 83.8694 653.115C85.6378 652.231 86.8848 650.394 86.8848 648.286C86.8621 645.293 84.4361 642.867 81.4661 642.867Z" fill="#F2F2F2"/>
<path d="M99.5551 393.541H97.4614C96.4632 393.541 95.3676 392.713 95.0511 391.715L93.3956 387.893C92.9086 386.992 93.079 385.702 93.8094 384.971L95.0998 383.656C95.4893 383.267 95.4893 382.634 95.0998 382.244L91.8861 379.031C91.5209 378.665 90.8635 378.665 90.4983 379.031L89.0376 380.491C88.575 380.954 87.8933 381.222 87.1629 381.222C86.7734 381.222 86.4325 381.149 86.116 381.003L82.4641 379.664C81.4902 379.396 80.6868 378.349 80.6868 377.326V375.014C80.6868 374.405 80.1999 374.259 79.786 374.259H75.2576C75.0385 374.259 74.2837 374.307 74.2837 375.014V377.594C74.2837 378.617 73.529 379.688 72.5552 380.029L69.3658 381.441C69.0736 381.611 68.6841 381.709 68.2459 381.709C67.5642 381.709 66.9068 381.441 66.4686 381.003L64.9591 379.493C64.5939 379.128 63.9366 379.128 63.5714 379.493L60.3577 382.707C59.9681 383.096 59.9681 383.729 60.3577 384.095L61.9645 385.702C62.6949 386.432 62.8897 387.722 62.4271 388.647L61.1854 391.788C60.8689 392.762 59.7977 393.59 58.7995 393.59H56.3405C55.6832 393.59 55.5371 394.052 55.5371 394.442V398.97C55.5371 399.482 55.7806 400.017 56.3405 400.017H58.7021C59.749 400.017 60.7959 400.772 61.0637 401.77L62.3054 404.935C62.7436 405.812 62.5245 407.102 61.8184 407.832L59.9438 409.707C59.5542 410.096 59.5542 410.705 59.9438 411.095L63.1575 414.284C63.5227 414.649 64.18 414.649 64.5452 414.284L66.2495 412.58C66.6877 412.142 67.345 411.898 68.0024 411.898C68.4406 411.898 68.8302 411.995 69.171 412.19L72.5795 413.724C73.5047 414.041 74.2837 415.112 74.2837 416.134V418.301C74.2837 418.837 74.722 419.251 75.2576 419.251H79.786C80.3216 419.251 80.6868 418.837 80.6868 418.301V416.378C80.6868 415.355 81.5146 414.308 82.5128 414.016L86.3351 412.555C86.6516 412.409 87.0168 412.312 87.4064 412.312C88.1124 412.312 88.8185 412.58 89.2567 413.018L90.9122 414.674C91.2774 415.039 91.9348 415.039 92.3243 414.674L95.538 411.46C95.7328 411.265 95.8302 411.022 95.8302 410.754C95.8302 410.486 95.7328 410.243 95.538 410.048L93.9799 408.49C93.2495 407.759 93.0547 406.493 93.5416 405.568L95.1972 401.648C95.4893 400.723 96.5362 399.968 97.5588 399.968H99.5795C100.139 399.968 100.48 399.433 100.48 398.922V394.393C100.456 393.858 100.115 393.541 99.5551 393.541ZM77.7166 405.933C72.9447 405.933 69.0493 402.038 69.0493 397.266C69.0493 392.494 72.9447 388.599 77.7166 388.599C82.4884 388.599 86.3838 392.494 86.3838 397.266C86.3838 402.038 82.4884 405.933 77.7166 405.933Z" fill="white"/>
<path d="M79.7845 419.713H75.2561C74.4283 419.713 73.771 419.08 73.771 418.252V416.086C73.771 415.282 73.138 414.381 72.4076 414.138L68.9504 412.58C68.147 412.142 67.1244 412.312 66.5645 412.872L64.8602 414.576C64.3246 415.112 63.3021 415.112 62.7665 414.576L59.5528 411.387C58.9685 410.803 58.9685 409.877 59.5528 409.293L61.4274 407.418C61.9874 406.858 62.1822 405.787 61.8413 405.105L60.5753 401.892C60.3318 401.088 59.4797 400.455 58.6519 400.455H56.2904C55.5356 400.455 55 399.798 55 398.922V394.393C55 393.565 55.4869 393.054 56.2904 393.054H58.7493C59.5284 393.054 60.4292 392.372 60.6727 391.593L61.9387 388.428C62.3282 387.649 62.1822 386.602 61.5979 386.018L59.991 384.411C59.4067 383.827 59.4067 382.902 59.991 382.317L63.2047 379.104C63.7403 378.568 64.7629 378.568 65.2985 379.104L66.8079 380.613C67.1488 380.954 67.6844 381.173 68.2444 381.173C68.5609 381.173 68.8774 381.1 69.1208 380.978L72.3589 379.542C73.1623 379.25 73.7953 378.373 73.7953 377.57V375.014C73.7953 374.259 74.3796 373.772 75.2805 373.772H79.8089C80.6853 373.772 81.221 374.259 81.221 375.014V377.326C81.221 378.105 81.8783 378.982 82.6574 379.177L86.3337 380.54C87.1614 380.93 88.184 380.711 88.744 380.151L90.2047 378.69C90.7403 378.154 91.7629 378.154 92.2985 378.69L95.5122 381.904C96.0965 382.488 96.0965 383.413 95.5122 383.997L94.2219 385.312C93.6619 385.872 93.5158 386.943 93.881 387.649L95.5609 391.52C95.8287 392.372 96.7295 393.054 97.533 393.054H99.6267C100.454 393.054 101.014 393.59 101.014 394.393V398.922C101.014 399.676 100.503 400.455 99.6267 400.455H97.606C96.8025 400.455 95.9261 401.064 95.707 401.794L95.6826 401.843L94.0271 405.763C93.6375 406.518 93.7836 407.564 94.3679 408.124L95.9261 409.683C96.1939 409.95 96.3643 410.34 96.3643 410.729C96.3643 411.119 96.2183 411.509 95.9261 411.776L92.7124 414.99C92.1768 415.526 91.1542 415.526 90.6186 414.99L88.963 413.335C88.5979 412.969 88.0379 412.75 87.4536 412.75C87.1371 412.75 86.8449 412.823 86.6015 412.945L82.7304 414.43C81.9026 414.674 81.221 415.526 81.221 416.329V418.252C81.1966 419.105 80.5879 419.713 79.7845 419.713ZM68.0009 411.338C68.5122 411.338 68.9991 411.46 69.413 411.703L72.7728 413.213C73.8684 413.578 74.7692 414.868 74.7692 416.086V418.252C74.7692 418.52 74.9883 418.715 75.2561 418.715H79.7845C80.028 418.715 80.1984 418.545 80.1984 418.252V416.329C80.1984 415.087 81.1479 413.846 82.3896 413.505L86.1632 412.069C86.5041 411.898 86.9423 411.801 87.4049 411.801C88.2327 411.801 89.0605 412.117 89.5961 412.653L91.2516 414.308C91.422 414.479 91.7872 414.479 91.9576 414.308L95.1713 411.095C95.2687 410.997 95.3174 410.876 95.3174 410.754C95.3174 410.632 95.2687 410.486 95.1713 410.413L93.6132 408.855C92.7367 407.978 92.5176 406.469 93.0776 405.373L94.6844 401.502C95.0496 400.382 96.2913 399.482 97.5086 399.482H99.5293C99.7971 399.482 99.9189 399.141 99.9189 398.922V394.393C99.9189 394.223 99.8945 394.052 99.5293 394.052H97.4356C96.2182 394.052 94.9522 393.103 94.5627 391.885L92.9315 388.112C92.3472 387.065 92.5663 385.531 93.4428 384.655L94.7331 383.34C94.9279 383.145 94.9279 382.829 94.7331 382.634L91.5194 379.42C91.349 379.25 90.9838 379.25 90.8134 379.42L89.3526 380.881C88.817 381.417 87.9892 381.757 87.1371 381.757C86.6745 381.757 86.2606 381.66 85.8711 381.49L82.2678 380.151C81.1235 379.834 80.1497 378.568 80.1497 377.351V375.038C80.1497 374.916 80.1497 374.794 79.7358 374.794H75.2074C74.9883 374.794 74.7205 374.843 74.7205 375.038V377.594C74.7205 378.836 73.8197 380.078 72.651 380.491L69.5104 381.879C69.1696 382.074 68.707 382.196 68.1957 382.196C67.3923 382.196 66.5888 381.879 66.0776 381.368L64.5681 379.858C64.3977 379.688 64.0325 379.688 63.862 379.858L60.6484 383.072C60.4536 383.267 60.4536 383.583 60.6484 383.778L62.2552 385.385C63.156 386.261 63.3751 387.795 62.7908 388.891L61.5735 391.983C61.2083 393.127 59.9423 394.101 58.725 394.101H56.266C56.0469 394.101 55.9495 394.125 55.9495 394.442V398.97C55.9495 398.97 55.9495 399.53 56.266 399.53H58.6276C59.8936 399.53 61.1109 400.431 61.4761 401.624L62.6934 404.765C63.2047 405.787 62.9613 407.321 62.0848 408.197L60.2101 410.072C60.0153 410.267 60.0153 410.583 60.2101 410.778L63.4238 413.968C63.5943 414.138 63.9594 414.138 64.1299 413.968L65.8341 412.263C66.4184 411.655 67.1975 411.338 68.0009 411.338ZM77.7151 406.42C72.6511 406.42 68.5609 402.306 68.5609 397.266C68.5609 392.202 72.6754 388.112 77.7151 388.112C82.7791 388.112 86.8693 392.226 86.8693 397.266C86.8693 402.306 82.7548 406.42 77.7151 406.42ZM77.7151 389.086C73.211 389.086 69.5347 392.762 69.5347 397.266C69.5347 401.77 73.211 405.446 77.7151 405.446C82.2191 405.446 85.8954 401.77 85.8954 397.266C85.8711 392.738 82.2191 389.086 77.7151 389.086Z" fill="#376F92"/>
<path d="M107.247 384.07C107.685 384.07 108.27 384.119 108.27 383.656V381.076C108.27 380.638 107.685 380.662 107.247 380.662H106.03C105.592 380.662 105.105 380.126 104.959 379.688L103.985 377.375C103.766 376.986 103.839 376.353 104.155 376.06L104.91 375.281C105.226 374.965 105.226 374.429 104.91 374.137L103.084 372.311C102.767 371.995 102.256 371.995 101.94 372.311L101.088 373.163C100.771 373.48 100.187 373.577 99.7972 373.382L97.6548 372.603C97.2165 372.482 96.8027 372.019 96.8027 371.581V370.242C96.8027 369.803 96.5592 369 96.121 369H93.5403C93.102 369 92.6638 369.779 92.6638 370.242V371.727C92.6638 372.165 92.3473 372.652 91.9334 372.798L90.1074 373.626C89.7179 373.845 89.1579 373.772 88.8414 373.455L87.965 372.579C87.6485 372.262 87.1372 372.262 86.8207 372.579L84.9947 374.405C84.6782 374.721 84.6782 375.233 84.9947 375.549L85.9199 376.474C86.2364 376.791 86.3338 377.375 86.1146 377.765L85.3843 379.737C85.2382 380.151 84.7756 380.711 84.3374 380.711H82.9253C82.4871 380.711 82.2192 380.686 82.2192 381.124V383.681C82.2192 384.119 82.4871 384.095 82.9253 384.095H84.313C84.7512 384.095 85.2138 384.655 85.3599 385.069L86.0903 387.016C86.2851 387.406 86.1877 388.039 85.8712 388.355L84.7999 389.451C84.4834 389.767 84.4834 390.303 84.7999 390.595L86.6259 392.421C86.9424 392.738 87.4537 392.738 87.7702 392.421L88.7684 391.423C89.0849 391.106 89.6448 391.033 90.0344 391.252L91.9821 392.153C92.396 392.299 92.7125 392.786 92.7125 393.225V394.491C92.7125 394.929 93.1507 395.464 93.5889 395.464H96.1697C96.6079 395.464 96.8513 394.929 96.8513 394.491V393.419C96.8513 392.981 97.2652 392.518 97.7035 392.397L99.9433 391.545C100.333 391.35 100.942 391.447 101.258 391.739L102.232 392.689C102.548 393.005 103.06 393.005 103.376 392.689L105.202 390.863C105.519 390.546 105.519 390.035 105.202 389.719L104.301 388.818C103.985 388.501 103.912 387.917 104.107 387.528L105.056 385.044C105.178 384.63 105.665 384.07 106.103 384.07H107.247Z" fill="#78C1D0"/>
<path d="M99.5535 382.707C99.5535 385.239 97.5084 387.308 94.952 387.308C92.42 387.308 90.3506 385.263 90.3506 382.707C90.3506 380.175 92.3957 378.106 94.952 378.106C97.5084 378.13 99.5535 380.175 99.5535 382.707Z" fill="white"/>
<path d="M104.758 141.163C104.758 141.848 104.213 142.392 103.528 142.392H59.6322C58.947 142.392 58.4028 141.848 58.4028 141.163V134.552C58.4028 133.867 58.947 133.323 59.6322 133.323H103.528C104.213 133.323 104.758 133.867 104.758 134.552V141.163Z" fill="#78C1D0"/>
<path d="M104.556 164.763H65.7188H64.57L58.4028 169.902V140.376H104.556V164.763Z" fill="white"/>
<path d="M102.178 136.91L103.004 136.124C103.165 135.963 103.165 135.701 103.024 135.539C102.863 135.378 102.601 135.378 102.44 135.519L101.573 136.346L100.707 135.519C100.545 135.358 100.283 135.378 100.122 135.539C99.9608 135.701 99.981 135.963 100.142 136.124L100.969 136.91L100.142 137.696C99.981 137.857 99.981 138.119 100.122 138.28C100.203 138.361 100.303 138.401 100.424 138.401C100.525 138.401 100.626 138.361 100.707 138.28L101.573 137.454L102.44 138.28C102.52 138.361 102.621 138.401 102.722 138.401C102.823 138.401 102.944 138.361 103.024 138.28C103.186 138.119 103.165 137.857 103.004 137.696L102.178 136.91Z" fill="#376F92"/>
<path d="M100.102 146.826H62.8977C62.676 146.826 62.4946 146.644 62.4946 146.423C62.4946 146.201 62.676 146.02 62.8977 146.02H100.102C100.324 146.02 100.505 146.201 100.505 146.423C100.505 146.644 100.324 146.826 100.102 146.826ZM100.505 150.454C100.505 150.232 100.324 150.05 100.102 150.05H62.8977C62.676 150.05 62.4946 150.232 62.4946 150.454C62.4946 150.675 62.676 150.857 62.8977 150.857H100.102C100.324 150.857 100.505 150.675 100.505 150.454ZM100.505 155.089C100.505 154.867 100.324 154.686 100.102 154.686H62.8977C62.676 154.686 62.4946 154.867 62.4946 155.089C62.4946 155.311 62.676 155.492 62.8977 155.492H100.102C100.324 155.492 100.505 155.311 100.505 155.089ZM100.505 159.523C100.505 159.301 100.324 159.12 100.102 159.12H62.8977C62.676 159.12 62.4946 159.301 62.4946 159.523C62.4946 159.745 62.676 159.926 62.8977 159.926H100.102C100.324 159.926 100.505 159.745 100.505 159.523Z" fill="#376F92"/>
<path d="M91.3545 152.63C91.3545 157.911 87.0818 162.203 81.7813 162.203C76.5009 162.203 72.208 157.931 72.208 152.63C72.208 147.35 76.4807 143.057 81.7813 143.057C87.0818 143.057 91.3545 147.35 91.3545 152.63Z" fill="#78C1D0"/>
<path d="M83.4954 149.406V148.438C83.4954 147.39 82.79 146.544 81.9032 146.544C81.0164 146.544 80.311 147.39 80.311 148.438V149.406H83.4954Z" fill="#78C1D0"/>
<path d="M83.9184 149.809H79.9077V148.418C79.9077 147.148 80.8147 146.12 81.903 146.12C83.0115 146.12 83.8983 147.148 83.8983 148.418V149.809H83.9184ZM80.7139 148.982H83.0921V148.418C83.0921 147.592 82.5681 146.927 81.903 146.927C81.2581 146.927 80.7139 147.592 80.7139 148.418V148.982Z" fill="#376F92"/>
<path d="M85.8534 149.244H77.7515V157.346H85.8534V149.244Z" fill="white"/>
<path d="M82.9103 155.291L82.1445 153.376C82.5476 153.215 82.8297 152.832 82.8297 152.388C82.8297 151.804 82.346 151.32 81.7615 151.32C81.1771 151.32 80.6934 151.804 80.6934 152.388C80.6934 152.852 80.9957 153.235 81.3988 153.396L80.6934 155.311H82.9103V155.291Z" fill="#376F92"/>
<path d="M103.367 133H59.6325C58.7255 133 58 133.726 58 134.632V139.953V140.276V170.769L64.7114 165.287H105V140.276V139.953V134.632C105.02 133.726 104.274 133 103.367 133ZM104.193 164.481H64.4292L58.8263 169.056V140.759H104.193V164.481ZM58.8263 139.953V134.632C58.8263 134.189 59.1891 133.806 59.6526 133.806H103.387C103.831 133.806 104.214 134.169 104.214 134.632V139.953H58.8263Z" fill="#376F92"/>
<path d="M106.628 260.835C106.628 261.466 106.127 261.968 105.495 261.968H71.1583C70.5266 261.968 70.0249 261.466 70.0249 260.835V255.112C70.0249 254.48 70.5266 253.978 71.1583 253.978H105.495C106.127 253.978 106.628 254.48 106.628 255.112V260.835Z" fill="#78C1D0"/>
<path d="M107 260.835C107 261.671 106.331 262.34 105.495 262.34H71.1583C70.3222 262.34 69.6533 261.671 69.6533 260.835V255.112C69.6533 254.276 70.3222 253.607 71.1583 253.607H105.495C106.331 253.607 107 254.276 107 255.112V260.835ZM106.257 255.13C106.257 254.722 105.959 254.35 105.551 254.35H71.2512C70.8425 254.35 70.5823 254.722 70.5823 255.13V260.853C70.5823 261.262 70.8239 261.596 71.2512 261.596H105.551C105.959 261.596 106.257 261.281 106.257 260.853V255.13Z" fill="#376F92"/>
<path d="M75.1904 257.044C75.1904 257.62 74.7259 258.103 74.1313 258.103C73.5553 258.103 73.0723 257.639 73.0723 257.044C73.0723 256.468 73.5368 255.985 74.1313 255.985C74.7259 255.985 75.1904 256.45 75.1904 257.044Z" fill="white"/>
<path d="M74.1499 258.456C73.3695 258.456 72.7192 257.825 72.7192 257.026C72.7192 256.245 73.351 255.595 74.1499 255.595C74.9303 255.595 75.5806 256.227 75.5806 257.026C75.562 257.825 74.9303 258.456 74.1499 258.456ZM74.1499 256.357C73.7783 256.357 73.481 256.654 73.481 257.026C73.481 257.397 73.7783 257.695 74.1499 257.695C74.5215 257.695 74.8188 257.397 74.8188 257.026C74.8188 256.673 74.5215 256.357 74.1499 256.357Z" fill="#376F92"/>
<path d="M79.2964 257.044C79.2964 257.62 78.8319 258.103 78.2373 258.103C77.6613 258.103 77.1782 257.639 77.1782 257.044C77.1782 256.468 77.6427 255.985 78.2373 255.985C78.8319 255.985 79.2964 256.45 79.2964 257.044Z" fill="white"/>
<path d="M78.2373 258.456C77.4569 258.456 76.8066 257.825 76.8066 257.026C76.8066 256.245 77.4384 255.595 78.2373 255.595C79.0177 255.595 79.668 256.227 79.668 257.026C79.668 257.825 79.0363 258.456 78.2373 258.456ZM78.2373 256.357C77.8657 256.357 77.5684 256.654 77.5684 257.026C77.5684 257.397 77.8657 257.695 78.2373 257.695C78.6089 257.695 78.9062 257.397 78.9062 257.026C78.9248 256.673 78.6089 256.357 78.2373 256.357Z" fill="#376F92"/>
<path d="M83.4028 257.044C83.4028 257.62 82.9383 258.103 82.3438 258.103C81.7678 258.103 81.2847 257.639 81.2847 257.044C81.2847 256.468 81.7492 255.985 82.3438 255.985C82.9198 255.985 83.4028 256.45 83.4028 257.044Z" fill="white"/>
<path d="M82.3438 258.456C81.5634 258.456 80.9131 257.825 80.9131 257.026C80.9131 256.245 81.5448 255.595 82.3438 255.595C83.1242 255.595 83.7745 256.227 83.7745 257.026C83.7745 257.825 83.1242 258.456 82.3438 258.456ZM82.3438 256.357C81.9722 256.357 81.6749 256.654 81.6749 257.026C81.6749 257.397 81.9722 257.695 82.3438 257.695C82.7154 257.695 83.0127 257.397 83.0127 257.026C83.0127 256.673 82.7154 256.357 82.3438 256.357Z" fill="#376F92"/>
<path d="M102.503 258.456C102.41 258.456 102.299 258.419 102.224 258.345C102.076 258.196 102.094 257.955 102.243 257.806L104.231 255.911C104.38 255.762 104.621 255.781 104.77 255.929C104.918 256.078 104.9 256.32 104.751 256.468L102.763 258.363C102.689 258.438 102.596 258.456 102.503 258.456Z" fill="#376F92"/>
<path d="M104.491 258.456C104.398 258.456 104.305 258.419 104.231 258.345L102.243 256.45C102.094 256.301 102.094 256.059 102.224 255.911C102.373 255.762 102.614 255.762 102.763 255.892L104.751 257.787C104.9 257.936 104.9 258.178 104.77 258.326C104.695 258.419 104.584 258.456 104.491 258.456Z" fill="#376F92"/>
<path d="M106.498 260.091H70.1548V281.589H106.498V260.091Z" fill="white"/>
<path d="M106.889 281.979H69.7837V259.72H106.889V281.979ZM70.5269 281.236H106.127V260.482H70.5269V281.236Z" fill="#376F92"/>
<path d="M102.224 264.569H87.5274C87.323 264.569 87.1558 264.402 87.1558 264.198C87.1558 263.993 87.323 263.826 87.5274 263.826H102.224C102.429 263.826 102.596 263.993 102.596 264.198C102.596 264.402 102.429 264.569 102.224 264.569ZM102.596 267.914C102.596 267.709 102.429 267.542 102.224 267.542H87.5274C87.323 267.542 87.1558 267.709 87.1558 267.914C87.1558 268.118 87.323 268.285 87.5274 268.285H102.224C102.429 268.285 102.596 268.118 102.596 267.914ZM102.596 272.094C102.596 271.89 102.429 271.63 102.224 271.63H87.5274C87.323 271.63 87.1558 271.89 87.1558 272.094C87.1558 272.299 87.323 272.559 87.5274 272.559H102.224C102.429 272.559 102.596 272.299 102.596 272.094ZM102.596 276.646C102.596 276.442 102.429 276.275 102.224 276.275H87.5274C87.323 276.275 87.1558 276.442 87.1558 276.646C87.1558 276.851 87.323 277.018 87.5274 277.018H102.224C102.429 277.018 102.596 276.851 102.596 276.646Z" fill="#376F92"/>
<path d="M83.756 276.944H74.4844V263.715H83.756V276.944ZM75.2276 276.201H82.9942V264.458H75.2276V276.201Z" fill="#376F92"/>
<path d="M100.869 266.966C100.869 267.598 100.367 268.1 99.7356 268.1H65.399C64.7673 268.1 64.2656 267.598 64.2656 266.966V261.243C64.2656 260.612 64.7673 260.11 65.399 260.11H99.7356C100.367 260.11 100.869 260.612 100.869 261.243V266.966Z" fill="#78C1D0"/>
<path d="M101.24 266.966C101.24 267.802 100.478 268.471 99.6608 268.471H65.3428C64.5067 268.471 63.8936 267.802 63.8936 266.966V261.225C63.8936 260.389 64.5067 259.738 65.3428 259.738H99.6608C100.497 259.738 101.24 260.389 101.24 261.225V266.966ZM100.497 261.243C100.497 260.835 100.163 260.482 99.7352 260.482H65.38C64.9712 260.482 64.6182 260.816 64.6182 261.243V266.985C64.6182 267.393 64.9526 267.746 65.38 267.746H99.7352C100.144 267.746 100.497 267.412 100.497 266.985V261.243Z" fill="#376F92"/>
<path d="M69.2993 262.934C69.2993 263.51 68.8348 263.993 68.2402 263.993C67.6643 263.993 67.1812 263.529 67.1812 262.934C67.1812 262.358 67.6457 261.875 68.2402 261.875C68.8162 261.875 69.2993 262.358 69.2993 262.934Z" fill="white"/>
<path d="M68.2413 264.365C67.4609 264.365 66.8105 263.733 66.8105 262.934C66.8105 262.154 67.4423 261.503 68.2413 261.503C69.0216 261.503 69.6719 262.135 69.6719 262.934C69.6719 263.715 69.0402 264.365 68.2413 264.365ZM68.2413 262.265C67.8696 262.265 67.5724 262.563 67.5724 262.934C67.5724 263.306 67.8696 263.603 68.2413 263.603C68.6129 263.603 68.9101 263.306 68.9101 262.934C68.9287 262.563 68.6129 262.265 68.2413 262.265Z" fill="#376F92"/>
<path d="M73.3877 262.934C73.3877 263.51 72.9232 263.993 72.3286 263.993C71.7526 263.993 71.2695 263.529 71.2695 262.934C71.2695 262.358 71.7341 261.875 72.3286 261.875C72.9232 261.875 73.3877 262.358 73.3877 262.934Z" fill="white"/>
<path d="M72.3472 264.365C71.5668 264.365 70.9165 263.733 70.9165 262.934C70.9165 262.154 71.5482 261.503 72.3472 261.503C73.1276 261.503 73.7779 262.135 73.7779 262.934C73.7779 263.715 73.1276 264.365 72.3472 264.365ZM72.3472 262.265C71.9756 262.265 71.6783 262.563 71.6783 262.934C71.6783 263.306 71.9756 263.603 72.3472 263.603C72.7188 263.603 73.0161 263.306 73.0161 262.934C73.0161 262.563 72.7188 262.265 72.3472 262.265Z" fill="#376F92"/>
<path d="M77.4941 262.934C77.4941 263.51 77.0296 263.993 76.4351 263.993C75.8591 263.993 75.376 263.529 75.376 262.934C75.376 262.358 75.8405 261.875 76.4351 261.875C77.0296 261.875 77.4941 262.358 77.4941 262.934Z" fill="white"/>
<path d="M76.4531 264.365C75.6728 264.365 75.0225 263.733 75.0225 262.934C75.0225 262.154 75.6542 261.503 76.4531 261.503C77.2335 261.503 77.8838 262.135 77.8838 262.934C77.8653 263.715 77.2335 264.365 76.4531 264.365ZM76.4531 262.265C76.0815 262.265 75.7843 262.563 75.7843 262.934C75.7843 263.306 76.0815 263.603 76.4531 263.603C76.8248 263.603 77.122 263.306 77.122 262.934C77.122 262.563 76.8248 262.265 76.4531 262.265Z" fill="#376F92"/>
<path d="M96.6133 264.365C96.5204 264.365 96.4089 264.328 96.3346 264.253C96.1859 264.105 96.2045 263.863 96.3531 263.715L98.3413 261.819C98.4899 261.671 98.7314 261.689 98.8801 261.838C99.0287 261.987 99.0101 262.228 98.8615 262.377L96.8734 264.272C96.7991 264.328 96.7062 264.365 96.6133 264.365Z" fill="#376F92"/>
<path d="M98.6019 264.365C98.509 264.365 98.4161 264.328 98.3418 264.253L96.3537 262.358C96.205 262.21 96.205 261.968 96.3351 261.819C96.4837 261.671 96.7253 261.671 96.8739 261.801L98.862 263.696C99.0107 263.845 99.0107 264.086 98.8806 264.235C98.7877 264.328 98.6948 264.365 98.6019 264.365Z" fill="#376F92"/>
<path d="M100.609 266H64.2656V287.497H100.609V266Z" fill="white"/>
<path d="M100.98 287.869H63.8745V265.61H100.98V287.869ZM64.6363 287.126H100.236V266.372H64.6363V287.126Z" fill="#376F92"/>
<path d="M96.5761 270.515H81.5074C81.303 270.515 81.1357 270.348 81.1357 270.143C81.1357 269.939 81.303 269.772 81.5074 269.772H96.5761C96.7804 269.772 96.9477 269.939 96.9477 270.143C96.9477 270.348 96.7804 270.515 96.5761 270.515ZM96.9477 274.045C96.9477 273.841 96.7804 273.674 96.5761 273.674H81.5074C81.303 273.674 81.1357 273.841 81.1357 274.045C81.1357 274.25 81.303 274.417 81.5074 274.417H96.5761C96.7804 274.417 96.9477 274.25 96.9477 274.045ZM96.9477 278.133C96.9477 277.929 96.7804 277.761 96.5761 277.761H81.5074C81.303 277.761 81.1357 277.929 81.1357 278.133C81.1357 278.337 81.303 278.505 81.5074 278.505H96.5761C96.7804 278.505 96.9477 278.337 96.9477 278.133ZM96.9477 282.406C96.9477 282.202 96.7804 282.035 96.5761 282.035H81.5074C81.303 282.035 81.1357 282.202 81.1357 282.406C81.1357 282.611 81.303 282.778 81.5074 282.778H96.5761C96.7804 282.778 96.9477 282.611 96.9477 282.406Z" fill="#376F92"/>
<path d="M77.8473 282.852H68.5757V269.605H77.8473V282.852ZM69.3189 282.091H77.0855V270.366H69.3189V282.091Z" fill="#376F92"/>
<path d="M93.9935 272.726C93.9935 273.358 93.4919 273.859 92.8601 273.859H58.5235C57.8918 273.859 57.3901 273.358 57.3901 272.726V267.003C57.3901 266.372 57.8918 265.87 58.5235 265.87H92.8601C93.4919 265.87 93.9935 266.372 93.9935 267.003V272.726Z" fill="#78C1D0"/>
<path d="M94.3657 272.726C94.3657 273.562 93.6968 274.231 92.8606 274.231H58.5241C57.6879 274.231 57.019 273.562 57.019 272.726V267.003C57.019 266.167 57.6879 265.498 58.5241 265.498H92.8606C93.6968 265.498 94.3657 266.167 94.3657 267.003V272.726ZM93.6224 267.003C93.6224 266.595 93.288 266.242 92.8606 266.242H58.5055C58.0967 266.242 57.7437 266.576 57.7437 267.003V272.745C57.7437 273.153 58.0781 273.506 58.5055 273.506H92.8606C93.2694 273.506 93.6224 273.172 93.6224 272.745V267.003Z" fill="#376F92"/>
<path d="M62.7041 268.824C62.7041 269.4 62.2396 269.883 61.645 269.883C61.069 269.883 60.5859 269.419 60.5859 268.824C60.5859 268.248 61.0505 267.765 61.645 267.765C62.2396 267.784 62.7041 268.248 62.7041 268.824Z" fill="white"/>
<path d="M61.6631 270.255C60.8827 270.255 60.2324 269.623 60.2324 268.824C60.2324 268.044 60.8641 267.393 61.6631 267.393C62.4435 267.393 63.0938 268.025 63.0938 268.824C63.0752 269.623 62.4435 270.255 61.6631 270.255ZM61.6631 268.155C61.2915 268.155 60.9942 268.453 60.9942 268.824C60.9942 269.196 61.2915 269.493 61.6631 269.493C62.0347 269.493 62.332 269.196 62.332 268.824C62.332 268.453 62.0347 268.155 61.6631 268.155Z" fill="#376F92"/>
<path d="M66.811 268.824C66.811 269.4 66.3465 269.883 65.7519 269.883C65.176 269.883 64.6929 269.419 64.6929 268.824C64.6929 268.248 65.1574 267.765 65.7519 267.765C66.3279 267.784 66.811 268.248 66.811 268.824Z" fill="white"/>
<path d="M65.752 270.255C64.9716 270.255 64.3213 269.623 64.3213 268.824C64.3213 268.044 64.953 267.393 65.752 267.393C66.5323 267.393 67.1827 268.025 67.1827 268.824C67.1827 269.623 66.5509 270.255 65.752 270.255ZM65.752 268.155C65.3804 268.155 65.0831 268.453 65.0831 268.824C65.0831 269.196 65.3804 269.493 65.752 269.493C66.1236 269.493 66.4209 269.196 66.4209 268.824C66.4394 268.453 66.1236 268.155 65.752 268.155Z" fill="#376F92"/>
<path d="M70.8984 268.824C70.8984 269.4 70.4339 269.883 69.8393 269.883C69.2634 269.883 68.7803 269.419 68.7803 268.824C68.7803 268.248 69.2448 267.765 69.8393 267.765C70.4339 267.784 70.8984 268.248 70.8984 268.824Z" fill="white"/>
<path d="M69.8584 270.255C69.078 270.255 68.4277 269.623 68.4277 268.824C68.4277 268.044 69.0595 267.393 69.8584 267.393C70.6388 267.393 71.2891 268.025 71.2891 268.824C71.2891 269.623 70.6388 270.255 69.8584 270.255ZM69.8584 268.155C69.4868 268.155 69.1895 268.453 69.1895 268.824C69.1895 269.196 69.4868 269.493 69.8584 269.493C70.23 269.493 70.5273 269.196 70.5273 268.824C70.5273 268.453 70.23 268.155 69.8584 268.155Z" fill="#376F92"/>
<path d="M90.0176 270.255C89.9247 270.255 89.8132 270.218 89.7389 270.143C89.5902 269.995 89.6088 269.753 89.7574 269.605L91.7456 267.709C91.8942 267.561 92.1357 267.579 92.2844 267.728C92.433 267.877 92.4144 268.118 92.2658 268.267L90.2777 270.162C90.2034 270.218 90.1105 270.255 90.0176 270.255Z" fill="#376F92"/>
<path d="M92.0057 270.255C91.9128 270.255 91.8199 270.218 91.7456 270.143L89.7575 268.248C89.6088 268.1 89.6088 267.858 89.7389 267.709C89.8875 267.561 90.1291 267.561 90.2777 267.691L92.2658 269.586C92.4145 269.735 92.4145 269.976 92.2844 270.125C92.2101 270.218 92.0986 270.255 92.0057 270.255Z" fill="#376F92"/>
<path d="M93.9187 271.89H57.3711V293.387H93.9187V271.89Z" fill="white"/>
<path d="M94.3094 293.778H57V271.518H94.3094V293.778ZM57.7618 293.016H93.5476V272.262H57.7618V293.016Z" fill="#376F92"/>
<path d="M89.7943 284.079H74.7256C74.5212 284.079 74.354 284.004 74.354 283.8C74.354 283.596 74.5212 283.521 74.7256 283.521H89.7943C89.9987 283.521 90.1659 283.596 90.1659 283.8C90.1659 284.004 89.9987 284.079 89.7943 284.079ZM90.1659 287.981C90.1659 287.776 89.9987 287.609 89.7943 287.609H74.7256C74.5212 287.609 74.354 287.776 74.354 287.981C74.354 288.185 74.5212 288.352 74.7256 288.352H89.7943C89.9987 288.352 90.1659 288.185 90.1659 287.981ZM90.1659 276.647C90.1659 276.442 89.9987 276.275 89.7943 276.275H74.7256C74.5212 276.275 74.354 276.442 74.354 276.647C74.354 276.851 74.5212 277.018 74.7256 277.018H89.7943C89.9987 277.018 90.1659 276.851 90.1659 276.647ZM90.1659 280.084C90.1659 279.88 89.9987 279.619 89.7943 279.619H74.7256C74.5212 279.619 74.354 279.88 74.354 280.084C74.354 280.288 74.5212 280.548 74.7256 280.548H89.7943C89.9987 280.548 90.1659 280.288 90.1659 280.084Z" fill="#376F92"/>
<path d="M70.8795 275.885H62.3511V288.371H70.8795V275.885Z" fill="#78C1D0"/>
<path d="M95.8607 17.5944H69.4482V44.2148H95.8607V17.5944Z" fill="white"/>
<path d="M90.038 23.2097H75.272V38.1837H90.038V23.2097Z" fill="#78C1D0"/>
<path d="M83.5909 15.0988H81.0952V17.5945H83.5909V15.0988Z" fill="white"/>
<path d="M89.206 15.0988H86.2944V17.5945H89.206V15.0988Z" fill="white"/>
<path d="M84.0074 44.2149H81.5117V46.7106H84.0074V44.2149Z" fill="white"/>
<path d="M88.7901 44.2149H86.2944V46.7106H88.7901V44.2149Z" fill="white"/>
<path d="M98.357 34.4402H95.8613V36.9358H98.357V34.4402Z" fill="white"/>
<path d="M98.357 29.4489H95.8613V32.5684H98.357V29.4489Z" fill="white"/>
<path d="M98.357 24.8734H95.8613V26.9531H98.357V24.8734Z" fill="white"/>
<path d="M69.4492 34.4402H66.7456V36.9358H69.4492V34.4402Z" fill="white"/>
<path d="M69.4492 29.4489H66.7456V32.5684H69.4492V29.4489Z" fill="white"/>
<path d="M78.5997 15.0988H76.104V17.5945H78.5997V15.0988Z" fill="white"/>
<path d="M75.5841 6.34312C75.5841 6.84225 75.1681 7.25819 74.669 7.25819C74.1699 7.25819 73.7539 6.84225 73.7539 6.34312C73.7539 5.84398 74.1699 5.42804 74.669 5.42804C75.1889 5.42804 75.5841 5.84398 75.5841 6.34312Z" fill="white"/>
<path d="M74.6689 7.67416C73.941 7.67416 73.3379 7.07104 73.3379 6.34314C73.3379 5.61523 73.941 5.01212 74.6689 5.01212C75.3968 5.01212 75.9999 5.61523 75.9999 6.34314C76.0207 7.07104 75.4176 7.67416 74.6689 7.67416ZM74.6689 5.844C74.3985 5.844 74.1698 6.07277 74.1698 6.34314C74.1698 6.6135 74.3985 6.84227 74.6689 6.84227C74.9393 6.84227 75.168 6.6135 75.168 6.34314C75.168 6.07277 74.9393 5.844 74.6689 5.844Z" fill="#376F92"/>
<path d="M69.4492 24.8734H66.7456V26.9531H69.4492V24.8734Z" fill="white"/>
<path d="M59.6739 22.3778C59.6739 22.8769 59.258 23.2928 58.7588 23.2928C58.2597 23.2928 57.8438 22.8769 57.8438 22.3778C57.8438 21.8786 58.2597 21.4627 58.7588 21.4627C59.2788 21.4627 59.6739 21.8786 59.6739 22.3778Z" fill="white"/>
<path d="M58.7588 23.7089C58.0309 23.7089 57.4277 23.1057 57.4277 22.3778C57.4277 21.6499 58.0309 21.0468 58.7588 21.0468C59.4867 21.0468 60.0898 21.6499 60.0898 22.3778C60.0898 23.1057 59.5075 23.7089 58.7588 23.7089ZM58.7588 21.8787C58.4884 21.8787 58.2596 22.1075 58.2596 22.3778C58.2596 22.6482 58.4884 22.877 58.7588 22.877C59.0291 22.877 59.2579 22.6482 59.2579 22.3778C59.2579 22.1075 59.0291 21.8787 58.7588 21.8787Z" fill="#376F92"/>
<path d="M77.6639 25.3102C77.6639 25.5598 77.4559 25.7678 77.2064 25.7678C76.9568 25.7678 76.7488 25.5598 76.7488 25.3102C76.7488 25.0607 76.9568 24.8527 77.2064 24.8527C77.4559 24.8527 77.6639 25.0607 77.6639 25.3102ZM79.3693 24.8527C79.1197 24.8527 78.9117 25.0607 78.9117 25.3102C78.9117 25.5598 79.1197 25.7678 79.3693 25.7678C79.6188 25.7678 79.8268 25.5598 79.8268 25.3102C79.8268 25.0607 79.6188 24.8527 79.3693 24.8527ZM81.553 24.8527C81.3034 24.8527 81.0954 25.0607 81.0954 25.3102C81.0954 25.5598 81.3034 25.7678 81.553 25.7678C81.8025 25.7678 82.0105 25.5598 82.0105 25.3102C82.0105 25.0607 81.8025 24.8527 81.553 24.8527ZM83.7159 24.8527C83.4663 24.8527 83.2584 25.0607 83.2584 25.3102C83.2584 25.5598 83.4663 25.7678 83.7159 25.7678C83.9655 25.7678 84.1734 25.5598 84.1734 25.3102C84.1942 25.0607 83.9863 24.8527 83.7159 24.8527ZM85.8996 24.8527C85.65 24.8527 85.4421 25.0607 85.4421 25.3102C85.4421 25.5598 85.65 25.7678 85.8996 25.7678C86.1492 25.7678 86.3571 25.5598 86.3571 25.3102C86.3571 25.0607 86.1492 24.8527 85.8996 24.8527ZM88.0833 24.8527C87.8337 24.8527 87.6258 25.0607 87.6258 25.3102C87.6258 25.5598 87.8337 25.7678 88.0833 25.7678C88.3329 25.7678 88.5408 25.5598 88.5408 25.3102C88.5408 25.0607 88.3329 24.8527 88.0833 24.8527ZM77.1856 26.6621C76.936 26.6621 76.728 26.87 76.728 27.1196C76.728 27.3692 76.936 27.5771 77.1856 27.5771C77.4351 27.5771 77.6431 27.3692 77.6431 27.1196C77.6431 26.87 77.4559 26.6621 77.1856 26.6621ZM79.3693 26.6621C79.1197 26.6621 78.9117 26.87 78.9117 27.1196C78.9117 27.3692 79.1197 27.5771 79.3693 27.5771C79.6188 27.5771 79.8268 27.3692 79.8268 27.1196C79.8268 26.87 79.6188 26.6621 79.3693 26.6621ZM81.553 26.6621C81.3034 26.6621 81.0954 26.87 81.0954 27.1196C81.0954 27.3692 81.3034 27.5771 81.553 27.5771C81.8025 27.5771 82.0105 27.3692 82.0105 27.1196C82.0105 26.87 81.8025 26.6621 81.553 26.6621ZM83.7159 26.6621C83.4663 26.6621 83.2584 26.87 83.2584 27.1196C83.2584 27.3692 83.4663 27.5771 83.7159 27.5771C83.9655 27.5771 84.1734 27.3692 84.1734 27.1196C84.1734 26.87 83.9863 26.6621 83.7159 26.6621ZM85.8996 26.6621C85.65 26.6621 85.4421 26.87 85.4421 27.1196C85.4421 27.3692 85.65 27.5771 85.8996 27.5771C86.1492 27.5771 86.3571 27.3692 86.3571 27.1196C86.3571 26.87 86.1492 26.6621 85.8996 26.6621ZM88.0833 26.6621C87.8337 26.6621 87.6258 26.87 87.6258 27.1196C87.6258 27.3692 87.8337 27.5771 88.0833 27.5771C88.3329 27.5771 88.5408 27.3692 88.5408 27.1196C88.5408 26.87 88.3329 26.6621 88.0833 26.6621ZM77.1856 28.4714C76.936 28.4714 76.728 28.6794 76.728 28.9289C76.728 29.1785 76.936 29.3865 77.1856 29.3865C77.4351 29.3865 77.6431 29.1785 77.6431 28.9289C77.6639 28.6794 77.4559 28.4714 77.1856 28.4714ZM79.3693 28.4714C79.1197 28.4714 78.9117 28.6794 78.9117 28.9289C78.9117 29.1785 79.1197 29.3865 79.3693 29.3865C79.6188 29.3865 79.8268 29.1785 79.8268 28.9289C79.8268 28.6794 79.6188 28.4714 79.3693 28.4714ZM81.553 28.4714C81.3034 28.4714 81.0954 28.6794 81.0954 28.9289C81.0954 29.1785 81.3034 29.3865 81.553 29.3865C81.8025 29.3865 82.0105 29.1785 82.0105 28.9289C82.0105 28.6794 81.8025 28.4714 81.553 28.4714ZM83.7159 28.4714C83.4663 28.4714 83.2584 28.6794 83.2584 28.9289C83.2584 29.1785 83.4663 29.3865 83.7159 29.3865C83.9655 29.3865 84.1734 29.1785 84.1734 28.9289C84.1942 28.6794 83.9863 28.4714 83.7159 28.4714ZM85.8996 28.4714C85.65 28.4714 85.4421 28.6794 85.4421 28.9289C85.4421 29.1785 85.65 29.3865 85.8996 29.3865C86.1492 29.3865 86.3571 29.1785 86.3571 28.9289C86.3571 28.6794 86.1492 28.4714 85.8996 28.4714ZM88.0833 28.4714C87.8337 28.4714 87.6258 28.6794 87.6258 28.9289C87.6258 29.1785 87.8337 29.3865 88.0833 29.3865C88.3329 29.3865 88.5408 29.1785 88.5408 28.9289C88.5408 28.6794 88.3329 28.4714 88.0833 28.4714ZM77.1856 30.3016C76.936 30.3016 76.728 30.5095 76.728 30.7591C76.728 31.0087 76.936 31.2166 77.1856 31.2166C77.4351 31.2166 77.6431 31.0087 77.6431 30.7591C77.6639 30.5095 77.4559 30.3016 77.1856 30.3016ZM79.3693 30.3016C79.1197 30.3016 78.9117 30.5095 78.9117 30.7591C78.9117 31.0087 79.1197 31.2166 79.3693 31.2166C79.6188 31.2166 79.8268 31.0087 79.8268 30.7591C79.8268 30.5095 79.6188 30.3016 79.3693 30.3016ZM81.553 30.3016C81.3034 30.3016 81.0954 30.5095 81.0954 30.7591C81.0954 31.0087 81.3034 31.2166 81.553 31.2166C81.8025 31.2166 82.0105 31.0087 82.0105 30.7591C82.0105 30.5095 81.8025 30.3016 81.553 30.3016ZM83.7159 30.3016C83.4663 30.3016 83.2584 30.5095 83.2584 30.7591C83.2584 31.0087 83.4663 31.2166 83.7159 31.2166C83.9655 31.2166 84.1734 31.0087 84.1734 30.7591C84.1942 30.5095 83.9863 30.3016 83.7159 30.3016ZM85.8996 30.3016C85.65 30.3016 85.4421 30.5095 85.4421 30.7591C85.4421 31.0087 85.65 31.2166 85.8996 31.2166C86.1492 31.2166 86.3571 31.0087 86.3571 30.7591C86.3571 30.5095 86.1492 30.3016 85.8996 30.3016ZM88.0833 30.3016C87.8337 30.3016 87.6258 30.5095 87.6258 30.7591C87.6258 31.0087 87.8337 31.2166 88.0833 31.2166C88.3329 31.2166 88.5408 31.0087 88.5408 30.7591C88.5408 30.5095 88.3329 30.3016 88.0833 30.3016ZM77.1856 32.1109C76.936 32.1109 76.728 32.3189 76.728 32.5685C76.728 32.818 76.936 33.026 77.1856 33.026C77.4351 33.026 77.6431 32.818 77.6431 32.5685C77.6639 32.3189 77.4559 32.1109 77.1856 32.1109ZM79.3693 32.1109C79.1197 32.1109 78.9117 32.3189 78.9117 32.5685C78.9117 32.818 79.1197 33.026 79.3693 33.026C79.6188 33.026 79.8268 32.818 79.8268 32.5685C79.8268 32.3189 79.6188 32.1109 79.3693 32.1109ZM81.553 32.1109C81.3034 32.1109 81.0954 32.3189 81.0954 32.5685C81.0954 32.818 81.3034 33.026 81.553 33.026C81.8025 33.026 82.0105 32.818 82.0105 32.5685C82.0105 32.3189 81.8025 32.1109 81.553 32.1109ZM83.7159 32.1109C83.4663 32.1109 83.2584 32.3189 83.2584 32.5685C83.2584 32.818 83.4663 33.026 83.7159 33.026C83.9655 33.026 84.1734 32.818 84.1734 32.5685C84.1942 32.3189 83.9863 32.1109 83.7159 32.1109ZM85.8996 32.1109C85.65 32.1109 85.4421 32.3189 85.4421 32.5685C85.4421 32.818 85.65 33.026 85.8996 33.026C86.1492 33.026 86.3571 32.818 86.3571 32.5685C86.3571 32.3189 86.1492 32.1109 85.8996 32.1109ZM88.0833 32.1109C87.8337 32.1109 87.6258 32.3189 87.6258 32.5685C87.6258 32.818 87.8337 33.026 88.0833 33.026C88.3329 33.026 88.5408 32.818 88.5408 32.5685C88.5408 32.3189 88.3329 32.1109 88.0833 32.1109ZM77.1856 33.9203C76.936 33.9203 76.728 34.1282 76.728 34.3778C76.728 34.6274 76.936 34.8354 77.1856 34.8354C77.4351 34.8354 77.6431 34.6274 77.6431 34.3778C77.6639 34.1282 77.4559 33.9203 77.1856 33.9203ZM79.3693 33.9203C79.1197 33.9203 78.9117 34.1282 78.9117 34.3778C78.9117 34.6274 79.1197 34.8354 79.3693 34.8354C79.6188 34.8354 79.8268 34.6274 79.8268 34.3778C79.8268 34.1282 79.6188 33.9203 79.3693 33.9203ZM81.553 33.9203C81.3034 33.9203 81.0954 34.1282 81.0954 34.3778C81.0954 34.6274 81.3034 34.8354 81.553 34.8354C81.8025 34.8354 82.0105 34.6274 82.0105 34.3778C82.0105 34.1282 81.8025 33.9203 81.553 33.9203ZM83.7159 33.9203C83.4663 33.9203 83.2584 34.1282 83.2584 34.3778C83.2584 34.6274 83.4663 34.8354 83.7159 34.8354C83.9655 34.8354 84.1734 34.6274 84.1734 34.3778C84.1942 34.1282 83.9863 33.9203 83.7159 33.9203ZM85.8996 33.9203C85.65 33.9203 85.4421 34.1282 85.4421 34.3778C85.4421 34.6274 85.65 34.8354 85.8996 34.8354C86.1492 34.8354 86.3571 34.6274 86.3571 34.3778C86.3571 34.1282 86.1492 33.9203 85.8996 33.9203ZM88.0833 33.9203C87.8337 33.9203 87.6258 34.1282 87.6258 34.3778C87.6258 34.6274 87.8337 34.8354 88.0833 34.8354C88.3329 34.8354 88.5408 34.6274 88.5408 34.3778C88.5408 34.1282 88.3329 33.9203 88.0833 33.9203ZM77.1856 35.7296C76.936 35.7296 76.728 35.9376 76.728 36.1872C76.728 36.4367 76.936 36.6447 77.1856 36.6447C77.4351 36.6447 77.6431 36.4367 77.6431 36.1872C77.6639 35.9376 77.4559 35.7296 77.1856 35.7296ZM79.3693 35.7296C79.1197 35.7296 78.9117 35.9376 78.9117 36.1872C78.9117 36.4367 79.1197 36.6447 79.3693 36.6447C79.6188 36.6447 79.8268 36.4367 79.8268 36.1872C79.8268 35.9376 79.6188 35.7296 79.3693 35.7296ZM81.553 35.7296C81.3034 35.7296 81.0954 35.9376 81.0954 36.1872C81.0954 36.4367 81.3034 36.6447 81.553 36.6447C81.8025 36.6447 82.0105 36.4367 82.0105 36.1872C82.0105 35.9376 81.8025 35.7296 81.553 35.7296ZM83.7159 35.7296C83.4663 35.7296 83.2584 35.9376 83.2584 36.1872C83.2584 36.4367 83.4663 36.6447 83.7159 36.6447C83.9655 36.6447 84.1734 36.4367 84.1734 36.1872C84.1942 35.9376 83.9863 35.7296 83.7159 35.7296ZM85.8996 35.7296C85.65 35.7296 85.4421 35.9376 85.4421 36.1872C85.4421 36.4367 85.65 36.6447 85.8996 36.6447C86.1492 36.6447 86.3571 36.4367 86.3571 36.1872C86.3571 35.9376 86.1492 35.7296 85.8996 35.7296ZM88.0833 35.7296C87.8337 35.7296 87.6258 35.9376 87.6258 36.1872C87.6258 36.4367 87.8337 36.6447 88.0833 36.6447C88.3329 36.6447 88.5408 36.4367 88.5408 36.1872C88.5408 35.9376 88.3329 35.7296 88.0833 35.7296Z" fill="#376F92"/>
<path d="M79.0152 44.2149H76.3115V46.7106H79.0152V44.2149Z" fill="white"/>
<path d="M74.8354 38.7452H90.4334V22.7105H74.8354V38.7452ZM75.6673 23.5632H89.5807V37.9133H75.6673V23.5632Z" fill="#376F92"/>
<path d="M107.321 30.7175H98.877V29.0329H96.3398V27.3484H98.877V26.0797H104.014L107.487 23.6464L107.009 22.9601L103.744 25.2478H98.8562V24.3951H96.319V17.2201H89.5599V14.6828H87.9585L88.1249 10.2322L92.3675 5.53207L91.7436 4.97054L87.293 9.89948L87.1266 14.6828H85.7748V17.2201H84.0902V14.6828H82.8216V6.13518L84.2566 1.08146L83.4455 0.852692L81.9897 5.96881L81.9689 14.6828H80.7002V17.2201H79.0157V14.6828H77.747V9.42114L75.3554 6.7175L74.7314 7.27903L76.9152 9.7539V14.7036H75.6465V17.2409H68.929V24.4159H66.3918V25.6846H63.5633L59.5911 22.461L59.0503 23.0849L63.2514 26.5165H66.3918V27.3692H68.929V29.0537H66.3918V30.7383H58.2185L53.6431 32.5893L53.955 33.3795L58.3848 31.591H66.3918V32.8596H68.929V34.1282H66.3918V34.9809H62.981L59.5703 36.4783L59.903 37.2478L63.1474 35.8336H66.371V37.5182H68.9082V44.6932H76.0833V47.2305H77.3519V53.9688L75.2306 55.5286C75.0018 55.3206 74.6898 55.1958 74.3779 55.1958C73.65 55.1958 73.0469 55.799 73.0469 56.5269C73.0469 57.2548 73.65 57.8579 74.3779 57.8579C75.1058 57.8579 75.7089 57.2548 75.7089 56.5269C75.7089 56.4229 75.6881 56.3397 75.6673 56.2357L78.0174 54.5095C78.1214 54.4263 78.1838 54.3016 78.1838 54.1768V47.2305H79.4524V44.6932H81.137V47.2305H82.4056V49.6014L81.8857 50.6412C81.6985 50.5373 81.4905 50.4749 81.2618 50.4749C80.5339 50.4749 79.9307 51.078 79.9307 51.8059C79.9307 52.5338 80.5339 53.1369 81.2618 53.1369C81.9897 53.1369 82.5928 52.5338 82.5928 51.8059C82.5928 51.6187 82.5512 51.4523 82.4888 51.3068L83.2375 49.7886V47.2097H84.5061V44.6724H85.7748V47.2097H87.0434V51.9515L88.1664 54.2808C88.0001 54.5095 87.9169 54.7591 87.9169 55.0503C87.9169 55.7782 88.52 56.3813 89.2479 56.3813C89.9758 56.3813 90.5789 55.7782 90.5789 55.0503C90.5789 54.3223 89.9758 53.7192 89.2479 53.7192C89.1231 53.7192 88.9983 53.74 88.8736 53.7816L87.8961 51.7435V47.1889H89.1647V44.6516H96.3398V37.4766H98.877V36.6239H102.683V35.7712H98.877V34.1074H96.3398V32.8388H98.877V31.5702H106.988L110.586 35.0849L111.168 34.4818L107.321 30.7175ZM96.3398 25.2478H98.0243V26.5165H96.3398V25.2478ZM68.929 36.6239H67.2444V34.9393H68.929V36.6239ZM68.929 31.9861H67.2444V29.8856H68.929V31.9861ZM68.929 26.5165H67.2444V25.2478H68.929V26.5165ZM86.6275 15.5355H88.728V17.2201H86.6275V15.5355ZM81.5737 15.5355H83.2583V17.2201H81.5737V15.5355ZM76.52 15.5355H78.2046V17.2201H76.52V15.5355ZM78.6205 46.3362H76.936V44.6516H78.6205V46.3362ZM83.6742 46.3362H81.9897V44.6516H83.6742V46.3362ZM88.3328 46.3362H86.6482V44.6516H88.3328V46.3362ZM95.4871 24.3951V27.3484V29.0329V32.8388V34.1074V37.4766V43.7989H89.1647H85.7956H84.5269H81.1578H79.4732H76.1041H69.7817V37.4766V34.1074V32.8388V29.0329V27.3484V24.3951V18.0728H75.6881H79.0573H80.7418H84.111H85.7956H89.6015H95.5079V24.3951H95.4871ZM98.0243 34.9393V36.6239H96.3398V34.9393H98.0243ZM98.0243 31.9861H96.3398V29.8856H98.0243V31.9861Z" fill="#376F92"/>
<path d="M54.2247 33.3171C54.2247 33.8163 53.8087 34.2322 53.3096 34.2322C52.8105 34.2322 52.3945 33.8163 52.3945 33.3171C52.3945 32.818 52.8105 32.402 53.3096 32.402C53.8295 32.402 54.2247 32.818 54.2247 33.3171Z" fill="white"/>
<path d="M53.331 34.6482C52.6031 34.6482 52 34.045 52 33.3171C52 32.5892 52.6031 31.9861 53.331 31.9861C54.0589 31.9861 54.662 32.5892 54.662 33.3171C54.662 34.0658 54.0589 34.6482 53.331 34.6482ZM53.331 32.8388C53.0607 32.8388 52.8319 33.0676 52.8319 33.3379C52.8319 33.6083 53.0607 33.8371 53.331 33.8371C53.6014 33.8371 53.8302 33.6083 53.8302 33.3379C53.8094 33.0468 53.6014 32.8388 53.331 32.8388Z" fill="#376F92"/>
<path d="M60.7764 37.2478C60.7764 37.747 60.3605 38.1629 59.8614 38.1629C59.3622 38.1629 58.9463 37.747 58.9463 37.2478C58.9463 36.7487 59.3622 36.3328 59.8614 36.3328C60.3605 36.3536 60.7764 36.7487 60.7764 37.2478Z" fill="white"/>
<path d="M59.8613 38.5788C59.1334 38.5788 58.5303 37.9757 58.5303 37.2478C58.5303 36.5199 59.1334 35.9168 59.8613 35.9168C60.5892 35.9168 61.1923 36.5199 61.1923 37.2478C61.1923 37.9965 60.5892 38.5788 59.8613 38.5788ZM59.8613 36.7695C59.5909 36.7695 59.3622 36.9982 59.3622 37.2686C59.3622 37.539 59.5909 37.7677 59.8613 37.7677C60.1317 37.7677 60.3604 37.539 60.3604 37.2686C60.3396 36.9774 60.1317 36.7695 59.8613 36.7695Z" fill="#376F92"/>
<path d="M103.598 36.1664C103.598 36.6656 103.182 37.0815 102.683 37.0815C102.184 37.0815 101.768 36.6656 101.768 36.1664C101.768 35.6673 102.184 35.2513 102.683 35.2513C103.182 35.2513 103.598 35.6673 103.598 36.1664Z" fill="white"/>
<path d="M102.683 37.4973C101.955 37.4973 101.352 36.8942 101.352 36.1663C101.352 35.4384 101.955 34.8353 102.683 34.8353C103.411 34.8353 104.014 35.4384 104.014 36.1663C104.014 36.8942 103.411 37.4973 102.683 37.4973ZM102.683 35.6672C102.413 35.6672 102.184 35.896 102.184 36.1663C102.184 36.4367 102.413 36.6654 102.683 36.6654C102.953 36.6654 103.182 36.4367 103.182 36.1663C103.182 35.896 102.953 35.6672 102.683 35.6672Z" fill="#376F92"/>
<path d="M111.584 34.6481C111.584 35.1473 111.168 35.5632 110.669 35.5632C110.17 35.5632 109.754 35.1473 109.754 34.6481C109.754 34.149 110.17 33.7331 110.669 33.7331C111.168 33.7539 111.584 34.149 111.584 34.6481Z" fill="white"/>
<path d="M110.669 35.9792C109.941 35.9792 109.338 35.3761 109.338 34.6482C109.338 33.9203 109.941 33.3171 110.669 33.3171C111.397 33.3171 112 33.9203 112 34.6482C112 35.3969 111.397 35.9792 110.669 35.9792ZM110.669 34.1698C110.399 34.1698 110.17 34.3986 110.17 34.669C110.17 34.9393 110.399 35.1681 110.669 35.1681C110.939 35.1681 111.168 34.9393 111.168 34.669C111.168 34.3778 110.939 34.1698 110.669 34.1698Z" fill="#376F92"/>
<path d="M108.319 23.4593C108.319 23.9585 107.903 24.3744 107.404 24.3744C106.905 24.3744 106.489 23.9585 106.489 23.4593C106.489 22.9602 106.905 22.5443 107.404 22.5443C107.903 22.5443 108.319 22.9602 108.319 23.4593Z" fill="white"/>
<path d="M107.404 24.7903C106.676 24.7903 106.073 24.1872 106.073 23.4593C106.073 22.7314 106.676 22.1282 107.404 22.1282C108.132 22.1282 108.735 22.7314 108.735 23.4593C108.735 24.1872 108.132 24.7903 107.404 24.7903ZM107.404 22.9809C107.133 22.9809 106.905 23.2097 106.905 23.4801C106.905 23.7504 107.133 23.9792 107.404 23.9792C107.674 23.9792 107.903 23.7504 107.903 23.4801C107.903 23.1889 107.674 22.9809 107.404 22.9809Z" fill="#376F92"/>
<path d="M93.0743 5.30332C93.0743 5.80245 92.6584 6.2184 92.1592 6.2184C91.6601 6.2184 91.2441 5.80245 91.2441 5.30332C91.2441 4.80419 91.6601 4.38824 92.1592 4.38824C92.6584 4.40904 93.0743 4.80419 93.0743 5.30332Z" fill="white"/>
<path d="M92.1591 6.65511C91.4312 6.65511 90.8281 6.052 90.8281 5.32409C90.8281 4.59619 91.4312 3.99307 92.1591 3.99307C92.887 3.99307 93.4902 4.59619 93.4902 5.32409C93.4902 6.052 92.887 6.65511 92.1591 6.65511ZM92.1591 4.82496C91.8888 4.82496 91.66 5.05373 91.66 5.32409C91.66 5.59446 91.8888 5.82323 92.1591 5.82323C92.4295 5.82323 92.6583 5.59446 92.6583 5.32409C92.6583 5.05373 92.4295 4.82496 92.1591 4.82496Z" fill="#376F92"/>
<path d="M84.7135 1.331C84.7135 1.83013 84.2975 2.24608 83.7984 2.24608C83.2992 2.24608 82.8833 1.83013 82.8833 1.331C82.8833 0.831867 83.2992 0.415924 83.7984 0.415924C84.3183 0.415924 84.7135 0.81107 84.7135 1.331Z" fill="white"/>
<path d="M83.8193 2.66204C83.0914 2.66204 82.4883 2.05892 82.4883 1.33102C82.4883 0.603118 83.0914 0 83.8193 0C84.5472 0 85.1503 0.603118 85.1503 1.33102C85.1503 2.05892 84.5472 2.66204 83.8193 2.66204ZM83.8193 0.831889C83.5489 0.831889 83.3202 1.06066 83.3202 1.33102C83.3202 1.60138 83.5489 1.83015 83.8193 1.83015C84.0897 1.83015 84.3184 1.60138 84.3184 1.33102C84.2976 1.06066 84.0897 0.831889 83.8193 0.831889Z" fill="#376F92"/>
<path d="M89.2477 54.5719C88.9773 54.5719 88.7485 54.8007 88.7485 55.0711C88.7485 55.3414 88.9773 55.5702 89.2477 55.5702C89.518 55.5702 89.7468 55.3414 89.7468 55.0711C89.726 54.8007 89.518 54.5719 89.2477 54.5719Z" fill="white"/>
<path d="M81.2618 51.3068C80.9915 51.3068 80.7627 51.5356 80.7627 51.8059C80.7627 52.0763 80.9915 52.3051 81.2618 52.3051C81.5322 52.3051 81.761 52.0763 81.761 51.8059C81.7402 51.5356 81.5322 51.3068 81.2618 51.3068Z" fill="white"/>
<path d="M74.336 56.0277C74.0657 56.0277 73.8369 56.2565 73.8369 56.5268C73.8369 56.7972 74.0657 57.026 74.336 57.026C74.6064 57.026 74.8352 56.7972 74.8352 56.5268C74.8352 56.2565 74.6064 56.0277 74.336 56.0277Z" fill="white"/>
</svg>
