<svg width="83" height="66" viewBox="0 0 83 66" fill="none" xmlns="http://www.w3.org/2000/svg">
<path d="M81.7075 14.2636C81.7075 15.461 80.7566 16.4119 79.5592 16.4119H2.85268C1.65524 16.4119 0.704346 15.461 0.704346 14.2636V2.71185C0.704346 1.51441 1.65524 0.563492 2.85268 0.563492H79.5592C80.7566 0.563492 81.7075 1.51441 81.7075 2.71185V14.2636Z" fill="#78C1D0"/>
<path d="M81.3553 55.5048H13.4888H11.4813L0.704346 64.4856V12.8901H81.3553V55.5048Z" fill="white"/>
<path d="M77.1997 6.83244L78.6437 5.4589C78.9254 5.17715 78.9254 4.7193 78.6789 4.43755C78.3971 4.1558 77.9393 4.15581 77.6575 4.40234L76.1431 5.8463L74.6287 4.40234C74.347 4.12059 73.8891 4.1558 73.6074 4.43755C73.3256 4.7193 73.3608 5.17715 73.6426 5.4589L75.0865 6.83244L73.6426 8.20596C73.3608 8.48771 73.3608 8.94557 73.6074 9.22732C73.7482 9.36819 73.9243 9.43862 74.1357 9.43862C74.3117 9.43862 74.4879 9.36819 74.6287 9.22732L76.1431 7.78333L77.6575 9.22732C77.7984 9.36819 77.9745 9.43862 78.1506 9.43862C78.3267 9.43862 78.538 9.36819 78.6789 9.22732C78.9606 8.94557 78.9254 8.48771 78.6437 8.20596L77.1997 6.83244Z" fill="#376F92"/>
<path d="M73.572 24.1601H8.55814C8.17073 24.1601 7.85376 23.8431 7.85376 23.4557C7.85376 23.0683 8.17073 22.7513 8.55814 22.7513H73.572C73.9594 22.7513 74.2764 23.0683 74.2764 23.4557C74.2764 23.8431 73.9594 24.1601 73.572 24.1601ZM74.2764 30.4995C74.2764 30.1121 73.9594 29.7951 73.572 29.7951H8.55814C8.17073 29.7951 7.85376 30.1121 7.85376 30.4995C7.85376 30.8869 8.17073 31.2038 8.55814 31.2038H73.572C73.9594 31.2038 74.2764 30.8869 74.2764 30.4995ZM74.2764 38.5998C74.2764 38.2124 73.9594 37.8954 73.572 37.8954H8.55814C8.17073 37.8954 7.85376 38.2124 7.85376 38.5998C7.85376 38.9872 8.17073 39.3042 8.55814 39.3042H73.572C73.9594 39.3042 74.2764 38.9872 74.2764 38.5998ZM74.2764 46.3479C74.2764 45.9605 73.9594 45.6435 73.572 45.6435H8.55814C8.17073 45.6435 7.85376 45.9605 7.85376 46.3479C7.85376 46.7353 8.17073 47.0523 8.55814 47.0523H73.572C73.9594 47.0523 74.2764 46.7353 74.2764 46.3479Z" fill="#376F92"/>
<path d="M58.2872 34.3031C58.2872 43.5304 50.8208 51.032 41.5583 51.032C32.3309 51.032 24.8293 43.5656 24.8293 34.3031C24.8293 25.0758 32.2957 17.5742 41.5583 17.5742C50.8208 17.5742 58.2872 25.0758 58.2872 34.3031Z" fill="#78C1D0"/>
<path d="M44.5516 28.6681V26.9776C44.5516 25.1462 43.319 23.6671 41.7694 23.6671C40.2197 23.6671 38.9871 25.1462 38.9871 26.9776V28.6681H44.5516Z" fill="#78C1D0"/>
<path d="M45.2913 29.3725H38.2827V26.9424C38.2827 24.7236 39.8676 22.9274 41.7694 22.9274C43.7064 22.9274 45.2561 24.7236 45.2561 26.9424V29.3725H45.2913ZM39.6915 27.9285H43.8473V26.9424C43.8473 25.4984 42.9316 24.3362 41.7694 24.3362C40.6424 24.3362 39.6915 25.4984 39.6915 26.9424V27.9285Z" fill="#376F92"/>
<path d="M48.6723 28.3863H34.5144V42.5443H48.6723V28.3863Z" fill="white"/>
<path d="M43.5306 38.952L42.1923 35.6062C42.8966 35.3244 43.3897 34.6553 43.3897 33.8805C43.3897 32.8591 42.5445 32.0139 41.5231 32.0139C40.5018 32.0139 39.6565 32.8591 39.6565 33.8805C39.6565 34.6905 40.1848 35.3597 40.8892 35.6414L39.6565 38.9872H43.5306V38.952Z" fill="#376F92"/>
<path d="M79.2775 0H2.85271C1.26787 0 0 1.26787 0 2.85271V12.1505V12.714V66L11.7279 56.4205H82.1302V12.714V12.1505V2.85271C82.1654 1.26787 80.8623 0 79.2775 0ZM80.7214 55.0117H11.2348L1.44396 63.0064V13.5592H80.7214V55.0117ZM1.44396 12.1505V2.85271C1.44396 2.0779 2.07789 1.40875 2.88792 1.40875H79.3127C80.0875 1.40875 80.7567 2.04268 80.7567 2.85271V12.1505H1.44396Z" fill="#376F92"/>
</svg>
