<svg width="70" height="66" viewBox="0 0 70 66" fill="none" xmlns="http://www.w3.org/2000/svg">
<path d="M57.9836 31.9385H55.2587C53.9596 31.9385 52.5338 30.8613 52.1219 29.5622L49.9673 24.5876C49.3336 23.4153 49.5554 21.736 50.5059 20.7854L52.1853 19.0744C52.6922 18.5674 52.6922 17.7436 52.1853 17.2367L48.0028 13.0542C47.5275 12.579 46.6721 12.579 46.1968 13.0542L44.2957 14.9553C43.6937 15.5574 42.8065 15.9059 41.8559 15.9059C41.349 15.9059 40.9054 15.8108 40.4935 15.6207L35.7407 13.8781C34.4733 13.5295 33.4277 12.1671 33.4277 10.8363V7.82621C33.4277 7.03408 32.794 6.84397 32.2553 6.84397H26.3619C26.0768 6.84397 25.0945 6.90734 25.0945 7.82621V11.1848C25.0945 12.5156 24.1123 13.9097 22.8449 14.3533L18.6941 16.1911C18.3139 16.4129 17.8069 16.5396 17.2366 16.5396C16.3494 16.5396 15.494 16.1911 14.9236 15.6207L12.9591 13.6563C12.4839 13.181 11.6284 13.181 11.1531 13.6563L6.97064 17.8387C6.46368 18.3457 6.46368 19.1695 6.97064 19.6447L9.06189 21.736C10.0124 22.6865 10.2659 24.3658 9.66387 25.5698L8.04794 29.6572C7.63604 30.9246 6.24192 32.0019 4.94283 32.0019H1.74261C0.887109 32.0019 0.697021 32.6039 0.697021 33.1109V39.0043C0.697021 39.6697 1.01385 40.3668 1.74261 40.3668H4.81608C6.17854 40.3668 7.54098 41.349 7.88952 42.6481L9.50545 46.7672C10.0758 47.9078 9.79061 49.5871 8.87175 50.5377L6.43201 52.9774C5.92505 53.4844 5.92505 54.2765 6.43201 54.7835L10.6144 58.9342C11.0897 59.4095 11.9452 59.4095 12.4205 58.9342L14.6385 56.7163C15.2088 56.1459 16.0643 55.8291 16.9198 55.8291C17.4901 55.8291 17.9971 55.9558 18.4407 56.2093L22.8766 58.2055C24.0806 58.6174 25.0945 60.0115 25.0945 61.3423V64.1623C25.0945 64.8593 25.6649 65.398 26.3619 65.398H32.2553C32.9524 65.398 33.4277 64.8593 33.4277 64.1623V61.6591C33.4277 60.3284 34.505 58.9659 35.8041 58.5857L40.7786 56.6846C41.1905 56.4945 41.6658 56.3677 42.1728 56.3677C43.0917 56.3677 44.0105 56.7163 44.5808 57.2866L46.7354 59.4412C47.2107 59.9165 48.0662 59.9165 48.5732 59.4412L52.7556 55.2588C53.0091 55.0053 53.1358 54.6884 53.1358 54.3399C53.1358 53.9914 53.0091 53.6745 52.7556 53.421L50.7278 51.3932C49.7772 50.4426 49.5237 48.795 50.1574 47.591L52.312 42.4897C52.6922 41.2856 54.0547 40.3034 55.3854 40.3034H58.0153C58.7441 40.3034 59.1877 39.6063 59.1877 38.941V33.0475C59.156 32.3505 58.7124 31.9385 57.9836 31.9385ZM29.5621 48.0663C23.3518 48.0663 18.2822 42.9966 18.2822 36.7864C18.2822 30.5761 23.3518 25.5065 29.5621 25.5065C35.7724 25.5065 40.842 30.5761 40.842 36.7864C40.842 42.9966 35.7724 48.0663 29.5621 48.0663Z" fill="white"/>
<path d="M32.2554 66H26.362C25.2847 66 24.4292 65.1762 24.4292 64.0989V61.2789C24.4292 60.2333 23.6054 59.061 22.6548 58.7441L18.1556 56.7163C17.11 56.1459 15.7792 56.3677 15.0504 57.0965L12.8325 59.3145C12.1354 60.0115 10.8046 60.0115 10.1075 59.3145L5.92513 55.1637C5.16469 54.4033 5.16469 53.1992 5.92513 52.4388L8.36487 49.999C9.09362 49.2703 9.34713 47.8761 8.90354 46.989L7.25589 42.8065C6.93904 41.7609 5.83005 40.9371 4.75276 40.9371H1.67932C0.697087 40.9371 0 40.0816 0 38.941V33.0475C0 31.9702 0.633717 31.3048 1.67932 31.3048H4.87951C5.89343 31.3048 7.06579 30.4177 7.38264 29.4037L9.03025 25.2847C9.53721 24.2708 9.34713 22.9083 8.58669 22.1479L6.49544 20.0566C5.735 19.2962 5.735 18.0922 6.49544 17.3317L10.6779 13.1493C11.375 12.4522 12.7057 12.4522 13.4028 13.1493L15.3673 15.1138C15.8109 15.5574 16.5079 15.8425 17.2367 15.8425C17.6486 15.8425 18.0605 15.7475 18.3773 15.589L22.5915 13.7196C23.6371 13.3394 24.4609 12.1987 24.4609 11.1531V7.82621C24.4609 6.84397 25.2213 6.21027 26.3937 6.21027H32.2871C33.4278 6.21027 34.1248 6.84397 34.1248 7.82621V10.8363C34.1248 11.8502 34.9804 12.9909 35.9943 13.2444L40.7787 15.0187C41.856 15.5257 43.1868 15.2405 43.9155 14.5118L45.8166 12.6107C46.5137 11.9136 47.8445 11.9136 48.5416 12.6107L52.724 16.7931C53.4844 17.5535 53.4844 18.7576 52.724 19.518L51.0447 21.229C50.3159 21.9578 50.1258 23.3519 50.6011 24.2708L52.7874 29.3087C53.1359 30.4177 54.3082 31.3048 55.3538 31.3048H58.0788C59.156 31.3048 59.8848 32.0019 59.8848 33.0475V38.941C59.8848 39.9232 59.2194 40.9371 58.0788 40.9371H55.4489C54.4033 40.9371 53.2626 41.7292 52.9775 42.6798L52.9458 42.7432L50.7912 47.8445C50.2842 48.8267 50.4743 50.1891 51.2348 50.9179L53.2626 52.9457C53.6112 53.2943 53.8329 53.8012 53.8329 54.3082C53.8329 54.8152 53.6429 55.3221 53.2626 55.6707L49.0802 59.8531C48.3831 60.5502 47.0523 60.5502 46.3553 59.8531L44.2007 57.6985C43.7254 57.2232 42.9967 56.9381 42.2362 56.9381C41.8243 56.9381 41.4441 57.0331 41.1272 57.1916L36.0893 59.1243C35.012 59.4412 34.1248 60.5502 34.1248 61.5958V64.0989C34.0932 65.2079 33.301 66 32.2554 66ZM16.9198 55.1003C17.5852 55.1003 18.2189 55.2588 18.7576 55.5756L23.1301 57.5401C24.5559 58.0154 25.7283 59.6947 25.7283 61.2789V64.0989C25.7283 64.4474 26.0135 64.7009 26.362 64.7009H32.2554C32.5723 64.7009 32.794 64.4791 32.794 64.0989V61.5958C32.794 59.9798 34.0298 58.3639 35.6457 57.9203L40.5569 56.0509C41.0005 55.8291 41.5708 55.7024 42.1729 55.7024C43.2502 55.7024 44.3274 56.1143 45.0245 56.8113L47.1791 58.9659C47.4009 59.1877 47.8762 59.1877 48.098 58.9659L52.2804 54.7835C52.4071 54.6567 52.4705 54.4983 52.4705 54.3399C52.4705 54.1815 52.4071 53.9914 52.2804 53.8963L50.2526 51.8685C49.1119 50.7278 48.8267 48.7633 49.5555 47.3375L51.6467 42.2996C52.1219 40.8421 53.7379 39.6697 55.3222 39.6697H57.952C58.3005 39.6697 58.459 39.2261 58.459 38.941V33.0475C58.459 32.8257 58.4273 32.6039 57.952 32.6039H55.2271C53.6428 32.6039 51.9952 31.3682 51.4882 29.784L49.3654 24.8728C48.6049 23.5103 48.8901 21.5142 50.0307 20.3735L51.7101 18.6625C51.9635 18.409 51.9635 17.9971 51.7101 17.7436L47.5276 13.5612C47.3058 13.3394 46.8306 13.3394 46.6088 13.5612L44.7077 15.4623C44.0106 16.1594 42.9333 16.603 41.8243 16.603C41.2223 16.603 40.6836 16.4762 40.1767 16.2544L35.4873 14.5118C33.9981 14.0999 32.7307 12.4522 32.7307 10.868V7.85789C32.7307 7.69947 32.7307 7.54104 32.1921 7.54104H26.2986C26.0134 7.54104 25.6649 7.60441 25.6649 7.85789V11.1848C25.6649 12.8008 24.4926 14.4167 22.9717 14.9553L18.8843 16.7614C18.4407 17.0149 17.8387 17.1733 17.1733 17.1733C16.1277 17.1733 15.0821 16.7614 14.4167 16.096L12.4522 14.1315C12.2305 13.9097 11.7552 13.9097 11.5334 14.1315L7.35096 18.314C7.09748 18.5674 7.09748 18.9794 7.35096 19.2328L9.44217 21.324C10.6145 22.4647 10.8997 24.4609 10.1392 25.8867L8.55497 29.9107C8.07969 31.3999 6.43209 32.6673 4.84783 32.6673H1.64765C1.36248 32.6673 1.23573 32.699 1.23573 33.1109V39.0043C1.23573 39.0043 1.23574 39.7331 1.64765 39.7331H4.72108C6.36871 39.7331 7.95298 40.9054 8.42826 42.458L10.0125 46.5454C10.6779 47.8761 10.361 49.8723 9.22039 51.013L6.78061 53.4527C6.52713 53.7062 6.52713 54.1181 6.78061 54.3716L10.9631 58.5223C11.1849 58.7441 11.6601 58.7441 11.8819 58.5223L14.0999 56.3044C14.8603 55.5122 15.8742 55.1003 16.9198 55.1003ZM29.5622 48.7C22.9717 48.7 17.6486 43.3452 17.6486 36.7864C17.6486 30.1959 23.0034 24.8728 29.5622 24.8728C36.1527 24.8728 41.4758 30.2276 41.4758 36.7864C41.4758 43.3452 36.121 48.7 29.5622 48.7ZM29.5622 26.1402C23.7004 26.1402 18.916 30.9246 18.916 36.7864C18.916 42.6481 23.7004 47.4325 29.5622 47.4325C35.4239 47.4325 40.2084 42.6481 40.2084 36.7864C40.1767 30.8929 35.4239 26.1402 29.5622 26.1402Z" fill="#376F92"/>
<path d="M67.9961 19.6131C68.5664 19.6131 69.3269 19.6764 69.3269 19.0744V15.7158C69.3269 15.1455 68.5664 15.1771 67.9961 15.1771H66.4118C65.8415 15.1771 65.2078 14.4801 65.0177 13.9097L63.7503 10.8997C63.4651 10.3927 63.5602 9.56889 63.9721 9.18867L64.9543 8.17474C65.3662 7.76284 65.3662 7.06576 64.9543 6.68554L62.5779 4.30916C62.166 3.89726 61.5006 3.89726 61.0887 4.30916L59.9798 5.41814C59.5679 5.83004 58.8074 5.95679 58.3004 5.70331L55.5122 4.68939C54.9418 4.53096 54.4032 3.92894 54.4032 3.35861V1.61593C54.4032 1.0456 54.0863 0 53.516 0H50.1574C49.5871 0 49.0167 1.01391 49.0167 1.61593V3.54872C49.0167 4.11905 48.6048 4.75275 48.0662 4.94286L45.6898 6.02016C45.1828 6.30533 44.4541 6.21027 44.0422 5.79836L42.9015 4.6577C42.4896 4.24579 41.8242 4.24579 41.4123 4.6577L39.0359 7.03408C38.624 7.44599 38.624 8.11138 39.0359 8.52328L40.2399 9.72731C40.6518 10.1392 40.7786 10.8997 40.4934 11.4066L39.5429 13.9731C39.3528 14.5118 38.7507 15.2405 38.1804 15.2405H36.3427C35.7724 15.2405 35.4238 15.2088 35.4238 15.7792V19.1061C35.4238 19.6764 35.7724 19.6447 36.3427 19.6447H38.1487C38.7191 19.6447 39.3211 20.3735 39.5112 20.9121L40.4618 23.447C40.7152 23.9539 40.5885 24.7777 40.1766 25.1896L38.7824 26.6155C38.3705 27.0274 38.3705 27.7244 38.7824 28.1047L41.1588 30.481C41.5707 30.8929 42.2361 30.8929 42.648 30.481L43.9471 29.1819C44.359 28.77 45.0878 28.675 45.5947 28.9602L48.1295 30.1325C48.6682 30.3226 49.0801 30.9563 49.0801 31.5266V33.1743C49.0801 33.7446 49.6504 34.4417 50.2207 34.4417H53.5794C54.1497 34.4417 54.4665 33.7446 54.4665 33.1743V31.7801C54.4665 31.2098 55.0052 30.6078 55.5755 30.4493L58.4906 29.3404C58.9975 29.0869 59.7896 29.2136 60.2015 29.5939L61.4689 30.8296C61.8808 31.2415 62.5463 31.2415 62.9582 30.8296L65.3345 28.4532C65.7465 28.0413 65.7465 27.3759 65.3345 26.964L64.1622 25.7916C63.7503 25.3797 63.6552 24.6193 63.9087 24.1123L65.1444 20.8805C65.3029 20.3418 65.9365 19.6131 66.5069 19.6131H67.9961Z" fill="#78C1D0"/>
<path d="M57.9838 17.8387C57.9838 21.1339 55.3223 23.8272 51.9953 23.8272C48.7001 23.8272 46.0068 21.1656 46.0068 17.8387C46.0068 14.5435 48.6684 11.8502 51.9953 11.8502C55.3223 11.8819 57.9838 14.5435 57.9838 17.8387Z" fill="white"/>
</svg>
