<svg width="99" height="66" viewBox="0 0 99 66" fill="none" xmlns="http://www.w3.org/2000/svg">
<path d="M50.2778 63.0228C50.2778 64.0598 49.4415 64.9295 48.3711 64.9295H24.0852C23.0482 64.9295 22.1785 64.0932 22.1785 63.0228C22.1785 61.9858 23.0148 61.1161 24.0852 61.1161H48.3711C49.4081 61.1161 50.2778 61.9523 50.2778 63.0228Z" fill="white"/>
<path d="M87.3756 35.4252H84.9001V43.3532H87.3756V35.4252Z" fill="white"/>
<path d="M88.1783 43.7547H83.8965V34.6893H88.1783V43.7547ZM85.2345 42.4166H86.8068V36.0608H85.2345V42.4166Z" fill="#376F92"/>
<path d="M46.23 54.1916H26.8281V61.1161H46.23V54.1916Z" fill="#376F92"/>
<path d="M48.9064 65.4313H23.6504C22.5131 65.4313 21.6099 64.5281 21.6099 63.3908V62.4876C21.6099 61.3502 22.5131 60.447 23.6504 60.447H48.9064C50.0437 60.447 50.9469 61.3502 50.9469 62.4876V63.3908C50.9469 64.4947 50.0437 65.4313 48.9064 65.4313ZM23.6839 61.8186C23.3159 61.8186 23.0148 62.1196 23.0148 62.4876V63.3908C23.0148 63.7587 23.3159 64.0598 23.6839 64.0598H48.9398C49.3078 64.0598 49.6088 63.7587 49.6088 63.3908V62.4876C49.6088 62.1196 49.3078 61.8186 48.9398 61.8186H23.6839Z" fill="#376F92"/>
<path d="M70.5828 52.8201C70.5828 53.556 70.1144 54.225 69.3785 54.225H2.14082C1.40488 54.225 0.668945 53.5894 0.668945 52.8201V2.04054C0.668945 1.3046 1.37143 0.702475 2.14082 0.702475H69.3785C70.1144 0.702475 70.5828 1.3046 70.5828 2.04054V52.8201Z" fill="white"/>
<path d="M71.2519 52.8201C71.2519 53.9574 70.3487 54.8606 69.2113 54.8606H2.04055C0.903192 54.8606 0 53.9574 0 52.8201V2.04054C0 0.903185 0.903192 0 2.04055 0H69.2113C70.3487 0 71.2519 0.903185 71.2519 2.04054V52.8201ZM2.0071 1.33806C1.63913 1.33806 1.33806 1.57224 1.33806 1.94021V52.8201C1.33806 53.188 1.63913 53.5225 2.0071 53.5225H69.1779C69.5459 53.5225 69.5793 53.188 69.5793 52.8201V1.94021C69.5793 1.57224 69.5459 1.33806 69.1779 1.33806H2.0071Z" fill="#376F92"/>
<path d="M67.5723 42.149C67.5723 42.8849 66.9702 43.5205 66.2008 43.5205H6.38934C5.6534 43.5205 5.01782 42.9184 5.01782 42.149V6.72376C5.01782 5.98782 5.61995 5.35225 6.38934 5.35225H66.2342C66.9702 5.35225 67.6057 5.95437 67.6057 6.72376V42.149H67.5723Z" fill="#78C1D0"/>
<path d="M68.2412 42.1156C68.2412 43.2529 67.338 44.1561 66.2006 44.1561H6.38918C5.25183 44.1561 4.34863 43.2529 4.34863 42.1156V6.72376C4.34863 5.58641 5.25183 4.68322 6.38918 4.68322H66.2006C67.338 4.68322 68.2412 5.58641 68.2412 6.72376V42.1156ZM66.5686 6.72376C66.5686 6.35579 66.2675 6.05473 65.8996 6.05473H6.35573C5.98776 6.05473 5.6867 6.35579 5.6867 6.72376V42.149C5.6867 42.517 5.98776 42.818 6.35573 42.818H65.8996C66.2675 42.818 66.5686 42.517 66.5686 42.149V6.72376Z" fill="#376F92"/>
<path d="M34.3547 10.6041H9.80127V24.6538H34.3547V10.6041Z" fill="white"/>
<path d="M35.0239 25.3563H9.13232V9.93515H35.0573V25.3563H35.0239ZM10.4704 23.9848H33.6858V11.2732H10.4704V23.9848Z" fill="#376F92"/>
<path d="M14.7188 23.0816H12.7117V14.7187H14.7188V23.0816ZM18.3984 12.0426H16.0568V23.0816H18.3984V12.0426ZM21.7436 16.0568H19.7365V23.0816H21.7436V16.0568ZM25.0888 13.3806H23.0817V23.0816H25.0888V13.3806ZM28.4339 12.0426H26.4268V23.0816H28.4339V12.0426ZM32.1136 14.0497H29.772V23.0816H32.1136V14.0497Z" fill="#78C1D0"/>
<path d="M33.8865 38.1348H10.1358C9.76786 38.1348 9.4668 37.8337 9.4668 37.4658C9.4668 37.0978 9.76786 36.7967 10.1358 36.7967H33.8865C34.2544 36.7967 34.5555 37.0978 34.5555 37.4658C34.5555 37.8337 34.2879 38.1348 33.8865 38.1348ZM25.7577 39.4729C25.7577 39.1049 25.4567 38.8038 25.0887 38.8038H10.1358C9.76786 38.8038 9.4668 39.1049 9.4668 39.4729C9.4668 39.8408 9.76786 40.1419 10.1358 40.1419H25.0887C25.4567 40.1419 25.7577 39.8408 25.7577 39.4729Z" fill="#376F92"/>
<path d="M62.3871 10.7045H39.3055C38.9375 10.7045 38.6365 10.5707 38.6365 10.2027C38.6365 9.83477 38.9375 9.70096 39.3055 9.70096H62.3871C62.7551 9.70096 63.0561 9.83477 63.0561 10.2027C63.0561 10.5707 62.7551 10.7045 62.3871 10.7045ZM63.0561 13.3806C63.0561 13.0127 62.7551 12.7116 62.3871 12.7116H39.3055C38.9375 12.7116 38.6365 13.0127 38.6365 13.3806C38.6365 13.7486 38.9375 14.0497 39.3055 14.0497H62.3871C62.7551 14.0497 63.0561 13.7486 63.0561 13.3806ZM63.0561 16.7258C63.0561 16.3578 62.7551 16.0568 62.3871 16.0568H39.3055C38.9375 16.0568 38.6365 16.3578 38.6365 16.7258C38.6365 17.0938 38.9375 17.3948 39.3055 17.3948H62.3871C62.7551 17.3948 63.0561 17.0938 63.0561 16.7258ZM51.5488 20.071C51.5488 19.703 51.2477 19.4019 50.8798 19.4019H39.339C38.971 19.4019 38.6699 19.703 38.6699 20.071C38.6699 20.4389 38.971 20.74 39.339 20.74H50.8463C51.2477 20.74 51.5488 20.4389 51.5488 20.071Z" fill="#376F92"/>
<path d="M43.1526 40.1419H39.1384V33.7861H43.1526V40.1419ZM49.5084 31.779H46.1632V40.1419H49.5084V31.779ZM56.1987 30.4409H52.1845V40.1419H56.1987V30.4409ZM62.5545 32.448H58.5403V40.1419H62.5545V32.448ZM25.7577 27.7648H9.36646V35.4587H25.7577V27.7648ZM34.7897 27.7648H27.7648V35.4587H34.7897V27.7648Z" fill="white"/>
<path d="M97.9129 26.6944C97.9129 33.1505 92.661 38.4024 86.2049 38.4024C79.7487 38.4024 74.4968 33.1505 74.4968 26.6944C74.4968 20.2048 79.7487 14.9863 86.2049 14.9863C92.661 14.9529 97.9129 20.2048 97.9129 26.6944Z" fill="#78C1D0"/>
<path d="M86.2047 39.0715C79.3806 39.0715 73.7942 33.5185 73.7942 26.6609C73.7942 19.8368 79.3472 14.2504 86.2047 14.2504C93.0289 14.2504 98.6153 19.8034 98.6153 26.6609C98.5818 33.5185 93.0289 39.0715 86.2047 39.0715ZM86.2047 15.6554C80.1165 15.6554 75.1657 20.6062 75.1657 26.6944C75.1657 32.7826 80.1165 37.7334 86.2047 37.7334C92.2929 37.7334 97.2438 32.7826 97.2438 26.6944C97.2438 20.6062 92.2929 15.6554 86.2047 15.6554Z" fill="#376F92"/>
<path d="M95.1698 26.6944C95.1698 31.6452 91.1556 35.6929 86.1713 35.6929C81.2205 35.6929 77.1729 31.6787 77.1729 26.6944C77.1729 21.7436 81.187 17.6959 86.1713 17.6959C91.1556 17.6959 95.1698 21.7101 95.1698 26.6944Z" fill="white"/>
<path d="M86.2049 36.3284C80.8861 36.3284 76.5374 31.9797 76.5374 26.6609C76.5374 21.3421 80.8861 16.9934 86.2049 16.9934C91.5237 16.9934 95.8724 21.3421 95.8724 26.6609C95.8389 32.0132 91.5237 36.3284 86.2049 36.3284ZM86.2049 18.3649C81.622 18.3649 77.9089 22.0781 77.9089 26.6609C77.9089 31.2438 81.622 34.9569 86.2049 34.9569C90.7877 34.9569 94.5009 31.2438 94.5009 26.6609C94.5009 22.1115 90.7543 18.3649 86.2049 18.3649Z" fill="#376F92"/>
<path d="M82.6255 41.6138V62.3203C82.6255 64.3609 84.2981 66 86.3052 66C88.3457 66 89.9848 64.3274 89.9848 62.3203V41.6138H82.6255Z" fill="#376F92"/>
</svg>
