<svg width="100" height="116" viewBox="0 0 100 116" fill="none" xmlns="http://www.w3.org/2000/svg">
<path d="M97.9799 88.8889H2.02026V95.8334C2.02026 98.1945 3.70604 100 5.91052 100H94.0896C96.2941 100 97.9799 98.1945 97.9799 95.8334V88.8889Z" fill="#78C1D0"/>
<path d="M49.9998 74.5058C49.2306 74.5058 48.7178 73.992 48.7178 73.2213V64.2292C48.7178 63.4584 49.2306 62.9446 49.9998 62.9446C50.7691 62.9446 51.2819 63.4584 51.2819 64.2292V73.2213C51.2819 73.8635 50.7691 74.5058 49.9998 74.5058Z" fill="#376F92"/>
<path d="M49.9998 82.2135C49.2306 82.2135 48.7178 81.6996 48.7178 80.9289V77.0751C48.7178 76.3044 49.2306 75.7905 49.9998 75.7905C50.7691 75.7905 51.2819 76.3044 51.2819 77.0751V80.9289C51.2819 81.5712 50.7691 82.2135 49.9998 82.2135Z" fill="#376F92"/>
<path d="M53.8462 55.2373H46.1539L45.7693 56.0081C45.3846 57.0357 45 57.9349 44.8718 59.0911H55C54.8718 58.0634 54.6154 57.0357 54.1026 56.0081L53.8462 55.2373Z" fill="#78C1D0"/>
<path d="M56.4104 61.6601H43.5899C42.8207 61.6601 42.3079 61.1462 42.3079 60.3755V60.247C42.3079 58.4486 42.6925 56.6502 43.4617 54.9802L44.2309 53.4387C44.4873 52.9249 44.872 52.668 45.3848 52.668H54.6155C55.1284 52.668 55.513 52.9249 55.7694 53.4387L56.5386 54.9802C57.3079 56.5217 57.6925 58.4486 57.6925 60.3755C57.6925 61.0178 57.1797 61.6601 56.4104 61.6601ZM45.0002 59.0909H55.1284C55.0002 58.0632 54.7438 57.0356 54.2309 56.0079L53.8463 55.2371H46.154L45.7694 56.0079C45.3848 57.0356 45.1284 58.0632 45.0002 59.0909Z" fill="#376F92"/>
<path d="M53.4614 58.9626H55.128C54.9998 57.9349 54.7434 56.9073 54.2306 55.8796L53.846 55.2373H46.1537L45.7691 56.0081C45.6409 56.1365 45.6409 56.265 45.6409 56.5219H49.9998C51.5383 56.5219 52.9486 57.5496 53.4614 58.9626Z" fill="#91ACC3"/>
<path d="M38.4615 48.8143V40.8499L33.3333 44.3182V48.8143H38.4615Z" fill="#78C1D0"/>
<path d="M55.1282 69.3675C54.359 69.3675 53.8462 68.8537 53.8462 68.0829V64.2292C53.8462 63.4584 54.359 62.9446 55.1282 62.9446C55.8975 62.9446 56.4103 63.4584 56.4103 64.2292V68.0829C56.4103 68.7252 55.8975 69.3675 55.1282 69.3675Z" fill="#376F92"/>
<path d="M44.8716 69.3675C44.1024 69.3675 43.5896 68.8537 43.5896 68.0829V64.2292C43.5896 63.4584 44.1024 62.9446 44.8716 62.9446C45.6409 62.9446 46.1537 63.4584 46.1537 64.2292V68.0829C46.1537 68.7252 45.6409 69.3675 44.8716 69.3675Z" fill="#376F92"/>
<path d="M58.9741 48.8142H41.0254V52.668H58.9741V48.8142Z" fill="#78C1D0"/>
<path d="M66.6668 48.8143V44.3182L61.5386 40.8499V48.8143H66.6668Z" fill="#78C1D0"/>
<path d="M49.9998 37.253C50.7079 37.253 51.2819 36.6779 51.2819 35.9684C51.2819 35.259 50.7079 34.6838 49.9998 34.6838C49.2918 34.6838 48.7178 35.259 48.7178 35.9684C48.7178 36.6779 49.2918 37.253 49.9998 37.253Z" fill="#376F92"/>
<path d="M49.9998 41.1065C50.7079 41.1065 51.2819 40.5314 51.2819 39.8219C51.2819 39.1125 50.7079 38.5374 49.9998 38.5374C49.2918 38.5374 48.7178 39.1125 48.7178 39.8219C48.7178 40.5314 49.2918 41.1065 49.9998 41.1065Z" fill="#376F92"/>
<path d="M49.9998 44.9603C50.7079 44.9603 51.2819 44.3852 51.2819 43.6757C51.2819 42.9662 50.7079 42.3911 49.9998 42.3911C49.2918 42.3911 48.7178 42.9662 48.7178 43.6757C48.7178 44.3852 49.2918 44.9603 49.9998 44.9603Z" fill="#376F92"/>
<path d="M49.1026 2.95464C46.2821 5.78073 44.1026 9.12065 42.8206 12.8459H57.5641C56.2821 9.24911 54.1026 5.78073 51.4103 3.0831C50.6411 2.44081 49.6154 2.44081 49.1026 2.95464Z" fill="#78C1D0"/>
<path d="M53.8459 48.8142V50.0988C53.8459 50.8695 53.3331 51.3834 52.5639 51.3834H41.0254V52.668H58.9741V50.0988V48.8142H53.8459Z" fill="#78C1D0"/>
<path d="M74.3592 48.8142H69.231V52.668H74.3592V48.8142Z" fill="#78C1D0"/>
<path d="M71.7951 48.8142C71.7951 50.2273 70.6412 51.3834 69.231 51.3834V52.668H74.3592V51.3834V48.8142H71.7951Z" fill="#78C1D0"/>
<path d="M62.8206 41.7491L61.5386 40.8499V47.5297V48.8143H62.8206H66.6668V47.5297H64.1027C63.3334 47.5297 62.8206 47.0159 62.8206 46.2451V41.7491Z" fill="#91ACC3"/>
<path d="M35.8974 47.5296C35.1281 47.5296 34.6153 47.0157 34.6153 46.245V43.5474L33.3333 44.4466V48.8142H34.6153H38.4615V47.5296H35.8974Z" fill="#91ACC3"/>
<path d="M51.2817 2.95456C50.6407 2.31227 49.7433 2.31227 49.2305 2.8261C51.2818 5.78065 52.692 9.24903 53.333 12.7174H57.4356C56.0253 9.12057 53.9741 5.78065 51.2817 2.95456Z" fill="#78C1D0"/>
<path d="M50.039 98.0675C51.4551 98.0675 52.6031 96.9173 52.6031 95.4984C52.6031 94.0795 51.4551 92.9292 50.039 92.9292C48.6228 92.9292 47.4749 94.0795 47.4749 95.4984C47.4749 96.9173 48.6228 98.0675 50.039 98.0675Z" fill="#376F92"/>
<path d="M60.2565 80.9289C56.6667 80.9289 53.8462 78.1029 53.8462 74.506C53.8462 73.7353 54.359 73.2214 55.1282 73.2214C55.8975 73.2214 56.4103 73.7353 56.4103 74.506C56.4103 76.6898 58.077 78.3598 60.2565 78.3598C61.0257 78.3598 61.5385 78.8736 61.5385 79.6444C61.5385 80.4151 61.0257 80.9289 60.2565 80.9289Z" fill="#376F92"/>
<path d="M41.1366 102.02V111.111C41.1366 112.172 40.8436 113.232 40.4041 114.141H59.596C59.1565 113.232 58.8635 112.172 58.8635 111.111V102.02H41.1366Z" fill="#78C1D0"/>
<path d="M39.7435 80.9289C38.9742 80.9289 38.4614 80.4151 38.4614 79.6444C38.4614 78.8736 38.9742 78.3598 39.7435 78.3598C41.923 78.3598 43.5896 76.6898 43.5896 74.506C43.5896 73.7353 44.1024 73.2214 44.8717 73.2214C45.6409 73.2214 46.1537 73.7353 46.1537 74.506C46.1537 77.9744 43.3332 80.9289 39.7435 80.9289Z" fill="#376F92"/>
<path d="M93.5897 32.938H83.3333C82.5641 32.938 82.0513 33.4518 82.0513 34.2226C82.0513 34.9933 82.5641 35.5072 83.3333 35.5072H93.5897C95.7692 35.5072 97.4359 37.1771 97.4359 39.3609V86.8906H2.5641V39.3609C2.5641 37.1771 4.23077 35.5072 6.41026 35.5072H16.6667C17.4359 35.5072 17.9487 34.9933 17.9487 34.2226C17.9487 33.4518 17.4359 32.938 16.6667 32.938H6.41026C2.82051 32.938 0 35.7641 0 39.3609V88.1751V95.8827C0 99.4795 2.82051 102.306 6.41026 102.306H39.7436V110.013C39.7436 111.426 38.5897 112.582 37.1795 112.582H32.0513C31.282 112.582 30.7692 113.096 30.7692 113.867C30.7692 114.638 31.282 115.151 32.0513 115.151H37.1795H62.8205H67.9487C68.7179 115.151 69.2308 114.638 69.2308 113.867C69.2308 113.096 68.7179 112.582 67.9487 112.582H62.8205C61.4103 112.582 60.2564 111.426 60.2564 110.013V102.306H93.5897C97.1795 102.306 100 99.4795 100 95.8827V88.1751V39.3609C100 35.7641 97.1795 32.938 93.5897 32.938ZM58.3333 112.582H41.6667C42.0513 111.812 42.3077 110.912 42.3077 110.013V102.306H57.6923V110.013C57.6923 110.912 57.9487 111.812 58.3333 112.582ZM97.4359 95.8827C97.4359 98.0665 95.7692 99.7364 93.5897 99.7364H6.41026C4.23077 99.7364 2.5641 98.0665 2.5641 95.8827V89.4597H97.4359V95.8827Z" fill="#376F92"/>
<path d="M84.6154 77.075C83.5897 77.075 82.6923 77.3319 81.7948 77.7173C81.0256 73.6066 77.3077 70.6521 73.0769 70.6521C68.0769 70.6521 64.1025 74.6343 64.1025 79.6442C64.1025 80.4149 64.6154 80.9288 65.3846 80.9288C66.1538 80.9288 66.6666 80.4149 66.6666 79.6442C66.6666 76.0474 69.4872 73.2213 73.0769 73.2213C76.6666 73.2213 79.4872 76.0474 79.4872 79.6442C78.7179 80.6719 78.2051 82.0849 78.2051 83.498C78.2051 84.2687 78.7179 84.7825 79.4872 84.7825C80.2564 84.7825 80.7692 84.2687 80.7692 83.498C80.7692 81.3142 82.4359 79.6442 84.6154 79.6442C85.3846 79.6442 85.8974 79.1304 85.8974 78.3596C85.8974 77.5889 85.3846 77.075 84.6154 77.075Z" fill="#376F92"/>
<path d="M26.9231 70.6521C22.6923 70.6521 18.9743 73.7351 18.2051 77.7173C17.3077 77.3319 16.4102 77.075 15.3846 77.075C14.6154 77.075 14.1025 77.5889 14.1025 78.3596C14.1025 79.1304 14.6154 79.6442 15.3846 79.6442C17.5641 79.6442 19.2307 81.3142 19.2307 83.498C19.2307 84.2687 19.7436 84.7825 20.5128 84.7825C21.282 84.7825 21.7948 84.2687 21.7948 83.498C21.7948 82.0849 21.282 80.8003 20.5128 79.6442C20.5128 76.0474 23.3333 73.2213 26.9231 73.2213C30.5128 73.2213 33.3333 76.0474 33.3333 79.6442C33.3333 80.4149 33.8461 80.9288 34.6154 80.9288C35.3846 80.9288 35.8974 80.4149 35.8974 79.6442C35.8974 74.6343 31.9231 70.6521 26.9231 70.6521Z" fill="#376F92"/>
<path d="M53.846 46.2451H58.9742V21.838C58.9742 19.6542 58.7178 17.4704 58.205 15.2866H53.7178C53.846 16.1858 53.846 17.085 53.846 17.9843V46.2451Z" fill="#78C1D0"/>
<path d="M30.7693 48.8142H25.6411V52.668H30.7693V48.8142Z" fill="#78C1D0"/>
<path d="M28.2052 48.8142C28.2052 50.2273 27.0514 51.3834 25.6411 51.3834V52.668H30.7693V51.3834V48.8142H28.2052Z" fill="#78C1D0"/>
<path d="M75.3846 33.913C73.4616 31.9862 70.1282 31.9862 68.0769 33.913C67.0513 34.9407 66.5385 36.2253 66.5385 37.5099V41.2352L61.4103 37.7668V21.8379C61.4103 14.002 58.4616 6.67984 52.9487 1.15613C51.4103 -0.385376 48.718 -0.385376 47.1795 1.15613C41.6667 6.67984 38.4616 14.2589 38.4616 22.0949V37.7668L33.3333 41.2352V37.5099C33.3333 36.0968 32.8205 34.8123 31.7949 33.913C29.8718 31.9862 26.5385 31.9862 24.4872 33.913C23.4616 34.9407 22.9487 36.2253 22.9487 37.5099V53.9526C22.9487 54.7233 23.4616 55.2372 24.2308 55.2372H31.9231C32.6923 55.2372 33.2051 54.7233 33.2051 53.9526V51.3834H38.3333V53.9526C38.3333 54.7233 38.8462 55.2372 39.6154 55.2372H60.1282C60.8975 55.2372 61.4103 54.7233 61.4103 53.9526V51.3834H66.5385V53.9526C66.5385 54.7233 67.0513 55.2372 67.8205 55.2372H75.5128C76.2821 55.2372 76.7949 54.7233 76.7949 53.9526V37.5099C76.9231 36.0968 76.4103 34.8123 75.3846 33.913ZM26.4103 35.7115C27.4359 34.6838 29.1026 34.6838 30 35.7115C30.5128 36.2253 30.7692 36.8676 30.7692 37.5099V46.2451H25.641V37.5099C25.641 36.8676 25.8974 36.2253 26.4103 35.7115ZM30.7692 52.668H25.641V48.8142H30.7692V52.668ZM38.4616 48.8142H33.3333V44.3182L38.4616 40.8498V48.8142ZM49.1026 2.95455C49.7436 2.44071 50.641 2.31225 51.2821 2.95455C54.1026 5.78063 56.1539 9.12055 57.4359 12.7174H42.6923C44.1026 9.12055 46.2821 5.78063 49.1026 2.95455ZM58.9744 52.668H41.0257V48.8142H58.9744V52.668ZM58.9744 46.2451H41.0257V22.0949C41.0257 19.7826 41.4103 17.5988 41.9231 15.2866H58.2051C58.718 17.3419 58.9744 19.5257 58.9744 21.8379V46.2451ZM69.2308 37.5099C69.2308 36.8676 69.4872 36.2253 70 35.7115C71.0257 34.6838 72.6923 34.6838 73.5898 35.7115C74.1026 36.2253 74.359 36.8676 74.359 37.5099V46.2451H69.2308V37.5099ZM61.5385 48.8142V40.9783L66.6667 44.4466V48.8142H61.5385ZM69.2308 52.668V48.8142H74.359V52.668H69.2308Z" fill="#376F92"/>
<path d="M49.9999 33.3993C46.4101 33.3993 43.5896 30.5732 43.5896 26.9764C43.5896 23.3796 46.4101 20.5535 49.9999 20.5535C53.5896 20.5535 56.4101 23.3796 56.4101 26.9764C56.4101 30.5732 53.5896 33.3993 49.9999 33.3993ZM49.9999 23.1226C47.8204 23.1226 46.1537 24.7926 46.1537 26.9764C46.1537 29.1602 47.8204 30.8301 49.9999 30.8301C52.1793 30.8301 53.846 29.1602 53.846 26.9764C53.846 24.7926 52.1793 23.1226 49.9999 23.1226Z" fill="#376F92"/>
</svg>
