<svg width="100" height="89" viewBox="0 0 100 89" fill="none" xmlns="http://www.w3.org/2000/svg">
<path d="M44.4606 68.792C25.4541 68.792 10.0044 53.5057 10.0044 34.7001C10.0044 15.8945 25.4541 0.608154 44.4606 0.608154C63.467 0.608154 78.9168 15.8945 78.9168 34.7001C78.9168 53.5057 63.467 68.792 44.4606 68.792ZM44.4606 2.80763C26.6767 2.80763 12.2274 17.1043 12.2274 34.7001C12.2274 52.2959 26.6767 66.5926 44.4606 66.5926C62.2444 66.5926 76.6938 52.2959 76.6938 34.7001C76.6938 17.1043 62.2444 2.80763 44.4606 2.80763Z" fill="#376F92"/>
<path d="M9.22529 54.497C8.78069 54.497 8.44724 54.277 8.22495 53.9471C7.6692 52.9573 7.22461 51.9676 6.78001 50.9778C6.55771 50.4279 6.78001 49.7681 7.33575 49.5482C7.8915 49.3282 8.55839 49.5482 8.78069 50.098C9.22529 51.0878 9.66988 51.9676 10.1145 52.8474C10.4479 53.3972 10.2256 54.0571 9.66988 54.387C9.55873 54.497 9.33644 54.497 9.22529 54.497Z" fill="#376F92"/>
<path d="M17.7848 21.5004C22.0818 21.5004 25.5652 18.0538 25.5652 13.8022C25.5652 9.5506 22.0818 6.104 17.7848 6.104C13.4878 6.104 10.0044 9.5506 10.0044 13.8022C10.0044 18.0538 13.4878 21.5004 17.7848 21.5004Z" fill="#78C1D0"/>
<path d="M17.7834 23.7021C12.226 23.7021 7.78003 19.3031 7.78003 13.8044C7.78003 8.3057 12.226 3.90674 17.7834 3.90674C23.3409 3.90674 27.7868 8.3057 27.7868 13.8044C27.7868 19.3031 23.3409 23.7021 17.7834 23.7021ZM17.7834 6.10622C13.4486 6.10622 10.003 9.51541 10.003 13.8044C10.003 18.0934 13.4486 21.5026 17.7834 21.5026C22.1182 21.5026 25.5639 18.0934 25.5639 13.8044C25.5639 9.51541 22.1182 6.10622 17.7834 6.10622Z" fill="#376F92"/>
<path d="M22.0067 7.42798C22.8959 8.63769 23.3405 10.0674 23.3405 11.607C23.3405 15.896 19.8949 19.3052 15.5601 19.3052C14.004 19.3052 12.5591 18.8653 11.3364 17.9855C12.7814 20.075 15.1155 21.5047 17.7831 21.5047C22.1179 21.5047 25.5635 18.0955 25.5635 13.8065C25.5635 11.1671 24.1186 8.74767 22.0067 7.42798Z" fill="#78C1D0"/>
<path d="M13.3376 14.9063C13.9514 14.9063 14.4491 14.4139 14.4491 13.8065C14.4491 13.1992 13.9514 12.7068 13.3376 12.7068C12.7237 12.7068 12.2261 13.1992 12.2261 13.8065C12.2261 14.4139 12.7237 14.9063 13.3376 14.9063Z" fill="#78C1D0"/>
<path d="M20.0082 12.7036C20.6221 12.7036 21.1197 12.2113 21.1197 11.6039C21.1197 10.9965 20.6221 10.5042 20.0082 10.5042C19.3944 10.5042 18.8967 10.9965 18.8967 11.6039C18.8967 12.2113 19.3944 12.7036 20.0082 12.7036Z" fill="#78C1D0"/>
<path d="M16.1158 10.5079C16.4227 10.5079 16.6715 10.2618 16.6715 9.95807C16.6715 9.65439 16.4227 9.4082 16.1158 9.4082C15.8089 9.4082 15.5601 9.65439 15.5601 9.95807C15.5601 10.2618 15.8089 10.5079 16.1158 10.5079Z" fill="#78C1D0"/>
<path d="M16.1158 17.1051C16.4227 17.1051 16.6715 16.8589 16.6715 16.5552C16.6715 16.2516 16.4227 16.0054 16.1158 16.0054C15.8089 16.0054 15.5601 16.2516 15.5601 16.5552C15.5601 16.8589 15.8089 17.1051 16.1158 17.1051Z" fill="#78C1D0"/>
<path d="M19.4525 9.40662C19.7594 9.40662 20.0082 9.16044 20.0082 8.85675C20.0082 8.55307 19.7594 8.30688 19.4525 8.30688C19.1455 8.30688 18.8967 8.55307 18.8967 8.85675C18.8967 9.16044 19.1455 9.40662 19.4525 9.40662Z" fill="#78C1D0"/>
<path d="M82.2513 35.7985C87.1622 35.7985 91.1432 31.8595 91.1432 27.0006C91.1432 22.1416 87.1622 18.2026 82.2513 18.2026C77.3404 18.2026 73.3594 22.1416 73.3594 27.0006C73.3594 31.8595 77.3404 35.7985 82.2513 35.7985Z" fill="#78C1D0"/>
<path d="M86.6954 19.304C87.4734 20.6236 87.8069 22.0533 87.8069 23.7029C87.8069 28.5418 83.8055 32.5008 78.915 32.5008C77.3589 32.5008 75.8028 32.0609 74.469 31.4011C76.0251 34.0405 78.915 35.8001 82.2494 35.8001C87.14 35.8001 91.1413 31.841 91.1413 27.0021C91.1413 23.7029 89.363 20.8436 86.6954 19.304Z" fill="#78C1D0"/>
<path d="M93.3642 26.123C92.9196 20.4043 88.1402 16.0054 82.2493 16.0054C79.3594 16.0054 76.6918 17.1051 74.6911 18.8647C70.6898 17.9849 65.5769 17.545 64.5766 20.0744C63.6874 22.4938 67.0219 25.3532 71.1344 27.7726C71.579 33.4912 76.3584 38.0002 82.2493 38.0002C85.1391 38.0002 87.8067 36.9004 89.8074 35.1409C91.9192 35.5807 93.8088 35.8007 95.3649 35.8007C96.5875 35.8007 97.5878 35.6907 98.3659 35.3608C99.2551 34.9209 99.6997 34.371 99.8108 33.9311C100.922 31.2918 96.9209 28.3225 93.3642 26.123ZM82.2493 18.2049C87.1398 18.2049 91.1412 22.1639 91.1412 27.0028C91.1412 29.2023 90.3631 31.1818 89.0294 32.7214C86.6952 32.1716 83.9165 31.2918 81.0266 30.192C77.9145 28.9823 75.4692 27.7726 73.3574 26.6729C73.5797 21.944 77.4699 18.2049 82.2493 18.2049ZM66.6884 20.9542C66.7996 20.7343 68.2445 19.9644 73.0239 20.8442C72.1347 22.1639 71.4678 23.7036 71.2455 25.3532C67.9111 23.1537 66.4661 21.5041 66.6884 20.9542ZM82.2493 35.8007C78.1368 35.8007 74.58 32.9414 73.6908 29.2023C76.0249 30.412 78.3591 31.5117 80.2486 32.1716C82.4716 33.0513 84.8057 33.8212 87.0287 34.371C85.5837 35.2508 84.0277 35.8007 82.2493 35.8007ZM97.8101 33.0513C97.8101 33.0513 97.699 33.1613 97.4767 33.2713C96.4763 33.7112 94.3645 33.7112 91.3635 33.1613C92.2527 31.8416 92.9196 30.302 93.1419 28.6524C97.0321 31.1818 97.9213 32.7214 97.8101 33.0513Z" fill="#376F92"/>
<path d="M4.44466 37.9991C5.67238 37.9991 6.66764 37.0143 6.66764 35.7996C6.66764 34.5848 5.67238 33.6001 4.44466 33.6001C3.21694 33.6001 2.22168 34.5848 2.22168 35.7996C2.22168 37.0143 3.21694 37.9991 4.44466 37.9991Z" fill="#78C1D0"/>
<path d="M44.4604 88.5883C43.7935 88.5883 43.3489 88.1484 43.3489 87.4886V79.7904C43.3489 79.1306 43.7935 78.6907 44.4604 78.6907C45.1273 78.6907 45.5719 79.1306 45.5719 79.7904V87.4886C45.5719 88.0385 45.1273 88.5883 44.4604 88.5883Z" fill="#376F92"/>
<path d="M36.6785 69.8937H52.2393V43.5C52.2393 37.4514 49.9052 31.7328 45.5704 27.3338C45.0146 26.7839 44.1254 26.7839 43.6809 27.3338C39.2349 31.6228 36.6785 37.5614 36.6785 43.7199V69.8937Z" fill="white"/>
<path d="M47.7953 72.0933H41.1264L40.7929 72.7531C40.4595 73.6329 40.126 74.4027 40.0149 75.3925H48.7957C48.6845 74.5127 48.4622 73.6329 48.0176 72.7531L47.7953 72.0933Z" fill="#78C1D0"/>
<path d="M50.0169 77.5888H38.902C38.2351 77.5888 37.7905 77.1489 37.7905 76.4891V76.3791C37.7905 74.8395 38.124 73.2998 38.7909 71.8702L39.4578 70.5505C39.6801 70.1106 40.0135 69.8906 40.4581 69.8906H48.4608C48.9054 69.8906 49.2389 70.1106 49.4612 70.5505L50.1281 71.8702C50.7949 73.1898 51.1284 74.8395 51.1284 76.4891C51.1284 77.0389 50.6838 77.5888 50.0169 77.5888ZM40.1247 75.3893H48.9054C48.7943 74.5095 48.572 73.6297 48.1274 72.7499L47.7939 72.0901H41.125L40.7915 72.7499C40.4581 73.6297 40.2358 74.5095 40.1247 75.3893Z" fill="#376F92"/>
<path d="M47.4598 75.2825H48.9047C48.7936 74.4027 48.5713 73.5229 48.1267 72.6431L47.7932 72.0933H41.1243L40.7908 72.7531C40.6797 72.8631 40.6797 72.9731 40.6797 73.193H44.4588C45.7925 73.193 47.0152 74.0728 47.4598 75.2825Z" fill="#78C1D0"/>
<path d="M34.4565 66.5906V59.7722L30.0105 62.7415V66.5906H34.4565Z" fill="#78C1D0"/>
<path d="M48.9064 84.1894C48.2395 84.1894 47.7949 83.7495 47.7949 83.0896V79.7904C47.7949 79.1306 48.2395 78.6907 48.9064 78.6907C49.5733 78.6907 50.0179 79.1306 50.0179 79.7904V83.0896C50.0179 83.6395 49.5733 84.1894 48.9064 84.1894Z" fill="#376F92"/>
<path d="M40.0143 84.1894C39.3474 84.1894 38.9028 83.7495 38.9028 83.0896V79.7904C38.9028 79.1306 39.3474 78.6907 40.0143 78.6907C40.6812 78.6907 41.1258 79.1306 41.1258 79.7904V83.0896C41.1258 83.6395 40.6812 84.1894 40.0143 84.1894Z" fill="#376F92"/>
<path d="M25.5636 78.6879C24.8967 78.6879 24.4521 78.248 24.4521 77.5882V74.2889C24.4521 73.6291 24.8967 73.1892 25.5636 73.1892C26.2305 73.1892 26.6751 73.6291 26.6751 74.2889V77.5882C26.6751 78.138 26.2305 78.6879 25.5636 78.6879Z" fill="#376F92"/>
<path d="M52.2393 66.592H36.6785V69.8913H52.2393V66.592Z" fill="#78C1D0"/>
<path d="M58.9088 66.5906V62.7415L54.4629 59.7722V66.5906H58.9088Z" fill="#78C1D0"/>
<path d="M65.5793 56.9153C65.5793 56.3654 65.357 55.8156 64.9124 55.3757C64.0232 54.4959 62.5782 54.4959 61.8002 55.3757C61.3556 55.8156 61.1333 56.3654 61.1333 56.9153V69.8922H65.5793V56.9153Z" fill="white"/>
<path d="M63.3544 78.6879C62.6875 78.6879 62.2429 78.248 62.2429 77.5882V74.2889C62.2429 73.6291 62.6875 73.1892 63.3544 73.1892C64.0213 73.1892 64.4659 73.6291 64.4659 74.2889V77.5882C64.4659 78.138 64.0213 78.6879 63.3544 78.6879Z" fill="#376F92"/>
<path d="M44.4604 56.6929C45.0742 56.6929 45.5719 56.2005 45.5719 55.5931C45.5719 54.9858 45.0742 54.4934 44.4604 54.4934C43.8465 54.4934 43.3489 54.9858 43.3489 55.5931C43.3489 56.2005 43.8465 56.6929 44.4604 56.6929Z" fill="#376F92"/>
<path d="M44.4604 59.9968C45.0742 59.9968 45.5719 59.5045 45.5719 58.8971C45.5719 58.2897 45.0742 57.7974 44.4604 57.7974C43.8465 57.7974 43.3489 58.2897 43.3489 58.8971C43.3489 59.5045 43.8465 59.9968 44.4604 59.9968Z" fill="#376F92"/>
<path d="M44.4604 63.2954C45.0742 63.2954 45.5719 62.803 45.5719 62.1957C45.5719 61.5883 45.0742 61.0959 44.4604 61.0959C43.8465 61.0959 43.3489 61.5883 43.3489 62.1957C43.3489 62.803 43.8465 63.2954 44.4604 63.2954Z" fill="#376F92"/>
<path d="M25.5636 81.9861C26.1775 81.9861 26.6751 81.4937 26.6751 80.8864C26.6751 80.279 26.1775 79.7866 25.5636 79.7866C24.9498 79.7866 24.4521 80.279 24.4521 80.8864C24.4521 81.4937 24.9498 81.9861 25.5636 81.9861Z" fill="#376F92"/>
<path d="M63.3544 81.9861C63.9683 81.9861 64.4659 81.4937 64.4659 80.8864C64.4659 80.279 63.9683 79.7866 63.3544 79.7866C62.7406 79.7866 62.2429 80.279 62.2429 80.8864C62.2429 81.4937 62.7406 81.9861 63.3544 81.9861Z" fill="#376F92"/>
<path d="M43.6819 27.331C41.2366 29.7504 39.3471 32.6097 38.2356 35.799H51.0177C49.9062 32.7197 48.0167 29.7504 45.6826 27.441C45.0157 26.8911 44.1265 26.8911 43.6819 27.331Z" fill="#78C1D0"/>
<path d="M47.7934 66.592V67.6918C47.7934 68.3516 47.3488 68.7915 46.6819 68.7915H36.6785V69.8913H52.2393V67.6918V66.592H47.7934Z" fill="#78C1D0"/>
<path d="M65.5793 66.592H61.1333V69.8913H65.5793V66.592Z" fill="#78C1D0"/>
<path d="M63.3563 66.592C63.3563 67.8018 62.3559 68.7915 61.1333 68.7915V69.8913H65.5793V68.7915V66.592H63.3563Z" fill="#78C1D0"/>
<path d="M55.5744 60.542L54.4629 59.7722V65.4909V66.5906H55.5744H58.9088V65.4909H56.6859C56.019 65.4909 55.5744 65.051 55.5744 64.3911V60.542Z" fill="#78C1D0"/>
<path d="M32.2335 65.4927C31.5666 65.4927 31.122 65.0528 31.122 64.3929V62.0835L30.0105 62.8533V66.5924H31.122H34.4565V65.4927H32.2335Z" fill="#78C1D0"/>
<path d="M45.5721 27.3326C45.0163 26.7827 44.2383 26.7827 43.7937 27.2226C45.5721 29.752 46.7947 32.7213 47.3505 35.6906H50.9072C49.6846 32.6113 47.9062 29.752 45.5721 27.3326Z" fill="#78C1D0"/>
<path d="M27.786 56.9153C27.786 56.3654 27.5637 55.8156 27.1192 55.3757C26.23 54.4959 24.785 54.4959 24.007 55.3757C23.5624 55.8156 23.3401 56.3654 23.3401 56.9153V69.8922H27.786V56.9153Z" fill="white"/>
<path d="M27.786 66.592H23.3401V69.8913H27.786V66.592Z" fill="#78C1D0"/>
<path d="M25.5631 66.592C25.5631 67.8018 24.5627 68.7915 23.3401 68.7915V69.8913H27.786V68.7915V66.592H25.5631Z" fill="#78C1D0"/>
<path d="M66.467 53.8332C64.7998 52.1836 61.9099 52.1836 60.1315 53.8332C59.2423 54.713 58.7977 55.8127 58.7977 56.9125V60.1017L54.3518 57.1324V43.4956C54.3518 36.7872 51.7953 30.5187 47.0159 25.7898C45.6821 24.4701 43.348 24.4701 42.0142 25.7898C37.2348 30.5187 34.4561 37.0072 34.4561 43.7156V57.1324L30.0101 60.1017V56.9125C30.0101 55.7028 29.5655 54.603 28.6764 53.8332C27.0091 52.1836 24.1193 52.1836 22.3409 53.8332C21.4517 54.713 21.0071 55.8127 21.0071 56.9125V70.9891C21.0071 71.649 21.4517 72.0889 22.1186 72.0889H28.7875C29.4544 72.0889 29.899 71.649 29.899 70.9891V68.7897H34.345V70.9891C34.345 71.649 34.7895 72.0889 35.4564 72.0889H53.2403C53.9072 72.0889 54.3518 71.649 54.3518 70.9891V68.7897H58.7977V70.9891C58.7977 71.649 59.2423 72.0889 59.9092 72.0889H66.5782C67.245 72.0889 67.6896 71.649 67.6896 70.9891V56.9125C67.8008 55.7028 67.3562 54.603 66.467 53.8332ZM24.0081 55.3728C24.8973 54.493 26.3422 54.493 27.1203 55.3728C27.5649 55.8127 27.7872 56.3626 27.7872 56.9125V64.3907H23.3412V56.9125C23.3412 56.3626 23.5635 55.8127 24.0081 55.3728ZM27.7872 69.8894H23.3412V66.5902H27.7872V69.8894ZM34.4561 66.5902H30.0101V62.7411L34.4561 59.7718V66.5902ZM43.6815 27.3295C44.2372 26.8896 45.0153 26.7796 45.571 27.3295C48.0163 29.7489 49.7947 32.6082 50.9061 35.6875H38.124C39.3467 32.6082 41.2362 29.7489 43.6815 27.3295ZM52.2399 69.8894H36.6791V66.5902H52.2399V69.8894ZM52.2399 64.3907H36.6791V43.7156C36.6791 41.7361 37.0125 39.8665 37.4571 37.887H51.573C52.0176 39.6465 52.2399 41.5161 52.2399 43.4956V64.3907ZM61.1319 56.9125C61.1319 56.3626 61.3541 55.8127 61.7987 55.3728C62.6879 54.493 64.1329 54.493 64.9109 55.3728C65.3555 55.8127 65.5778 56.3626 65.5778 56.9125V64.3907H61.1319V56.9125ZM54.4629 66.5902V59.8818L58.9089 62.8511V66.5902H54.4629ZM61.1319 69.8894V66.5902H65.5778V69.8894H61.1319Z" fill="#376F92"/>
<path d="M44.4603 53.3975C41.3481 53.3975 38.9028 50.9781 38.9028 47.8988C38.9028 44.8196 41.3481 42.4001 44.4603 42.4001C47.5724 42.4001 50.0177 44.8196 50.0177 47.8988C50.0177 50.9781 47.5724 53.3975 44.4603 53.3975ZM44.4603 44.5996C42.5707 44.5996 41.1258 46.0293 41.1258 47.8988C41.1258 49.7684 42.5707 51.1981 44.4603 51.1981C46.3498 51.1981 47.7947 49.7684 47.7947 47.8988C47.7947 46.0293 46.3498 44.5996 44.4603 44.5996Z" fill="#376F92"/>
<path d="M8.89192 35.8015C8.89192 33.3821 6.89124 31.4026 4.44596 31.4026C2.00068 31.4026 0 33.3821 0 35.8015C0 38.001 1.66723 39.7606 3.77906 40.0905C4.00136 42.0701 4.44596 44.0496 5.0017 45.9192C5.11285 46.2491 5.224 46.689 5.33515 47.0189C5.4463 47.4588 5.89089 47.7887 6.44664 47.7887C6.55779 47.7887 6.66894 47.7887 6.78009 47.7887C7.33583 47.5688 7.66928 47.0189 7.44698 46.3591C7.33583 46.0291 7.22468 45.6992 7.11353 45.2593C6.55779 43.4997 6.22434 41.6302 6.00204 39.7606C7.66928 39.3207 8.89192 37.6711 8.89192 35.8015ZM4.44596 38.001C3.22332 38.001 2.22298 37.0113 2.22298 35.8015C2.22298 34.5918 3.22332 33.6021 4.44596 33.6021C5.6686 33.6021 6.66894 34.5918 6.66894 35.8015C6.66894 37.0113 5.6686 38.001 4.44596 38.001Z" fill="#376F92"/>
</svg>
