<svg width="100" height="101" viewBox="0 0 100 101" fill="none" xmlns="http://www.w3.org/2000/svg">
<path d="M57.5885 25.8521H42.2939V33.5323H57.5885V25.8521Z" fill="#78C1D0"/>
<path d="M90.3633 44.9741H67.4214V55.6325H90.3633V44.9741Z" fill="#78C1D0"/>
<path d="M32.4619 54.2219H9.52002V64.8803H32.4619V54.2219Z" fill="#78C1D0"/>
<path d="M67.5775 5.16235H32.4624V21.9336H67.5775V5.16235Z" fill="#78C1D0"/>
<path d="M5.77503 68.7986L1.09302 77.8895H40.7341L36.2081 68.7986H5.77503Z" fill="#78C1D0"/>
<path d="M94.1082 59.5508H63.6751L59.1492 68.7984H98.7902L94.1082 59.5508Z" fill="#78C1D0"/>
<path d="M98.7905 92.153H86.1491C85.6808 89.0182 83.1838 86.6671 80.2185 86.1969V70.0527H98.9466C99.4148 70.0527 99.7269 69.8959 99.883 69.5825C100.039 69.269 100.039 68.7987 99.883 68.4853L95.357 59.5511V41.2125C95.357 40.5855 94.8888 40.1153 94.2645 40.1153H63.6754C63.0511 40.1153 62.5829 40.5855 62.5829 41.2125V59.3944L58.057 68.3285C57.9009 68.642 57.9009 69.1122 58.057 69.4257C58.213 69.7392 58.6812 69.8959 58.9934 69.8959H77.7214V86.0402C74.6001 86.5104 72.2591 89.0182 71.7909 91.9963H57.1206C56.6524 88.8615 54.1553 86.5104 51.19 86.0402V34.6294H65.2361C65.8603 34.6294 66.3285 34.1592 66.3285 33.5323C66.3285 32.9053 65.8603 32.4351 65.2361 32.4351H34.6469C34.0226 32.4351 33.5544 32.9053 33.5544 33.5323C33.5544 34.1592 34.0226 34.6294 34.6469 34.6294H48.6929V86.0402C45.5716 86.5104 43.2306 89.0182 42.7624 91.9963H28.0921C27.6239 88.8615 25.1268 86.5104 22.1615 86.0402V78.9869H40.8896C41.3578 78.9869 41.6699 78.8301 41.826 78.5166C41.9821 78.2031 41.9821 77.7329 41.826 77.4195L37.3 68.4853V50.3034C37.3 49.6765 36.8318 49.2063 36.2076 49.2063H5.77448C5.15022 49.2063 4.68201 49.6765 4.68201 50.3034V68.4853L0.156067 77.4195C0 77.7329 0 78.2031 0.156067 78.5166C0.312134 78.8301 0.780336 78.9869 1.09247 78.9869H19.8205V86.0402C16.6992 86.5104 14.3582 89.0182 13.89 91.9963H1.09247C0.468201 91.9963 0 92.4665 0 93.0935C0 93.7204 0.468201 94.1906 1.09247 94.1906H13.7339C14.3582 97.6389 17.3235 100.304 20.913 100.304C24.5025 100.304 27.4678 97.6389 28.0921 94.1906H42.7624C43.3867 97.6389 46.3519 100.304 49.9415 100.304C53.531 100.304 56.4963 97.6389 57.1206 94.1906H71.7909C72.4151 97.6389 75.3804 100.304 78.97 100.304C82.5595 100.304 85.5248 97.6389 86.1491 94.1906H98.7905C99.4148 94.1906 99.883 93.7204 99.883 93.0935C99.883 92.6232 99.4148 92.153 98.7905 92.153ZM6.86695 51.5574H35.1151V67.7016H6.86695V51.5574ZM2.96528 76.7925L6.39875 69.8959H35.4272L38.8607 76.7925H2.96528ZM20.913 98.2659C18.1038 98.2659 15.9188 96.0715 15.9188 93.2502C15.9188 90.4289 18.1038 88.2345 20.913 88.2345C23.7222 88.2345 25.9071 90.4289 25.9071 93.2502C25.9071 95.9148 23.7222 98.2659 20.913 98.2659ZM49.9415 98.2659C47.1323 98.2659 44.9473 96.0715 44.9473 93.2502C44.9473 90.4289 47.1323 88.2345 49.9415 88.2345C52.7507 88.2345 54.9356 90.4289 54.9356 93.2502C54.9356 95.9148 52.7507 98.2659 49.9415 98.2659ZM64.7679 42.3097H93.016V58.4539H64.7679V42.3097ZM60.8662 67.5448L64.2997 60.6483H93.3281L96.7616 67.5448H60.8662ZM78.97 98.2659C76.1608 98.2659 73.9758 96.0715 73.9758 93.2502C73.9758 90.4289 76.1608 88.2345 78.97 88.2345C81.7792 88.2345 83.9641 90.4289 83.9641 93.2502C83.808 95.9148 81.6231 98.2659 78.97 98.2659Z" fill="#376F92"/>
<path d="M28.5605 26.9493H71.3229C71.9471 26.9493 72.4153 26.4791 72.4153 25.8521V1.40067C72.4153 0.773706 71.9471 0.303467 71.3229 0.303467H28.5605C27.9362 0.303467 27.468 0.773706 27.468 1.40067V25.8521C27.468 26.4791 27.9362 26.9493 28.5605 26.9493ZM29.809 2.49784H70.2304V24.7549H29.809V2.49784Z" fill="#376F92"/>
<path d="M39.9528 12.8429C39.7967 12.9996 39.6406 13.3131 39.6406 13.6266C39.6406 13.9401 39.7967 14.2536 39.9528 14.4103C40.1088 14.567 40.421 14.7238 40.7331 14.7238C41.0452 14.7238 41.3574 14.567 41.5134 14.4103C41.6695 14.2536 41.8256 13.9401 41.8256 13.6266C41.8256 13.3131 41.6695 12.9996 41.5134 12.8429C41.2013 12.3727 40.421 12.3727 39.9528 12.8429Z" fill="#376F92"/>
<path d="M49.9413 12.5293C49.3171 12.5293 48.8489 12.9995 48.8489 13.6265C48.8489 14.2534 49.3171 14.7237 49.9413 14.7237C50.5656 14.7237 51.0338 14.2534 51.0338 13.6265C51.0338 12.9995 50.5656 12.5293 49.9413 12.5293Z" fill="#376F92"/>
<path d="M58.2135 12.8429C58.0574 12.9996 57.9014 13.3131 57.9014 13.6266C57.9014 13.9401 58.0574 14.2536 58.2135 14.4103C58.3696 14.567 58.6817 14.7238 58.9938 14.7238C59.306 14.7238 59.6181 14.567 59.7742 14.4103C59.9302 14.2536 60.0863 13.9401 60.0863 13.6266C60.0863 13.3131 59.9302 12.9996 59.7742 12.8429C59.462 12.3727 58.6817 12.3727 58.2135 12.8429Z" fill="#376F92"/>
</svg>
