<svg width="65" height="66" viewBox="0 0 65 66" fill="none" xmlns="http://www.w3.org/2000/svg">
<path d="M63.5164 31.6961C63.5164 49.0188 49.4845 63.0508 32.1618 63.0508C14.8391 63.0508 0.807129 49.0188 0.807129 31.6961C0.807129 14.3735 14.8391 0.341479 32.1618 0.341479C49.4534 0.341479 63.5164 14.3735 63.5164 31.6961Z" fill="white"/>
<path d="M64.3547 32.1928C64.3547 23.9351 61.2503 16.143 55.6002 10.1515L55.1035 9.62371L54.731 9.22013C48.6773 3.25964 40.699 0 32.1929 0C23.842 0 15.9567 3.16651 9.93415 8.97178L9.5306 9.34431L9.0339 9.84101C3.53907 15.5221 0.403598 22.8796 0.0621112 30.7338H0V32.0066H0.0310745C0.0310745 32.0687 0.0310745 32.1308 0.0310745 32.1618C0.0310745 40.4817 3.19758 48.3358 8.90971 54.3584L9.40641 54.8551L9.81 55.2587C15.8326 61.1261 23.7799 64.3547 32.1929 64.3547C40.7611 64.3547 48.7705 61.0329 54.8551 54.9793L55.2277 54.5757L55.7244 54.048C61.3123 48.1185 64.3547 40.3575 64.3547 32.1928ZM63.1129 32.1928C63.1129 40.1091 60.1327 47.5908 54.731 53.334C54.6689 53.2719 54.5758 53.2408 54.5137 53.1787C54.017 52.8062 53.4892 52.4647 52.9615 52.1543C52.8994 52.1232 52.8683 52.0922 52.8062 52.0611C52.2164 51.6886 51.6265 51.3471 51.0057 51.0056C50.9125 50.9436 50.8194 50.9125 50.7262 50.8504C49.4845 50.1674 48.1806 49.5776 46.8457 49.0499C46.8147 49.0499 46.8147 49.0188 46.7836 49.0188C49.0499 44.2691 50.1675 38.8053 50.1675 32.5964C50.1675 32.3791 50.1674 32.1928 50.1364 31.9755H63.0508C63.1129 32.0687 63.1129 32.1308 63.1129 32.1928ZM11.0207 54.3584C11.238 54.2032 11.4553 54.048 11.6416 53.9238C11.7968 53.7996 11.952 53.7065 12.1072 53.5823C12.3246 53.4271 12.5419 53.3029 12.7902 53.1477C12.9455 53.0546 13.1007 52.9614 13.2559 52.8373C13.5043 52.682 13.7526 52.5579 14.001 52.4026C14.1562 52.3095 14.2803 52.2474 14.4356 52.1543C14.746 51.968 15.0565 51.8128 15.398 51.6576C15.4911 51.6265 15.5532 51.5644 15.6463 51.5334C16.0499 51.3471 16.4534 51.1298 16.857 50.9436C17.0122 50.8815 17.1675 50.8194 17.3227 50.7262C17.571 50.6021 17.8504 50.5089 18.0988 50.3848C18.2851 50.3227 18.4713 50.2295 18.6576 50.1674C18.8439 50.1054 19.0301 50.0122 19.2164 49.9501C21.9483 54.8862 25.8288 59.3565 30.7338 63.0197C23.2521 62.6783 16.2672 59.667 10.8655 54.4826C10.8965 54.4515 10.9586 54.4205 11.0207 54.3584ZM34.0866 47.6839C34.2418 47.6839 34.366 47.715 34.5212 47.715C34.8937 47.746 35.2973 47.746 35.6698 47.777C35.825 47.777 35.9803 47.8081 36.1044 47.8081C36.477 47.8391 36.8495 47.8702 37.222 47.9323C37.3462 47.9323 37.4704 47.9633 37.6256 47.9944C38.0292 48.0564 38.4327 48.0875 38.8053 48.1496C38.8984 48.1806 39.0226 48.1806 39.1157 48.2117C39.5503 48.2738 39.985 48.3669 40.3885 48.46C40.4506 48.46 40.5127 48.4911 40.5748 48.4911C41.0405 48.5842 41.5061 48.7084 42.0028 48.8015C42.0339 48.8015 42.0339 48.8015 42.0649 48.8015C43.0583 49.0499 44.0518 49.3603 45.0452 49.7018C42.2822 54.8551 38.0602 59.0461 32.4102 62.2436C32.3791 62.2436 32.2549 62.2436 32.0997 62.2436V47.6529C32.2239 47.6529 32.3791 47.6529 32.5033 47.6529C33.0311 47.6529 33.5588 47.6839 34.0866 47.6839ZM20.5513 49.5155C20.8307 49.4224 21.1101 49.3293 21.4205 49.2361C21.5757 49.2051 21.6999 49.143 21.8551 49.1119C22.1345 49.0188 22.4139 48.9567 22.7244 48.8636C22.8796 48.8326 23.0348 48.7705 23.19 48.7394C23.4694 48.6773 23.7488 48.6152 24.0593 48.5221C24.2145 48.4911 24.3697 48.46 24.5249 48.429C24.8043 48.3669 25.1148 48.3048 25.3942 48.2427C25.5494 48.2117 25.7046 48.1806 25.8598 48.1496C26.1703 48.0875 26.4497 48.0564 26.7601 47.9944C26.9154 47.9633 27.0395 47.9633 27.1948 47.9323C27.5052 47.9012 27.8156 47.8391 28.1571 47.8081H28.1882C28.9643 47.715 29.7093 47.6839 30.4854 47.6218C30.6096 47.6218 30.7338 47.6218 30.858 47.5908V61.4986C26.4497 58.0837 22.9417 53.9859 20.4271 49.4845C20.4271 49.5466 20.4892 49.5466 20.5513 49.5155ZM30.8269 30.7648H15.9567C16.2361 25.7046 17.571 20.6444 19.8062 15.9878C19.8683 16.0188 19.9304 16.0188 19.9925 16.0499C20.2098 16.143 20.4271 16.2051 20.6444 16.2982C20.8928 16.3913 21.1722 16.4845 21.4205 16.5466C21.6378 16.6087 21.8552 16.7018 22.0725 16.7639C22.3519 16.857 22.6002 16.9191 22.8796 16.9812C23.0969 17.0433 23.3142 17.1054 23.5315 17.1674C23.8109 17.2295 24.0593 17.2916 24.3387 17.3537C24.556 17.4158 24.7733 17.4468 24.9906 17.5089C25.27 17.571 25.5494 17.6021 25.8288 17.6642C26.0461 17.6952 26.2634 17.7573 26.4807 17.7883C26.7601 17.8504 27.0706 17.8815 27.35 17.9125C27.5673 17.9436 27.7536 17.9746 27.9709 18.0056C28.2813 18.0367 28.5917 18.0677 28.8711 18.0988C29.0574 18.1298 29.2747 18.1298 29.461 18.1609C29.8025 18.1919 30.144 18.1919 30.4854 18.223C30.6096 18.223 30.7027 18.254 30.8269 18.254V30.7648ZM30.8269 32.0066V46.4421C30.3613 46.4732 29.8646 46.5042 29.3989 46.5353C29.0574 46.5663 28.7469 46.5974 28.4055 46.6284C28.2502 46.6595 28.064 46.6595 27.9088 46.6905C27.5673 46.7215 27.2258 46.7836 26.8843 46.8147C26.7291 46.8457 26.6049 46.8457 26.4497 46.8768C26.0772 46.9389 25.7357 47.0009 25.3631 47.063C25.239 47.0941 25.1458 47.0941 25.0217 47.1251C24.6491 47.1872 24.2766 47.2803 23.904 47.3424C23.8109 47.3735 23.7488 47.3735 23.6557 47.4045C23.2521 47.4976 22.8485 47.5908 22.476 47.6839C22.4139 47.6839 22.3829 47.715 22.3208 47.715C21.8862 47.8391 21.4826 47.9323 21.048 48.0564C20.6134 48.1806 20.1788 48.3358 19.7441 48.46C17.2296 43.555 15.8636 38.1533 15.8636 32.6275C15.8636 32.4102 15.8636 32.2239 15.8947 32.0066H30.8269ZM46.2248 50.1674C46.9389 50.4468 47.6529 50.7573 48.3669 51.0677C48.3979 51.0677 48.3979 51.0988 48.429 51.0988C49.143 51.4092 49.826 51.7817 50.4779 52.1543C51.1298 52.4958 51.7507 52.8993 52.3716 53.2719C52.4337 53.3029 52.4958 53.334 52.5268 53.365C52.9614 53.6444 53.365 53.9548 53.7996 54.2342C48.3048 59.6359 41.1336 62.7404 33.4657 63.0508C39.2089 59.7601 43.4309 55.445 46.2248 50.1674ZM54.6068 10.8965C59.7601 16.3293 62.7404 23.3142 63.0819 30.7648H50.1675C49.9502 25.0527 48.7705 19.8993 46.6284 15.429C46.7216 15.3979 46.8147 15.3358 46.9389 15.3048C47.1562 15.2117 47.3735 15.1185 47.5598 15.0254C47.8081 14.9012 48.0565 14.8081 48.3048 14.6839C48.5221 14.5908 48.7084 14.4666 48.9257 14.3735C49.1741 14.2493 49.4224 14.1251 49.6397 14.0009C49.857 13.9078 50.0433 13.7836 50.2606 13.6595C50.5089 13.5353 50.7263 13.4111 50.9746 13.2559C51.1919 13.1317 51.3782 13.0075 51.5645 12.8833C51.8128 12.7281 52.0301 12.6039 52.2785 12.4487C52.4647 12.3246 52.682 12.2004 52.8683 12.0762C53.0856 11.921 53.334 11.7658 53.5513 11.6105C53.7375 11.4864 53.9548 11.3311 54.1411 11.207C54.2963 11.1138 54.4516 11.0207 54.6068 10.8965ZM53.7065 9.99623C53.5823 10.0894 53.4892 10.1515 53.365 10.2446C53.1787 10.3688 52.9925 10.524 52.7752 10.6482C52.5578 10.8034 52.3405 10.9276 52.1232 11.0828C51.937 11.207 51.7197 11.3311 51.5334 11.4553C51.3161 11.5795 51.0988 11.7347 50.8504 11.8589C50.6642 11.9831 50.4469 12.1072 50.2606 12.2004C50.0433 12.3246 49.7949 12.4487 49.5776 12.5729C49.3914 12.666 49.174 12.7902 48.9878 12.8833C48.7705 13.0075 48.5221 13.1317 48.2738 13.2248C48.0875 13.318 47.8702 13.4111 47.6839 13.5042C47.4356 13.6284 47.2183 13.7215 46.9699 13.8457C46.7836 13.9389 46.5663 14.032 46.3801 14.1251C46.2559 14.1872 46.1628 14.2182 46.0386 14.2493C43.2136 8.8476 38.9605 4.47037 33.3725 1.27281C41.0404 1.58325 48.1806 4.62559 53.7065 9.99623ZM32.0997 2.23518C32.2239 2.20414 32.3481 2.20414 32.4412 2.17309C37.936 5.24647 42.096 9.46848 44.89 14.715C44.7037 14.777 44.5174 14.8391 44.3312 14.9323C44.1138 14.9944 43.9276 15.0875 43.7103 15.1496C43.4619 15.2427 43.2136 15.3048 42.9652 15.3979C42.7789 15.46 42.5616 15.5221 42.3443 15.5842C42.096 15.6463 41.8166 15.7394 41.5682 15.8015C41.3509 15.8636 41.1646 15.9257 40.9473 15.9567C40.699 16.0188 40.4196 16.0809 40.1712 16.143C39.985 16.174 39.7676 16.2361 39.5814 16.2672C39.302 16.3293 39.0536 16.3603 38.7742 16.4224C38.588 16.4534 38.3706 16.4845 38.1844 16.5466C37.905 16.5776 37.6256 16.6397 37.3462 16.6707C37.1599 16.7018 36.9737 16.7328 36.7564 16.7639C36.477 16.7949 36.1665 16.826 35.8871 16.857C35.7009 16.8881 35.5146 16.8881 35.3283 16.9191C35.0179 16.9501 34.7075 16.9501 34.366 16.9812C34.2107 16.9812 34.0555 17.0122 33.9003 17.0122C33.4346 17.0433 32.9379 17.0433 32.4723 17.0433C32.3481 17.0433 32.1929 17.0433 32.0687 17.0433V2.23518H32.0997ZM32.0997 18.254C32.2239 18.254 32.3791 18.254 32.5033 18.254C33 18.254 33.4967 18.254 33.9934 18.223C34.1486 18.223 34.3039 18.1919 34.4591 18.1919C34.8006 18.1609 35.1421 18.1609 35.4525 18.1298C35.6388 18.0988 35.8251 18.0988 36.0424 18.0677C36.3528 18.0367 36.6322 18.0056 36.9426 17.9746C37.1599 17.9436 37.3462 17.9125 37.5635 17.8815C37.8429 17.8504 38.1223 17.8194 38.4017 17.7573C38.619 17.7262 38.8363 17.6642 39.0536 17.6331C39.333 17.571 39.6124 17.54 39.8608 17.4779C40.0781 17.4468 40.2954 17.3848 40.5127 17.3227C40.7921 17.2606 41.0405 17.1985 41.3199 17.1364C41.5372 17.0743 41.7545 17.0122 41.9718 16.9501C42.2201 16.8881 42.4995 16.826 42.7479 16.7328C42.9652 16.6707 43.1825 16.6087 43.3998 16.5466C43.6482 16.4534 43.9276 16.3913 44.1759 16.2982C44.3932 16.2361 44.6105 16.143 44.8279 16.0809C45.0452 15.9878 45.2625 15.9257 45.4798 15.8325C47.5597 20.1787 48.7084 25.1458 48.9257 30.7027H32.0997V18.254ZM32.0997 32.0066H48.9567C48.9567 32.2239 48.9878 32.4102 48.9878 32.6275C48.9878 38.65 47.8702 43.9896 45.635 48.5842C45.5419 48.5531 45.4487 48.5221 45.3867 48.4911C45.0141 48.3669 44.6416 48.2427 44.2691 48.1185C44.1139 48.0875 43.9897 48.0254 43.8344 47.9944C43.4619 47.9012 43.0894 47.777 42.7479 47.6839C42.5927 47.6529 42.4375 47.5908 42.2822 47.5597C41.9097 47.4666 41.5682 47.3735 41.1957 47.3114C41.0405 47.2803 40.8542 47.2493 40.699 47.2182C40.3575 47.1562 39.985 47.0941 39.6435 47.032C39.4572 47.0009 39.2709 46.9699 39.1157 46.9389C38.7742 46.8768 38.4017 46.8457 38.0602 46.7836C37.874 46.7526 37.6877 46.7215 37.5014 46.7215C37.1599 46.6905 36.7874 46.6595 36.4459 46.5974C36.2596 46.5663 36.0734 46.5663 35.8871 46.5353C35.5146 46.5042 35.111 46.4732 34.7385 46.4732C34.5833 46.4732 34.397 46.4421 34.2418 46.4421C33.683 46.4111 33.1552 46.4111 32.5964 46.4111C32.4722 46.4111 32.317 46.4111 32.1929 46.4111V32.0066H32.0997ZM30.8269 16.9501C30.7338 16.9501 30.6406 16.9501 30.5475 16.9191C30.2371 16.8881 29.8956 16.8881 29.5851 16.857C29.3989 16.826 29.1816 16.826 28.9953 16.7949C28.7159 16.7639 28.4365 16.7328 28.1261 16.7018C27.9088 16.6707 27.7225 16.6397 27.5052 16.6087C27.2258 16.5776 26.9774 16.5466 26.698 16.4845C26.4807 16.4534 26.2634 16.3913 26.0461 16.3603C25.7977 16.2982 25.5184 16.2672 25.27 16.2051C25.0527 16.174 24.8354 16.1119 24.6181 16.0499C24.3697 15.9878 24.1214 15.9257 23.842 15.8636C23.6247 15.8015 23.4074 15.7394 23.19 15.6773C22.9417 15.6152 22.6933 15.5531 22.445 15.46C22.2277 15.3979 22.0104 15.3358 21.7931 15.2427C21.5447 15.1496 21.2963 15.0875 21.048 14.9944C20.8307 14.9323 20.6134 14.8391 20.3961 14.746C20.365 14.746 20.365 14.746 20.334 14.715C22.9106 9.74788 26.4497 5.3396 30.7648 1.98683V16.9501H30.8269ZM29.7404 1.36595C25.3942 4.81185 21.8241 9.34431 19.2164 14.3735C19.1853 14.3424 19.1232 14.3424 19.0922 14.3114C18.8438 14.2182 18.6266 14.1251 18.3782 14.0009C18.1609 13.9078 17.9436 13.8147 17.7263 13.7215C17.4779 13.6284 17.2606 13.5042 17.0122 13.3801C16.7949 13.2869 16.5776 13.1627 16.3914 13.0696C16.174 12.9454 15.9257 12.8213 15.7084 12.7281C15.4911 12.604 15.2738 12.5108 15.0875 12.3866C14.8702 12.2625 14.6529 12.1383 14.4045 12.0141C14.1872 11.8899 14.0009 11.7658 13.7836 11.6416C13.5663 11.5174 13.349 11.3622 13.1317 11.238C12.9144 11.1138 12.7281 10.9586 12.5108 10.8344C12.2935 10.6792 12.0762 10.555 11.8589 10.3998C11.6726 10.2756 11.4553 10.1204 11.2691 9.96519C11.1449 9.87206 11.0518 9.80997 10.9276 9.71684C16.112 4.8429 22.6933 1.92474 29.7404 1.36595ZM10.0273 10.6171C10.1825 10.7413 10.3377 10.8344 10.493 10.9586C10.6792 11.1138 10.8965 11.238 11.0828 11.3932C11.3312 11.5484 11.5484 11.7037 11.7968 11.8589C11.9831 11.9831 12.2004 12.1383 12.3866 12.2625C12.635 12.4177 12.8523 12.5729 13.1007 12.6971C13.318 12.8213 13.5043 12.9454 13.7216 13.0696C13.9699 13.2248 14.2182 13.349 14.4356 13.4732C14.6529 13.5974 14.8391 13.7215 15.0564 13.8147C15.3048 13.9389 15.5532 14.063 15.8015 14.1872C16.0188 14.2803 16.2361 14.4045 16.4224 14.4976C16.6707 14.6218 16.9191 14.746 17.1675 14.8391C17.3848 14.9323 17.6021 15.0254 17.8194 15.1185C18.0677 15.2427 18.3161 15.3358 18.5645 15.429C18.5955 15.429 18.5955 15.46 18.6265 15.46C16.3293 20.2408 14.9633 25.4873 14.6839 30.7027H1.30388C1.64537 23.159 4.71874 16.0809 10.0273 10.6171ZM1.27284 32.0066H14.6529C14.6529 32.2239 14.6529 32.4102 14.6529 32.6275C14.6529 38.3086 16.0188 43.8344 18.5955 48.8636C17.8504 49.143 17.1054 49.4534 16.3914 49.7949C16.3603 49.826 16.2982 49.826 16.2672 49.857C15.9567 49.9812 15.6773 50.1364 15.3669 50.2916C15.2427 50.3537 15.1185 50.4158 15.0254 50.4779C14.7771 50.6021 14.4977 50.7573 14.2493 50.8815C14.0941 50.9746 13.9389 51.0677 13.7526 51.1609C13.5353 51.285 13.287 51.4092 13.0696 51.5334C12.7902 51.6886 12.5108 51.8749 12.2625 52.0301C12.0762 52.1543 11.89 52.2785 11.7037 52.3716C11.3932 52.5579 11.1138 52.7752 10.8034 52.9614C10.6792 53.0546 10.524 53.1477 10.3998 53.2408C10.2446 53.365 10.0583 53.4581 9.90311 53.5823C4.3462 47.777 1.27284 40.2023 1.27284 32.1618C1.27284 32.1308 1.27284 32.0687 1.27284 32.0066Z" fill="#78C1D0"/>
<path d="M54.8551 57.1834H54.1721H53.4891V55.5381C55.507 54.3584 56.873 52.1543 56.873 49.6707C56.873 45.9144 53.8306 42.841 50.0743 42.841C46.3179 42.841 43.2445 45.8833 43.2445 49.6707C43.2445 52.4026 44.8588 54.762 47.1871 55.8485V57.2145H47.063C45.3866 57.2145 43.7412 57.587 42.6857 58.3321C42.2201 56.4073 40.3574 54.6999 37.222 54.6999H36.4459H35.8871V52.0922C38.8052 50.6952 40.8231 47.7149 40.8231 44.269C40.8231 39.4882 36.9426 35.6077 32.1618 35.6077C27.381 35.6077 23.5004 39.4882 23.5004 44.269C23.5004 47.4355 25.2079 50.1985 27.7224 51.6886V54.6688H27.5051C24.4007 54.6688 21.6688 56.2831 20.9859 58.3321C20.0545 57.618 18.7196 57.1834 17.1984 57.1834H16.5155L16.3913 57.2766V55.7243C18.6265 54.6068 20.1476 52.3095 20.1476 49.6397C20.1476 45.8833 17.1053 42.81 13.3179 42.81C9.56156 42.81 6.48819 45.8523 6.48819 49.6397C6.48819 52.4647 8.22666 54.8862 10.6792 55.9417V57.1834H10.2135H9.37531C6.58133 57.1834 3.78735 58.1768 3.78735 60.3499V65.2239C3.78735 65.9689 4.7497 66 4.96701 66C4.96701 66 55.8485 66 56.8419 65.9068C59.0771 65.6895 59.2013 65.8758 59.2013 65.2239V60.3499C59.1702 58.9219 58.4252 57.1834 54.8551 57.1834Z" fill="#376F92"/>
<path d="M52.2473 58.7046V56.0348C51.5644 56.2521 50.8193 56.4073 50.0742 56.4073C49.5154 56.4073 48.9877 56.3452 48.46 56.2211V57.556L51.1918 59.5738L52.2473 58.7046Z" fill="#F2F2F2"/>
<path d="M54.8552 58.3942H54.6379L53.5203 59.3255L52.8994 59.8532L52.2785 60.381L51.2541 61.2192L48.4911 59.1703L47.8703 58.7046L47.5288 58.4562H47.2494H47.1252C45.0452 58.4562 42.8411 59.1392 42.8411 60.381V64.7582H43.8966C51.192 64.7582 56.3143 64.6651 57.9596 64.634V60.3499C57.8975 59.4186 57.556 58.3942 54.8552 58.3942Z" fill="#78C1D0"/>
<path d="M34.6144 56.0969V52.4958C33.8383 52.7441 33.0001 52.8683 32.1309 52.8683C31.0133 52.8683 29.9268 52.651 28.9333 52.2474V54.9483L32.6276 57.7112L34.6144 56.0969Z" fill="#F2F2F2"/>
<path d="M15.0874 58.27V56.19C14.5286 56.3452 13.9077 56.4384 13.2869 56.4384C12.8212 56.4384 12.3555 56.3763 11.9209 56.3142V58.4563L13.4731 59.6049L15.0874 58.27Z" fill="#F2F2F2"/>
<path d="M20.7687 59.9464C20.2409 59.0461 18.8129 58.3942 17.1365 58.3942H16.9192L16.3604 58.8598L15.7396 59.3876L15.1187 59.9153L13.5354 61.2192L11.9521 60.0395L11.3312 59.5738L10.7104 59.1082L9.81011 58.4252H9.37549C7.23344 58.4252 5.0293 59.1392 5.0293 60.3499V64.7272H20.7687H20.955C20.955 63.7958 20.986 62.0263 20.986 60.7535C20.986 60.4431 20.8929 60.1637 20.7687 59.9464Z" fill="#78C1D0"/>
<path d="M37.2219 55.8796H36.8804L35.856 56.7178L35.2351 57.2455L34.6142 57.7733L32.6584 59.3565L28.9331 56.5626L28.3122 56.0969L28.0328 55.9106H27.6603H27.443C24.7111 55.9106 22.0103 57.587 22.0103 59.2634V59.6359V64.8514H22.1965L25.3009 64.7272C33.9312 64.7272 39.7676 64.8203 41.5371 64.7893V60.35V59.2944C41.5371 57.556 40.0469 55.8796 37.2219 55.8796Z" fill="#F2F2F2"/>
<path d="M50.0743 44.0517C47.0009 44.0517 44.5173 46.5353 44.5173 49.6087C44.5173 51.8128 45.8212 53.7375 47.6839 54.6378C48.3979 54.9793 49.205 55.1656 50.0432 55.1656C50.8814 55.1656 51.6886 54.9793 52.4026 54.6378C54.2652 53.7375 55.5691 51.8438 55.5691 49.6087C55.6001 46.5353 53.1166 44.0517 50.0743 44.0517Z" fill="#F2F2F2"/>
<path d="M13.3179 44.0517C10.2445 44.0517 7.76099 46.5353 7.76099 49.6087C7.76099 51.8128 9.06487 53.7375 10.9275 54.6378C11.6415 54.9793 12.4487 55.1656 13.2869 55.1656C14.1251 55.1656 14.9322 54.9793 15.6462 54.6378C17.5089 53.7375 18.8128 51.8438 18.8128 49.6087C18.8438 46.5353 16.3602 44.0517 13.3179 44.0517Z" fill="#F2F2F2"/>
<path d="M32.1307 36.7874C28.0329 36.7874 24.7112 40.1091 24.7112 44.207C24.7112 47.0941 26.3875 49.6087 28.84 50.8194C29.3988 51.0988 29.9887 51.3161 30.6406 51.4403C31.1373 51.5334 31.634 51.5955 32.1307 51.5955C32.6585 51.5955 33.1552 51.5334 33.6209 51.4403C34.2417 51.3161 34.8626 51.0988 35.4214 50.8194C37.8429 49.6087 39.5503 47.0941 39.5503 44.207C39.5192 40.1091 36.1975 36.7874 32.1307 36.7874Z" fill="#F2F2F2"/>
</svg>
