<svg width="100" height="89" viewBox="0 0 100 89" fill="none" xmlns="http://www.w3.org/2000/svg">
<path fill-rule="evenodd" clip-rule="evenodd" d="M79.5066 74.0174L96.8751 83.8619V42.7637L79.5066 52.608V74.0174Z" fill="#78C1D0"/>
<path fill-rule="evenodd" clip-rule="evenodd" d="M72.9574 41.5227H6.54902C4.66094 41.5227 3.125 43.0586 3.125 44.9467V81.6784C3.125 83.5663 4.66094 85.1022 6.54902 85.1022L72.9574 85.1024C74.8455 85.1024 76.3814 83.5665 76.3814 81.6786V74.8989C76.3814 74.8987 76.3814 74.8985 76.3814 74.8983V51.727C76.3814 51.7268 76.3814 51.7266 76.3814 51.7264V44.9467C76.3814 43.0586 74.8455 41.5227 72.9574 41.5227ZM22.7309 76.0079H11.1586C10.2957 76.0079 9.59609 75.3083 9.59609 74.4454C9.59609 73.5825 10.2957 72.8829 11.1586 72.8829H22.7309C23.5938 72.8829 24.2934 73.5825 24.2934 74.4454C24.2934 75.3083 23.5939 76.0079 22.7309 76.0079ZM22.7309 64.8751H11.1586C10.2957 64.8751 9.59609 64.1754 9.59609 63.3126C9.59609 62.4497 10.2957 61.7501 11.1586 61.7501H22.7309C23.5938 61.7501 24.2934 62.4497 24.2934 63.3126C24.2934 64.1754 23.5939 64.8751 22.7309 64.8751ZM22.7309 53.7422H11.1586C10.2957 53.7422 9.59609 53.0426 9.59609 52.1797C9.59609 51.3168 10.2957 50.6172 11.1586 50.6172H22.7309C23.5938 50.6172 24.2934 51.3168 24.2934 52.1797C24.2934 53.0426 23.5939 53.7422 22.7309 53.7422ZM68.7943 66.1143C68.7943 66.9772 68.0947 67.6768 67.2318 67.6768H36.582C35.7191 67.6768 35.0195 66.9772 35.0195 66.1143V51.3975C35.0195 50.5346 35.7191 49.835 36.582 49.835H67.2318C68.0947 49.835 68.7943 50.5346 68.7943 51.3975V66.1143Z" fill="#78C1D0"/>
<path fill-rule="evenodd" clip-rule="evenodd" d="M72.9573 41.5227H51.9067V49.835H67.2317C68.0946 49.835 68.7942 50.5346 68.7942 51.3975V66.1143C68.7942 66.9772 68.0946 67.6768 67.2317 67.6768H51.9069V85.1022H72.9575C74.8456 85.1022 76.3815 83.5663 76.3815 81.6784V74.8987C76.3815 74.8985 76.3815 74.8983 76.3815 74.8981V51.727C76.3815 51.7268 76.3815 51.7266 76.3815 51.7264V44.9467C76.3813 43.0586 74.8454 41.5227 72.9573 41.5227Z" fill="#78C1D0"/>
<path fill-rule="evenodd" clip-rule="evenodd" d="M67.2316 49.835H36.5818C35.7189 49.835 35.0193 50.5346 35.0193 51.3975V66.1143C35.0193 66.9772 35.7189 67.6768 36.5818 67.6768H67.2316C68.0945 67.6768 68.7941 66.9772 68.7941 66.1143V51.3975C68.7941 50.5346 68.0947 49.835 67.2316 49.835ZM65.6691 64.5518H38.1443V52.96H65.6691V64.5518Z" fill="#376F92"/>
<path fill-rule="evenodd" clip-rule="evenodd" d="M22.7307 50.6172H11.1584C10.2956 50.6172 9.59595 51.3168 9.59595 52.1797C9.59595 53.0426 10.2956 53.7422 11.1584 53.7422H22.7307C23.5936 53.7422 24.2932 53.0426 24.2932 52.1797C24.2932 51.3168 23.5938 50.6172 22.7307 50.6172Z" fill="#376F92"/>
<path fill-rule="evenodd" clip-rule="evenodd" d="M99.224 38.8636C98.7437 38.5837 98.1508 38.5802 97.667 38.8542L79.5064 49.1474V45.0785C79.5064 41.4673 76.5686 38.5294 72.9574 38.5294H63.6775C70.6771 35.407 75.5686 28.3824 75.5686 20.2361C75.5686 9.19722 66.5879 0.216553 55.549 0.216553C45.3734 0.216553 36.9465 7.8478 35.691 17.6876C32.9334 13.4019 28.1248 10.5552 22.6607 10.5552C14.1209 10.5552 7.17324 17.5029 7.17324 26.0427C7.17324 31.1626 9.67207 35.7082 13.5125 38.5294H6.54902C2.93789 38.5294 0 41.4673 0 45.0783V81.8099C0 85.4209 2.93789 88.3588 6.54902 88.3588H72.9574C76.5686 88.3588 79.5064 85.4209 79.5064 81.8099V77.741L97.667 88.0341C97.9061 88.1695 98.1717 88.2373 98.4375 88.2373C98.7094 88.2373 98.9812 88.1664 99.224 88.0248C99.7045 87.7449 100 87.2308 100 86.6748V40.2136C100 39.6576 99.7045 39.1435 99.224 38.8636ZM55.549 3.34155C64.8646 3.34155 72.4436 10.9205 72.4436 20.2361C72.4436 29.5519 64.8646 37.1306 55.549 37.1306C46.2334 37.1306 38.6545 29.5517 38.6545 20.2361C38.6545 10.9205 46.2334 3.34155 55.549 3.34155ZM37.7703 29.4318C39.8576 33.4509 43.2678 36.6769 47.4205 38.5294H31.809C34.776 36.3498 36.9389 33.1402 37.7703 29.4318ZM10.2982 26.0427C10.2982 19.2259 15.8441 13.6802 22.6607 13.6802C29.4773 13.6802 35.0232 19.2261 35.0232 26.0427C35.0232 32.8593 29.4773 38.4052 22.6607 38.4052C15.8441 38.4052 10.2982 32.8595 10.2982 26.0427ZM76.3814 51.8582V51.8587V75.0298V75.0304V81.8101C76.3814 83.698 74.8455 85.2339 72.9574 85.2339L6.54902 85.2341C4.66094 85.2341 3.125 83.6982 3.125 81.8103V45.0785C3.125 43.1904 4.66094 41.6544 6.54902 41.6544H72.9574C74.8455 41.6544 76.3814 43.1904 76.3814 45.0785V51.8582ZM96.875 83.9935L79.5064 74.149V52.7396L96.875 42.8953V83.9935Z" fill="#376F92"/>
<path fill-rule="evenodd" clip-rule="evenodd" d="M22.7307 61.75H11.1584C10.2956 61.75 9.59595 62.4496 9.59595 63.3125C9.59595 64.1754 10.2956 64.875 11.1584 64.875H22.7307C23.5936 64.875 24.2932 64.1754 24.2932 63.3125C24.2932 62.4496 23.5938 61.75 22.7307 61.75Z" fill="#376F92"/>
<path fill-rule="evenodd" clip-rule="evenodd" d="M22.7307 72.8828H11.1584C10.2956 72.8828 9.59595 73.5824 9.59595 74.4453C9.59595 75.3082 10.2956 76.0078 11.1584 76.0078H22.7307C23.5936 76.0078 24.2932 75.3082 24.2932 74.4453C24.2932 73.5824 23.5938 72.8828 22.7307 72.8828Z" fill="#376F92"/>
<path fill-rule="evenodd" clip-rule="evenodd" d="M46.7546 21.6668C47.6175 21.6668 48.3171 20.9672 48.3171 20.1043C48.3171 16.1167 51.5615 12.8723 55.5492 12.8723C59.5369 12.8723 62.7812 16.1167 62.7812 20.1043C62.7812 24.092 59.5369 27.3364 55.5492 27.3364C54.6863 27.3364 53.9867 28.036 53.9867 28.8989C53.9867 29.7618 54.6863 30.4614 55.5492 30.4614C61.2601 30.4614 65.9062 25.8151 65.9062 20.1043C65.9062 14.3936 61.2599 9.74731 55.5492 9.74731C49.8384 9.74731 45.1921 14.3936 45.1921 20.1043C45.1921 20.9672 45.8916 21.6668 46.7546 21.6668Z" fill="#376F92"/>
<path fill-rule="evenodd" clip-rule="evenodd" d="M15.3838 27.4735C16.2467 27.4735 16.9463 26.7739 16.9463 25.911C16.9463 22.76 19.5098 20.1965 22.6607 20.1965C25.8117 20.1965 28.3754 22.76 28.3754 25.911C28.3754 29.062 25.8119 31.6256 22.6607 31.6256C21.7979 31.6256 21.0982 32.3252 21.0982 33.1881C21.0982 34.051 21.7979 34.7506 22.6607 34.7506C27.535 34.7506 31.5004 30.7852 31.5004 25.911C31.5004 21.0368 27.535 17.0715 22.6607 17.0715C17.7867 17.0715 13.8213 21.037 13.8213 25.911C13.8213 26.7739 14.5209 27.4735 15.3838 27.4735Z" fill="#376F92"/>
</svg>
